<?xml version="1.0" encoding="UTF-8" standalone="no"?>
<!-- Generator: Adobe Illustrator 16.0.0, SVG Export Plug-In . SVG Version: 6.00 Build 0)  -->

<svg
   xmlns:dc="http://purl.org/dc/elements/1.1/"
   xmlns:cc="http://creativecommons.org/ns#"
   xmlns:rdf="http://www.w3.org/1999/02/22-rdf-syntax-ns#"
   xmlns:svg="http://www.w3.org/2000/svg"
   xmlns="http://www.w3.org/2000/svg"
   xmlns:sodipodi="http://sodipodi.sourceforge.net/DTD/sodipodi-0.dtd"
   xmlns:inkscape="http://www.inkscape.org/namespaces/inkscape"
   version="1.1"
   id="Layer_1"
   x="0px"
   y="0px"
   width="1075.208"
   height="1073.531"
   viewBox="0 0 1075.208 1073.531"
   enable-background="new 0 0 5500 3500"
   xml:space="preserve"
   sodipodi:docname="ship helm.svg"
   inkscape:version="0.92.2 (5c3e80d, 2017-08-06)"><metadata
     id="metadata125"><rdf:RDF><cc:Work
         rdf:about=""><dc:format>image/svg+xml</dc:format><dc:type
           rdf:resource="http://purl.org/dc/dcmitype/StillImage" /><dc:title></dc:title></cc:Work></rdf:RDF></metadata><defs
     id="defs123" /><sodipodi:namedview
     pagecolor="#ffffff"
     bordercolor="#666666"
     borderopacity="1"
     objecttolerance="10"
     gridtolerance="10"
     guidetolerance="10"
     inkscape:pageopacity="0"
     inkscape:pageshadow="2"
     inkscape:window-width="1533"
     inkscape:window-height="844"
     id="namedview121"
     showgrid="false"
     fit-margin-top="0"
     fit-margin-left="0"
     fit-margin-right="0"
     fit-margin-bottom="0"
     inkscape:zoom="0.2"
     inkscape:cx="1026.2636"
     inkscape:cy="699.0764"
     inkscape:window-x="67"
     inkscape:window-y="28"
     inkscape:window-maximized="1"
     inkscape:current-layer="Layer_1" /><g
     id="g118"
     transform="translate(-2212.792,-1214.0129)"><circle
       stroke-miterlimit="10"
       cx="2746.6509"
       cy="1750.267"
       r="335.362"
       id="circle2"
       style="fill:none;stroke:#7f0c03;stroke-width:60;stroke-miterlimit:10" /><circle
       stroke-miterlimit="10"
       cx="2753.7471"
       cy="1756.361"
       r="119.149"
       id="circle4"
       style="fill:none;stroke:#bf1008;stroke-width:60;stroke-miterlimit:10" /><circle
       stroke-miterlimit="10"
       cx="2749.6609"
       cy="1749.507"
       r="426.12201"
       id="circle6"
       style="fill:none;stroke:#7f0c03;stroke-width:60;stroke-miterlimit:10" /><path
       d="m 2900.944,1783.739 c -167.743,2.747 -303.973,-10.226 -304.28,-28.979 -0.307,-18.753 135.425,-36.188 303.167,-38.936 167.738,-2.752 303.971,10.224 304.278,28.978 0.308,18.753 -135.423,36.187 -303.165,38.937 z"
       id="path8"
       inkscape:connector-curvature="0"
       style="fill:#a34b04" /><ellipse
       transform="matrix(-0.9999,0.0133,-0.0133,-0.9999,5527.8125,3170.8843)"
       cx="2753.386"
       cy="1603.782"
       rx="33.962002"
       ry="303.76401"
       id="ellipse10"
       style="fill:#a34b04" /><path
       d="m 2609.445,1791.744 c -167.764,0.285 -303.789,-14.686 -303.82,-33.442 -0.034,-18.756 135.939,-34.196 303.704,-34.483 167.762,-0.289 303.789,14.685 303.82,33.441 0.033,18.754 -135.94,34.195 -303.704,34.484 z"
       id="path12"
       inkscape:connector-curvature="0"
       style="fill:#a34b04" /><ellipse
       transform="matrix(0.9999,-0.0115,0.0115,0.9999,-21.7373,31.7944)"
       cx="2753.387"
       cy="1905.781"
       rx="33.963001"
       ry="303.763"
       id="ellipse14"
       style="fill:#a34b04" /><ellipse
       transform="matrix(-0.8408,0.5413,-0.5413,-0.8408,5789.3975,1553.1129)"
       cx="2666.3479"
       cy="1627.7581"
       rx="33.962002"
       ry="303.763"
       id="ellipse16"
       style="fill:#a34b04" /><path
       d="m 2855.029,1865.499 c 90.561,141.223 151.178,263.91 135.39,274.036 -15.788,10.126 -102.005,-96.147 -192.567,-237.369 -90.563,-141.216 -151.18,-263.908 -135.39,-274.033 15.787,-10.125 102.004,96.146 192.567,237.366 z"
       id="path18"
       inkscape:connector-curvature="0"
       style="fill:#a34b04" /><ellipse
       transform="matrix(-0.4824,0.8759,-0.8759,-0.4824,5349.1372,201.5905)"
       cx="2615.012"
       cy="1681.1169"
       rx="33.962002"
       ry="303.763"
       id="ellipse20"
       style="fill:#a34b04" /><path
       d="m 2894.025,1800.587 c 146.807,81.196 258.458,160.322 249.38,176.734 -9.075,16.414 -135.446,-36.1 -282.254,-117.294 -146.806,-81.19 -258.459,-160.32 -249.381,-176.734 9.078,-16.411 135.448,36.1 282.255,117.294 z"
       id="path22"
       inkscape:connector-curvature="0"
       style="fill:#a34b04" /><ellipse
       transform="matrix(-0.5048,-0.8632,0.8632,-0.5048,2881.8604,5012.5342)"
       cx="2878.6541"
       cy="1679.675"
       rx="33.962002"
       ry="303.763"
       id="ellipse24"
       style="fill:#a34b04" /><path
       d="m 2633.051,1858.004 c -144.971,84.431 -270.141,139.739 -279.582,123.531 -9.44,-16.207 100.428,-97.794 245.397,-182.228 144.964,-84.433 270.14,-139.739 279.579,-123.531 9.44,16.206 -100.425,97.794 -245.394,182.228 z"
       id="path26"
       inkscape:connector-curvature="0"
       style="fill:#a34b04" /><ellipse
       transform="matrix(-0.8545,-0.5195,0.5195,-0.8545,4398.8682,4484.4448)"
       cx="2827.542"
       cy="1626.101"
       rx="33.962002"
       ry="303.763"
       id="ellipse28"
       style="fill:#a34b04" /><path
       d="m 2696.234,1899.743 c -87.408,143.195 -171.242,251.356 -187.251,241.584 -16.011,-9.771 41.866,-133.777 129.272,-276.973 87.402,-143.194 171.24,-251.357 187.25,-241.585 16.009,9.772 -41.864,133.778 -129.271,276.974 z"
       id="path30"
       inkscape:connector-curvature="0"
       style="fill:#a34b04" /><circle
       stroke-miterlimit="10"
       cx="2756.313"
       cy="1757.158"
       r="54.990002"
       id="circle32"
       style="fill:#2b0106;stroke:#750803;stroke-width:60;stroke-miterlimit:10" /><linearGradient
       id="SVGID_1_"
       gradientUnits="userSpaceOnUse"
       x1="2274"
       y1="1510"
       x2="2358"
       y2="1510"><stop
         offset="0.8011"
         style="stop-color:#AA3805"
         id="stop34" /><stop
         offset="0.8011"
         style="stop-color:#8C2A03"
         id="stop36" /></linearGradient><circle
       cx="2316"
       cy="1510"
       r="42"
       id="circle39"
       style="fill:url(#SVGID_1_)" /><linearGradient
       id="SVGID_2_"
       gradientUnits="userSpaceOnUse"
       x1="3204"
       y1="1742"
       x2="3288"
       y2="1742"><stop
         offset="0.8011"
         style="stop-color:#AA3805"
         id="stop41" /><stop
         offset="0.8011"
         style="stop-color:#8C2A03"
         id="stop43" /></linearGradient><circle
       cx="3246"
       cy="1742"
       r="42"
       id="circle46"
       style="fill:url(#SVGID_2_)" /><linearGradient
       id="SVGID_3_"
       gradientUnits="userSpaceOnUse"
       x1="2964"
       y1="1332"
       x2="3048"
       y2="1332"><stop
         offset="0.8011"
         style="stop-color:#AA3805"
         id="stop48" /><stop
         offset="0.8011"
         style="stop-color:#8C2A03"
         id="stop50" /></linearGradient><circle
       cx="3006"
       cy="1332"
       r="42"
       id="circle53"
       style="fill:url(#SVGID_3_)" /><linearGradient
       id="SVGID_4_"
       gradientUnits="userSpaceOnUse"
       x1="3134"
       y1="1512"
       x2="3218"
       y2="1512"><stop
         offset="0.8011"
         style="stop-color:#AA3805"
         id="stop55" /><stop
         offset="0.8011"
         style="stop-color:#8C2A03"
         id="stop57" /></linearGradient><circle
       cx="3176"
       cy="1512"
       r="42"
       id="circle60"
       style="fill:url(#SVGID_4_)" /><linearGradient
       id="SVGID_5_"
       gradientUnits="userSpaceOnUse"
       x1="2367.9766"
       y1="1862.0527"
       x2="2451.9756"
       y2="1862.0527"
       gradientTransform="matrix(-0.9995,-0.0328,0.0328,-0.9995,4602.3701,3703.3013)"><stop
         offset="0.8011"
         style="stop-color:#AA3805"
         id="stop62" /><stop
         offset="0.8011"
         style="stop-color:#8C2A03"
         id="stop64" /></linearGradient><circle
       cx="2254.792"
       cy="1763.173"
       r="42"
       id="circle67"
       style="fill:url(#SVGID_5_)" /><linearGradient
       id="SVGID_6_"
       gradientUnits="userSpaceOnUse"
       x1="2128.3047"
       y1="1462.0469"
       x2="2212.3047"
       y2="1462.0469"
       gradientTransform="matrix(-0.9995,-0.0328,0.0328,-0.9995,4602.3701,3703.3013)"><stop
         offset="0.8011"
         style="stop-color:#AA3805"
         id="stop69" /><stop
         offset="0.8011"
         style="stop-color:#8C2A03"
         id="stop71" /></linearGradient><circle
       cx="2481.209"
       cy="2170.8279"
       r="42"
       id="circle74"
       style="fill:url(#SVGID_6_)" /><linearGradient
       id="SVGID_7_"
       gradientUnits="userSpaceOnUse"
       x1="2297.9761"
       y1="1632.0522"
       x2="2381.9771"
       y2="1632.0522"
       gradientTransform="matrix(-0.9995,-0.0328,0.0328,-0.9995,4602.3701,3703.3013)"><stop
         offset="0.8011"
         style="stop-color:#AA3805"
         id="stop76" /><stop
         offset="0.8011"
         style="stop-color:#8C2A03"
         id="stop78" /></linearGradient><circle
       cx="2317.207"
       cy="1995.347"
       r="42.000999"
       id="circle81"
       style="fill:url(#SVGID_7_)" /><linearGradient
       id="SVGID_8_"
       gradientUnits="userSpaceOnUse"
       x1="2764.3213"
       y1="1590.7334"
       x2="2848.3203"
       y2="1590.7334"
       gradientTransform="matrix(-0.1679,0.9858,-0.9858,-0.1679,4800.1636,-253.7578)"><stop
         offset="0.8011"
         style="stop-color:#AA3805"
         id="stop83" /><stop
         offset="0.8011"
         style="stop-color:#8C2A03"
         id="stop85" /></linearGradient><circle
       cx="2760.7119"
       cy="2245.5439"
       r="42"
       id="circle88"
       style="fill:url(#SVGID_8_)" /><linearGradient
       id="SVGID_9_"
       gradientUnits="userSpaceOnUse"
       x1="2449.1445"
       y1="1223.8784"
       x2="2533.144"
       y2="1223.8784"
       gradientTransform="matrix(-0.1679,0.9858,-0.9858,-0.1679,4800.1636,-253.7578)"><stop
         offset="0.8011"
         style="stop-color:#AA3805"
         id="stop90" /><stop
         offset="0.8011"
         style="stop-color:#8C2A03"
         id="stop92" /></linearGradient><circle
       cx="3175.2891"
       cy="1996.4561"
       r="42"
       id="circle95"
       style="fill:url(#SVGID_9_)" /><linearGradient
       id="SVGID_10_"
       gradientUnits="userSpaceOnUse"
       x1="2651.2363"
       y1="1357.9287"
       x2="2735.2378"
       y2="1357.9287"
       gradientTransform="matrix(-0.1679,0.9858,-0.9858,-0.1679,4800.1636,-253.7578)"><stop
         offset="0.8011"
         style="stop-color:#AA3805"
         id="stop97" /><stop
         offset="0.8011"
         style="stop-color:#8C2A03"
         id="stop99" /></linearGradient><circle
       cx="3009.2019"
       cy="2173.166"
       r="42"
       id="circle102"
       style="fill:url(#SVGID_10_)" /><linearGradient
       id="SVGID_11_"
       gradientUnits="userSpaceOnUse"
       x1="2183.3833"
       y1="650.84473"
       x2="2267.3833"
       y2="650.84473"
       gradientTransform="matrix(0.4776,0.8786,-0.8786,0.4776,2254.115,-1009.9849)"><stop
         offset="0.8011"
         style="stop-color:#AA3805"
         id="stop104" /><stop
         offset="0.8011"
         style="stop-color:#8C2A03"
         id="stop106" /></linearGradient><circle
       cx="2745.228"
       cy="1256.0129"
       r="42"
       id="circle109"
       style="fill:url(#SVGID_11_)" /><linearGradient
       id="SVGID_12_"
       gradientUnits="userSpaceOnUse"
       x1="2482.2822"
       y1="2704.3496"
       x2="2566.2803"
       y2="2704.3496"
       gradientTransform="matrix(-0.4485,-0.8938,0.8938,-0.4485,1198.7935,4802.2905)"><stop
         offset="0.8011"
         style="stop-color:#AA3805"
         id="stop111" /><stop
         offset="0.8011"
         style="stop-color:#8C2A03"
         id="stop113" /></linearGradient><circle
       cx="2483.5649"
       cy="1333.161"
       r="41.999001"
       id="circle116"
       style="fill:url(#SVGID_12_)" /></g></svg>