<?xml version="1.0" encoding="utf-8"?>
<!-- Generator: Adobe Illustrator 16.0.0, SVG Export Plug-In . SVG Version: 6.00 Build 0)  -->
<!DOCTYPE svg PUBLIC "-//W3C//DTD SVG 1.1//EN" "http://www.w3.org/Graphics/SVG/1.1/DTD/svg11.dtd">
<svg version="1.1" id="Layer_1" xmlns="http://www.w3.org/2000/svg" xmlns:xlink="http://www.w3.org/1999/xlink" x="0px" y="0px"
	 width="5500px" height="3500px" viewBox="0 0 5500 3500" enable-background="new 0 0 5500 3500" xml:space="preserve">
<g opacity="0.8">
	<path opacity="0.7" fill="#EEF403" enable-background="new    " d="M1481.031,973.288c0,0-21.508-100.479,0.693-121.623
		c22.2-21.146-96.957,73.43-96.957,73.43"/>
	<path opacity="0.7" fill="#EFC803" enable-background="new    " d="M1503.719,972.554c0,0-6.978-99.976,18.164-120.261
		c25.143-20.286-106.503,58.734-106.503,58.734"/>
	<path fill="#D5E503" d="M1501.121,929.797"/>
	<path opacity="0.7" fill="#EFC803" enable-background="new    " d="M1493.738,950.686c0,0-21.508,100.479,0.693,121.623
		c22.199,21.145-96.957-73.431-96.957-73.431"/>
	<path opacity="0.7" fill="#EEF403" enable-background="new    " d="M1516.426,951.418c0,0-6.978,99.977,18.164,120.262
		c25.143,20.286-106.503-58.733-106.503-58.733"/>
	<path fill="#D5E503" d="M1749.084,858.268"/>
	<path opacity="0.7" fill="#E0AB05" enable-background="new    " d="M1552.328,944.906c0,0,96.27-35.047,88.248-83.696
		s12.754,120.954,12.754,120.954"/>
	<path opacity="0.7" fill="#E0AB05" enable-background="new    " d="M1552.328,967.121c0,0,102.213,9.854,88.248,83.697
		c-13.967,73.844,12.754-120.955,12.754-120.955"/>
	<path opacity="0.7" fill="#EADB21" enable-background="new    " d="M1553.129,936.344c0,0,85.021,4.953,113.453-43.83
		c28.432-48.782-34.221,116.713-34.221,116.713"/>
	<path opacity="0.7" fill="#EADB21" enable-background="new    " d="M1561.337,992.824c0,0,72.698-6.076,98.097,35.083
		c25.397,41.159-31.822-99.202-31.822-99.202"/>
	
		<linearGradient id="SVGID_1_" gradientUnits="userSpaceOnUse" x1="-872.6655" y1="3930.6484" x2="-872.6655" y2="4048.1113" gradientTransform="matrix(1 0 0 -1 2354 4946)">
		<stop  offset="0" style="stop-color:#EADB21"/>
		<stop  offset="0.5" style="stop-color:#EADB21"/>
		<stop  offset="0.5" style="stop-color:#FFF32A"/>
		<stop  offset="1" style="stop-color:#FFF32A"/>
	</linearGradient>
	<path fill="url(#SVGID_1_)" d="M1633.67,956.621c0,0-68.203,58.73-152.335,58.73S1329,956.621,1329,956.621
		s68.203-58.732,152.335-58.732S1633.67,956.621,1633.67,956.621z"/>
	<ellipse fill="#FCFCFC" cx="1390.527" cy="940.547" rx="11.146" ry="10.724"/>
	<path fill="#FFFFFF" stroke="#FCFCFC" stroke-miterlimit="10" d="M1414.547,909.486c0,0,4.475,19.759,4.465,44.13
		c-0.008,24.372-4.494,44.128-4.494,44.128"/>
	<ellipse fill="#1B1464" cx="1390.486" cy="943.055" rx="7.845" ry="7.547"/>
	<ellipse fill="#FCFCFC" cx="1396.242" cy="945.129" rx="5.714" ry="5.496"/>
</g>
<g>
	<path opacity="0.7" fill="#EEF403" enable-background="new    " d="M1743.509,1264.77c0,0-46.476-217.116,1.497-262.804
		s-209.504,158.667-209.504,158.667"/>
	<path opacity="0.7" fill="#EFC803" enable-background="new    " d="M1792.533,1263.182c0,0-15.078-216.026,39.248-259.858
		c54.326-43.834-230.133,126.914-230.133,126.914"/>
	<path fill="#D5E503" d="M1786.919,1170.793"/>
	<path opacity="0.7" fill="#EFC803" enable-background="new    " d="M1770.966,1215.928c0,0-46.475,217.115,1.497,262.803
		c47.973,45.688-209.504-158.666-209.504-158.666"/>
	<path opacity="0.7" fill="#EEF403" enable-background="new    " d="M1819.99,1217.512c0,0-15.078,216.029,39.248,259.861
		c54.326,43.834-230.133-126.913-230.133-126.913"/>
	<path opacity="0.7" fill="#E0AB05" enable-background="new    " d="M1897.568,1203.441c0,0,208.016-75.729,190.684-180.852
		s27.561,261.356,27.561,261.356"/>
	<path opacity="0.7" fill="#E0AB05" enable-background="new    " d="M1897.568,1251.443c0,0,220.861,21.291,190.684,180.853
		c-30.177,159.563,27.561-261.358,27.561-261.358"/>
	<path opacity="0.7" fill="#EADB21" enable-background="new    " d="M1899.297,1184.939c0,0,183.717,10.702,245.149-94.709
		c61.432-105.41-73.944,252.19-73.944,252.19"/>
	<path opacity="0.7" fill="#EADB21" enable-background="new    " d="M1917.033,1306.982c0,0,157.086-13.129,211.965,75.807
		c54.881,88.938-68.762-214.355-68.762-214.355"/>
	
		<linearGradient id="SVGID_2_" gradientUnits="userSpaceOnUse" x1="-609.8354" y1="3590.3379" x2="-609.8354" y2="3844.1543" gradientTransform="matrix(1 0 0 -1 2354 4946)">
		<stop  offset="0" style="stop-color:#EADB21"/>
		<stop  offset="0.5" style="stop-color:#EADB21"/>
		<stop  offset="0.5" style="stop-color:#FFF32A"/>
		<stop  offset="1" style="stop-color:#FFF32A"/>
	</linearGradient>
	<path fill="url(#SVGID_2_)" d="M2073.33,1228.755c0,0-147.372,126.907-329.165,126.907S1415,1228.755,1415,1228.755
		s147.372-126.909,329.165-126.909S2073.33,1228.755,2073.33,1228.755z"/>
	<ellipse fill="#FCFCFC" cx="1547.95" cy="1194.021" rx="24.085" ry="23.172"/>
	<path fill="#FFFFFF" stroke="#FCFCFC" stroke-miterlimit="10" d="M1599.85,1126.906c0,0,9.668,42.694,9.648,95.354
		c-0.018,52.663-9.712,95.353-9.712,95.353"/>
	<ellipse fill="#1B1464" cx="1547.859" cy="1199.44" rx="16.951" ry="16.308"/>
	<path fill="#FCFCFC" d="M1572.645,1203.922c0,6.559-5.528,11.877-12.348,11.877c-6.818,0-12.347-5.318-12.347-11.877
		c0-6.563,5.528-11.879,12.347-11.879C1567.116,1192.043,1572.645,1197.359,1572.645,1203.922z"/>
</g>
<g opacity="0.8">
	<path opacity="0.7" fill="#EEF403" enable-background="new    " d="M1782.232,2498.486c0,0-17.574-82.107,0.566-99.385
		c18.143-17.278-79.229,60.004-79.229,60.004"/>
	<path opacity="0.7" fill="#EFC803" enable-background="new    " d="M1800.771,2497.887c0,0-5.701-81.695,14.844-98.271
		c20.545-16.578-87.03,47.993-87.03,47.993"/>
	<path fill="#D5E503" d="M1798.65,2462.947"/>
	<path opacity="0.7" fill="#EFC803" enable-background="new    " d="M1792.617,2480.016c0,0-17.575,82.107,0.565,99.387
		c18.142,17.277-79.229-60.004-79.229-60.004"/>
	<path opacity="0.7" fill="#EEF403" enable-background="new    " d="M1811.156,2480.615c0,0-5.702,81.697,14.843,98.272
		c20.546,16.576-87.029-47.996-87.029-47.996"/>
	<path fill="#D5E503" d="M2001.273,2404.497"/>
	<path opacity="0.7" fill="#E0AB05" enable-background="new    " d="M1840.494,2475.294c0,0,78.667-28.639,72.111-68.394
		c-6.555-39.754,10.423,98.84,10.423,98.84"/>
	<path opacity="0.7" fill="#E0AB05" enable-background="new    " d="M1840.494,2493.447c0,0,83.523,8.052,72.111,68.394
		c-11.412,60.343,10.423-98.839,10.423-98.839"/>
	<path opacity="0.7" fill="#EADB21" enable-background="new    " d="M1841.148,2468.297c0,0,69.477,4.049,92.709-35.814
		c23.231-39.864-27.963,95.372-27.963,95.372"/>
	<path opacity="0.7" fill="#EADB21" enable-background="new    " d="M1847.855,2514.451c0,0,59.405-4.967,80.159,28.668
		c20.754,33.634-26.004-81.063-26.004-81.063"/>
	
		<linearGradient id="SVGID_3_" gradientUnits="userSpaceOnUse" x1="-571.519" y1="2413.1406" x2="-571.519" y2="2509.127" gradientTransform="matrix(1 0 0 -1 2354 4946)">
		<stop  offset="0" style="stop-color:#EADB21"/>
		<stop  offset="0.5" style="stop-color:#EADB21"/>
		<stop  offset="0.5" style="stop-color:#FFF32A"/>
		<stop  offset="1" style="stop-color:#FFF32A"/>
	</linearGradient>
	<path fill="url(#SVGID_3_)" d="M1906.963,2484.867c0,0-55.732,47.992-124.48,47.992c-68.75,0-124.482-47.992-124.482-47.992
		s55.732-47.994,124.48-47.994C1851.23,2436.873,1906.963,2484.867,1906.963,2484.867z"/>
	<ellipse fill="#FCFCFC" cx="1708.278" cy="2471.732" rx="9.107" ry="8.763"/>
	<path fill="#FFFFFF" stroke="#FCFCFC" stroke-miterlimit="10" d="M1727.905,2446.352c0,0,3.655,16.146,3.648,36.062
		c-0.006,19.915-3.673,36.06-3.673,36.06"/>
	<ellipse fill="#1B1464" cx="1708.244" cy="2473.781" rx="6.41" ry="6.167"/>
	<ellipse fill="#FCFCFC" cx="1712.948" cy="2475.477" rx="4.669" ry="4.49"/>
</g>
<g opacity="0.9">
	<path opacity="0.7" fill="#EEF403" enable-background="new    " d="M2403.031,1109.288c0,0-21.508-100.479,0.693-121.623
		c22.2-21.146-96.957,73.43-96.957,73.43"/>
	<path opacity="0.7" fill="#EFC803" enable-background="new    " d="M2425.719,1108.554c0,0-6.978-99.976,18.164-120.261
		c25.144-20.286-106.503,58.734-106.503,58.734"/>
	<path fill="#D5E503" d="M2423.121,1065.797"/>
	<path opacity="0.7" fill="#EFC803" enable-background="new    " d="M2415.738,1086.686c0,0-21.508,100.479,0.693,121.623
		c22.199,21.145-96.957-73.431-96.957-73.431"/>
	<path opacity="0.7" fill="#EEF403" enable-background="new    " d="M2438.426,1087.418c0,0-6.978,99.977,18.164,120.262
		c25.144,20.286-106.503-58.733-106.503-58.733"/>
	<path fill="#D5E503" d="M2671.084,994.268"/>
	<path opacity="0.7" fill="#E0AB05" enable-background="new    " d="M2474.328,1080.906c0,0,96.269-35.047,88.248-83.696
		c-8.021-48.649,12.754,120.954,12.754,120.954"/>
	<path opacity="0.7" fill="#E0AB05" enable-background="new    " d="M2474.328,1103.121c0,0,102.213,9.854,88.248,83.697
		c-13.967,73.844,12.754-120.955,12.754-120.955"/>
	<path opacity="0.7" fill="#EADB21" enable-background="new    " d="M2475.129,1072.344c0,0,85.021,4.953,113.453-43.83
		c28.432-48.782-34.221,116.713-34.221,116.713"/>
	<path opacity="0.7" fill="#EADB21" enable-background="new    " d="M2483.337,1128.824c0,0,72.698-6.076,98.096,35.083
		c25.398,41.159-31.821-99.202-31.821-99.202"/>
	
		<linearGradient id="SVGID_4_" gradientUnits="userSpaceOnUse" x1="49.3345" y1="3794.6484" x2="49.3345" y2="3912.1113" gradientTransform="matrix(1 0 0 -1 2354 4946)">
		<stop  offset="0" style="stop-color:#EADB21"/>
		<stop  offset="0.5" style="stop-color:#EADB21"/>
		<stop  offset="0.5" style="stop-color:#FFF32A"/>
		<stop  offset="1" style="stop-color:#FFF32A"/>
	</linearGradient>
	<path fill="url(#SVGID_4_)" d="M2555.67,1092.621c0,0-68.203,58.73-152.335,58.73S2251,1092.621,2251,1092.621
		s68.203-58.732,152.335-58.732S2555.67,1092.621,2555.67,1092.621z"/>
	<ellipse fill="#FCFCFC" cx="2312.528" cy="1076.547" rx="11.146" ry="10.724"/>
	<path fill="#FFFFFF" stroke="#FCFCFC" stroke-miterlimit="10" d="M2336.547,1045.486c0,0,4.475,19.759,4.465,44.13
		c-0.008,24.372-4.493,44.128-4.493,44.128"/>
	<ellipse fill="#1B1464" cx="2312.486" cy="1079.055" rx="7.845" ry="7.547"/>
	<ellipse fill="#FCFCFC" cx="2318.242" cy="1081.129" rx="5.714" ry="5.496"/>
</g>
<g>
	<path opacity="0.7" fill="#EEF403" enable-background="new    " d="M2286.509,1867.77c0,0-46.476-217.116,1.497-262.804
		s-209.504,158.667-209.504,158.667"/>
	<path opacity="0.7" fill="#EFC803" enable-background="new    " d="M2335.533,1866.182c0,0-15.078-216.026,39.248-259.858
		c54.326-43.834-230.133,126.913-230.133,126.913"/>
	<path fill="#D5E503" d="M2329.919,1773.793"/>
	<path opacity="0.7" fill="#EFC803" enable-background="new    " d="M2313.966,1818.928c0,0-46.475,217.115,1.497,262.803
		c47.973,45.688-209.504-158.666-209.504-158.666"/>
	<path opacity="0.7" fill="#EEF403" enable-background="new    " d="M2362.99,1820.512c0,0-15.078,216.029,39.248,259.861
		c54.326,43.834-230.133-126.913-230.133-126.913"/>
	<path opacity="0.7" fill="#E0AB05" enable-background="new    " d="M2440.568,1806.441c0,0,208.016-75.729,190.684-180.852
		s27.561,261.356,27.561,261.356"/>
	<path opacity="0.7" fill="#E0AB05" enable-background="new    " d="M2440.568,1854.443c0,0,220.861,21.291,190.684,180.853
		c-30.177,159.562,27.561-261.359,27.561-261.359"/>
	<path opacity="0.7" fill="#EADB21" enable-background="new    " d="M2442.297,1787.939c0,0,183.717,10.702,245.149-94.709
		c61.432-105.41-73.944,252.19-73.944,252.19"/>
	<path opacity="0.7" fill="#EADB21" enable-background="new    " d="M2460.033,1909.982c0,0,157.086-13.129,211.965,75.807
		c54.881,88.938-68.762-214.355-68.762-214.355"/>
	
		<linearGradient id="SVGID_5_" gradientUnits="userSpaceOnUse" x1="-66.8354" y1="2987.3379" x2="-66.8355" y2="3241.1543" gradientTransform="matrix(1 0 0 -1 2354 4946)">
		<stop  offset="0" style="stop-color:#EADB21"/>
		<stop  offset="0.5" style="stop-color:#EADB21"/>
		<stop  offset="0.5" style="stop-color:#FFF32A"/>
		<stop  offset="1" style="stop-color:#FFF32A"/>
	</linearGradient>
	<path fill="url(#SVGID_5_)" d="M2616.33,1831.755c0,0-147.372,126.907-329.165,126.907S1958,1831.755,1958,1831.755
		s147.372-126.909,329.165-126.909S2616.33,1831.755,2616.33,1831.755z"/>
	<ellipse fill="#FCFCFC" cx="2090.95" cy="1797.021" rx="24.085" ry="23.172"/>
	<path fill="#FFFFFF" stroke="#FCFCFC" stroke-miterlimit="10" d="M2142.85,1729.906c0,0,9.666,42.694,9.648,95.354
		c-0.018,52.663-9.712,95.353-9.712,95.353"/>
	<ellipse fill="#1B1464" cx="2090.859" cy="1802.44" rx="16.95" ry="16.308"/>
	<path fill="#FCFCFC" d="M2115.645,1806.922c0,6.559-5.528,11.877-12.348,11.877c-6.818,0-12.347-5.318-12.347-11.877
		c0-6.563,5.528-11.879,12.347-11.879C2110.116,1795.043,2115.645,1800.359,2115.645,1806.922z"/>
</g>
<g>
	<path opacity="0.7" fill="#EEF403" enable-background="new    " d="M2516.186,1431.369c0,0-35.395-165.353,1.142-200.146
		c36.535-34.795-159.554,120.838-159.554,120.838"/>
	<path opacity="0.7" fill="#EFC803" enable-background="new    " d="M2553.521,1430.161c0,0-11.482-164.522,29.891-197.904
		c41.374-33.383-175.264,96.655-175.264,96.655"/>
	<path fill="#D5E503" d="M2549.246,1359.799"/>
	<path opacity="0.7" fill="#EFC803" enable-background="new    " d="M2537.097,1394.173c0,0-35.395,165.351,1.14,200.146
		c36.535,34.795-159.554-120.839-159.554-120.839"/>
	<path opacity="0.7" fill="#EEF403" enable-background="new    " d="M2574.434,1395.379c0,0-11.483,164.523,29.891,197.906
		s-175.264-96.655-175.264-96.655"/>
	<path opacity="0.7" fill="#E0AB05" enable-background="new    " d="M2633.515,1384.664c0,0,158.421-57.673,145.222-137.732
		c-13.2-80.059,20.988,199.044,20.988,199.044"/>
	<path opacity="0.7" fill="#E0AB05" enable-background="new    " d="M2633.515,1421.221c0,0,168.204,16.215,145.222,137.734
		c-22.982,121.519,20.988-199.046,20.988-199.046"/>
	<path opacity="0.7" fill="#EADB21" enable-background="new    " d="M2634.831,1370.573c0,0,139.915,8.15,186.701-72.127
		c46.786-80.279-56.314,192.063-56.314,192.063"/>
	<path opacity="0.7" fill="#EADB21" enable-background="new    " d="M2648.339,1463.52c0,0,119.634-10,161.429,57.732
		c41.795,67.733-52.367-163.249-52.367-163.249"/>
	
		<linearGradient id="SVGID_6_" gradientUnits="userSpaceOnUse" x1="162.6855" y1="3445.4082" x2="162.6855" y2="3638.709" gradientTransform="matrix(1 0 0 -1 2354 4946)">
		<stop  offset="0" style="stop-color:#EADB21"/>
		<stop  offset="0.5" style="stop-color:#EADB21"/>
		<stop  offset="0.5" style="stop-color:#FFF32A"/>
		<stop  offset="1" style="stop-color:#FFF32A"/>
	</linearGradient>
	<path fill="url(#SVGID_6_)" d="M2767.371,1403.942c0,0-112.235,96.649-250.686,96.649c-138.451,0-250.686-96.649-250.686-96.649
		s112.235-96.652,250.686-96.652C2655.137,1307.29,2767.371,1403.942,2767.371,1403.942z"/>
	<ellipse fill="#FCFCFC" cx="2367.252" cy="1377.489" rx="18.343" ry="17.647"/>
	<path fill="#FFFFFF" stroke="#FCFCFC" stroke-miterlimit="10" d="M2406.777,1326.376c0,0,7.361,32.516,7.349,72.621
		c-0.013,40.106-7.396,72.618-7.396,72.618"/>
	<ellipse fill="#1B1464" cx="2367.184" cy="1381.617" rx="12.909" ry="12.419"/>
	<ellipse fill="#FCFCFC" cx="2376.655" cy="1385.029" rx="9.403" ry="9.045"/>
</g>
<g opacity="0.9">
	<path opacity="0.7" fill="#EEF403" enable-background="new    " d="M2640.031,2430.288c0,0-21.508-100.479,0.693-121.623
		c22.2-21.146-96.957,73.43-96.957,73.43"/>
	<path opacity="0.7" fill="#EFC803" enable-background="new    " d="M2662.719,2429.554c0,0-6.978-99.976,18.164-120.261
		c25.144-20.286-106.503,58.734-106.503,58.734"/>
	<path fill="#D5E503" d="M2660.121,2386.797"/>
	<path opacity="0.7" fill="#EFC803" enable-background="new    " d="M2652.738,2407.686c0,0-21.508,100.479,0.693,121.623
		c22.199,21.145-96.957-73.431-96.957-73.431"/>
	<path opacity="0.7" fill="#EEF403" enable-background="new    " d="M2675.426,2408.418c0,0-6.978,99.977,18.164,120.262
		c25.144,20.286-106.503-58.733-106.503-58.733"/>
	<path fill="#D5E503" d="M2908.084,2315.268"/>
	<path opacity="0.7" fill="#E0AB05" enable-background="new    " d="M2711.328,2401.906c0,0,96.269-35.047,88.248-83.696
		c-8.021-48.649,12.754,120.954,12.754,120.954"/>
	<path opacity="0.7" fill="#E0AB05" enable-background="new    " d="M2711.328,2424.121c0,0,102.213,9.854,88.248,83.697
		c-13.967,73.844,12.754-120.955,12.754-120.955"/>
	<path opacity="0.7" fill="#EADB21" enable-background="new    " d="M2712.129,2393.344c0,0,85.021,4.953,113.453-43.83
		s-34.221,116.712-34.221,116.712"/>
	<path opacity="0.7" fill="#EADB21" enable-background="new    " d="M2720.337,2449.824c0,0,72.698-6.076,98.096,35.083
		c25.398,41.159-31.821-99.202-31.821-99.202"/>
	
		<linearGradient id="SVGID_7_" gradientUnits="userSpaceOnUse" x1="286.335" y1="2473.6484" x2="286.335" y2="2591.1113" gradientTransform="matrix(1 0 0 -1 2354 4946)">
		<stop  offset="0" style="stop-color:#EADB21"/>
		<stop  offset="0.5" style="stop-color:#EADB21"/>
		<stop  offset="0.5" style="stop-color:#FFF32A"/>
		<stop  offset="1" style="stop-color:#FFF32A"/>
	</linearGradient>
	<path fill="url(#SVGID_7_)" d="M2792.67,2413.621c0,0-68.203,58.73-152.335,58.73S2488,2413.621,2488,2413.621
		s68.203-58.732,152.335-58.732S2792.67,2413.621,2792.67,2413.621z"/>
	<ellipse fill="#FCFCFC" cx="2549.528" cy="2397.547" rx="11.146" ry="10.724"/>
	<path fill="#FFFFFF" stroke="#FCFCFC" stroke-miterlimit="10" d="M2573.547,2366.486c0,0,4.475,19.759,4.465,44.13
		c-0.008,24.372-4.493,44.128-4.493,44.128"/>
	<ellipse fill="#1B1464" cx="2549.486" cy="2400.055" rx="7.845" ry="7.547"/>
	<ellipse fill="#FCFCFC" cx="2555.242" cy="2402.129" rx="5.714" ry="5.496"/>
</g>
<g opacity="0.8">
	<path opacity="0.7" fill="#EEF403" enable-background="new    " d="M3055.465,1302.395c0,0-17.043-79.616,0.549-96.369
		c17.593-16.754-76.824,58.183-76.824,58.183"/>
	<path opacity="0.7" fill="#EFC803" enable-background="new    " d="M3073.441,1301.813c0,0-5.529-79.217,14.393-95.291
		c19.922-16.073-84.39,46.539-84.39,46.539"/>
	<path fill="#D5E503" d="M3071.383,1267.934"/>
	<path opacity="0.7" fill="#EFC803" enable-background="new    " d="M3065.533,1284.485c0,0-17.042,79.616,0.549,96.37
		s-76.825-58.184-76.825-58.184"/>
	<path opacity="0.7" fill="#EEF403" enable-background="new    " d="M3083.51,1285.066c0,0-5.529,79.218,14.394,95.292
		c19.922,16.073-84.39-46.539-84.39-46.539"/>
	<path opacity="0.7" fill="#E0AB05" enable-background="new    " d="M3111.957,1279.906c0,0,76.28-27.771,69.926-66.318
		c-6.355-38.548,10.105,95.84,10.105,95.84"/>
	<path opacity="0.7" fill="#E0AB05" enable-background="new    " d="M3111.957,1297.509c0,0,80.99,7.809,69.926,66.318
		c-11.066,58.512,10.105-95.84,10.105-95.84"/>
	<path opacity="0.7" fill="#EADB21" enable-background="new    " d="M3112.592,1273.122c0,0,67.369,3.925,89.896-34.729
		c22.527-38.653-27.115,92.479-27.115,92.479"/>
	<path opacity="0.7" fill="#EADB21" enable-background="new    " d="M3119.096,1317.875c0,0,57.604-4.814,77.729,27.798
		c20.125,32.613-25.215-78.604-25.215-78.604"/>
	
		<linearGradient id="SVGID_8_" gradientUnits="userSpaceOnUse" x1="701.7056" y1="3610.2754" x2="701.7056" y2="3703.3477" gradientTransform="matrix(1 0 0 -1 2354 4946)">
		<stop  offset="0" style="stop-color:#EADB21"/>
		<stop  offset="0.5" style="stop-color:#EADB21"/>
		<stop  offset="0.5" style="stop-color:#FFF32A"/>
		<stop  offset="1" style="stop-color:#FFF32A"/>
	</linearGradient>
	<path fill="url(#SVGID_8_)" d="M3176.41,1289.188c0,0-54.042,46.537-120.705,46.537S2935,1289.188,2935,1289.188
		s54.042-46.536,120.705-46.536S3176.41,1289.188,3176.41,1289.188z"/>
	<ellipse fill="#FCFCFC" cx="2983.753" cy="1276.452" rx="8.832" ry="8.497"/>
	<path fill="#FFFFFF" stroke="#FCFCFC" stroke-miterlimit="10" d="M3002.784,1251.841c0,0,3.545,15.656,3.538,34.967
		c-0.006,19.313-3.562,34.966-3.562,34.966"/>
	<ellipse fill="#1B1464" cx="2983.719" cy="1278.439" rx="6.217" ry="5.98"/>
	<ellipse fill="#FCFCFC" cx="2988.28" cy="1280.083" rx="4.526" ry="4.354"/>
</g>
<g opacity="0.9">
	<path opacity="0.7" fill="#EEF403" enable-background="new    " d="M3904.031,1537.288c0,0-21.508-100.479,0.692-121.623
		c22.201-21.146-96.957,73.43-96.957,73.43"/>
	<path opacity="0.7" fill="#EFC803" enable-background="new    " d="M3926.719,1536.554c0,0-6.978-99.976,18.164-120.261
		c25.144-20.286-106.502,58.734-106.502,58.734"/>
	<path fill="#D5E503" d="M3924.121,1493.797"/>
	<path opacity="0.7" fill="#EFC803" enable-background="new    " d="M3916.738,1514.686c0,0-21.508,100.479,0.692,121.623
		s-96.957-73.431-96.957-73.431"/>
	<path opacity="0.7" fill="#EEF403" enable-background="new    " d="M3939.426,1515.418c0,0-6.979,99.977,18.164,120.262
		c25.143,20.286-106.503-58.733-106.503-58.733"/>
	<path fill="#D5E503" d="M4172.084,1422.268"/>
	<path opacity="0.7" fill="#E0AB05" enable-background="new    " d="M3975.328,1508.906c0,0,96.27-35.047,88.248-83.696
		s12.754,120.954,12.754,120.954"/>
	<path opacity="0.7" fill="#E0AB05" enable-background="new    " d="M3975.328,1531.121c0,0,102.213,9.854,88.248,83.697
		c-13.967,73.844,12.754-120.955,12.754-120.955"/>
	<path opacity="0.7" fill="#EADB21" enable-background="new    " d="M3976.129,1500.344c0,0,85.021,4.953,113.453-43.83
		c28.432-48.782-34.221,116.713-34.221,116.713"/>
	<path opacity="0.7" fill="#EADB21" enable-background="new    " d="M3984.337,1556.824c0,0,72.698-6.076,98.097,35.083
		c25.397,41.159-31.822-99.202-31.822-99.202"/>
	
		<linearGradient id="SVGID_9_" gradientUnits="userSpaceOnUse" x1="1550.3354" y1="3366.6484" x2="1550.3354" y2="3484.1113" gradientTransform="matrix(1 0 0 -1 2354 4946)">
		<stop  offset="0" style="stop-color:#EADB21"/>
		<stop  offset="0.5" style="stop-color:#EADB21"/>
		<stop  offset="0.5" style="stop-color:#FFF32A"/>
		<stop  offset="1" style="stop-color:#FFF32A"/>
	</linearGradient>
	<path fill="url(#SVGID_9_)" d="M4056.67,1520.621c0,0-68.203,58.73-152.335,58.73S3752,1520.621,3752,1520.621
		s68.203-58.732,152.335-58.732S4056.67,1520.621,4056.67,1520.621z"/>
	<ellipse fill="#FCFCFC" cx="3813.527" cy="1504.547" rx="11.146" ry="10.724"/>
	<path fill="#FFFFFF" stroke="#FCFCFC" stroke-miterlimit="10" d="M3837.547,1473.486c0,0,4.475,19.759,4.465,44.13
		c-0.008,24.372-4.494,44.128-4.494,44.128"/>
	<ellipse fill="#1B1464" cx="3813.486" cy="1507.055" rx="7.845" ry="7.547"/>
	<ellipse fill="#FCFCFC" cx="3819.242" cy="1509.129" rx="5.714" ry="5.496"/>
</g>
<g opacity="0.9">
	<path opacity="0.7" fill="#EEF403" enable-background="new    " d="M3425.031,2536.288c0,0-21.508-100.479,0.693-121.623
		c22.2-21.146-96.957,73.43-96.957,73.43"/>
	<path opacity="0.7" fill="#EFC803" enable-background="new    " d="M3447.719,2535.554c0,0-6.978-99.976,18.164-120.261
		c25.144-20.286-106.503,58.734-106.503,58.734"/>
	<path fill="#D5E503" d="M3445.121,2492.797"/>
	<path opacity="0.7" fill="#EFC803" enable-background="new    " d="M3437.738,2513.686c0,0-21.508,100.479,0.693,121.623
		c22.199,21.145-96.957-73.431-96.957-73.431"/>
	<path opacity="0.7" fill="#EEF403" enable-background="new    " d="M3460.426,2514.418c0,0-6.978,99.977,18.164,120.262
		c25.144,20.286-106.503-58.733-106.503-58.733"/>
	<path fill="#D5E503" d="M3693.084,2421.268"/>
	<path opacity="0.7" fill="#E0AB05" enable-background="new    " d="M3496.328,2507.906c0,0,96.269-35.047,88.248-83.696
		c-8.021-48.649,12.754,120.954,12.754,120.954"/>
	<path opacity="0.7" fill="#E0AB05" enable-background="new    " d="M3496.328,2530.121c0,0,102.213,9.854,88.248,83.697
		c-13.967,73.844,12.754-120.955,12.754-120.955"/>
	<path opacity="0.7" fill="#EADB21" enable-background="new    " d="M3497.129,2499.344c0,0,85.021,4.953,113.453-43.83
		s-34.221,116.712-34.221,116.712"/>
	<path opacity="0.7" fill="#EADB21" enable-background="new    " d="M3505.337,2555.824c0,0,72.698-6.076,98.096,35.083
		c25.398,41.159-31.821-99.202-31.821-99.202"/>
	
		<linearGradient id="SVGID_10_" gradientUnits="userSpaceOnUse" x1="1071.3354" y1="2367.6484" x2="1071.3354" y2="2485.1113" gradientTransform="matrix(1 0 0 -1 2354 4946)">
		<stop  offset="0" style="stop-color:#EADB21"/>
		<stop  offset="0.5" style="stop-color:#EADB21"/>
		<stop  offset="0.5" style="stop-color:#FFF32A"/>
		<stop  offset="1" style="stop-color:#FFF32A"/>
	</linearGradient>
	<path fill="url(#SVGID_10_)" d="M3577.67,2519.621c0,0-68.203,58.73-152.335,58.73S3273,2519.621,3273,2519.621
		s68.203-58.732,152.335-58.732S3577.67,2519.621,3577.67,2519.621z"/>
	<ellipse fill="#FCFCFC" cx="3334.528" cy="2503.547" rx="11.146" ry="10.724"/>
	<path fill="#FFFFFF" stroke="#FCFCFC" stroke-miterlimit="10" d="M3358.547,2472.486c0,0,4.475,19.759,4.465,44.13
		c-0.008,24.372-4.493,44.128-4.493,44.128"/>
	<ellipse fill="#1B1464" cx="3334.486" cy="2506.055" rx="7.845" ry="7.547"/>
	<ellipse fill="#FCFCFC" cx="3340.242" cy="2508.129" rx="5.714" ry="5.496"/>
</g>
<path fill="#FFFFFF" d="M2139.314,1761.963c0,0,93.944-38.129,202.705-25.203c108.762,12.928,191.151,72.015,191.151,72.015"/>
<path fill="#FFFFFF" d="M1606.314,1153.963c0,0,93.944-38.129,202.705-25.203c108.762,12.928,191.151,72.015,191.151,72.015"/>
<path fill="#FFFFFF" d="M2417.12,1361.77c0,0,74.11-30.077,159.907-19.882c85.798,10.198,150.793,56.811,150.793,56.811"/>
</svg>
