<?xml version="1.0" encoding="utf-8"?>
<!-- Generator: Adobe Illustrator 16.0.0, SVG Export Plug-In . SVG Version: 6.00 Build 0)  -->
<!DOCTYPE svg PUBLIC "-//W3C//DTD SVG 1.1//EN" "http://www.w3.org/Graphics/SVG/1.1/DTD/svg11.dtd">
<svg version="1.1" id="Layer_1" xmlns="http://www.w3.org/2000/svg" xmlns:xlink="http://www.w3.org/1999/xlink" x="0px" y="0px"
	 width="5500px" height="3500px" viewBox="0 0 5500 3500" enable-background="new 0 0 5500 3500" xml:space="preserve">
<g opacity="0.8">
	<path opacity="0.7" fill="#EEF403" enable-background="new    " d="M1405.031,1139.288c0,0-21.508-100.479,0.693-121.623
		c22.2-21.146-96.957,73.43-96.957,73.43"/>
	<path opacity="0.7" fill="#EFC803" enable-background="new    " d="M1427.719,1138.554c0,0-6.978-99.976,18.164-120.261
		c25.143-20.286-106.503,58.734-106.503,58.734"/>
	<path fill="#D5E503" d="M1425.121,1095.797"/>
	<path opacity="0.7" fill="#EFC803" enable-background="new    " d="M1417.738,1116.686c0,0-21.508,100.479,0.693,121.623
		c22.2,21.145-96.957-73.431-96.957-73.431"/>
	<path opacity="0.7" fill="#EEF403" enable-background="new    " d="M1440.426,1117.418c0,0-6.978,99.976,18.164,120.262
		c25.143,20.286-106.503-58.733-106.503-58.733"/>
	<path opacity="0.7" fill="#E0AB05" enable-background="new    " d="M1476.329,1110.907c0,0,96.268-35.048,88.247-83.697
		c-8.021-48.649,12.754,120.955,12.754,120.955"/>
	<path opacity="0.7" fill="#E0AB05" enable-background="new    " d="M1476.329,1133.121c0,0,102.213,9.853,88.247,83.697
		c-13.967,73.844,12.754-120.955,12.754-120.955"/>
	<path opacity="0.7" fill="#EADB21" enable-background="new    " d="M1477.129,1102.344c0,0,85.021,4.953,113.453-43.83
		c28.432-48.782-34.221,116.713-34.221,116.713"/>
	<path opacity="0.7" fill="#EADB21" enable-background="new    " d="M1485.337,1158.824c0,0,72.698-6.077,98.097,35.083
		c25.397,41.159-31.822-99.202-31.822-99.202"/>
	
		<linearGradient id="SVGID_1_" gradientUnits="userSpaceOnUse" x1="-948.6655" y1="3764.6484" x2="-948.6655" y2="3882.1113" gradientTransform="matrix(1 0 0 -1 2354 4946)">
		<stop  offset="0" style="stop-color:#EADB21"/>
		<stop  offset="0.5" style="stop-color:#EADB21"/>
		<stop  offset="0.5" style="stop-color:#FFF32A"/>
		<stop  offset="1" style="stop-color:#FFF32A"/>
	</linearGradient>
	<path fill="url(#SVGID_1_)" d="M1557.67,1122.621c0,0-68.203,58.73-152.335,58.73S1253,1122.621,1253,1122.621
		s68.203-58.732,152.335-58.732S1557.67,1122.621,1557.67,1122.621z"/>
	<ellipse fill="#FCFCFC" cx="1314.527" cy="1106.546" rx="11.146" ry="10.724"/>
	<path fill="#FFFFFF" stroke="#FCFCFC" stroke-miterlimit="10" d="M1338.547,1075.486c0,0,4.475,19.759,4.465,44.13
		c-0.008,24.372-4.494,44.128-4.494,44.128"/>
	<ellipse fill="#1B1464" cx="1314.486" cy="1109.054" rx="7.845" ry="7.548"/>
	<ellipse fill="#FCFCFC" cx="1320.242" cy="1111.128" rx="5.714" ry="5.497"/>
</g>
<g opacity="0.9">
	<path opacity="0.7" fill="#EEF403" enable-background="new    " d="M1340.031,1921.288c0,0-21.508-100.479,0.693-121.623
		c22.2-21.146-96.957,73.43-96.957,73.43"/>
	<path opacity="0.7" fill="#EFC803" enable-background="new    " d="M1362.719,1920.554c0,0-6.978-99.976,18.164-120.261
		c25.143-20.286-106.503,58.734-106.503,58.734"/>
	<path fill="#D5E503" d="M1360.121,1877.797"/>
	<path opacity="0.7" fill="#EFC803" enable-background="new    " d="M1352.738,1898.686c0,0-21.508,100.479,0.693,121.623
		c22.2,21.145-96.957-73.431-96.957-73.431"/>
	<path opacity="0.7" fill="#EEF403" enable-background="new    " d="M1375.426,1899.418c0,0-6.978,99.977,18.164,120.262
		c25.143,20.286-106.503-58.733-106.503-58.733"/>
	<path fill="#D5E503" d="M1608.084,1806.268"/>
	<path opacity="0.7" fill="#E0AB05" enable-background="new    " d="M1411.329,1892.906c0,0,96.268-35.047,88.247-83.696
		c-8.021-48.649,12.754,120.954,12.754,120.954"/>
	<path opacity="0.7" fill="#E0AB05" enable-background="new    " d="M1411.329,1915.121c0,0,102.213,9.854,88.247,83.697
		c-13.967,73.843,12.754-120.955,12.754-120.955"/>
	<path opacity="0.7" fill="#EADB21" enable-background="new    " d="M1412.129,1884.344c0,0,85.021,4.953,113.453-43.83
		c28.432-48.782-34.221,116.713-34.221,116.713"/>
	<path opacity="0.7" fill="#EADB21" enable-background="new    " d="M1420.337,1940.824c0,0,72.698-6.076,98.097,35.083
		c25.397,41.159-31.822-99.202-31.822-99.202"/>
	
		<linearGradient id="SVGID_2_" gradientUnits="userSpaceOnUse" x1="-1013.6655" y1="2982.6484" x2="-1013.6655" y2="3100.1113" gradientTransform="matrix(1 0 0 -1 2354 4946)">
		<stop  offset="0" style="stop-color:#EADB21"/>
		<stop  offset="0.5" style="stop-color:#EADB21"/>
		<stop  offset="0.5" style="stop-color:#FFF32A"/>
		<stop  offset="1" style="stop-color:#FFF32A"/>
	</linearGradient>
	<path fill="url(#SVGID_2_)" d="M1492.67,1904.621c0,0-68.203,58.73-152.335,58.73S1188,1904.621,1188,1904.621
		s68.203-58.732,152.335-58.732S1492.67,1904.621,1492.67,1904.621z"/>
	<ellipse fill="#FCFCFC" cx="1249.527" cy="1888.547" rx="11.146" ry="10.724"/>
	<path fill="#FFFFFF" stroke="#FCFCFC" stroke-miterlimit="10" d="M1273.547,1857.486c0,0,4.475,19.759,4.465,44.13
		c-0.008,24.372-4.494,44.128-4.494,44.128"/>
	<ellipse fill="#1B1464" cx="1249.486" cy="1891.055" rx="7.845" ry="7.547"/>
	<ellipse fill="#FCFCFC" cx="1255.242" cy="1893.129" rx="5.714" ry="5.496"/>
</g>
<g>
	<path opacity="0.7" fill="#EEF403" enable-background="new    " d="M1130.509,1530.77c0,0-46.475-217.116,1.497-262.804
		c47.973-45.688-209.504,158.667-209.504,158.667"/>
	<path opacity="0.7" fill="#EFC803" enable-background="new    " d="M1179.533,1529.182c0,0-15.078-216.026,39.248-259.858
		c54.326-43.834-230.131,126.914-230.131,126.914"/>
	<path fill="#D5E503" d="M1173.919,1436.793"/>
	<path opacity="0.7" fill="#EFC803" enable-background="new    " d="M1157.966,1481.928c0,0-46.475,217.115,1.497,262.803
		c47.973,45.688-209.504-158.666-209.504-158.666"/>
	<path opacity="0.7" fill="#EEF403" enable-background="new    " d="M1206.99,1483.512c0,0-15.078,216.029,39.248,259.861
		c54.326,43.834-230.133-126.913-230.133-126.913"/>
	<path opacity="0.7" fill="#E0AB05" enable-background="new    " d="M1284.568,1469.441c0,0,208.016-75.729,190.684-180.852
		s27.561,261.356,27.561,261.356"/>
	<path opacity="0.7" fill="#E0AB05" enable-background="new    " d="M1284.568,1517.443c0,0,220.86,21.291,190.684,180.853
		c-30.177,159.563,27.561-261.358,27.561-261.358"/>
	<path opacity="0.7" fill="#EADB21" enable-background="new    " d="M1286.297,1450.939c0,0,183.717,10.702,245.149-94.709
		c61.433-105.41-73.945,252.19-73.945,252.19"/>
	<path opacity="0.7" fill="#EADB21" enable-background="new    " d="M1304.033,1572.982c0,0,157.086-13.129,211.965,75.807
		c54.881,88.938-68.762-214.355-68.762-214.355"/>
	
		<linearGradient id="SVGID_3_" gradientUnits="userSpaceOnUse" x1="-1222.8354" y1="3324.3379" x2="-1222.8354" y2="3578.1543" gradientTransform="matrix(1 0 0 -1 2354 4946)">
		<stop  offset="0" style="stop-color:#EADB21"/>
		<stop  offset="0.5" style="stop-color:#EADB21"/>
		<stop  offset="0.5" style="stop-color:#FFF32A"/>
		<stop  offset="1" style="stop-color:#FFF32A"/>
	</linearGradient>
	<path fill="url(#SVGID_3_)" d="M1460.33,1494.755c0,0-147.372,126.907-329.165,126.907S802,1494.755,802,1494.755
		s147.372-126.909,329.165-126.909S1460.33,1494.755,1460.33,1494.755z"/>
	<ellipse fill="#FCFCFC" cx="934.95" cy="1460.021" rx="24.085" ry="23.172"/>
	<path fill="#FFFFFF" stroke="#FCFCFC" stroke-miterlimit="10" d="M986.85,1392.906c0,0,9.668,42.694,9.648,95.354
		c-0.018,52.663-9.712,95.353-9.712,95.353"/>
	<ellipse fill="#1B1464" cx="934.859" cy="1465.44" rx="16.951" ry="16.308"/>
	<path fill="#FCFCFC" d="M959.645,1469.922c0,6.559-5.528,11.877-12.348,11.877c-6.818,0-12.347-5.318-12.347-11.877
		c0-6.563,5.528-11.879,12.347-11.879C954.116,1458.043,959.645,1463.359,959.645,1469.922z"/>
</g>
<g opacity="0.9">
	<path opacity="0.7" fill="#EEF403" enable-background="new    " d="M2728.031,1131.288c0,0-21.508-100.479,0.693-121.623
		c22.2-21.146-96.957,73.43-96.957,73.43"/>
	<path opacity="0.7" fill="#EFC803" enable-background="new    " d="M2750.719,1130.554c0,0-6.978-99.976,18.164-120.261
		c25.144-20.286-106.503,58.734-106.503,58.734"/>
	<path fill="#D5E503" d="M2748.121,1087.797"/>
	<path opacity="0.7" fill="#EFC803" enable-background="new    " d="M2740.738,1108.686c0,0-21.508,100.479,0.693,121.623
		c22.199,21.145-96.957-73.431-96.957-73.431"/>
	<path opacity="0.7" fill="#EEF403" enable-background="new    " d="M2763.426,1109.418c0,0-6.978,99.977,18.164,120.262
		c25.144,20.286-106.503-58.733-106.503-58.733"/>
	<path fill="#D5E503" d="M2996.084,1016.268"/>
	<path opacity="0.7" fill="#E0AB05" enable-background="new    " d="M2799.328,1102.906c0,0,96.269-35.047,88.248-83.696
		c-8.021-48.649,12.754,120.954,12.754,120.954"/>
	<path opacity="0.7" fill="#E0AB05" enable-background="new    " d="M2799.328,1125.121c0,0,102.213,9.854,88.248,83.697
		c-13.967,73.844,12.754-120.955,12.754-120.955"/>
	<path opacity="0.7" fill="#EADB21" enable-background="new    " d="M2800.129,1094.344c0,0,85.021,4.953,113.453-43.83
		c28.432-48.782-34.221,116.713-34.221,116.713"/>
	<path opacity="0.7" fill="#EADB21" enable-background="new    " d="M2808.337,1150.824c0,0,72.698-6.076,98.096,35.083
		c25.398,41.159-31.821-99.202-31.821-99.202"/>
	
		<linearGradient id="SVGID_4_" gradientUnits="userSpaceOnUse" x1="374.335" y1="3772.6484" x2="374.335" y2="3890.1113" gradientTransform="matrix(1 0 0 -1 2354 4946)">
		<stop  offset="0" style="stop-color:#EADB21"/>
		<stop  offset="0.5" style="stop-color:#EADB21"/>
		<stop  offset="0.5" style="stop-color:#FFF32A"/>
		<stop  offset="1" style="stop-color:#FFF32A"/>
	</linearGradient>
	<path fill="url(#SVGID_4_)" d="M2880.67,1114.621c0,0-68.203,58.73-152.335,58.73S2576,1114.621,2576,1114.621
		s68.203-58.732,152.335-58.732S2880.67,1114.621,2880.67,1114.621z"/>
	<ellipse fill="#FCFCFC" cx="2637.528" cy="1098.547" rx="11.146" ry="10.724"/>
	<path fill="#FFFFFF" stroke="#FCFCFC" stroke-miterlimit="10" d="M2661.547,1067.486c0,0,4.475,19.759,4.465,44.13
		c-0.008,24.372-4.493,44.128-4.493,44.128"/>
	<ellipse fill="#1B1464" cx="2637.486" cy="1101.055" rx="7.845" ry="7.547"/>
	<ellipse fill="#FCFCFC" cx="2643.242" cy="1103.129" rx="5.714" ry="5.496"/>
</g>
<g>
	<path opacity="0.7" fill="#EEF403" enable-background="new    " d="M1788.186,1787.369c0,0-35.395-165.353,1.142-200.146
		c36.535-34.795-159.556,120.838-159.556,120.838"/>
	<path opacity="0.7" fill="#EFC803" enable-background="new    " d="M1825.521,1786.16c0,0-11.482-164.521,29.891-197.903
		c41.374-33.383-175.264,96.655-175.264,96.655"/>
	<path fill="#D5E503" d="M1821.246,1715.799"/>
	<path opacity="0.7" fill="#EFC803" enable-background="new    " d="M1809.098,1750.173c0,0-35.396,165.351,1.14,200.146
		c36.534,34.795-159.554-120.838-159.554-120.838"/>
	<path opacity="0.7" fill="#EEF403" enable-background="new    " d="M1846.434,1751.379c0,0-11.483,164.523,29.891,197.906
		s-175.264-96.655-175.264-96.655"/>
	<path opacity="0.7" fill="#E0AB05" enable-background="new    " d="M1905.516,1740.664c0,0,158.42-57.674,145.221-137.732
		c-13.2-80.059,20.988,199.044,20.988,199.044"/>
	<path opacity="0.7" fill="#E0AB05" enable-background="new    " d="M1905.516,1777.221c0,0,168.203,16.215,145.221,137.734
		c-22.982,121.519,20.988-199.047,20.988-199.047"/>
	<path opacity="0.7" fill="#EADB21" enable-background="new    " d="M1906.831,1726.572c0,0,139.915,8.151,186.701-72.127
		c46.786-80.279-56.314,192.063-56.314,192.063"/>
	<path opacity="0.7" fill="#EADB21" enable-background="new    " d="M1920.339,1819.52c0,0,119.634-10,161.429,57.732
		s-52.367-163.25-52.367-163.25"/>
	
		<linearGradient id="SVGID_5_" gradientUnits="userSpaceOnUse" x1="-565.3149" y1="3089.4092" x2="-565.3149" y2="3282.709" gradientTransform="matrix(1 0 0 -1 2354 4946)">
		<stop  offset="0" style="stop-color:#EADB21"/>
		<stop  offset="0.5" style="stop-color:#EADB21"/>
		<stop  offset="0.5" style="stop-color:#FFF32A"/>
		<stop  offset="1" style="stop-color:#FFF32A"/>
	</linearGradient>
	<path fill="url(#SVGID_5_)" d="M2039.371,1759.941c0,0-112.234,96.649-250.686,96.649S1538,1759.941,1538,1759.941
		s112.234-96.651,250.686-96.651S2039.371,1759.941,2039.371,1759.941z"/>
	<ellipse fill="#FCFCFC" cx="1639.252" cy="1733.489" rx="18.342" ry="17.647"/>
	<path fill="#FFFFFF" stroke="#FCFCFC" stroke-miterlimit="10" d="M1678.777,1682.376c0,0,7.36,32.516,7.349,72.621
		c-0.013,40.105-7.396,72.618-7.396,72.618"/>
	<ellipse fill="#1B1464" cx="1639.184" cy="1737.617" rx="12.909" ry="12.419"/>
	<ellipse fill="#FCFCFC" cx="1648.655" cy="1741.029" rx="9.403" ry="9.045"/>
</g>
<g opacity="0.8">
	<path opacity="0.7" fill="#EEF403" enable-background="new    " d="M3429.031,2377.288c0,0-21.508-100.479,0.693-121.623
		c22.2-21.146-96.957,73.43-96.957,73.43"/>
	<path opacity="0.7" fill="#EFC803" enable-background="new    " d="M3451.719,2376.554c0,0-6.978-99.976,18.164-120.261
		c25.144-20.286-106.503,58.734-106.503,58.734"/>
	<path fill="#D5E503" d="M3449.121,2333.797"/>
	<path opacity="0.7" fill="#EFC803" enable-background="new    " d="M3441.738,2354.686c0,0-21.508,100.479,0.693,121.623
		c22.199,21.145-96.957-73.431-96.957-73.431"/>
	<path opacity="0.7" fill="#EEF403" enable-background="new    " d="M3464.426,2355.418c0,0-6.978,99.977,18.164,120.262
		c25.144,20.286-106.503-58.733-106.503-58.733"/>
	<path fill="#D5E503" d="M3697.084,2262.268"/>
	<path opacity="0.7" fill="#E0AB05" enable-background="new    " d="M3500.328,2348.906c0,0,96.269-35.047,88.248-83.696
		c-8.021-48.649,12.754,120.954,12.754,120.954"/>
	<path opacity="0.7" fill="#E0AB05" enable-background="new    " d="M3500.328,2371.121c0,0,102.213,9.854,88.248,83.697
		c-13.967,73.844,12.754-120.955,12.754-120.955"/>
	<path opacity="0.7" fill="#EADB21" enable-background="new    " d="M3501.129,2340.344c0,0,85.021,4.953,113.453-43.83
		s-34.221,116.712-34.221,116.712"/>
	<path opacity="0.7" fill="#EADB21" enable-background="new    " d="M3509.337,2396.824c0,0,72.698-6.076,98.096,35.083
		c25.398,41.159-31.821-99.202-31.821-99.202"/>
	
		<linearGradient id="SVGID_6_" gradientUnits="userSpaceOnUse" x1="1075.3354" y1="2526.6484" x2="1075.3354" y2="2644.1113" gradientTransform="matrix(1 0 0 -1 2354 4946)">
		<stop  offset="0" style="stop-color:#EADB21"/>
		<stop  offset="0.5" style="stop-color:#EADB21"/>
		<stop  offset="0.5" style="stop-color:#FFF32A"/>
		<stop  offset="1" style="stop-color:#FFF32A"/>
	</linearGradient>
	<path fill="url(#SVGID_6_)" d="M3581.67,2360.621c0,0-68.203,58.73-152.335,58.73S3277,2360.621,3277,2360.621
		s68.203-58.732,152.335-58.732S3581.67,2360.621,3581.67,2360.621z"/>
	<ellipse fill="#FCFCFC" cx="3338.528" cy="2344.547" rx="11.146" ry="10.724"/>
	<path fill="#FFFFFF" stroke="#FCFCFC" stroke-miterlimit="10" d="M3362.547,2313.486c0,0,4.475,19.759,4.465,44.13
		c-0.008,24.372-4.493,44.128-4.493,44.128"/>
	<ellipse fill="#1B1464" cx="3338.486" cy="2347.055" rx="7.845" ry="7.547"/>
	<ellipse fill="#FCFCFC" cx="3344.242" cy="2349.129" rx="5.714" ry="5.496"/>
</g>
<g opacity="0.9">
	<path opacity="0.7" fill="#EEF403" enable-background="new    " d="M3197.031,1741.288c0,0-21.508-100.479,0.693-121.623
		c22.2-21.146-96.957,73.43-96.957,73.43"/>
	<path opacity="0.7" fill="#EFC803" enable-background="new    " d="M3219.719,1740.554c0,0-6.978-99.976,18.164-120.261
		c25.144-20.286-106.503,58.734-106.503,58.734"/>
	<path fill="#D5E503" d="M3217.121,1697.797"/>
	<path opacity="0.7" fill="#EFC803" enable-background="new    " d="M3209.738,1718.686c0,0-21.508,100.479,0.693,121.623
		c22.199,21.145-96.957-73.431-96.957-73.431"/>
	<path opacity="0.7" fill="#EEF403" enable-background="new    " d="M3232.426,1719.418c0,0-6.978,99.977,18.164,120.262
		c25.144,20.286-106.503-58.733-106.503-58.733"/>
	<path opacity="0.7" fill="#E0AB05" enable-background="new    " d="M3268.328,1712.906c0,0,96.269-35.047,88.248-83.696
		c-8.021-48.649,12.754,120.954,12.754,120.954"/>
	<path opacity="0.7" fill="#E0AB05" enable-background="new    " d="M3268.328,1735.121c0,0,102.213,9.854,88.248,83.697
		c-13.967,73.844,12.754-120.955,12.754-120.955"/>
	<path opacity="0.7" fill="#EADB21" enable-background="new    " d="M3269.129,1704.344c0,0,85.021,4.953,113.453-43.83
		c28.432-48.782-34.221,116.713-34.221,116.713"/>
	<path opacity="0.7" fill="#EADB21" enable-background="new    " d="M3277.337,1760.824c0,0,72.698-6.076,98.096,35.083
		c25.398,41.159-31.821-99.202-31.821-99.202"/>
	
		<linearGradient id="SVGID_7_" gradientUnits="userSpaceOnUse" x1="843.3354" y1="3162.6484" x2="843.3354" y2="3280.1113" gradientTransform="matrix(1 0 0 -1 2354 4946)">
		<stop  offset="0" style="stop-color:#EADB21"/>
		<stop  offset="0.5" style="stop-color:#EADB21"/>
		<stop  offset="0.5" style="stop-color:#FFF32A"/>
		<stop  offset="1" style="stop-color:#FFF32A"/>
	</linearGradient>
	<path fill="url(#SVGID_7_)" d="M3349.67,1724.621c0,0-68.203,58.73-152.335,58.73S3045,1724.621,3045,1724.621
		s68.203-58.732,152.335-58.732S3349.67,1724.621,3349.67,1724.621z"/>
	<ellipse fill="#FCFCFC" cx="3106.528" cy="1708.547" rx="11.146" ry="10.724"/>
	<path fill="#FFFFFF" stroke="#FCFCFC" stroke-miterlimit="10" d="M3130.547,1677.486c0,0,4.475,19.759,4.465,44.13
		c-0.008,24.372-4.493,44.128-4.493,44.128"/>
	<ellipse fill="#1B1464" cx="3106.486" cy="1711.055" rx="7.845" ry="7.547"/>
	<ellipse fill="#FCFCFC" cx="3112.242" cy="1713.129" rx="5.714" ry="5.496"/>
</g>
<g opacity="0.9">
	<path opacity="0.7" fill="#EEF403" enable-background="new    " d="M3891.031,1340.288c0,0-21.508-100.479,0.693-121.623
		c22.2-21.146-96.957,73.43-96.957,73.43"/>
	<path opacity="0.7" fill="#EFC803" enable-background="new    " d="M3913.719,1339.554c0,0-6.978-99.976,18.164-120.261
		c25.144-20.286-106.503,58.734-106.503,58.734"/>
	<path fill="#D5E503" d="M3911.121,1296.797"/>
	<path opacity="0.7" fill="#EFC803" enable-background="new    " d="M3903.738,1317.686c0,0-21.508,100.479,0.693,121.623
		c22.199,21.145-96.957-73.431-96.957-73.431"/>
	<path opacity="0.7" fill="#EEF403" enable-background="new    " d="M3926.426,1318.418c0,0-6.978,99.977,18.164,120.262
		c25.144,20.286-106.503-58.733-106.503-58.733"/>
	<path opacity="0.7" fill="#E0AB05" enable-background="new    " d="M3962.328,1311.906c0,0,96.269-35.047,88.248-83.696
		c-8.021-48.649,12.754,120.954,12.754,120.954"/>
	<path opacity="0.7" fill="#E0AB05" enable-background="new    " d="M3962.328,1334.121c0,0,102.213,9.854,88.248,83.697
		c-13.968,73.844,12.754-120.955,12.754-120.955"/>
	<path opacity="0.7" fill="#EADB21" enable-background="new    " d="M3963.129,1303.344c0,0,85.021,4.953,113.453-43.83
		c28.432-48.782-34.221,116.713-34.221,116.713"/>
	<path opacity="0.7" fill="#EADB21" enable-background="new    " d="M3971.337,1359.824c0,0,72.698-6.076,98.097,35.083
		c25.397,41.159-31.822-99.202-31.822-99.202"/>
	
		<linearGradient id="SVGID_8_" gradientUnits="userSpaceOnUse" x1="1537.3354" y1="3563.6484" x2="1537.3354" y2="3681.1113" gradientTransform="matrix(1 0 0 -1 2354 4946)">
		<stop  offset="0" style="stop-color:#EADB21"/>
		<stop  offset="0.5" style="stop-color:#EADB21"/>
		<stop  offset="0.5" style="stop-color:#FFF32A"/>
		<stop  offset="1" style="stop-color:#FFF32A"/>
	</linearGradient>
	<path fill="url(#SVGID_8_)" d="M4043.67,1323.621c0,0-68.203,58.73-152.335,58.73S3739,1323.621,3739,1323.621
		s68.203-58.732,152.335-58.732S4043.67,1323.621,4043.67,1323.621z"/>
	<ellipse fill="#FCFCFC" cx="3800.528" cy="1307.547" rx="11.146" ry="10.724"/>
	<path fill="#FFFFFF" stroke="#FCFCFC" stroke-miterlimit="10" d="M3824.547,1276.486c0,0,4.475,19.759,4.465,44.13
		c-0.008,24.372-4.493,44.128-4.493,44.128"/>
	<ellipse fill="#1B1464" cx="3800.486" cy="1310.055" rx="7.845" ry="7.547"/>
	<ellipse fill="#FCFCFC" cx="3806.242" cy="1312.129" rx="5.714" ry="5.496"/>
</g>
<g opacity="0.8">
	<path opacity="0.7" fill="#EEF403" enable-background="new    " d="M4487.794,1706.846c0,0-16.946-79.174,0.546-95.834
		c17.494-16.661-76.396,57.859-76.396,57.859"/>
	<path opacity="0.7" fill="#EFC803" enable-background="new    " d="M4505.671,1706.267c0,0-5.498-78.775,14.313-94.761
		c19.812-15.984-83.92,46.28-83.92,46.28"/>
	<path fill="#D5E503" d="M4503.624,1672.576"/>
	<path opacity="0.7" fill="#EFC803" enable-background="new    " d="M4497.807,1689.035c0,0-16.946,79.173,0.547,95.833
		c17.492,16.661-76.397-57.859-76.397-57.859"/>
	<path opacity="0.7" fill="#EEF403" enable-background="new    " d="M4515.684,1689.612c0,0-5.498,78.776,14.313,94.761
		c19.812,15.985-83.92-46.279-83.92-46.279"/>
	<path fill="#D5E503" d="M4699.008,1616.214"/>
	<path opacity="0.7" fill="#E0AB05" enable-background="new    " d="M4543.973,1684.48c0,0,75.855-27.614,69.537-65.948
		c-6.321-38.333,10.049,95.307,10.049,95.307"/>
	<path opacity="0.7" fill="#E0AB05" enable-background="new    " d="M4543.973,1701.986c0,0,80.539,7.764,69.537,65.948
		c-11.006,58.187,10.049-95.307,10.049-95.307"/>
	<path opacity="0.7" fill="#EADB21" enable-background="new    " d="M4544.604,1677.734c0,0,66.994,3.902,89.396-34.536
		s-26.965,91.964-26.965,91.964"/>
	<path opacity="0.7" fill="#EADB21" enable-background="new    " d="M4551.07,1722.239c0,0,57.283-4.788,77.297,27.644
		c20.012,32.433-25.076-78.167-25.076-78.167"/>
	
		<linearGradient id="SVGID_9_" gradientUnits="userSpaceOnUse" x1="2134.0337" y1="3206.0098" x2="2134.0337" y2="3298.5664" gradientTransform="matrix(1 0 0 -1 2354 4946)">
		<stop  offset="0" style="stop-color:#EADB21"/>
		<stop  offset="0.5" style="stop-color:#EADB21"/>
		<stop  offset="0.5" style="stop-color:#FFF32A"/>
		<stop  offset="1" style="stop-color:#FFF32A"/>
	</linearGradient>
	<path fill="url(#SVGID_9_)" d="M4608.066,1693.713c0,0-53.74,46.277-120.033,46.277S4368,1693.713,4368,1693.713
		s53.74-46.279,120.033-46.279S4608.066,1693.713,4608.066,1693.713z"/>
	<ellipse fill="#FCFCFC" cx="4416.482" cy="1681.047" rx="8.783" ry="8.449"/>
	<path fill="#FFFFFF" stroke="#FCFCFC" stroke-miterlimit="10" d="M4435.407,1656.572c0,0,3.524,15.568,3.519,34.771
		c-0.006,19.204-3.541,34.771-3.541,34.771"/>
	<ellipse fill="#1B1464" cx="4416.448" cy="1683.022" rx="6.183" ry="5.946"/>
	<ellipse fill="#FCFCFC" cx="4420.984" cy="1684.657" rx="4.502" ry="4.33"/>
</g>
<path fill="#FFFFFF" d="M988.314,1410.962c0,0,93.944-38.129,202.705-25.203c108.762,12.927,191.151,72.015,191.151,72.015"/>
<path fill="#FFFFFF" d="M1693.12,1711.77c0,0,74.11-30.077,159.907-19.882c85.798,10.198,150.793,56.811,150.793,56.811"/>
</svg>
