<svg xmlns="http://www.w3.org/2000/svg" width="3897.008" height="2455.39">
  <g transform="translate(-852 -443)" opacity=".8">
    <path d="M1455.031 1302.288s-21.508-100.479.693-121.623c22.201-21.145-96.957 73.43-96.957 73.43" opacity=".7" fill="#eef403"/>
    <path d="M1477.719 1301.554s-6.978-99.976 18.164-120.261c25.142-20.286-106.503 58.734-106.503 58.734" opacity=".7" fill="#efc803"/>
    <path d="M1467.738 1279.685s-21.508 100.479.693 121.623c22.201 21.145-96.957-73.43-96.957-73.43" opacity=".7" fill="#efc803"/>
    <path d="M1490.426 1280.418s-6.978 99.976 18.164 120.262c25.142 20.286-106.503-58.734-106.503-58.734" opacity=".7" fill="#eef403"/>
    <path d="M1526.329 1273.907s96.268-35.048 88.247-83.697 12.754 120.955 12.754 120.955" opacity=".7" fill="#e0ab05"/>
    <path d="M1526.329 1296.121s102.213 9.853 88.247 83.697c-13.966 73.844 12.754-120.955 12.754-120.955" opacity=".7" fill="#e0ab05"/>
    <path d="M1527.129 1265.344s85.022 4.953 113.453-43.83c28.431-48.783-34.221 116.712-34.221 116.712" opacity=".7" fill="#eadb21"/>
    <path d="M1535.337 1321.824s72.698-6.077 98.096 35.083c25.398 41.159-31.822-99.202-31.822-99.202" opacity=".7" fill="#eadb21"/>
    <linearGradient id="a" gradientUnits="userSpaceOnUse" x1="1455.335" y1="1344.352" x2="1455.335" y2="1226.889">
      <stop offset="0" stop-color="#eadb21"/>
      <stop offset=".5" stop-color="#eadb21"/>
      <stop offset=".5" stop-color="#fff32a"/>
      <stop offset="1" stop-color="#fff32a"/>
    </linearGradient>
    <path d="M1607.67 1285.621s-68.203 58.731-152.335 58.731S1303 1285.621 1303 1285.621s68.203-58.732 152.335-58.732 152.335 58.732 152.335 58.732z" fill="url(#a)"/>
    <ellipse cx="1364.528" cy="1269.546" rx="11.146" ry="10.724" fill="#fcfcfc"/>
    <path stroke-miterlimit="10" d="M1388.547 1238.486s4.474 19.759 4.465 44.13c-.01 24.372-4.495 44.128-4.495 44.128" fill="#fff" stroke="#fcfcfc"/>
    <ellipse cx="1364.486" cy="1272.054" rx="7.845" ry="7.548" fill="#1b1464"/>
    <ellipse cx="1370.242" cy="1274.128" rx="5.714" ry="5.497" fill="#fcfcfc"/>
  </g>
  <g transform="translate(-852 -443)" opacity=".9">
    <path d="M1390.031 2084.288s-21.508-100.479.693-121.623c22.201-21.145-96.957 73.43-96.957 73.43" opacity=".7" fill="#eef403"/>
    <path d="M1412.719 2083.554s-6.978-99.976 18.164-120.261c25.142-20.286-106.503 58.734-106.503 58.734" opacity=".7" fill="#efc803"/>
    <path d="M1402.738 2061.685s-21.508 100.479.693 121.623c22.201 21.145-96.957-73.43-96.957-73.43" opacity=".7" fill="#efc803"/>
    <path d="M1425.426 2062.418s-6.978 99.977 18.164 120.262c25.142 20.286-106.503-58.734-106.503-58.734" opacity=".7" fill="#eef403"/>
    <path d="M1461.329 2055.906s96.268-35.047 88.247-83.696 12.754 120.954 12.754 120.954" opacity=".7" fill="#e0ab05"/>
    <path d="M1461.329 2078.121s102.213 9.854 88.247 83.697c-13.966 73.843 12.754-120.955 12.754-120.955" opacity=".7" fill="#e0ab05"/>
    <path d="M1462.129 2047.344s85.022 4.953 113.453-43.83c28.431-48.783-34.221 116.712-34.221 116.712" opacity=".7" fill="#eadb21"/>
    <path d="M1470.337 2103.824s72.698-6.076 98.096 35.083c25.398 41.159-31.822-99.202-31.822-99.202" opacity=".7" fill="#eadb21"/>
    <linearGradient id="b" gradientUnits="userSpaceOnUse" x1="1390.335" y1="2126.352" x2="1390.335" y2="2008.889">
      <stop offset="0" stop-color="#eadb21"/>
      <stop offset=".5" stop-color="#eadb21"/>
      <stop offset=".5" stop-color="#fff32a"/>
      <stop offset="1" stop-color="#fff32a"/>
    </linearGradient>
    <path d="M1542.67 2067.621s-68.203 58.731-152.335 58.731S1238 2067.621 1238 2067.621s68.203-58.732 152.335-58.732 152.335 58.732 152.335 58.732z" fill="url(#b)"/>
    <ellipse cx="1299.528" cy="2051.547" rx="11.146" ry="10.724" fill="#fcfcfc"/>
    <path stroke-miterlimit="10" d="M1323.547 2020.486s4.474 19.759 4.465 44.13c-.01 24.372-4.495 44.128-4.495 44.128" fill="#fff" stroke="#fcfcfc"/>
    <ellipse cx="1299.486" cy="2054.055" rx="7.845" ry="7.547" fill="#1b1464"/>
    <ellipse cx="1305.242" cy="2056.129" rx="5.714" ry="5.496" fill="#fcfcfc"/>
  </g>
  <g transform="translate(-852 -443)" opacity=".8">
    <path d="M1856.031 1158.288s-21.508-100.479.693-121.623c22.201-21.145-96.957 73.43-96.957 73.43" opacity=".7" fill="#eef403"/>
    <path d="M1878.719 1157.554s-6.978-99.976 18.164-120.261c25.143-20.286-106.503 58.734-106.503 58.734" opacity=".7" fill="#efc803"/>
    <path d="M1868.738 1135.685s-21.508 100.479.693 121.623c22.2 21.145-96.957-73.43-96.957-73.43" opacity=".7" fill="#efc803"/>
    <path d="M1891.426 1136.418s-6.978 99.977 18.164 120.262c25.143 20.286-106.503-58.734-106.503-58.734" opacity=".7" fill="#eef403"/>
    <path d="M1927.328 1129.906s96.269-35.047 88.248-83.696 12.754 120.954 12.754 120.954" opacity=".7" fill="#e0ab05"/>
    <path d="M1927.328 1152.121s102.213 9.854 88.248 83.697c-13.967 73.844 12.754-120.955 12.754-120.955" opacity=".7" fill="#e0ab05"/>
    <path d="M1928.129 1121.344s85.022 4.953 113.453-43.83c28.431-48.783-34.221 116.712-34.221 116.712" opacity=".7" fill="#eadb21"/>
    <path d="M1936.337 1177.824s72.698-6.076 98.096 35.083c25.398 41.159-31.822-99.202-31.822-99.202" opacity=".7" fill="#eadb21"/>
    <linearGradient id="c" gradientUnits="userSpaceOnUse" x1="1856.335" y1="1200.352" x2="1856.335" y2="1082.889">
      <stop offset="0" stop-color="#eadb21"/>
      <stop offset=".5" stop-color="#eadb21"/>
      <stop offset=".5" stop-color="#fff32a"/>
      <stop offset="1" stop-color="#fff32a"/>
    </linearGradient>
    <path d="M2008.67 1141.621s-68.203 58.731-152.335 58.731S1704 1141.621 1704 1141.621s68.203-58.732 152.335-58.732 152.335 58.732 152.335 58.732z" fill="url(#c)"/>
    <ellipse cx="1765.528" cy="1125.547" rx="11.146" ry="10.724" fill="#fcfcfc"/>
    <path stroke-miterlimit="10" d="M1789.547 1094.486s4.474 19.759 4.465 44.13c-.01 24.372-4.494 44.128-4.494 44.128" fill="#fff" stroke="#fcfcfc"/>
    <ellipse cx="1765.486" cy="1128.055" rx="7.845" ry="7.547" fill="#1b1464"/>
    <ellipse cx="1771.242" cy="1130.129" rx="5.714" ry="5.496" fill="#fcfcfc"/>
  </g>
  <g transform="translate(-852 -443)">
    <path d="M1180.509 1693.769s-46.475-217.116 1.497-262.803c47.973-45.688-209.504 158.667-209.504 158.667" opacity=".7" fill="#eef403"/>
    <path d="M1229.533 1692.182s-15.078-216.027 39.248-259.859c54.327-43.834-230.131 126.914-230.131 126.914" opacity=".7" fill="#efc803"/>
    <path d="M1207.966 1644.928s-46.475 217.115 1.497 262.803c47.972 45.688-209.504-158.667-209.504-158.667" opacity=".7" fill="#efc803"/>
    <path d="M1256.99 1646.512s-15.078 216.029 39.248 259.861c54.327 43.834-230.132-126.913-230.132-126.913" opacity=".7" fill="#eef403"/>
    <path d="M1334.568 1632.441s208.016-75.729 190.684-180.851c-17.332-105.122 27.56 261.356 27.56 261.356" opacity=".7" fill="#e0ab05"/>
    <path d="M1334.568 1680.443s220.861 21.291 190.684 180.853c-30.177 159.562 27.56-261.359 27.56-261.359" opacity=".7" fill="#e0ab05"/>
    <path d="M1336.297 1613.939s183.717 10.703 245.149-94.708c61.433-105.411-73.945 252.19-73.945 252.19" opacity=".7" fill="#eadb21"/>
    <path d="M1354.033 1735.982s157.086-13.129 211.965 75.807c54.881 88.938-68.762-214.355-68.762-214.355" opacity=".7" fill="#eadb21"/>
    <linearGradient id="d" gradientUnits="userSpaceOnUse" x1="1181.165" y1="1784.662" x2="1181.165" y2="1530.846">
      <stop offset="0" stop-color="#eadb21"/>
      <stop offset=".5" stop-color="#eadb21"/>
      <stop offset=".5" stop-color="#fff32a"/>
      <stop offset="1" stop-color="#fff32a"/>
    </linearGradient>
    <path d="M1510.33 1657.755s-147.372 126.907-329.165 126.907S852 1657.755 852 1657.755s147.372-126.909 329.165-126.909 329.165 126.909 329.165 126.909z" fill="url(#d)"/>
    <ellipse cx="984.95" cy="1623.021" rx="24.085" ry="23.172" fill="#fcfcfc"/>
    <path stroke-miterlimit="10" d="M1036.85 1555.906s9.667 42.695 9.648 95.355c-.017 52.663-9.712 95.352-9.712 95.352" fill="#fff" stroke="#fcfcfc"/>
    <ellipse cx="984.859" cy="1628.44" rx="16.951" ry="16.308" fill="#1b1464"/>
    <path d="M1009.644 1632.922c0 6.559-5.528 11.877-12.347 11.877-6.818 0-12.347-5.318-12.347-11.877 0-6.563 5.528-11.879 12.347-11.879s12.347 5.316 12.347 11.879z" fill="#fcfcfc"/>
  </g>
  <g transform="translate(-852 -443)">
    <path d="M1733.509 2381.769s-46.476-217.116 1.497-262.803c47.973-45.688-209.504 158.667-209.504 158.667" opacity=".7" fill="#eef403"/>
    <path d="M1782.533 2380.182s-15.078-216.027 39.248-259.859c54.326-43.834-230.132 126.914-230.132 126.914" opacity=".7" fill="#efc803"/>
    <path d="M1760.966 2332.928s-46.475 217.115 1.497 262.803c47.972 45.688-209.504-158.667-209.504-158.667" opacity=".7" fill="#efc803"/>
    <path d="M1809.99 2334.512s-15.078 216.029 39.248 259.861c54.326 43.834-230.132-126.913-230.132-126.913" opacity=".7" fill="#eef403"/>
    <path d="M1887.568 2320.441s208.016-75.729 190.684-180.851c-17.332-105.122 27.56 261.356 27.56 261.356" opacity=".7" fill="#e0ab05"/>
    <path d="M1887.568 2368.443s220.861 21.291 190.684 180.853c-30.177 159.562 27.56-261.359 27.56-261.359" opacity=".7" fill="#e0ab05"/>
    <path d="M1889.297 2301.939s183.717 10.703 245.149-94.708c61.432-105.411-73.944 252.19-73.944 252.19" opacity=".7" fill="#eadb21"/>
    <path d="M1907.033 2423.982s157.086-13.129 211.965 75.807c54.881 88.938-68.762-214.355-68.762-214.355" opacity=".7" fill="#eadb21"/>
    <linearGradient id="e" gradientUnits="userSpaceOnUse" x1="1734.165" y1="2472.662" x2="1734.165" y2="2218.846">
      <stop offset="0" stop-color="#eadb21"/>
      <stop offset=".5" stop-color="#eadb21"/>
      <stop offset=".5" stop-color="#fff32a"/>
      <stop offset="1" stop-color="#fff32a"/>
    </linearGradient>
    <path d="M2063.33 2345.755s-147.372 126.907-329.165 126.907S1405 2345.755 1405 2345.755s147.372-126.909 329.165-126.909 329.165 126.909 329.165 126.909z" fill="url(#e)"/>
    <ellipse cx="1537.95" cy="2311.021" rx="24.085" ry="23.172" fill="#fcfcfc"/>
    <path stroke-miterlimit="10" d="M1589.85 2243.906s9.666 42.695 9.648 95.355c-.017 52.663-9.712 95.352-9.712 95.352" fill="#fff" stroke="#fcfcfc"/>
    <ellipse cx="1537.859" cy="2316.44" rx="16.951" ry="16.308" fill="#1b1464"/>
    <path d="M1562.644 2320.922c0 6.559-5.528 11.877-12.347 11.877s-12.347-5.318-12.347-11.877c0-6.563 5.528-11.879 12.347-11.879s12.347 5.316 12.347 11.879z" fill="#fcfcfc"/>
  </g>
  <g transform="translate(-852 -443)">
    <path d="M2118.509 1449.769s-46.476-217.116 1.497-262.803c47.973-45.688-209.504 158.667-209.504 158.667" opacity=".7" fill="#eef403"/>
    <path d="M2167.533 1448.182s-15.078-216.027 39.248-259.859c54.326-43.834-230.132 126.914-230.132 126.914" opacity=".7" fill="#efc803"/>
    <path d="M2145.966 1400.928s-46.475 217.115 1.497 262.803c47.972 45.688-209.504-158.667-209.504-158.667" opacity=".7" fill="#efc803"/>
    <path d="M2194.99 1402.512s-15.078 216.029 39.248 259.861c54.326 43.834-230.132-126.913-230.132-126.913" opacity=".7" fill="#eef403"/>
    <path d="M2272.568 1388.441s208.016-75.729 190.684-180.851c-17.332-105.122 27.56 261.356 27.56 261.356" opacity=".7" fill="#e0ab05"/>
    <path d="M2272.568 1436.443s220.861 21.291 190.684 180.853c-30.177 159.562 27.56-261.359 27.56-261.359" opacity=".7" fill="#e0ab05"/>
    <path d="M2274.297 1369.939s183.717 10.703 245.149-94.708c61.432-105.411-73.944 252.19-73.944 252.19" opacity=".7" fill="#eadb21"/>
    <path d="M2292.033 1491.982s157.086-13.129 211.965 75.807c54.881 88.938-68.762-214.355-68.762-214.355" opacity=".7" fill="#eadb21"/>
    <linearGradient id="f" gradientUnits="userSpaceOnUse" x1="2119.165" y1="1540.662" x2="2119.165" y2="1286.846">
      <stop offset="0" stop-color="#eadb21"/>
      <stop offset=".5" stop-color="#eadb21"/>
      <stop offset=".5" stop-color="#fff32a"/>
      <stop offset="1" stop-color="#fff32a"/>
    </linearGradient>
    <path d="M2448.33 1413.755s-147.372 126.907-329.165 126.907S1790 1413.755 1790 1413.755s147.372-126.909 329.165-126.909 329.165 126.909 329.165 126.909z" fill="url(#f)"/>
    <ellipse cx="1922.95" cy="1379.021" rx="24.085" ry="23.172" fill="#fcfcfc"/>
    <path stroke-miterlimit="10" d="M1974.85 1311.906s9.667 42.695 9.648 95.355c-.017 52.663-9.712 95.352-9.712 95.352" fill="#fff" stroke="#fcfcfc"/>
    <ellipse cx="1922.859" cy="1384.44" rx="16.951" ry="16.308" fill="#1b1464"/>
    <path d="M1947.644 1388.922c0 6.559-5.528 11.877-12.347 11.877-6.818 0-12.347-5.318-12.347-11.877 0-6.563 5.528-11.879 12.347-11.879s12.347 5.316 12.347 11.879z" fill="#fcfcfc"/>
  </g>
  <g transform="translate(-852 -443)" opacity=".8">
    <path d="M2345.031 1045.288s-21.508-100.479.693-121.623c22.201-21.145-96.957 73.43-96.957 73.43" opacity=".7" fill="#eef403"/>
    <path d="M2367.719 1044.554s-6.978-99.976 18.164-120.261c25.143-20.286-106.503 58.734-106.503 58.734" opacity=".7" fill="#efc803"/>
    <path d="M2357.738 1022.685s-21.508 100.479.693 121.623c22.2 21.145-96.957-73.43-96.957-73.43" opacity=".7" fill="#efc803"/>
    <path d="M2380.426 1023.418s-6.978 99.977 18.164 120.262c25.143 20.286-106.503-58.734-106.503-58.734" opacity=".7" fill="#eef403"/>
    <path d="M2416.328 1016.906s96.269-35.047 88.248-83.696 12.754 120.954 12.754 120.954" opacity=".7" fill="#e0ab05"/>
    <path d="M2416.328 1039.121s102.213 9.854 88.248 83.697c-13.967 73.844 12.754-120.955 12.754-120.955" opacity=".7" fill="#e0ab05"/>
    <path d="M2417.129 1008.344s85.022 4.953 113.453-43.83c28.431-48.783-34.221 116.712-34.221 116.712" opacity=".7" fill="#eadb21"/>
    <path d="M2425.337 1064.824s72.698-6.076 98.096 35.083c25.398 41.159-31.822-99.202-31.822-99.202" opacity=".7" fill="#eadb21"/>
    <linearGradient id="g" gradientUnits="userSpaceOnUse" x1="2345.335" y1="1087.352" x2="2345.335" y2="969.889">
      <stop offset="0" stop-color="#eadb21"/>
      <stop offset=".5" stop-color="#eadb21"/>
      <stop offset=".5" stop-color="#fff32a"/>
      <stop offset="1" stop-color="#fff32a"/>
    </linearGradient>
    <path d="M2497.67 1028.621s-68.203 58.731-152.335 58.731S2193 1028.621 2193 1028.621s68.203-58.732 152.335-58.732 152.335 58.732 152.335 58.732z" fill="url(#g)"/>
    <ellipse cx="2254.528" cy="1012.547" rx="11.146" ry="10.724" fill="#fcfcfc"/>
    <path stroke-miterlimit="10" d="M2278.547 981.486s4.474 19.759 4.465 44.13c-.01 24.372-4.494 44.128-4.494 44.128" fill="#fff" stroke="#fcfcfc"/>
    <ellipse cx="2254.486" cy="1015.055" rx="7.845" ry="7.547" fill="#1b1464"/>
    <ellipse cx="2260.242" cy="1017.129" rx="5.714" ry="5.496" fill="#fcfcfc"/>
  </g>
  <g transform="translate(-852 -443)" opacity=".8">
    <path d="M2157.233 2683.486s-17.575-82.107.566-99.385c18.142-17.278-79.229 60.004-79.229 60.004" opacity=".7" fill="#eef403"/>
    <path d="M2175.772 2682.887s-5.702-81.695 14.843-98.271c20.545-16.578-87.03 47.994-87.03 47.994" opacity=".7" fill="#efc803"/>
    <path d="M2167.617 2665.016s-17.575 82.107.566 99.386c18.141 17.278-79.229-60.004-79.229-60.004" opacity=".7" fill="#efc803"/>
    <path d="M2186.156 2665.615s-5.702 81.697 14.843 98.273c20.546 16.576-87.029-47.996-87.029-47.996" opacity=".7" fill="#eef403"/>
    <path d="M2215.494 2660.294s78.667-28.639 72.112-68.393c-6.555-39.755 10.422 98.839 10.422 98.839" opacity=".7" fill="#e0ab05"/>
    <path d="M2215.494 2678.447s83.524 8.052 72.112 68.394c-11.413 60.343 10.422-98.839 10.422-98.839" opacity=".7" fill="#e0ab05"/>
    <path d="M2216.148 2653.297s69.477 4.048 92.709-35.815c23.232-39.864-27.963 95.372-27.963 95.372" opacity=".7" fill="#eadb21"/>
    <path d="M2222.855 2699.451s59.406-4.966 80.16 28.668c20.754 33.634-26.004-81.063-26.004-81.063" opacity=".7" fill="#eadb21"/>
    <linearGradient id="h" gradientUnits="userSpaceOnUse" x1="2157.481" y1="2717.859" x2="2157.481" y2="2621.873">
      <stop offset="0" stop-color="#eadb21"/>
      <stop offset=".5" stop-color="#eadb21"/>
      <stop offset=".5" stop-color="#fff32a"/>
      <stop offset="1" stop-color="#fff32a"/>
    </linearGradient>
    <path d="M2281.963 2669.867s-55.732 47.992-124.481 47.992S2033 2669.867 2033 2669.867s55.732-47.994 124.481-47.994 124.482 47.994 124.482 47.994z" fill="url(#h)"/>
    <ellipse cx="2083.278" cy="2656.732" rx="9.108" ry="8.763" fill="#fcfcfc"/>
    <path stroke-miterlimit="10" d="M2102.905 2631.351s3.656 16.146 3.649 36.062c-.01 19.915-3.673 36.059-3.673 36.059" fill="#fff" stroke="#fcfcfc"/>
    <ellipse cx="2083.244" cy="2658.781" rx="6.411" ry="6.167" fill="#1b1464"/>
    <ellipse cx="2087.948" cy="2660.477" rx="4.669" ry="4.49" fill="#fcfcfc"/>
  </g>
  <g transform="translate(-852 -443)" opacity=".9">
    <path d="M2330.031 1786.288s-21.508-100.479.693-121.623c22.201-21.145-96.957 73.43-96.957 73.43" opacity=".7" fill="#eef403"/>
    <path d="M2352.719 1785.554s-6.978-99.976 18.164-120.261c25.143-20.286-106.503 58.734-106.503 58.734" opacity=".7" fill="#efc803"/>
    <path d="M2342.738 1763.685s-21.508 100.479.693 121.623c22.2 21.145-96.957-73.43-96.957-73.43" opacity=".7" fill="#efc803"/>
    <path d="M2365.426 1764.418s-6.978 99.977 18.164 120.262c25.143 20.286-106.503-58.734-106.503-58.734" opacity=".7" fill="#eef403"/>
    <path d="M2401.328 1757.906s96.269-35.047 88.248-83.696 12.754 120.954 12.754 120.954" opacity=".7" fill="#e0ab05"/>
    <path d="M2401.328 1780.121s102.213 9.854 88.248 83.697c-13.967 73.844 12.754-120.955 12.754-120.955" opacity=".7" fill="#e0ab05"/>
    <path d="M2402.129 1749.344s85.022 4.953 113.453-43.83c28.431-48.783-34.221 116.712-34.221 116.712" opacity=".7" fill="#eadb21"/>
    <path d="M2410.337 1805.824s72.698-6.076 98.096 35.083c25.398 41.159-31.822-99.202-31.822-99.202" opacity=".7" fill="#eadb21"/>
    <linearGradient id="i" gradientUnits="userSpaceOnUse" x1="2330.335" y1="1828.352" x2="2330.335" y2="1710.889">
      <stop offset="0" stop-color="#eadb21"/>
      <stop offset=".5" stop-color="#eadb21"/>
      <stop offset=".5" stop-color="#fff32a"/>
      <stop offset="1" stop-color="#fff32a"/>
    </linearGradient>
    <path d="M2482.67 1769.621s-68.203 58.731-152.335 58.731S2178 1769.621 2178 1769.621s68.203-58.732 152.335-58.732 152.335 58.732 152.335 58.732z" fill="url(#i)"/>
    <ellipse cx="2239.528" cy="1753.547" rx="11.146" ry="10.724" fill="#fcfcfc"/>
    <path stroke-miterlimit="10" d="M2263.547 1722.486s4.474 19.759 4.465 44.13c-.01 24.372-4.494 44.128-4.494 44.128" fill="#fff" stroke="#fcfcfc"/>
    <ellipse cx="2239.486" cy="1756.055" rx="7.845" ry="7.547" fill="#1b1464"/>
    <ellipse cx="2245.242" cy="1758.129" rx="5.714" ry="5.496" fill="#fcfcfc"/>
  </g>
  <g transform="translate(-852 -443)" opacity=".9">
    <path d="M2778.031 1294.288s-21.508-100.479.693-121.623c22.201-21.145-96.957 73.43-96.957 73.43" opacity=".7" fill="#eef403"/>
    <path d="M2800.719 1293.554s-6.978-99.976 18.164-120.261c25.143-20.286-106.503 58.734-106.503 58.734" opacity=".7" fill="#efc803"/>
    <path d="M2790.738 1271.685s-21.508 100.479.693 121.623c22.2 21.145-96.957-73.43-96.957-73.43" opacity=".7" fill="#efc803"/>
    <path d="M2813.426 1272.418s-6.978 99.977 18.164 120.262c25.143 20.286-106.503-58.734-106.503-58.734" opacity=".7" fill="#eef403"/>
    <path d="M2849.328 1265.906s96.269-35.047 88.248-83.696 12.754 120.954 12.754 120.954" opacity=".7" fill="#e0ab05"/>
    <path d="M2849.328 1288.121s102.213 9.854 88.248 83.697c-13.967 73.844 12.754-120.955 12.754-120.955" opacity=".7" fill="#e0ab05"/>
    <path d="M2850.129 1257.344s85.022 4.953 113.453-43.83c28.431-48.783-34.221 116.712-34.221 116.712" opacity=".7" fill="#eadb21"/>
    <path d="M2858.337 1313.824s72.698-6.076 98.096 35.083c25.398 41.159-31.822-99.202-31.822-99.202" opacity=".7" fill="#eadb21"/>
    <linearGradient id="j" gradientUnits="userSpaceOnUse" x1="2778.335" y1="1336.352" x2="2778.335" y2="1218.889">
      <stop offset="0" stop-color="#eadb21"/>
      <stop offset=".5" stop-color="#eadb21"/>
      <stop offset=".5" stop-color="#fff32a"/>
      <stop offset="1" stop-color="#fff32a"/>
    </linearGradient>
    <path d="M2930.67 1277.621s-68.203 58.731-152.335 58.731S2626 1277.621 2626 1277.621s68.203-58.732 152.335-58.732 152.335 58.732 152.335 58.732z" fill="url(#j)"/>
    <ellipse cx="2687.528" cy="1261.547" rx="11.146" ry="10.724" fill="#fcfcfc"/>
    <path stroke-miterlimit="10" d="M2711.547 1230.486s4.474 19.759 4.465 44.13c-.01 24.372-4.494 44.128-4.494 44.128" fill="#fff" stroke="#fcfcfc"/>
    <ellipse cx="2687.486" cy="1264.055" rx="7.845" ry="7.547" fill="#1b1464"/>
    <ellipse cx="2693.242" cy="1266.129" rx="5.714" ry="5.496" fill="#fcfcfc"/>
  </g>
  <g transform="translate(-852 -443)">
    <path d="M2661.509 2052.769s-46.476-217.116 1.497-262.803c47.973-45.688-209.504 158.667-209.504 158.667" opacity=".7" fill="#eef403"/>
    <path d="M2710.533 2051.182s-15.078-216.027 39.248-259.859c54.326-43.834-230.132 126.914-230.132 126.914" opacity=".7" fill="#efc803"/>
    <path d="M2688.966 2003.928s-46.475 217.115 1.497 262.803c47.972 45.688-209.504-158.667-209.504-158.667" opacity=".7" fill="#efc803"/>
    <path d="M2737.99 2005.512s-15.078 216.029 39.248 259.861c54.326 43.834-230.132-126.913-230.132-126.913" opacity=".7" fill="#eef403"/>
    <path d="M2815.568 1991.441s208.016-75.729 190.684-180.851c-17.332-105.122 27.56 261.356 27.56 261.356" opacity=".7" fill="#e0ab05"/>
    <path d="M2815.568 2039.443s220.861 21.291 190.684 180.853c-30.177 159.562 27.56-261.359 27.56-261.359" opacity=".7" fill="#e0ab05"/>
    <path d="M2817.297 1972.939s183.717 10.703 245.149-94.708c61.432-105.411-73.944 252.19-73.944 252.19" opacity=".7" fill="#eadb21"/>
    <path d="M2835.033 2094.982s157.086-13.129 211.965 75.807c54.881 88.938-68.762-214.355-68.762-214.355" opacity=".7" fill="#eadb21"/>
    <linearGradient id="k" gradientUnits="userSpaceOnUse" x1="2662.166" y1="2143.662" x2="2662.166" y2="1889.846">
      <stop offset="0" stop-color="#eadb21"/>
      <stop offset=".5" stop-color="#eadb21"/>
      <stop offset=".5" stop-color="#fff32a"/>
      <stop offset="1" stop-color="#fff32a"/>
    </linearGradient>
    <path d="M2991.33 2016.755s-147.372 126.907-329.165 126.907S2333 2016.755 2333 2016.755s147.372-126.909 329.165-126.909 329.165 126.909 329.165 126.909z" fill="url(#k)"/>
    <ellipse cx="2465.95" cy="1982.021" rx="24.085" ry="23.172" fill="#fcfcfc"/>
    <path stroke-miterlimit="10" d="M2517.85 1914.906s9.666 42.695 9.648 95.355c-.017 52.663-9.712 95.352-9.712 95.352" fill="#fff" stroke="#fcfcfc"/>
    <ellipse cx="2465.859" cy="1987.44" rx="16.951" ry="16.308" fill="#1b1464"/>
    <path d="M2490.644 1991.922c0 6.559-5.528 11.877-12.347 11.877s-12.347-5.318-12.347-11.877c0-6.563 5.528-11.879 12.347-11.879s12.347 5.316 12.347 11.879z" fill="#fcfcfc"/>
  </g>
  <g transform="translate(-852 -443)">
    <path d="M2891.186 1616.369s-35.395-165.352 1.141-200.146c36.535-34.795-159.554 120.838-159.554 120.838" opacity=".7" fill="#eef403"/>
    <path d="M2928.521 1615.161s-11.482-164.522 29.891-197.904c41.374-33.383-175.264 96.655-175.264 96.655" opacity=".7" fill="#efc803"/>
    <path d="M2912.097 1579.173s-35.395 165.351 1.14 200.146c36.535 34.795-159.554-120.838-159.554-120.838" opacity=".7" fill="#efc803"/>
    <path d="M2949.433 1580.379s-11.483 164.523 29.891 197.906c41.374 33.383-175.264-96.655-175.264-96.655" opacity=".7" fill="#eef403"/>
    <path d="M3008.515 1569.664s158.421-57.673 145.221-137.732c-13.2-80.059 20.989 199.044 20.989 199.044" opacity=".7" fill="#e0ab05"/>
    <path d="M3008.515 1606.221s168.204 16.215 145.221 137.734c-22.982 121.519 20.989-199.046 20.989-199.046" opacity=".7" fill="#e0ab05"/>
    <path d="M3009.831 1555.573s139.915 8.151 186.701-72.127c46.786-80.279-56.314 192.063-56.314 192.063" opacity=".7" fill="#eadb21"/>
    <path d="M3023.339 1648.519s119.634-9.999 161.428 57.733c41.796 67.733-52.367-163.249-52.367-163.249" opacity=".7" fill="#eadb21"/>
    <linearGradient id="l" gradientUnits="userSpaceOnUse" x1="2891.686" y1="1685.592" x2="2891.686" y2="1492.29">
      <stop offset="0" stop-color="#eadb21"/>
      <stop offset=".5" stop-color="#eadb21"/>
      <stop offset=".5" stop-color="#fff32a"/>
      <stop offset="1" stop-color="#fff32a"/>
    </linearGradient>
    <path d="M3142.371 1588.942s-112.235 96.65-250.686 96.65c-138.451 0-250.685-96.65-250.685-96.65s112.235-96.652 250.686-96.652c138.451 0 250.685 96.652 250.685 96.652z" fill="url(#l)"/>
    <ellipse cx="2742.252" cy="1562.489" rx="18.343" ry="17.647" fill="#fcfcfc"/>
    <path stroke-miterlimit="10" d="M2781.777 1511.376s7.361 32.516 7.349 72.621c-.013 40.107-7.396 72.618-7.396 72.618" fill="#fff" stroke="#fcfcfc"/>
    <ellipse cx="2742.183" cy="1566.617" rx="12.91" ry="12.419" fill="#1b1464"/>
    <ellipse cx="2751.655" cy="1570.029" rx="9.403" ry="9.045" fill="#fcfcfc"/>
  </g>
  <g transform="translate(-852 -443)">
    <path d="M2445.668 2456.314s-37.302-174.262 1.202-210.932c38.504-36.67-168.152 127.35-168.152 127.35" opacity=".7" fill="#eef403"/>
    <path d="M2485.017 2455.041s-12.103-173.389 31.501-208.569c43.604-35.182-184.709 101.864-184.709 101.864" opacity=".7" fill="#efc803"/>
    <path d="M2467.706 2417.113s-37.302 174.262 1.201 210.932c38.503 36.671-168.152-127.35-168.152-127.35" opacity=".7" fill="#efc803"/>
    <path d="M2507.055 2418.385s-12.103 173.391 31.501 208.57c43.604 35.183-184.709-101.863-184.709-101.863" opacity=".7" fill="#eef403"/>
    <path d="M2569.32 2407.092s166.957-60.781 153.047-145.154c-13.911-84.373 22.119 209.771 22.119 209.771" opacity=".7" fill="#e0ab05"/>
    <path d="M2569.32 2445.619s177.268 17.089 153.047 145.156c-24.222 128.068 22.119-209.772 22.119-209.772" opacity=".7" fill="#e0ab05"/>
    <path d="M2570.707 2392.242s147.455 8.59 196.763-76.016c49.308-84.604-59.35 202.414-59.35 202.414" opacity=".7" fill="#eadb21"/>
    <path d="M2584.943 2490.196s126.08-10.538 170.127 60.844c44.049 71.384-55.189-172.046-55.189-172.046" opacity=".7" fill="#eadb21"/>
    <linearGradient id="m" gradientUnits="userSpaceOnUse" x1="2446.195" y1="2529.268" x2="2446.195" y2="2325.549">
      <stop offset="0" stop-color="#eadb21"/>
      <stop offset=".5" stop-color="#eadb21"/>
      <stop offset=".5" stop-color="#fff32a"/>
      <stop offset="1" stop-color="#fff32a"/>
    </linearGradient>
    <path d="M2710.391 2427.409s-118.284 101.858-264.195 101.858S2182 2427.409 2182 2427.409s118.284-101.86 264.195-101.86 264.196 101.86 264.196 101.86z" fill="url(#m)"/>
    <ellipse cx="2288.709" cy="2399.531" rx="19.331" ry="18.598" fill="#fcfcfc"/>
    <path stroke-miterlimit="10" d="M2330.364 2345.663s7.759 34.269 7.744 76.534c-.014 42.269-7.795 76.531-7.795 76.531" fill="#fff" stroke="#fcfcfc"/>
    <ellipse cx="2288.636" cy="2403.881" rx="13.605" ry="13.089" fill="#1b1464"/>
    <ellipse cx="2298.619" cy="2407.478" rx="9.91" ry="9.532" fill="#fcfcfc"/>
  </g>
  <g transform="translate(-852 -443)">
    <path d="M1838.186 1950.369s-35.395-165.352 1.141-200.146c36.535-34.795-159.555 120.838-159.555 120.838" opacity=".7" fill="#eef403"/>
    <path d="M1875.521 1949.16s-11.482-164.521 29.891-197.903c41.374-33.383-175.264 96.655-175.264 96.655" opacity=".7" fill="#efc803"/>
    <path d="M1859.097 1913.173s-35.395 165.351 1.14 200.146c36.535 34.795-159.554-120.838-159.554-120.838" opacity=".7" fill="#efc803"/>
    <path d="M1896.433 1914.379s-11.483 164.523 29.891 197.906c41.374 33.383-175.264-96.655-175.264-96.655" opacity=".7" fill="#eef403"/>
    <path d="M1955.515 1903.664s158.421-57.674 145.221-137.732c-13.2-80.059 20.989 199.044 20.989 199.044" opacity=".7" fill="#e0ab05"/>
    <path d="M1955.515 1940.221s168.204 16.215 145.221 137.734c-22.982 121.519 20.989-199.047 20.989-199.047" opacity=".7" fill="#e0ab05"/>
    <path d="M1956.831 1889.572s139.915 8.152 186.701-72.127-56.314 192.063-56.314 192.063" opacity=".7" fill="#eadb21"/>
    <path d="M1970.339 1982.519s119.634-9.999 161.428 57.733c41.796 67.732-52.367-163.25-52.367-163.25" opacity=".7" fill="#eadb21"/>
    <linearGradient id="n" gradientUnits="userSpaceOnUse" x1="1838.686" y1="2019.592" x2="1838.686" y2="1826.29">
      <stop offset="0" stop-color="#eadb21"/>
      <stop offset=".5" stop-color="#eadb21"/>
      <stop offset=".5" stop-color="#fff32a"/>
      <stop offset="1" stop-color="#fff32a"/>
    </linearGradient>
    <path d="M2089.371 1922.941s-112.235 96.65-250.686 96.65c-138.451 0-250.685-96.65-250.685-96.65s112.235-96.651 250.686-96.651c138.451 0 250.685 96.651 250.685 96.651z" fill="url(#n)"/>
    <ellipse cx="1689.252" cy="1896.489" rx="18.342" ry="17.647" fill="#fcfcfc"/>
    <path stroke-miterlimit="10" d="M1728.777 1845.376s7.361 32.516 7.349 72.621c-.013 40.106-7.396 72.618-7.396 72.618" fill="#fff" stroke="#fcfcfc"/>
    <ellipse cx="1689.183" cy="1900.617" rx="12.91" ry="12.419" fill="#1b1464"/>
    <ellipse cx="1698.655" cy="1904.029" rx="9.403" ry="9.045" fill="#fcfcfc"/>
  </g>
  <g transform="translate(-852 -443)" opacity=".9">
    <path d="M2614.031 2759.288s-21.508-100.479.693-121.623c22.201-21.145-96.957 73.43-96.957 73.43" opacity=".7" fill="#eef403"/>
    <path d="M2636.719 2758.554s-6.978-99.976 18.164-120.261c25.142-20.286-106.503 58.734-106.503 58.734" opacity=".7" fill="#efc803"/>
    <path d="M2626.738 2736.685s-21.508 100.479.693 121.623c22.201 21.145-96.957-73.43-96.957-73.43" opacity=".7" fill="#efc803"/>
    <path d="M2649.426 2737.418s-6.978 99.977 18.164 120.262c25.142 20.286-106.503-58.734-106.503-58.734" opacity=".7" fill="#eef403"/>
    <path d="M2685.329 2730.906s96.268-35.047 88.248-83.696c-8.021-48.649 12.754 120.954 12.754 120.954" opacity=".7" fill="#e0ab05"/>
    <path d="M2685.329 2753.121s102.212 9.854 88.248 83.697c-13.967 73.844 12.754-120.955 12.754-120.955" opacity=".7" fill="#e0ab05"/>
    <path d="M2686.129 2722.344s85.022 4.953 113.453-43.83c28.431-48.783-34.221 116.712-34.221 116.712" opacity=".7" fill="#eadb21"/>
    <path d="M2694.337 2778.824s72.698-6.076 98.096 35.083c25.398 41.159-31.822-99.202-31.822-99.202" opacity=".7" fill="#eadb21"/>
    <linearGradient id="o" gradientUnits="userSpaceOnUse" x1="2614.335" y1="2801.352" x2="2614.335" y2="2683.889">
      <stop offset="0" stop-color="#eadb21"/>
      <stop offset=".5" stop-color="#eadb21"/>
      <stop offset=".5" stop-color="#fff32a"/>
      <stop offset="1" stop-color="#fff32a"/>
    </linearGradient>
    <path d="M2766.67 2742.621s-68.203 58.731-152.335 58.731S2462 2742.621 2462 2742.621s68.203-58.732 152.335-58.732 152.335 58.732 152.335 58.732z" fill="url(#o)"/>
    <ellipse cx="2523.528" cy="2726.547" rx="11.146" ry="10.724" fill="#fcfcfc"/>
    <path stroke-miterlimit="10" d="M2547.547 2695.486s4.474 19.759 4.465 44.13c-.01 24.372-4.495 44.128-4.495 44.128" fill="#fff" stroke="#fcfcfc"/>
    <ellipse cx="2523.486" cy="2729.055" rx="7.845" ry="7.547" fill="#1b1464"/>
    <ellipse cx="2529.242" cy="2731.129" rx="5.714" ry="5.496" fill="#fcfcfc"/>
  </g>
  <g transform="translate(-852 -443)" opacity=".9">
    <path d="M3015.031 2615.288s-21.508-100.479.693-121.623c22.201-21.145-96.957 73.43-96.957 73.43" opacity=".7" fill="#eef403"/>
    <path d="M3037.719 2614.554s-6.978-99.976 18.164-120.261c25.143-20.286-106.503 58.734-106.503 58.734" opacity=".7" fill="#efc803"/>
    <path d="M3027.738 2592.685s-21.508 100.479.693 121.623c22.2 21.145-96.957-73.43-96.957-73.43" opacity=".7" fill="#efc803"/>
    <path d="M3050.426 2593.418s-6.978 99.977 18.164 120.262c25.143 20.286-106.503-58.734-106.503-58.734" opacity=".7" fill="#eef403"/>
    <path d="M3086.328 2586.906s96.269-35.047 88.248-83.696 12.754 120.954 12.754 120.954" opacity=".7" fill="#e0ab05"/>
    <path d="M3086.328 2609.121s102.213 9.854 88.248 83.697c-13.967 73.844 12.754-120.955 12.754-120.955" opacity=".7" fill="#e0ab05"/>
    <path d="M3087.129 2578.344s85.022 4.953 113.453-43.83c28.431-48.783-34.221 116.712-34.221 116.712" opacity=".7" fill="#eadb21"/>
    <path d="M3095.337 2634.824s72.698-6.076 98.096 35.083c25.398 41.159-31.822-99.202-31.822-99.202" opacity=".7" fill="#eadb21"/>
    <linearGradient id="p" gradientUnits="userSpaceOnUse" x1="3015.335" y1="2657.352" x2="3015.335" y2="2539.889">
      <stop offset="0" stop-color="#eadb21"/>
      <stop offset=".5" stop-color="#eadb21"/>
      <stop offset=".5" stop-color="#fff32a"/>
      <stop offset="1" stop-color="#fff32a"/>
    </linearGradient>
    <path d="M3167.67 2598.621s-68.203 58.731-152.335 58.731S2863 2598.621 2863 2598.621s68.203-58.732 152.335-58.732 152.335 58.732 152.335 58.732z" fill="url(#p)"/>
    <ellipse cx="2924.528" cy="2582.547" rx="11.146" ry="10.724" fill="#fcfcfc"/>
    <path stroke-miterlimit="10" d="M2948.547 2551.486s4.474 19.759 4.465 44.13c-.01 24.372-4.494 44.128-4.494 44.128" fill="#fff" stroke="#fcfcfc"/>
    <ellipse cx="2924.486" cy="2585.055" rx="7.845" ry="7.547" fill="#1b1464"/>
    <ellipse cx="2930.242" cy="2587.129" rx="5.714" ry="5.496" fill="#fcfcfc"/>
  </g>
  <g transform="translate(-852 -443)">
    <path d="M3539.137 2160.187s-39.772-185.806 1.281-224.903c41.054-39.102-179.293 135.785-179.293 135.785" opacity=".7" fill="#eef403"/>
    <path d="M3581.09 2158.829s-12.902-184.874 33.589-222.385c46.494-37.514-196.945 108.611-196.945 108.611" opacity=".7" fill="#efc803"/>
    <path d="M3562.635 2118.389s-39.771 185.807 1.281 224.905c41.053 39.101-179.293-135.787-179.293-135.787" opacity=".7" fill="#efc803"/>
    <path d="M3604.586 2119.744s-12.9 184.878 33.592 222.389c46.492 37.513-196.945-108.611-196.945-108.611" opacity=".7" fill="#eef403"/>
    <path d="M3670.979 2107.703s178.019-64.809 163.188-154.771c-14.833-89.962 23.584 223.668 23.584 223.668" opacity=".7" fill="#e0ab05"/>
    <path d="M3670.979 2148.783s189.012 18.221 163.188 154.771c-25.827 136.553 23.584-223.669 23.584-223.669" opacity=".7" fill="#e0ab05"/>
    <path d="M3672.459 2091.87s157.223 9.159 209.797-81.051c52.574-90.209-63.28 215.823-63.28 215.823" opacity=".7" fill="#eadb21"/>
    <path d="M3687.637 2196.313s134.434-11.235 181.398 64.877c46.967 76.11-58.846-183.445-58.846-183.445" opacity=".7" fill="#eadb21"/>
    <linearGradient id="q" gradientUnits="userSpaceOnUse" x1="3539.697" y1="2237.973" x2="3539.697" y2="2020.76">
      <stop offset="0" stop-color="#eadb21"/>
      <stop offset=".5" stop-color="#eadb21"/>
      <stop offset=".5" stop-color="#fff32a"/>
      <stop offset="1" stop-color="#fff32a"/>
    </linearGradient>
    <path d="M3821.395 2129.367s-126.121 108.605-281.696 108.605c-155.577 0-281.698-108.605-281.698-108.605s126.121-108.607 281.698-108.607c155.574 0 281.696 108.607 281.696 108.607z" fill="url(#q)"/>
    <path d="M3392.391 2099.643c0 10.951-9.229 19.829-20.612 19.829-11.382 0-20.611-8.878-20.611-19.829 0-10.955 9.229-19.832 20.611-19.832 11.383 0 20.612 8.877 20.612 19.832z" fill="#fcfcfc"/>
    <path stroke-miterlimit="10" d="M3416.193 2042.205s8.273 36.538 8.257 81.605c-.015 45.068-8.312 81.601-8.312 81.601" fill="#fff" stroke="#fcfcfc"/>
    <ellipse cx="3371.699" cy="2104.279" rx="14.508" ry="13.955" fill="#1b1464"/>
    <ellipse cx="3382.344" cy="2108.115" rx="10.566" ry="10.163" fill="#fcfcfc"/>
  </g>
  <g transform="translate(-852 -443)">
    <path d="M4230.627 2568.195s-31.494-147.138 1.016-178.1c32.51-30.963-141.979 107.527-141.979 107.527" opacity=".7" fill="#eef403"/>
    <path d="M4263.85 2567.119s-10.217-146.398 26.599-176.104c36.817-29.706-155.958 86.008-155.958 86.008" opacity=".7" fill="#efc803"/>
    <path d="M4249.234 2535.096s-31.494 147.137 1.016 178.099c32.509 30.963-141.979-107.526-141.979-107.526" opacity=".7" fill="#efc803"/>
    <path d="M4282.457 2536.17s-10.217 146.4 26.599 176.105c36.817 29.705-155.958-86.008-155.958-86.008" opacity=".7" fill="#eef403"/>
    <path d="M4335.031 2526.634s140.971-51.32 129.226-122.561c-11.746-71.239 18.677 177.119 18.677 177.119" opacity=".7" fill="#e0ab05"/>
    <path d="M4335.031 2559.164s149.676 14.43 129.226 122.563c-20.452 108.133 18.677-177.121 18.677-177.121" opacity=".7" fill="#e0ab05"/>
    <path d="M4336.203 2514.096s124.503 7.253 166.136-64.183c41.632-71.436-50.111 170.907-50.111 170.907" opacity=".7" fill="#eadb21"/>
    <path d="M4348.223 2596.803s106.456-8.897 143.646 51.374c37.192 60.271-46.599-145.267-46.599-145.267" opacity=".7" fill="#eadb21"/>
    <linearGradient id="r" gradientUnits="userSpaceOnUse" x1="4231.072" y1="2629.792" x2="4231.072" y2="2457.784">
      <stop offset="0" stop-color="#eadb21"/>
      <stop offset=".5" stop-color="#eadb21"/>
      <stop offset=".5" stop-color="#fff32a"/>
      <stop offset="1" stop-color="#fff32a"/>
    </linearGradient>
    <path d="M4454.145 2543.789s-99.874 86.003-223.072 86.003c-123.199 0-223.072-86.003-223.072-86.003s99.873-86.005 223.072-86.005c123.198 0 223.072 86.005 223.072 86.005z" fill="url(#r)"/>
    <ellipse cx="4098.1" cy="2520.25" rx="16.322" ry="15.703" fill="#fcfcfc"/>
    <path stroke-miterlimit="10" d="M4133.271 2474.767s6.551 28.935 6.537 64.622c-.012 35.689-6.58 64.619-6.58 64.619" fill="#fff" stroke="#fcfcfc"/>
    <ellipse cx="4098.037" cy="2523.923" rx="11.488" ry="11.052" fill="#1b1464"/>
    <ellipse cx="4106.467" cy="2526.96" rx="8.367" ry="8.048" fill="#fcfcfc"/>
  </g>
  <g transform="translate(-852 -443)" opacity=".9">
    <path d="M3087.031 2318.288s-21.508-100.479.693-121.623c22.201-21.145-96.957 73.43-96.957 73.43" opacity=".7" fill="#eef403"/>
    <path d="M3109.719 2317.554s-6.978-99.976 18.164-120.261c25.143-20.286-106.503 58.734-106.503 58.734" opacity=".7" fill="#efc803"/>
    <path d="M3099.738 2295.685s-21.508 100.479.693 121.623c22.2 21.145-96.957-73.43-96.957-73.43" opacity=".7" fill="#efc803"/>
    <path d="M3122.426 2296.418s-6.978 99.977 18.164 120.262c25.143 20.286-106.503-58.734-106.503-58.734" opacity=".7" fill="#eef403"/>
    <path d="M3158.328 2289.906s96.269-35.047 88.248-83.696 12.754 120.954 12.754 120.954" opacity=".7" fill="#e0ab05"/>
    <path d="M3158.328 2312.121s102.213 9.854 88.248 83.697c-13.967 73.844 12.754-120.955 12.754-120.955" opacity=".7" fill="#e0ab05"/>
    <path d="M3159.129 2281.344s85.022 4.953 113.453-43.83c28.431-48.783-34.221 116.712-34.221 116.712" opacity=".7" fill="#eadb21"/>
    <path d="M3167.337 2337.824s72.698-6.076 98.096 35.083c25.398 41.159-31.822-99.202-31.822-99.202" opacity=".7" fill="#eadb21"/>
    <linearGradient id="s" gradientUnits="userSpaceOnUse" x1="3087.335" y1="2360.352" x2="3087.335" y2="2242.889">
      <stop offset="0" stop-color="#eadb21"/>
      <stop offset=".5" stop-color="#eadb21"/>
      <stop offset=".5" stop-color="#fff32a"/>
      <stop offset="1" stop-color="#fff32a"/>
    </linearGradient>
    <path d="M3239.67 2301.621s-68.203 58.731-152.335 58.731S2935 2301.621 2935 2301.621s68.203-58.732 152.335-58.732 152.335 58.732 152.335 58.732z" fill="url(#s)"/>
    <ellipse cx="2996.528" cy="2285.547" rx="11.146" ry="10.724" fill="#fcfcfc"/>
    <path stroke-miterlimit="10" d="M3020.547 2254.486s4.474 19.759 4.465 44.13c-.01 24.372-4.494 44.128-4.494 44.128" fill="#fff" stroke="#fcfcfc"/>
    <ellipse cx="2996.486" cy="2288.055" rx="7.845" ry="7.547" fill="#1b1464"/>
    <ellipse cx="3002.242" cy="2290.129" rx="5.714" ry="5.496" fill="#fcfcfc"/>
  </g>
  <g transform="translate(-852 -443)" opacity=".8">
    <path d="M3479.031 2540.288s-21.508-100.479.693-121.623c22.201-21.145-96.957 73.43-96.957 73.43" opacity=".7" fill="#eef403"/>
    <path d="M3501.719 2539.554s-6.978-99.976 18.164-120.261c25.143-20.286-106.503 58.734-106.503 58.734" opacity=".7" fill="#efc803"/>
    <path d="M3491.738 2517.685s-21.508 100.479.693 121.623c22.2 21.145-96.957-73.43-96.957-73.43" opacity=".7" fill="#efc803"/>
    <path d="M3514.426 2518.418s-6.978 99.977 18.164 120.262c25.143 20.286-106.503-58.734-106.503-58.734" opacity=".7" fill="#eef403"/>
    <path d="M3550.328 2511.906s96.269-35.047 88.248-83.696 12.754 120.954 12.754 120.954" opacity=".7" fill="#e0ab05"/>
    <path d="M3550.328 2534.121s102.213 9.854 88.248 83.697c-13.967 73.844 12.754-120.955 12.754-120.955" opacity=".7" fill="#e0ab05"/>
    <path d="M3551.129 2503.344s85.022 4.953 113.453-43.83c28.431-48.783-34.221 116.712-34.221 116.712" opacity=".7" fill="#eadb21"/>
    <path d="M3559.337 2559.824s72.698-6.076 98.096 35.083c25.398 41.159-31.822-99.202-31.822-99.202" opacity=".7" fill="#eadb21"/>
    <linearGradient id="t" gradientUnits="userSpaceOnUse" x1="3479.335" y1="2582.352" x2="3479.335" y2="2464.889">
      <stop offset="0" stop-color="#eadb21"/>
      <stop offset=".5" stop-color="#eadb21"/>
      <stop offset=".5" stop-color="#fff32a"/>
      <stop offset="1" stop-color="#fff32a"/>
    </linearGradient>
    <path d="M3631.67 2523.621s-68.203 58.731-152.335 58.731S3327 2523.621 3327 2523.621s68.203-58.732 152.335-58.732 152.335 58.732 152.335 58.732z" fill="url(#t)"/>
    <ellipse cx="3388.528" cy="2507.547" rx="11.146" ry="10.724" fill="#fcfcfc"/>
    <path stroke-miterlimit="10" d="M3412.547 2476.486s4.474 19.759 4.465 44.13c-.01 24.372-4.494 44.128-4.494 44.128" fill="#fff" stroke="#fcfcfc"/>
    <ellipse cx="3388.486" cy="2510.055" rx="7.845" ry="7.547" fill="#1b1464"/>
    <ellipse cx="3394.242" cy="2512.129" rx="5.714" ry="5.496" fill="#fcfcfc"/>
  </g>
  <g transform="translate(-852 -443)">
    <path d="M4117.865 2026.075s-30.821-143.99.994-174.289c31.814-30.301-138.942 105.227-138.942 105.227" opacity=".7" fill="#eef403"/>
    <path d="M4150.377 2025.022s-9.998-143.268 26.029-172.337c36.031-29.07-152.621 84.168-152.621 84.168" opacity=".7" fill="#efc803"/>
    <path d="M4136.074 1993.684s-30.82 143.99.994 174.289c31.813 30.301-138.941-105.227-138.941-105.227" opacity=".7" fill="#efc803"/>
    <path d="M4168.587 1994.734s-9.999 143.27 26.029 172.339c36.03 29.07-152.622-84.168-152.622-84.168" opacity=".7" fill="#eef403"/>
    <path d="M4220.036 1985.403s137.956-50.224 126.462-119.939c-11.495-69.716 18.276 173.331 18.276 173.331" opacity=".7" fill="#e0ab05"/>
    <path d="M4220.036 2017.238s146.474 14.12 126.462 119.939c-20.016 105.82 18.276-173.332 18.276-173.332" opacity=".7" fill="#e0ab05"/>
    <path d="M4221.184 1973.133s121.84 7.098 162.582-62.81c40.741-69.908-49.04 167.251-49.04 167.251" opacity=".7" fill="#eadb21"/>
    <path d="M4232.945 2054.071s104.18-8.708 140.574 50.274c36.396 58.982-45.602-142.159-45.602-142.159" opacity=".7" fill="#eadb21"/>
    <linearGradient id="u" gradientUnits="userSpaceOnUse" x1="4118.301" y1="2086.354" x2="4118.301" y2="1918.025">
      <stop offset="0" stop-color="#eadb21"/>
      <stop offset=".5" stop-color="#eadb21"/>
      <stop offset=".5" stop-color="#fff32a"/>
      <stop offset="1" stop-color="#fff32a"/>
    </linearGradient>
    <path d="M4336.602 2002.191s-97.738 84.163-218.301 84.163c-120.563 0-218.301-84.163-218.301-84.163s97.737-84.166 218.301-84.166c120.562 0 218.301 84.166 218.301 84.166z" fill="url(#u)"/>
    <ellipse cx="3988.172" cy="1979.156" rx="15.973" ry="15.367" fill="#fcfcfc"/>
    <path stroke-miterlimit="10" d="M4022.592 1934.646s6.41 28.314 6.398 63.239c-.012 34.926-6.441 63.236-6.441 63.236" fill="#fff" stroke="#fcfcfc"/>
    <ellipse cx="3988.111" cy="1982.75" rx="11.242" ry="10.814" fill="#1b1464"/>
    <ellipse cx="3996.36" cy="1985.723" rx="8.188" ry="7.876" fill="#fcfcfc"/>
  </g>
  <g transform="translate(-852 -443)" opacity=".8">
    <path d="M4377.254 2283.402s-16.87-78.816.545-95.402c17.414-16.586-76.055 57.6-76.055 57.6" opacity=".7" fill="#eef403"/>
    <path d="M4395.051 2282.826s-5.474-78.422 14.248-94.333c19.722-15.913-83.542 46.071-83.542 46.071" opacity=".7" fill="#efc803"/>
    <path d="M4387.222 2265.672s-16.87 78.816.544 95.402-76.054-57.599-76.054-57.599" opacity=".7" fill="#efc803"/>
    <path d="M4405.018 2266.248s-5.473 78.422 14.248 94.334c19.723 15.912-83.541-46.072-83.541-46.072" opacity=".7" fill="#eef403"/>
    <path d="M4433.18 2261.14s75.514-27.491 69.223-65.651c-6.292-38.162 10.004 94.877 10.004 94.877" opacity=".7" fill="#e0ab05"/>
    <path d="M4433.18 2278.564s80.177 7.729 69.223 65.653c-10.955 57.923 10.004-94.878 10.004-94.878" opacity=".7" fill="#e0ab05"/>
    <path d="M4433.809 2254.423s66.691 3.886 88.993-34.38c22.301-38.267-26.843 91.549-26.843 91.549" opacity=".7" fill="#eadb21"/>
    <path d="M4440.246 2298.727s57.025-4.766 76.947 27.52c19.923 32.285-24.961-77.814-24.961-77.814" opacity=".7" fill="#eadb21"/>
    <linearGradient id="v" gradientUnits="userSpaceOnUse" x1="4377.492" y1="2316.398" x2="4377.492" y2="2224.259">
      <stop offset="0" stop-color="#eadb21"/>
      <stop offset=".5" stop-color="#eadb21"/>
      <stop offset=".5" stop-color="#fff32a"/>
      <stop offset="1" stop-color="#fff32a"/>
    </linearGradient>
    <path d="M4496.985 2270.328s-53.499 46.07-119.493 46.07c-65.993 0-119.492-46.07-119.492-46.07s53.499-46.069 119.492-46.069c65.994 0 119.493 46.069 119.493 46.069z" fill="url(#v)"/>
    <ellipse cx="4306.263" cy="2257.721" rx="8.744" ry="8.411" fill="#fcfcfc"/>
    <path stroke-miterlimit="10" d="M4325.104 2233.355s3.51 15.5 3.502 34.616c-.01 19.118-3.525 34.614-3.525 34.614" fill="#fff" stroke="#fcfcfc"/>
    <ellipse cx="4306.23" cy="2259.688" rx="6.154" ry="5.92" fill="#1b1464"/>
    <ellipse cx="4310.746" cy="2261.314" rx="4.482" ry="4.311" fill="#fcfcfc"/>
  </g>
  <g transform="translate(-852 -443)" opacity=".9">
    <path d="M3247.031 1904.288s-21.508-100.479.693-121.623c22.201-21.145-96.957 73.43-96.957 73.43" opacity=".7" fill="#eef403"/>
    <path d="M3269.719 1903.554s-6.978-99.976 18.164-120.261c25.143-20.286-106.503 58.734-106.503 58.734" opacity=".7" fill="#efc803"/>
    <path d="M3259.738 1881.685s-21.508 100.479.693 121.623c22.2 21.145-96.957-73.43-96.957-73.43" opacity=".7" fill="#efc803"/>
    <path d="M3282.426 1882.418s-6.978 99.977 18.164 120.262c25.143 20.286-106.503-58.734-106.503-58.734" opacity=".7" fill="#eef403"/>
    <path d="M3318.328 1875.906s96.269-35.047 88.248-83.696 12.754 120.954 12.754 120.954" opacity=".7" fill="#e0ab05"/>
    <path d="M3318.328 1898.121s102.213 9.854 88.248 83.697c-13.967 73.844 12.754-120.955 12.754-120.955" opacity=".7" fill="#e0ab05"/>
    <path d="M3319.129 1867.344s85.022 4.953 113.453-43.83c28.431-48.783-34.221 116.712-34.221 116.712" opacity=".7" fill="#eadb21"/>
    <path d="M3327.337 1923.824s72.698-6.076 98.096 35.083c25.398 41.159-31.822-99.202-31.822-99.202" opacity=".7" fill="#eadb21"/>
    <linearGradient id="w" gradientUnits="userSpaceOnUse" x1="3247.335" y1="1946.352" x2="3247.335" y2="1828.889">
      <stop offset="0" stop-color="#eadb21"/>
      <stop offset=".5" stop-color="#eadb21"/>
      <stop offset=".5" stop-color="#fff32a"/>
      <stop offset="1" stop-color="#fff32a"/>
    </linearGradient>
    <path d="M3399.67 1887.621s-68.203 58.731-152.335 58.731S3095 1887.621 3095 1887.621s68.203-58.732 152.335-58.732 152.335 58.732 152.335 58.732z" fill="url(#w)"/>
    <ellipse cx="3156.528" cy="1871.547" rx="11.146" ry="10.724" fill="#fcfcfc"/>
    <path stroke-miterlimit="10" d="M3180.547 1840.486s4.474 19.759 4.465 44.13c-.01 24.372-4.494 44.128-4.494 44.128" fill="#fff" stroke="#fcfcfc"/>
    <ellipse cx="3156.486" cy="1874.055" rx="7.845" ry="7.547" fill="#1b1464"/>
    <ellipse cx="3162.242" cy="1876.129" rx="5.714" ry="5.496" fill="#fcfcfc"/>
  </g>
  <g transform="translate(-852 -443)">
    <path d="M3671.817 1724.643s-26.57-124.132.856-150.252c27.428-26.122-119.779 90.714-119.779 90.714" opacity=".7" fill="#eef403"/>
    <path d="M3699.846 1723.735s-8.62-123.509 22.439-148.569c31.061-25.061-131.572 72.56-131.572 72.56" opacity=".7" fill="#efc803"/>
    <path d="M3687.516 1696.718s-26.57 124.132.856 150.252c27.427 26.122-119.779-90.714-119.779-90.714" opacity=".7" fill="#efc803"/>
    <path d="M3715.543 1697.624s-8.619 123.51 22.44 148.57c31.061 25.062-131.573-72.56-131.573-72.56" opacity=".7" fill="#eef403"/>
    <path d="M3759.896 1689.58s118.93-43.297 109.021-103.398c-9.91-60.101 15.756 149.425 15.756 149.425" opacity=".7" fill="#e0ab05"/>
    <path d="M3759.896 1717.023s126.273 12.173 109.021 103.398c-17.255 91.227 15.756-149.426 15.756-149.426" opacity=".7" fill="#e0ab05"/>
    <path d="M3760.887 1679.002s105.035 6.119 140.158-54.147c35.123-60.266-42.275 144.185-42.275 144.185" opacity=".7" fill="#eadb21"/>
    <path d="M3771.026 1748.777s89.811-7.507 121.187 43.341c31.377 50.848-39.313-122.553-39.313-122.553" opacity=".7" fill="#eadb21"/>
    <linearGradient id="x" gradientUnits="userSpaceOnUse" x1="3672.193" y1="1776.608" x2="3672.193" y2="1631.495">
      <stop offset="0" stop-color="#eadb21"/>
      <stop offset=".5" stop-color="#eadb21"/>
      <stop offset=".5" stop-color="#fff32a"/>
      <stop offset="1" stop-color="#fff32a"/>
    </linearGradient>
    <path d="M3860.386 1704.052s-84.257 72.557-188.192 72.557S3484 1704.052 3484 1704.052s84.258-72.557 188.193-72.557c103.935 0 188.193 72.557 188.193 72.557z" fill="url(#x)"/>
    <ellipse cx="3560.011" cy="1684.194" rx="13.77" ry="13.247" fill="#fcfcfc"/>
    <path stroke-miterlimit="10" d="M3589.684 1645.822s5.527 24.41 5.516 54.518c-.01 30.109-5.552 54.516-5.552 54.516" fill="#fff" stroke="#fcfcfc"/>
    <ellipse cx="3559.959" cy="1687.292" rx="9.691" ry="9.323" fill="#1b1464"/>
    <ellipse cx="3567.07" cy="1689.854" rx="7.059" ry="6.79" fill="#fcfcfc"/>
  </g>
  <g transform="translate(-852 -443)" opacity=".9">
    <path d="M3941.031 1503.288s-21.508-100.479.693-121.623c22.201-21.145-96.957 73.43-96.957 73.43" opacity=".7" fill="#eef403"/>
    <path d="M3963.719 1502.554s-6.978-99.976 18.164-120.261c25.143-20.286-106.503 58.734-106.503 58.734" opacity=".7" fill="#efc803"/>
    <path d="M3953.738 1480.685s-21.508 100.479.693 121.623c22.2 21.145-96.957-73.43-96.957-73.43" opacity=".7" fill="#efc803"/>
    <path d="M3976.426 1481.418s-6.978 99.977 18.164 120.262c25.143 20.286-106.503-58.734-106.503-58.734" opacity=".7" fill="#eef403"/>
    <path d="M4012.328 1474.906s96.269-35.047 88.248-83.696 12.754 120.954 12.754 120.954" opacity=".7" fill="#e0ab05"/>
    <path d="M4012.328 1497.121s102.213 9.854 88.248 83.697c-13.967 73.844 12.754-120.955 12.754-120.955" opacity=".7" fill="#e0ab05"/>
    <path d="M4013.129 1466.344s85.022 4.953 113.453-43.83c28.431-48.783-34.221 116.712-34.221 116.712" opacity=".7" fill="#eadb21"/>
    <path d="M4021.337 1522.824s72.698-6.076 98.096 35.083c25.398 41.159-31.822-99.202-31.822-99.202" opacity=".7" fill="#eadb21"/>
    <linearGradient id="y" gradientUnits="userSpaceOnUse" x1="3941.335" y1="1545.352" x2="3941.335" y2="1427.889">
      <stop offset="0" stop-color="#eadb21"/>
      <stop offset=".5" stop-color="#eadb21"/>
      <stop offset=".5" stop-color="#fff32a"/>
      <stop offset="1" stop-color="#fff32a"/>
    </linearGradient>
    <path d="M4093.67 1486.621s-68.203 58.731-152.335 58.731S3789 1486.621 3789 1486.621s68.203-58.732 152.335-58.732 152.335 58.732 152.335 58.732z" fill="url(#y)"/>
    <ellipse cx="3850.528" cy="1470.547" rx="11.146" ry="10.724" fill="#fcfcfc"/>
    <path stroke-miterlimit="10" d="M3874.547 1439.486s4.474 19.759 4.465 44.13c-.01 24.372-4.494 44.128-4.494 44.128" fill="#fff" stroke="#fcfcfc"/>
    <ellipse cx="3850.486" cy="1473.055" rx="7.845" ry="7.547" fill="#1b1464"/>
    <ellipse cx="3856.242" cy="1475.129" rx="5.714" ry="5.496" fill="#fcfcfc"/>
  </g>
  <g transform="translate(-852 -443)" opacity=".8">
    <path d="M4537.794 1869.846s-16.947-79.174.546-95.834c17.494-16.661-76.397 57.859-76.397 57.859" opacity=".7" fill="#eef403"/>
    <path d="M4555.671 1869.267s-5.498-78.776 14.313-94.761c19.812-15.984-83.92 46.28-83.92 46.28" opacity=".7" fill="#efc803"/>
    <path d="M4547.807 1852.035s-16.947 79.173.547 95.833c17.492 16.661-76.398-57.859-76.398-57.859" opacity=".7" fill="#efc803"/>
    <path d="M4565.684 1852.612s-5.498 78.777 14.313 94.761c19.811 15.985-83.92-46.279-83.92-46.279" opacity=".7" fill="#eef403"/>
    <path d="M4593.973 1847.481s75.855-27.615 69.536-65.949c-6.321-38.333 10.05 95.307 10.05 95.307" opacity=".7" fill="#e0ab05"/>
    <path d="M4593.973 1864.986s80.539 7.764 69.536 65.949c-11.005 58.186 10.05-95.307 10.05-95.307" opacity=".7" fill="#e0ab05"/>
    <path d="M4594.604 1840.734s66.994 3.903 89.396-34.536c22.402-38.438-26.965 91.964-26.965 91.964" opacity=".7" fill="#eadb21"/>
    <path d="M4601.071 1885.239s57.283-4.788 77.296 27.644c20.013 32.432-25.075-78.167-25.075-78.167" opacity=".7" fill="#eadb21"/>
    <linearGradient id="z" gradientUnits="userSpaceOnUse" x1="4538.033" y1="1902.99" x2="4538.033" y2="1810.434">
      <stop offset="0" stop-color="#eadb21"/>
      <stop offset=".5" stop-color="#eadb21"/>
      <stop offset=".5" stop-color="#fff32a"/>
      <stop offset="1" stop-color="#fff32a"/>
    </linearGradient>
    <path d="M4658.066 1856.713s-53.74 46.277-120.033 46.277c-66.292 0-120.033-46.277-120.033-46.277s53.741-46.279 120.033-46.279c66.293 0 120.033 46.279 120.033 46.279z" fill="url(#z)"/>
    <ellipse cx="4466.482" cy="1844.047" rx="8.783" ry="8.449" fill="#fcfcfc"/>
    <path stroke-miterlimit="10" d="M4485.407 1819.572s3.525 15.569 3.519 34.772c-.01 19.204-3.542 34.771-3.542 34.771" fill="#fff" stroke="#fcfcfc"/>
    <ellipse cx="4466.448" cy="1846.022" rx="6.182" ry="5.946" fill="#1b1464"/>
    <ellipse cx="4470.984" cy="1847.657" rx="4.502" ry="4.33" fill="#fcfcfc"/>
  </g>
  <g transform="translate(-852 -443)" opacity=".8">
    <path d="M3430.465 1487.395s-17.043-79.617.549-96.37c17.592-16.754-76.825 58.183-76.825 58.183" opacity=".7" fill="#eef403"/>
    <path d="M3448.441 1486.813s-5.529-79.217 14.393-95.291c19.922-16.074-84.39 46.539-84.39 46.539" opacity=".7" fill="#efc803"/>
    <path d="M3440.533 1469.485s-17.042 79.617.549 96.37c17.591 16.754-76.825-58.183-76.825-58.183" opacity=".7" fill="#efc803"/>
    <path d="M3458.51 1470.066s-5.529 79.218 14.393 95.292c19.922 16.074-84.39-46.539-84.39-46.539" opacity=".7" fill="#eef403"/>
    <path d="M3486.957 1464.906s76.28-27.77 69.926-66.318c-6.356-38.548 10.105 95.84 10.105 95.84" opacity=".7" fill="#e0ab05"/>
    <path d="M3486.957 1482.509s80.99 7.808 69.926 66.318c-11.067 58.512 10.105-95.84 10.105-95.84" opacity=".7" fill="#e0ab05"/>
    <path d="M3487.592 1458.122s67.369 3.925 89.896-34.729c22.527-38.654-27.115 92.479-27.115 92.479" opacity=".7" fill="#eadb21"/>
    <path d="M3494.096 1502.875s57.604-4.814 77.728 27.798c20.125 32.613-25.215-78.604-25.215-78.604" opacity=".7" fill="#eadb21"/>
    <linearGradient id="A" gradientUnits="userSpaceOnUse" x1="3430.705" y1="1520.726" x2="3430.705" y2="1427.651">
      <stop offset="0" stop-color="#eadb21"/>
      <stop offset=".5" stop-color="#eadb21"/>
      <stop offset=".5" stop-color="#fff32a"/>
      <stop offset="1" stop-color="#fff32a"/>
    </linearGradient>
    <path d="M3551.41 1474.188s-54.042 46.537-120.705 46.537S3310 1474.188 3310 1474.188s54.042-46.537 120.705-46.537 120.705 46.537 120.705 46.537z" fill="url(#A)"/>
    <ellipse cx="3358.753" cy="1461.452" rx="8.832" ry="8.497" fill="#fcfcfc"/>
    <path stroke-miterlimit="10" d="M3377.784 1436.841s3.545 15.656 3.538 34.967c-.01 19.312-3.561 34.966-3.561 34.966" fill="#fff" stroke="#fcfcfc"/>
    <ellipse cx="3358.719" cy="1463.439" rx="6.216" ry="5.98" fill="#1b1464"/>
    <ellipse cx="3363.28" cy="1465.083" rx="4.527" ry="4.355" fill="#fcfcfc"/>
  </g>
  <g transform="translate(-852 -443)" opacity=".9">
    <path d="M3910.031 2379.288s-21.508-100.479.693-121.623c22.201-21.145-96.957 73.43-96.957 73.43" opacity=".7" fill="#eef403"/>
    <path d="M3932.719 2378.554s-6.978-99.976 18.164-120.261c25.143-20.286-106.503 58.734-106.503 58.734" opacity=".7" fill="#efc803"/>
    <path d="M3922.738 2356.685s-21.508 100.479.693 121.623c22.2 21.145-96.957-73.43-96.957-73.43" opacity=".7" fill="#efc803"/>
    <path d="M3945.426 2357.418s-6.978 99.977 18.164 120.262c25.143 20.286-106.503-58.734-106.503-58.734" opacity=".7" fill="#eef403"/>
    <path d="M3981.328 2350.906s96.269-35.047 88.248-83.696 12.754 120.954 12.754 120.954" opacity=".7" fill="#e0ab05"/>
    <path d="M3981.328 2373.121s102.213 9.854 88.248 83.697c-13.967 73.844 12.754-120.955 12.754-120.955" opacity=".7" fill="#e0ab05"/>
    <path d="M3982.129 2342.344s85.022 4.953 113.453-43.83c28.431-48.783-34.221 116.712-34.221 116.712" opacity=".7" fill="#eadb21"/>
    <path d="M3990.337 2398.824s72.698-6.076 98.096 35.083c25.398 41.159-31.822-99.202-31.822-99.202" opacity=".7" fill="#eadb21"/>
    <linearGradient id="B" gradientUnits="userSpaceOnUse" x1="3910.335" y1="2421.352" x2="3910.335" y2="2303.889">
      <stop offset="0" stop-color="#eadb21"/>
      <stop offset=".5" stop-color="#eadb21"/>
      <stop offset=".5" stop-color="#fff32a"/>
      <stop offset="1" stop-color="#fff32a"/>
    </linearGradient>
    <path d="M4062.67 2362.621s-68.203 58.731-152.335 58.731S3758 2362.621 3758 2362.621s68.203-58.732 152.335-58.732 152.335 58.732 152.335 58.732z" fill="url(#B)"/>
    <ellipse cx="3819.528" cy="2346.547" rx="11.146" ry="10.724" fill="#fcfcfc"/>
    <path stroke-miterlimit="10" d="M3843.547 2315.486s4.474 19.759 4.465 44.13c-.01 24.372-4.494 44.128-4.494 44.128" fill="#fff" stroke="#fcfcfc"/>
    <ellipse cx="3819.486" cy="2349.055" rx="7.845" ry="7.547" fill="#1b1464"/>
    <ellipse cx="3825.242" cy="2351.129" rx="5.714" ry="5.496" fill="#fcfcfc"/>
  </g>
  <g transform="translate(-852 -443)" opacity=".9">
    <path d="M3234.031 1176.288s-21.508-100.479.693-121.623c22.201-21.145-96.957 73.43-96.957 73.43" opacity=".7" fill="#eef403"/>
    <path d="M3256.719 1175.554s-6.978-99.976 18.164-120.261c25.143-20.286-106.503 58.734-106.503 58.734" opacity=".7" fill="#efc803"/>
    <path d="M3246.738 1153.685s-21.508 100.479.693 121.623c22.2 21.145-96.957-73.43-96.957-73.43" opacity=".7" fill="#efc803"/>
    <path d="M3269.426 1154.418s-6.978 99.977 18.164 120.262c25.143 20.286-106.503-58.734-106.503-58.734" opacity=".7" fill="#eef403"/>
    <path d="M3305.328 1147.906s96.269-35.047 88.248-83.696 12.754 120.954 12.754 120.954" opacity=".7" fill="#e0ab05"/>
    <path d="M3305.328 1170.121s102.213 9.854 88.248 83.697c-13.967 73.844 12.754-120.955 12.754-120.955" opacity=".7" fill="#e0ab05"/>
    <path d="M3306.129 1139.344s85.022 4.953 113.453-43.83c28.431-48.783-34.221 116.712-34.221 116.712" opacity=".7" fill="#eadb21"/>
    <path d="M3314.337 1195.824s72.698-6.076 98.096 35.083c25.398 41.159-31.822-99.202-31.822-99.202" opacity=".7" fill="#eadb21"/>
    <linearGradient id="C" gradientUnits="userSpaceOnUse" x1="3234.335" y1="1218.352" x2="3234.335" y2="1100.889">
      <stop offset="0" stop-color="#eadb21"/>
      <stop offset=".5" stop-color="#eadb21"/>
      <stop offset=".5" stop-color="#fff32a"/>
      <stop offset="1" stop-color="#fff32a"/>
    </linearGradient>
    <path d="M3386.67 1159.621s-68.203 58.731-152.335 58.731S3082 1159.621 3082 1159.621s68.203-58.732 152.335-58.732 152.335 58.732 152.335 58.732z" fill="url(#C)"/>
    <ellipse cx="3143.528" cy="1143.547" rx="11.146" ry="10.724" fill="#fcfcfc"/>
    <path stroke-miterlimit="10" d="M3167.547 1112.486s4.474 19.759 4.465 44.13c-.01 24.372-4.494 44.128-4.494 44.128" fill="#fff" stroke="#fcfcfc"/>
    <ellipse cx="3143.486" cy="1146.055" rx="7.845" ry="7.547" fill="#1b1464"/>
    <ellipse cx="3149.242" cy="1148.129" rx="5.714" ry="5.496" fill="#fcfcfc"/>
  </g>
  <g transform="translate(-852 -443)" opacity=".9">
    <path d="M4279.031 1722.288s-21.508-100.479.693-121.623c22.201-21.145-96.957 73.43-96.957 73.43" opacity=".7" fill="#eef403"/>
    <path d="M4301.719 1721.554s-6.978-99.976 18.164-120.261c25.143-20.286-106.503 58.734-106.503 58.734" opacity=".7" fill="#efc803"/>
    <path d="M4291.738 1699.685s-21.508 100.479.693 121.623c22.2 21.145-96.957-73.43-96.957-73.43" opacity=".7" fill="#efc803"/>
    <path d="M4314.426 1700.418s-6.978 99.977 18.164 120.262c25.143 20.286-106.503-58.734-106.503-58.734" opacity=".7" fill="#eef403"/>
    <path d="M4350.328 1693.906s96.269-35.047 88.248-83.696 12.754 120.954 12.754 120.954" opacity=".7" fill="#e0ab05"/>
    <path d="M4350.328 1716.121s102.213 9.854 88.248 83.697c-13.967 73.844 12.754-120.955 12.754-120.955" opacity=".7" fill="#e0ab05"/>
    <path d="M4351.129 1685.344s85.022 4.953 113.453-43.83c28.431-48.783-34.221 116.712-34.221 116.712" opacity=".7" fill="#eadb21"/>
    <path d="M4359.337 1741.824s72.698-6.076 98.096 35.083c25.398 41.159-31.822-99.202-31.822-99.202" opacity=".7" fill="#eadb21"/>
    <linearGradient id="D" gradientUnits="userSpaceOnUse" x1="4279.335" y1="1764.352" x2="4279.335" y2="1646.889">
      <stop offset="0" stop-color="#eadb21"/>
      <stop offset=".5" stop-color="#eadb21"/>
      <stop offset=".5" stop-color="#fff32a"/>
      <stop offset="1" stop-color="#fff32a"/>
    </linearGradient>
    <path d="M4431.67 1705.621s-68.203 58.731-152.335 58.731S4127 1705.621 4127 1705.621s68.203-58.732 152.335-58.732 152.335 58.732 152.335 58.732z" fill="url(#D)"/>
    <ellipse cx="4188.528" cy="1689.547" rx="11.146" ry="10.724" fill="#fcfcfc"/>
    <path stroke-miterlimit="10" d="M4212.547 1658.486s4.474 19.759 4.465 44.13c-.01 24.372-4.494 44.128-4.494 44.128" fill="#fff" stroke="#fcfcfc"/>
    <ellipse cx="4188.486" cy="1692.055" rx="7.845" ry="7.547" fill="#1b1464"/>
    <ellipse cx="4194.242" cy="1694.129" rx="5.714" ry="5.496" fill="#fcfcfc"/>
  </g>
  <g transform="translate(-852 -443)" opacity=".9">
    <path d="M2906.031 991.288s-21.508-100.479.693-121.623c22.201-21.145-96.957 73.43-96.957 73.43" opacity=".7" fill="#eef403"/>
    <path d="M2928.719 990.554s-6.978-99.976 18.164-120.261c25.143-20.286-106.503 58.734-106.503 58.734" opacity=".7" fill="#efc803"/>
    <path d="M2918.738 968.685s-21.508 100.479.693 121.623c22.2 21.145-96.957-73.43-96.957-73.43" opacity=".7" fill="#efc803"/>
    <path d="M2941.426 969.418s-6.978 99.977 18.164 120.262c25.143 20.286-106.503-58.734-106.503-58.734" opacity=".7" fill="#eef403"/>
    <path d="M2977.328 962.906s96.269-35.047 88.248-83.696 12.754 120.954 12.754 120.954" opacity=".7" fill="#e0ab05"/>
    <path d="M2977.328 985.121s102.213 9.854 88.248 83.697c-13.967 73.844 12.754-120.955 12.754-120.955" opacity=".7" fill="#e0ab05"/>
    <path d="M2978.129 954.344s85.022 4.953 113.453-43.83c28.431-48.783-34.221 116.712-34.221 116.712" opacity=".7" fill="#eadb21"/>
    <path d="M2986.337 1010.824s72.698-6.076 98.096 35.083c25.398 41.159-31.822-99.202-31.822-99.202" opacity=".7" fill="#eadb21"/>
    <linearGradient id="E" gradientUnits="userSpaceOnUse" x1="2906.335" y1="1033.352" x2="2906.335" y2="915.889">
      <stop offset="0" stop-color="#eadb21"/>
      <stop offset=".5" stop-color="#eadb21"/>
      <stop offset=".5" stop-color="#fff32a"/>
      <stop offset="1" stop-color="#fff32a"/>
    </linearGradient>
    <path d="M3058.67 974.621s-68.203 58.731-152.335 58.731S2754 974.621 2754 974.621s68.203-58.732 152.335-58.732 152.335 58.732 152.335 58.732z" fill="url(#E)"/>
    <ellipse cx="2815.528" cy="958.547" rx="11.146" ry="10.724" fill="#fcfcfc"/>
    <path stroke-miterlimit="10" d="M2839.547 927.486s4.474 19.759 4.465 44.13c-.01 24.372-4.494 44.128-4.494 44.128" fill="#fff" stroke="#fcfcfc"/>
    <ellipse cx="2815.486" cy="961.055" rx="7.845" ry="7.547" fill="#1b1464"/>
    <ellipse cx="2821.242" cy="963.129" rx="5.714" ry="5.496" fill="#fcfcfc"/>
  </g>
  <g transform="translate(-852 -443)" opacity=".8">
    <path d="M3396.174 942.34s-17.284-80.746.557-97.737c17.841-16.992-77.915 59.009-77.915 59.009" opacity=".7" fill="#eef403"/>
    <path d="M3414.405 941.75s-5.607-80.341 14.597-96.642c20.205-16.302-85.586 47.199-85.586 47.199" opacity=".7" fill="#efc803"/>
    <path d="M3406.385 924.176s-17.284 80.746.557 97.737c17.841 16.992-77.915-59.009-77.915-59.009" opacity=".7" fill="#efc803"/>
    <path d="M3424.616 924.765s-5.606 80.342 14.597 96.643c20.205 16.302-85.586-47.199-85.586-47.199" opacity=".7" fill="#eef403"/>
    <path d="M3453.468 919.532s77.362-28.164 70.917-67.259c-6.446-39.095 10.249 97.2 10.249 97.2" opacity=".7" fill="#e0ab05"/>
    <path d="M3453.468 937.384s82.139 7.918 70.917 67.26c-11.224 59.341 10.249-97.2 10.249-97.2" opacity=".7" fill="#e0ab05"/>
    <path d="M3454.111 912.651s68.324 3.98 91.172-35.222c22.847-39.203-27.5 93.79-27.5 93.79" opacity=".7" fill="#eadb21"/>
    <path d="M3460.707 958.04s58.421-4.883 78.831 28.193c20.41 33.076-25.573-79.719-25.573-79.719" opacity=".7" fill="#eadb21"/>
    <linearGradient id="F" gradientUnits="userSpaceOnUse" x1="3396.418" y1="976.144" x2="3396.418" y2="881.749">
      <stop offset="0" stop-color="#eadb21"/>
      <stop offset=".5" stop-color="#eadb21"/>
      <stop offset=".5" stop-color="#fff32a"/>
      <stop offset="1" stop-color="#fff32a"/>
    </linearGradient>
    <path d="M3518.835 928.946s-54.809 47.197-122.417 47.197c-67.609 0-122.418-47.197-122.418-47.197s54.809-47.197 122.418-47.197c67.608 0 122.417 47.197 122.417 47.197z" fill="url(#F)"/>
    <ellipse cx="3323.445" cy="916.029" rx="8.958" ry="8.618" fill="#fcfcfc"/>
    <path stroke-miterlimit="10" d="M3342.746 891.069s3.595 15.878 3.588 35.463c-.01 19.585-3.611 35.461-3.611 35.461" fill="#fff" stroke="#fcfcfc"/>
    <ellipse cx="3323.41" cy="918.044" rx="6.305" ry="6.065" fill="#1b1464"/>
    <ellipse cx="3328.036" cy="919.711" rx="4.592" ry="4.417" fill="#fcfcfc"/>
  </g>
  <g transform="translate(-852 -443)" opacity=".9">
    <path d="M3337.031 2796.288s-21.508-100.479.693-121.623c22.201-21.145-96.957 73.43-96.957 73.43" opacity=".7" fill="#eef403"/>
    <path d="M3359.719 2795.554s-6.978-99.976 18.164-120.261c25.143-20.286-106.503 58.734-106.503 58.734" opacity=".7" fill="#efc803"/>
    <path d="M3349.738 2773.685s-21.508 100.479.693 121.623c22.2 21.145-96.957-73.43-96.957-73.43" opacity=".7" fill="#efc803"/>
    <path d="M3372.426 2774.418s-6.978 99.977 18.164 120.262c25.143 20.286-106.503-58.734-106.503-58.734" opacity=".7" fill="#eef403"/>
    <path d="M3408.328 2767.906s96.269-35.047 88.248-83.696 12.754 120.954 12.754 120.954" opacity=".7" fill="#e0ab05"/>
    <path d="M3408.328 2790.121s102.213 9.854 88.248 83.697c-13.967 73.844 12.754-120.955 12.754-120.955" opacity=".7" fill="#e0ab05"/>
    <path d="M3409.129 2759.344s85.022 4.953 113.453-43.83c28.431-48.783-34.221 116.712-34.221 116.712" opacity=".7" fill="#eadb21"/>
    <path d="M3417.337 2815.824s72.698-6.076 98.096 35.083c25.398 41.159-31.822-99.202-31.822-99.202" opacity=".7" fill="#eadb21"/>
    <linearGradient id="G" gradientUnits="userSpaceOnUse" x1="3337.335" y1="2838.352" x2="3337.335" y2="2720.889">
      <stop offset="0" stop-color="#eadb21"/>
      <stop offset=".5" stop-color="#eadb21"/>
      <stop offset=".5" stop-color="#fff32a"/>
      <stop offset="1" stop-color="#fff32a"/>
    </linearGradient>
    <path d="M3489.67 2779.621s-68.203 58.731-152.335 58.731S3185 2779.621 3185 2779.621s68.203-58.732 152.335-58.732 152.335 58.732 152.335 58.732z" fill="url(#G)"/>
    <ellipse cx="3246.528" cy="2763.547" rx="11.146" ry="10.724" fill="#fcfcfc"/>
    <path stroke-miterlimit="10" d="M3270.547 2732.486s4.474 19.759 4.465 44.13c-.01 24.372-4.494 44.128-4.494 44.128" fill="#fff" stroke="#fcfcfc"/>
    <ellipse cx="3246.486" cy="2766.055" rx="7.845" ry="7.547" fill="#1b1464"/>
    <ellipse cx="3252.242" cy="2768.129" rx="5.714" ry="5.496" fill="#fcfcfc"/>
  </g>
  <g transform="translate(-852 -443)" opacity=".9">
    <path d="M3800.031 2721.288s-21.508-100.479.693-121.623c22.201-21.145-96.957 73.43-96.957 73.43" opacity=".7" fill="#eef403"/>
    <path d="M3822.719 2720.554s-6.978-99.976 18.164-120.261c25.143-20.286-106.503 58.734-106.503 58.734" opacity=".7" fill="#efc803"/>
    <path d="M3812.738 2698.685s-21.508 100.479.693 121.623c22.2 21.145-96.957-73.43-96.957-73.43" opacity=".7" fill="#efc803"/>
    <path d="M3835.426 2699.418s-6.978 99.977 18.164 120.262c25.143 20.286-106.503-58.734-106.503-58.734" opacity=".7" fill="#eef403"/>
    <path d="M3871.328 2692.906s96.269-35.047 88.248-83.696 12.754 120.954 12.754 120.954" opacity=".7" fill="#e0ab05"/>
    <path d="M3871.328 2715.121s102.213 9.854 88.248 83.697c-13.967 73.844 12.754-120.955 12.754-120.955" opacity=".7" fill="#e0ab05"/>
    <path d="M3872.129 2684.344s85.022 4.953 113.453-43.83c28.431-48.783-34.221 116.712-34.221 116.712" opacity=".7" fill="#eadb21"/>
    <path d="M3880.337 2740.824s72.698-6.076 98.096 35.083c25.398 41.159-31.822-99.202-31.822-99.202" opacity=".7" fill="#eadb21"/>
    <linearGradient id="H" gradientUnits="userSpaceOnUse" x1="3800.335" y1="2763.352" x2="3800.335" y2="2645.889">
      <stop offset="0" stop-color="#eadb21"/>
      <stop offset=".5" stop-color="#eadb21"/>
      <stop offset=".5" stop-color="#fff32a"/>
      <stop offset="1" stop-color="#fff32a"/>
    </linearGradient>
    <path d="M3952.67 2704.621s-68.203 58.731-152.335 58.731S3648 2704.621 3648 2704.621s68.203-58.732 152.335-58.732 152.335 58.732 152.335 58.732z" fill="url(#H)"/>
    <ellipse cx="3709.528" cy="2688.547" rx="11.146" ry="10.724" fill="#fcfcfc"/>
    <path stroke-miterlimit="10" d="M3733.547 2657.486s4.474 19.759 4.465 44.13c-.01 24.372-4.494 44.128-4.494 44.128" fill="#fff" stroke="#fcfcfc"/>
    <ellipse cx="3709.486" cy="2691.055" rx="7.845" ry="7.547" fill="#1b1464"/>
    <ellipse cx="3715.242" cy="2693.129" rx="5.714" ry="5.496" fill="#fcfcfc"/>
  </g>
  <g transform="translate(-852 -443)">
    <path d="M3778.186 1146.369s-35.395-165.352 1.141-200.146c36.535-34.795-159.555 120.838-159.555 120.838" opacity=".7" fill="#eef403"/>
    <path d="M3815.521 1145.16s-11.482-164.521 29.891-197.903c41.374-33.383-175.264 96.655-175.264 96.655" opacity=".7" fill="#efc803"/>
    <path d="M3799.097 1109.173s-35.395 165.351 1.14 200.146c36.535 34.795-159.554-120.838-159.554-120.838" opacity=".7" fill="#efc803"/>
    <path d="M3836.433 1110.379s-11.483 164.523 29.891 197.906c41.374 33.383-175.264-96.655-175.264-96.655" opacity=".7" fill="#eef403"/>
    <path d="M3895.515 1099.664s158.421-57.674 145.221-137.732c-13.2-80.059 20.989 199.044 20.989 199.044" opacity=".7" fill="#e0ab05"/>
    <path d="M3895.515 1136.221s168.204 16.215 145.221 137.734c-22.982 121.519 20.989-199.047 20.989-199.047" opacity=".7" fill="#e0ab05"/>
    <path d="M3896.831 1085.572s139.915 8.152 186.701-72.127-56.314 192.063-56.314 192.063" opacity=".7" fill="#eadb21"/>
    <path d="M3910.339 1178.519s119.634-9.999 161.428 57.733c41.796 67.732-52.367-163.25-52.367-163.25" opacity=".7" fill="#eadb21"/>
    <linearGradient id="I" gradientUnits="userSpaceOnUse" x1="3778.686" y1="1215.592" x2="3778.686" y2="1022.29">
      <stop offset="0" stop-color="#eadb21"/>
      <stop offset=".5" stop-color="#eadb21"/>
      <stop offset=".5" stop-color="#fff32a"/>
      <stop offset="1" stop-color="#fff32a"/>
    </linearGradient>
    <path d="M4029.371 1118.941s-112.235 96.65-250.686 96.65c-138.451 0-250.685-96.65-250.685-96.65s112.235-96.651 250.686-96.651c138.451 0 250.685 96.651 250.685 96.651z" fill="url(#I)"/>
    <ellipse cx="3629.252" cy="1092.489" rx="18.342" ry="17.647" fill="#fcfcfc"/>
    <path stroke-miterlimit="10" d="M3668.777 1041.376s7.361 32.516 7.349 72.621c-.013 40.106-7.396 72.618-7.396 72.618" fill="#fff" stroke="#fcfcfc"/>
    <ellipse cx="3629.183" cy="1096.617" rx="12.91" ry="12.419" fill="#1b1464"/>
    <ellipse cx="3638.655" cy="1100.029" rx="9.403" ry="9.045" fill="#fcfcfc"/>
  </g>
  <g transform="translate(-852 -443)">
    <path d="M4404.186 1290.369s-35.395-165.352 1.141-200.146c36.535-34.795-159.555 120.838-159.555 120.838" opacity=".7" fill="#eef403"/>
    <path d="M4441.521 1289.16s-11.482-164.521 29.891-197.903c41.374-33.383-175.264 96.655-175.264 96.655" opacity=".7" fill="#efc803"/>
    <path d="M4425.097 1253.173s-35.395 165.351 1.14 200.146c36.535 34.795-159.554-120.838-159.554-120.838" opacity=".7" fill="#efc803"/>
    <path d="M4462.433 1254.379s-11.483 164.523 29.891 197.906c41.374 33.383-175.264-96.655-175.264-96.655" opacity=".7" fill="#eef403"/>
    <path d="M4521.515 1243.664s158.421-57.674 145.221-137.732c-13.2-80.059 20.989 199.044 20.989 199.044" opacity=".7" fill="#e0ab05"/>
    <path d="M4521.515 1280.221s168.204 16.215 145.221 137.734c-22.982 121.519 20.989-199.047 20.989-199.047" opacity=".7" fill="#e0ab05"/>
    <path d="M4522.831 1229.572s139.915 8.152 186.701-72.127-56.314 192.063-56.314 192.063" opacity=".7" fill="#eadb21"/>
    <path d="M4536.339 1322.519s119.634-9.999 161.428 57.733c41.796 67.732-52.367-163.25-52.367-163.25" opacity=".7" fill="#eadb21"/>
    <linearGradient id="J" gradientUnits="userSpaceOnUse" x1="4404.685" y1="1359.592" x2="4404.685" y2="1166.29">
      <stop offset="0" stop-color="#eadb21"/>
      <stop offset=".5" stop-color="#eadb21"/>
      <stop offset=".5" stop-color="#fff32a"/>
      <stop offset="1" stop-color="#fff32a"/>
    </linearGradient>
    <path d="M4655.371 1262.941s-112.235 96.65-250.686 96.65c-138.451 0-250.685-96.65-250.685-96.65s112.235-96.651 250.686-96.651c138.451 0 250.685 96.651 250.685 96.651z" fill="url(#J)"/>
    <ellipse cx="4255.252" cy="1236.489" rx="18.342" ry="17.647" fill="#fcfcfc"/>
    <path stroke-miterlimit="10" d="M4294.777 1185.376s7.361 32.516 7.349 72.621c-.013 40.106-7.396 72.618-7.396 72.618" fill="#fff" stroke="#fcfcfc"/>
    <ellipse cx="4255.183" cy="1240.617" rx="12.91" ry="12.419" fill="#1b1464"/>
    <ellipse cx="4264.655" cy="1244.029" rx="9.403" ry="9.045" fill="#fcfcfc"/>
  </g>
  <path d="M186.314 1130.962s93.945-38.129 202.705-25.203c108.762 12.927 191.152 72.014 191.152 72.014m1082.143 326.19s93.945-38.129 202.705-25.203c108.762 12.927 191.152 72.014 191.152 72.014m-926.857-654.811s93.945-38.129 202.705-25.203c108.762 12.927 191.152 72.014 191.152 72.014m-789.857 888.189s93.945-38.129 202.705-25.203c108.762 12.927 191.152 72.014 191.152 72.014M2572.12 1623.77s74.11-30.078 159.907-19.882c85.798 10.198 150.793 56.81 150.793 56.81M891.12 1431.77s74.11-30.078 159.907-19.882c85.798 10.198 150.793 56.81 150.793 56.81m293.3 466.072s74.11-30.078 159.907-19.882c85.798 10.198 150.793 56.81 150.793 56.81M2825.12 630.77s74.11-30.078 159.907-19.882c85.798 10.198 150.793 56.81 150.793 56.81m306.3 108.072s74.11-30.078 159.907-19.882c85.798 10.198 150.793 56.81 150.793 56.81m-450.311 1232.97s51.819-21.03 111.81-13.901c59.99 7.131 105.436 39.722 105.436 39.722M1940.12 1103.77s74.11-30.078 159.907-19.882c85.798 10.198 150.793 56.81 150.793 56.81m922.3 381.072s74.11-30.078 159.907-19.882c85.798 10.198 150.793 56.81 150.793 56.81" fill="#fff"/>
</svg>
