<?xml version="1.0" encoding="UTF-8" standalone="no"?>
<!-- Generator: Adobe Illustrator 16.0.0, SVG Export Plug-In . SVG Version: 6.00 Build 0)  -->

<svg
   xmlns:dc="http://purl.org/dc/elements/1.1/"
   xmlns:cc="http://creativecommons.org/ns#"
   xmlns:rdf="http://www.w3.org/1999/02/22-rdf-syntax-ns#"
   xmlns:svg="http://www.w3.org/2000/svg"
   xmlns="http://www.w3.org/2000/svg"
   xmlns:sodipodi="http://sodipodi.sourceforge.net/DTD/sodipodi-0.dtd"
   xmlns:inkscape="http://www.inkscape.org/namespaces/inkscape"
   version="1.1"
   id="Layer_1"
   x="0px"
   y="0px"
   width="8490.1104"
   height="4061.0098"
   viewBox="0 0 8490.1104 4061.0097"
   enable-background="new 0 0 5500 3500"
   xml:space="preserve"
   sodipodi:docname="hill.svg"
   inkscape:version="0.92.2 (5c3e80d, 2017-08-06)"><metadata
     id="metadata141"><rdf:RDF><cc:Work
         rdf:about=""><dc:format>image/svg+xml</dc:format><dc:type
           rdf:resource="http://purl.org/dc/dcmitype/StillImage" /><dc:title></dc:title></cc:Work></rdf:RDF></metadata><defs
     id="defs139"><linearGradient
       id="SVGID_12_-0"
       gradientUnits="userSpaceOnUse"
       x1="2752.083"
       y1="2538.8047"
       x2="3523.5244"
       y2="2538.8047"
       gradientTransform="matrix(0.99966308,-0.02595606,-0.02595606,-0.99966308,1568.8404,4783.0173)"><stop
         offset="0"
         style="stop-color:#CE5D2C"
         id="stop123-9" /><stop
         offset="0.5"
         style="stop-color:#CE5D2C"
         id="stop125-3" /><stop
         offset="0.5"
         style="stop-color:#C6542C"
         id="stop127-6" /><stop
         offset="1"
         style="stop-color:#C6542C"
         id="stop129-0" /></linearGradient><linearGradient
       id="SVGID_11_-6"
       gradientUnits="userSpaceOnUse"
       x1="2016.7295"
       y1="2288.2715"
       x2="3188.5527"
       y2="2288.2715"
       gradientTransform="matrix(0.99966308,-0.02595606,-0.02595606,-0.99966308,1568.8404,4783.0173)"><stop
         offset="0"
         style="stop-color:#D89B0E"
         id="stop112-2" /><stop
         offset="0.5"
         style="stop-color:#D89B0E"
         id="stop114-6" /><stop
         offset="0.5"
         style="stop-color:#CE8E0F"
         id="stop116-1" /><stop
         offset="1"
         style="stop-color:#CE8E0F"
         id="stop118-8" /></linearGradient><linearGradient
       id="SVGID_10_-7"
       gradientUnits="userSpaceOnUse"
       x1="1491.9126"
       y1="2450.1357"
       x2="2491.6938"
       y2="2450.1357"
       gradientTransform="matrix(0.99966308,-0.02595606,-0.02595606,-0.99966308,1568.8404,4783.0173)"><stop
         offset="0"
         style="stop-color:#EF953D"
         id="stop101-9" /><stop
         offset="0.5"
         style="stop-color:#EF953D"
         id="stop103-2" /><stop
         offset="0.5"
         style="stop-color:#E58C3C"
         id="stop105-0" /><stop
         offset="1"
         style="stop-color:#E58C3C"
         id="stop107-2" /></linearGradient><linearGradient
       id="SVGID_9_-3"
       gradientUnits="userSpaceOnUse"
       x1="2905.4863"
       y1="2411.8516"
       x2="4288.4707"
       y2="2411.8516"
       gradientTransform="matrix(0.99966308,-0.02595606,-0.02595606,-0.99966308,1568.8404,4783.0173)"><stop
         offset="0"
         style="stop-color:#43787E"
         id="stop90-7" /><stop
         offset="0.5"
         style="stop-color:#43787E"
         id="stop92-5" /><stop
         offset="0.5"
         style="stop-color:#407477"
         id="stop94-9" /><stop
         offset="1"
         style="stop-color:#407477"
         id="stop96-2" /></linearGradient><linearGradient
       id="SVGID_8_-2"
       gradientUnits="userSpaceOnUse"
       x1="1406.7241"
       y1="2182.8379"
       x2="3370.8066"
       y2="2182.8379"
       gradientTransform="matrix(0.99966308,-0.02595606,-0.02595606,-0.99966308,1568.8404,4783.0173)"><stop
         offset="0"
         style="stop-color:#43787E"
         id="stop79-8" /><stop
         offset="0.5"
         style="stop-color:#43787E"
         id="stop81-9" /><stop
         offset="0.5"
         style="stop-color:#407477"
         id="stop83-7" /><stop
         offset="1"
         style="stop-color:#407477"
         id="stop85-3" /></linearGradient><linearGradient
       id="SVGID_7_-6"
       gradientUnits="userSpaceOnUse"
       x1="2670.6045"
       y1="2350.1406"
       x2="3706.1309"
       y2="2350.1406"
       gradientTransform="matrix(0.99966308,-0.02595606,-0.02595606,-0.99966308,1568.8404,4783.0173)"><stop
         offset="0"
         style="stop-color:#C3D3B8"
         id="stop68-1" /><stop
         offset="0.5"
         style="stop-color:#C3D3B8"
         id="stop70-2" /><stop
         offset="0.5"
         style="stop-color:#BAC4B1"
         id="stop72-9" /><stop
         offset="1"
         style="stop-color:#BAC4B1"
         id="stop74-3" /></linearGradient><linearGradient
       id="SVGID_6_-1"
       gradientUnits="userSpaceOnUse"
       x1="3076.3984"
       y1="2110.6094"
       x2="4421.5293"
       y2="2110.6094"
       gradientTransform="matrix(0.99966308,-0.02595606,-0.02595606,-0.99966308,1568.8404,4783.0173)"><stop
         offset="0"
         style="stop-color:#A3D3B8"
         id="stop57-9" /><stop
         offset="0.5"
         style="stop-color:#A3D3B8"
         id="stop59-4" /><stop
         offset="0.5"
         style="stop-color:#9ECCB0"
         id="stop61-7" /><stop
         offset="1"
         style="stop-color:#9ECCB0"
         id="stop63-8" /></linearGradient><linearGradient
       id="SVGID_5_-4"
       gradientUnits="userSpaceOnUse"
       x1="2274.9805"
       y1="1811.7695"
       x2="3807.916"
       y2="1811.7695"
       gradientTransform="matrix(0.99966308,-0.02595606,-0.02595606,-0.99966308,1568.8404,4783.0173)"><stop
         offset="0"
         style="stop-color:#A3D3B8"
         id="stop46-5" /><stop
         offset="0.5"
         style="stop-color:#A3D3B8"
         id="stop48-0" /><stop
         offset="0.5"
         style="stop-color:#9ECCB0"
         id="stop50-3" /><stop
         offset="1"
         style="stop-color:#9ECCB0"
         id="stop52-6" /></linearGradient><linearGradient
       id="SVGID_4_-1"
       gradientUnits="userSpaceOnUse"
       x1="977.41498"
       y1="2241.4746"
       x2="2242.3818"
       y2="2241.4746"
       gradientTransform="matrix(0.99966308,-0.02595606,-0.02595606,-0.99966308,1568.8404,4783.0173)"><stop
         offset="0"
         style="stop-color:#A3D3B8"
         id="stop35-0" /><stop
         offset="0.5"
         style="stop-color:#A3D3B8"
         id="stop37-6" /><stop
         offset="0.5"
         style="stop-color:#9ECCB0"
         id="stop39-3" /><stop
         offset="1"
         style="stop-color:#9ECCB0"
         id="stop41-2" /></linearGradient><linearGradient
       id="SVGID_3_-0"
       gradientUnits="userSpaceOnUse"
       x1="1512.5156"
       y1="1713.1367"
       x2="3371.0107"
       y2="1713.1367"
       gradientTransform="matrix(0.99966308,-0.02595606,-0.02595606,-0.99966308,1568.8404,4783.0173)"><stop
         offset="0"
         style="stop-color:#C3D3B8"
         id="stop24-6" /><stop
         offset="0.5"
         style="stop-color:#C3D3B8"
         id="stop26-1" /><stop
         offset="0.5"
         style="stop-color:#BAC4B1"
         id="stop28-5" /><stop
         offset="1"
         style="stop-color:#BAC4B1"
         id="stop30-5" /></linearGradient><linearGradient
       id="SVGID_2_-4"
       gradientUnits="userSpaceOnUse"
       x1="756.6665"
       y1="1999.7285"
       x2="1668.124"
       y2="1999.7285"
       gradientTransform="matrix(0.99966308,-0.02595606,-0.02595606,-0.99966308,1568.8404,4783.0173)"><stop
         offset="0"
         style="stop-color:#C3D3B8"
         id="stop13-7" /><stop
         offset="0.5"
         style="stop-color:#C3D3B8"
         id="stop15-6" /><stop
         offset="0.5"
         style="stop-color:#C1CCB8"
         id="stop17-5" /><stop
         offset="1"
         style="stop-color:#C1CCB8"
         id="stop19-6" /></linearGradient><linearGradient
       id="SVGID_1_-9"
       gradientUnits="userSpaceOnUse"
       x1="3987.709"
       y1="2271.665"
       x2="4770"
       y2="2271.665"
       gradientTransform="matrix(0.99966308,-0.02595606,-0.02595606,-0.99966308,1568.8404,4783.0173)"><stop
         offset="0"
         style="stop-color:#C3D3B8"
         id="stop2-3" /><stop
         offset="0.5"
         style="stop-color:#C3D3B8"
         id="stop4-7" /><stop
         offset="0.5"
         style="stop-color:#BAC4B1"
         id="stop6-4" /><stop
         offset="1"
         style="stop-color:#BAC4B1"
         id="stop8-5" /></linearGradient></defs><sodipodi:namedview
     pagecolor="#ffffff"
     bordercolor="#666666"
     borderopacity="1"
     objecttolerance="10"
     gridtolerance="10"
     guidetolerance="10"
     inkscape:pageopacity="0"
     inkscape:pageshadow="2"
     inkscape:window-width="1529"
     inkscape:window-height="836"
     id="namedview137"
     showgrid="false"
     inkscape:zoom="0.073796235"
     inkscape:cx="2785.2603"
     inkscape:cy="2039.5339"
     inkscape:window-x="71"
     inkscape:window-y="30"
     inkscape:window-maximized="1"
     inkscape:current-layer="Layer_1"
     fit-margin-top="0"
     fit-margin-left="0"
     fit-margin-right="0"
     fit-margin-bottom="0" /><linearGradient
     id="SVGID_1_"
     gradientUnits="userSpaceOnUse"
     x1="3987.709"
     y1="2271.665"
     x2="4770"
     y2="2271.665"
     gradientTransform="translate(1494.0556,-657.334)"><stop
       offset="0"
       style="stop-color:#C3D3B8"
       id="stop2" /><stop
       offset="0.5"
       style="stop-color:#C3D3B8"
       id="stop4" /><stop
       offset="0.5"
       style="stop-color:#BAC4B1"
       id="stop6" /><stop
       offset="1"
       style="stop-color:#BAC4B1"
       id="stop8" /></linearGradient><path
     d="m 6264.0556,2068.24 c 0,-222.507 -325.849,-1010.854 -485.041,-1010.854 -159.192,0 -297.25,692.112 -297.25,914.618 0,222.507 156.892,111.594 316.084,111.594 159.191,0 466.207,207.149 466.207,-15.358 z"
     id="path11"
     inkscape:connector-curvature="0"
     style="fill:url(#SVGID_1_)" /><linearGradient
     id="SVGID_2_"
     gradientUnits="userSpaceOnUse"
     x1="756.6665"
     y1="1999.7285"
     x2="1668.124"
     y2="1999.7285"
     gradientTransform="translate(1494.0556,-657.334)"><stop
       offset="0"
       style="stop-color:#C3D3B8"
       id="stop13" /><stop
       offset="0.5"
       style="stop-color:#C3D3B8"
       id="stop15" /><stop
       offset="0.5"
       style="stop-color:#C1CCB8"
       id="stop17" /><stop
       offset="1"
       style="stop-color:#C1CCB8"
       id="stop19" /></linearGradient><path
     d="m 3162.1796,1877.767 c 0,-278.543 -177.952,-1328.522 -377.235,-1328.522 -199.283,0 -534.222,1175.879 -534.222,1454.421 0,278.542 363.643,29.301 562.925,29.301 199.283,0 348.532,123.344 348.532,-155.2 z"
     id="path22"
     inkscape:connector-curvature="0"
     style="fill:url(#SVGID_2_)" /><linearGradient
     id="SVGID_3_"
     gradientUnits="userSpaceOnUse"
     x1="1512.5156"
     y1="1713.1367"
     x2="3371.0107"
     y2="1713.1367"
     gradientTransform="translate(1494.0556,-657.334)"><stop
       offset="0"
       style="stop-color:#C3D3B8"
       id="stop24" /><stop
       offset="0.5"
       style="stop-color:#C3D3B8"
       id="stop26" /><stop
       offset="0.5"
       style="stop-color:#BAC4B1"
       id="stop28" /><stop
       offset="1"
       style="stop-color:#BAC4B1"
       id="stop30" /></linearGradient><path
     d="M 4865.0666,1885.354 C 4865.0666,1606.811 4194.0456,0 3994.7616,0 c -199.283,0 -988.19,1505.122 -988.19,1783.665 0,278.541 593.115,323.109 792.397,323.109 199.282,0 1066.098,57.122 1066.098,-221.42 z"
     id="path33"
     inkscape:connector-curvature="0"
     style="fill:url(#SVGID_3_)" /><linearGradient
     id="SVGID_4_"
     gradientUnits="userSpaceOnUse"
     x1="977.41498"
     y1="2241.4746"
     x2="2242.3818"
     y2="2241.4746"
     gradientTransform="translate(1494.0556,-657.334)"><stop
       offset="0"
       style="stop-color:#A3D3B8"
       id="stop35" /><stop
       offset="0.5"
       style="stop-color:#A3D3B8"
       id="stop37" /><stop
       offset="0.5"
       style="stop-color:#9ECCB0"
       id="stop39" /><stop
       offset="1"
       style="stop-color:#9ECCB0"
       id="stop41" /></linearGradient><path
     d="m 3736.4376,2127.686 c 0,-196.504 -449.866,-1234.214 -590.454,-1234.214 -140.588,0 -674.513,894.196 -674.513,1090.7 0,196.504 333.006,282.926 473.594,282.926 140.588,0 791.373,57.091 791.373,-139.412 z"
     id="path44"
     inkscape:connector-curvature="0"
     style="fill:url(#SVGID_4_)" /><linearGradient
     id="SVGID_5_"
     gradientUnits="userSpaceOnUse"
     x1="2274.9805"
     y1="1811.7695"
     x2="3807.916"
     y2="1811.7695"
     gradientTransform="translate(1494.0556,-657.334)"><stop
       offset="0"
       style="stop-color:#A3D3B8"
       id="stop46" /><stop
       offset="0.5"
       style="stop-color:#A3D3B8"
       id="stop48" /><stop
       offset="0.5"
       style="stop-color:#9ECCB0"
       id="stop50" /><stop
       offset="1"
       style="stop-color:#9ECCB0"
       id="stop52" /></linearGradient><path
     d="m 5301.9716,1922.918 c 0,-223.939 -606.252,-1705.599 -766.469,-1705.599 -160.216,0 -766.467,1461.8 -766.467,1685.74 0,223.938 10.24,180.125 170.456,180.125 160.218,10e-4 1362.48,63.673 1362.48,-160.266 z"
     id="path55"
     inkscape:connector-curvature="0"
     style="fill:url(#SVGID_5_)" /><linearGradient
     id="SVGID_6_"
     gradientUnits="userSpaceOnUse"
     x1="3076.3984"
     y1="2110.6094"
     x2="4421.5293"
     y2="2110.6094"
     gradientTransform="translate(1494.0556,-657.334)"><stop
       offset="0"
       style="stop-color:#A3D3B8"
       id="stop57" /><stop
       offset="0.5"
       style="stop-color:#A3D3B8"
       id="stop59" /><stop
       offset="0.5"
       style="stop-color:#9ECCB0"
       id="stop61" /><stop
       offset="1"
       style="stop-color:#9ECCB0"
       id="stop63" /></linearGradient><path
     d="m 5915.5846,1945.141 c 0,-196.504 -563.447,-1131.705 -704.035,-1131.705 -140.59,0 -641.096,917.775 -641.096,1114.277 0,196.505 8.986,158.059 149.572,158.059 140.591,0 1195.559,55.871 1195.559,-140.631 z"
     id="path66"
     inkscape:connector-curvature="0"
     style="fill:url(#SVGID_6_)" /><linearGradient
     id="SVGID_7_"
     gradientUnits="userSpaceOnUse"
     x1="2670.6045"
     y1="2350.1406"
     x2="3706.1309"
     y2="2350.1406"
     gradientTransform="translate(1494.0556,-657.334)"><stop
       offset="0"
       style="stop-color:#C3D3B8"
       id="stop68" /><stop
       offset="0.5"
       style="stop-color:#C3D3B8"
       id="stop70" /><stop
       offset="0.5"
       style="stop-color:#BAC4B1"
       id="stop72" /><stop
       offset="1"
       style="stop-color:#BAC4B1"
       id="stop74" /></linearGradient><path
     d="m 5200.1866,2068.502 c 0,-311.524 -416.875,-914.136 -569.383,-914.136 -152.507,0 -466.144,636.043 -466.144,947.566 0,311.524 383.298,-37.697 535.806,-37.697 152.508,0 499.721,315.791 499.721,4.267 z"
     id="path77"
     inkscape:connector-curvature="0"
     style="fill:url(#SVGID_7_)" /><linearGradient
     id="SVGID_8_"
     gradientUnits="userSpaceOnUse"
     x1="1406.7241"
     y1="2182.8379"
     x2="3370.8066"
     y2="2182.8379"
     gradientTransform="translate(1494.0556,-657.334)"><stop
       offset="0"
       style="stop-color:#43787E"
       id="stop79" /><stop
       offset="0.5"
       style="stop-color:#43787E"
       id="stop81" /><stop
       offset="0.5"
       style="stop-color:#407477"
       id="stop83" /><stop
       offset="1"
       style="stop-color:#407477"
       id="stop85" /></linearGradient><path
     d="m 4864.8626,2082.297 c 0,-278.543 -929.141,-1253.051 -1128.425,-1253.051 -199.282,0 -835.658,921.692 -835.658,1200.235 0,278.543 706.902,106.608 906.185,106.608 199.283,0 1057.898,224.751 1057.898,-53.792 z"
     id="path88"
     inkscape:connector-curvature="0"
     style="fill:url(#SVGID_8_)" /><linearGradient
     id="SVGID_9_"
     gradientUnits="userSpaceOnUse"
     x1="2905.4863"
     y1="2411.8516"
     x2="4288.4707"
     y2="2411.8516"
     gradientTransform="translate(1494.0556,-657.334)"><stop
       offset="0"
       style="stop-color:#43787E"
       id="stop90" /><stop
       offset="0.5"
       style="stop-color:#43787E"
       id="stop92" /><stop
       offset="0.5"
       style="stop-color:#407477"
       id="stop94" /><stop
       offset="1"
       style="stop-color:#407477"
       id="stop96" /></linearGradient><path
     d="m 5782.5266,2180.76 c 0,-196.133 -651.402,-950.686 -791.725,-950.686 -140.323,0 -591.26,717.363 -591.26,913.496 0,196.133 497.755,75.067 638.079,75.067 140.323,0 744.906,158.254 744.906,-37.877 z"
     id="path99"
     inkscape:connector-curvature="0"
     style="fill:url(#SVGID_9_)" /><linearGradient
     id="SVGID_10_"
     gradientUnits="userSpaceOnUse"
     x1="1491.9126"
     y1="2450.1357"
     x2="2491.6938"
     y2="2450.1357"
     gradientTransform="translate(1494.0556,-657.334)"><stop
       offset="0"
       style="stop-color:#EF953D"
       id="stop101" /><stop
       offset="0.5"
       style="stop-color:#EF953D"
       id="stop103" /><stop
       offset="0.5"
       style="stop-color:#E58C3C"
       id="stop105" /><stop
       offset="1"
       style="stop-color:#E58C3C"
       id="stop107" /></linearGradient><path
     d="m 3985.7496,2019.66 c 0,-141.786 -476.72,-524.71 -578.161,-524.71 -101.441,0 -421.62,356.039 -421.62,497.825 0,141.788 359.836,54.27 461.277,54.27 101.441,0 538.504,114.402 538.504,-27.385 z"
     id="path110"
     inkscape:connector-curvature="0"
     style="fill:url(#SVGID_10_)" /><linearGradient
     id="SVGID_11_"
     gradientUnits="userSpaceOnUse"
     x1="2016.7295"
     y1="2288.2715"
     x2="3188.5527"
     y2="2288.2715"
     gradientTransform="translate(1494.0556,-657.334)"><stop
       offset="0"
       style="stop-color:#D89B0E"
       id="stop112" /><stop
       offset="0.5"
       style="stop-color:#D89B0E"
       id="stop114" /><stop
       offset="0.5"
       style="stop-color:#CE8E0F"
       id="stop116" /><stop
       offset="1"
       style="stop-color:#CE8E0F"
       id="stop118" /></linearGradient><path
     d="m 4682.6086,1985.03 c 0,-166.186 -551.556,-791.395 -670.454,-791.395 -118.897,0 -501.37,593.698 -501.37,759.883 0,166.188 421.756,63.608 540.653,63.608 118.899,10e-4 631.171,134.091 631.171,-32.096 z"
     id="path121"
     inkscape:connector-curvature="0"
     style="fill:url(#SVGID_11_)" /><linearGradient
     id="SVGID_12_"
     gradientUnits="userSpaceOnUse"
     x1="2752.083"
     y1="2538.8047"
     x2="3523.5244"
     y2="2538.8047"
     gradientTransform="translate(1494.0556,-657.334)"><stop
       offset="0"
       style="stop-color:#CE5D2C"
       id="stop123" /><stop
       offset="0.5"
       style="stop-color:#CE5D2C"
       id="stop125" /><stop
       offset="0.5"
       style="stop-color:#C6542C"
       id="stop127" /><stop
       offset="1"
       style="stop-color:#C6542C"
       id="stop129" /></linearGradient><path
     d="m 5017.5796,2015.056 c 0,-109.405 -389.677,-321.946 -467.95,-321.946 -78.272,0 -303.491,191.797 -303.491,301.2 0,109.403 277.652,41.874 355.926,41.874 78.272,0 415.515,88.273 415.515,-21.128 z"
     id="path132"
     inkscape:connector-curvature="0"
     style="fill:url(#SVGID_12_)" /><rect
     x="0"
     y="2004.666"
     width="8490.1104"
     height="2055.8989"
     id="rect134"
     style="fill:#9de4f0;fill-opacity:1;stroke-width:1.94489086" /><path
     d="m 6266.4872,1934.5511 c 5.7754,222.432 -299.5014,1018.9712 -458.6398,1023.1032 -159.1384,4.132 -315.1144,-684.1634 -320.8897,-906.5944 -5.7755,-222.432 153.9426,-115.6287 313.0809,-119.7607 159.1374,-4.132 460.6732,-219.1801 466.4486,3.2519 z"
     id="path11-2"
     inkscape:connector-curvature="0"
     style="opacity:0.22900002;fill:url(#SVGID_1_-9)" /><path
     d="m 3170.6002,2205.4725 c 7.2299,278.4491 -143.4088,1332.6933 -342.6247,1337.8659 -199.2158,5.1726 -564.5632,-1161.6165 -571.7931,-1440.0646 -7.2298,-278.4482 362.76,-38.7299 561.9748,-43.9025 199.2159,-5.1726 345.2131,-132.349 352.443,146.1012 z"
     id="path22-5"
     inkscape:connector-curvature="0"
     style="opacity:0.22900002;fill:url(#SVGID_2_-4)" /><path
     d="m 4872.7165,2153.6878 c 7.2299,278.4491 -621.8585,1902.1358 -821.0753,1907.3085 -199.2159,5.1726 -1026.9242,-1478.9654 -1034.1541,-1757.4145 -7.2298,-278.4472 584.5286,-338.3951 783.7434,-343.5677 199.2149,-5.1726 1064.2562,-84.7745 1071.486,193.6737 z"
     id="path33-4"
     inkscape:connector-curvature="0"
     style="opacity:0.22900002;fill:url(#SVGID_3_-0)" /><path
     d="m 3738.1778,1940.7322 c 5.1005,196.4378 -417.6791,1245.4749 -558.2197,1249.124 -140.5406,3.6491 -697.4956,-876.387 -702.5961,-1072.8248 -5.1004,-196.4378 325.5502,-291.4742 466.0908,-295.1233 140.5407,-3.6491 789.6245,-77.6127 794.725,118.8241 z"
     id="path44-7"
     inkscape:connector-curvature="0"
     style="opacity:0.22900002;fill:url(#SVGID_4_-1)" /><path
     d="m 5308.4993,2104.7961 c 5.8126,223.8635 -561.7771,1720.7602 -721.9401,1724.9189 -160.162,4.1585 -804.1513,-1441.413 -809.964,-1665.2776 -5.8125,-223.8625 5.5613,-180.3301 165.7233,-184.4887 160.164,-4.1596 1360.3682,-99.0162 1366.1808,124.8474 z"
     id="path55-4"
     inkscape:connector-curvature="0"
     style="opacity:0.22900002;fill:url(#SVGID_5_-4)" /><path
     d="m 5921.3288,2066.6536 c 5.1004,196.4378 -533.8826,1145.9485 -674.4232,1149.5977 -140.5426,3.6491 -664.7019,-900.8255 -669.8023,-1097.2613 -5.1005,-196.4388 4.8804,-158.239 145.419,-161.888 140.5437,-3.6492 1193.706,-86.8842 1198.8065,109.5516 z"
     id="path66-4"
     inkscape:connector-curvature="0"
     style="opacity:0.22900002;fill:url(#SVGID_6_-1)" /><path
     d="m 5202.9698,1961.9031 c 8.086,311.419 -393.0071,924.6484 -545.4638,928.6069 -152.4556,3.9585 -482.4961,-623.7294 -490.582,-935.1474 -8.086,-311.4191 384.1473,27.7353 536.6039,23.7768 152.4567,-3.9585 491.356,-328.6554 499.4419,-17.2363 z"
     id="path77-3"
     inkscape:connector-curvature="0"
     style="opacity:0.22900002;fill:url(#SVGID_7_-6)" /><path
     d="m 4867.4007,1956.8164 c 7.2299,278.4492 -896.3036,1276.7457 -1095.5205,1281.9183 -199.2148,5.1726 -859.3,-899.691 -866.5298,-1178.1402 -7.2299,-278.4491 703.8967,-124.9205 903.1125,-130.0931 199.2159,-5.1726 1051.7079,-252.1341 1058.9378,26.315 z"
     id="path88-0"
     inkscape:connector-curvature="0"
     style="opacity:0.22900002;fill:url(#SVGID_8_-2)" /><path
     d="m 5782.1998,1834.5676 c 5.0909,196.0669 -626.5064,967.2736 -766.7821,970.9158 -140.2758,3.6422 -609.6808,-701.7745 -614.7716,-897.8414 -5.0909,-196.067 495.6388,-87.9615 635.9156,-91.6038 140.2757,-3.6422 740.5473,-177.5355 745.6381,18.5294 z"
     id="path99-7"
     inkscape:connector-curvature="0"
     style="opacity:0.22900002;fill:url(#SVGID_9_-3)" /><path
     d="m 3990.2097,2042.2506 c 3.6802,141.7383 -462.9399,536.907 -564.3468,539.5401 -101.4068,2.633 -430.7193,-344.9755 -434.3995,-486.7137 -3.6803,-141.7402 358.3061,-63.5917 459.7129,-66.2247 101.4069,-2.633 535.3532,-128.3409 539.0334,13.3983 z"
     id="path110-8"
     inkscape:connector-curvature="0"
     style="opacity:0.22900002;fill:url(#SVGID_10_-7)" /><path
     d="m 4687.7328,2058.7812 c 4.3135,166.1301 -530.8287,805.4446 -649.6866,808.5308 -118.8569,3.0861 -516.6112,-580.4844 -520.9247,-746.6134 -4.3136,-166.132 419.9629,-74.5337 538.8199,-77.6198 118.8589,-3.0872 627.4778,-150.4286 631.7914,15.7024 z"
     id="path121-6"
     inkscape:connector-curvature="0"
     style="opacity:0.22900002;fill:url(#SVGID_11_-6)" /><path
     d="m 5021.8116,2020.0708 c 2.8397,109.3682 -381.1893,331.952 -459.4359,333.9837 -78.2456,2.0316 -308.367,-183.8549 -311.2067,-293.2211 -2.8397,-109.3661 276.4716,-49.0666 354.7192,-51.0983 78.2456,-2.0317 413.0838,-99.0284 415.9234,10.3357 z"
     id="path132-8"
     inkscape:connector-curvature="0"
     style="opacity:0.22900002;fill:url(#SVGID_12_-0)" /></svg>