<?xml version="1.0" encoding="UTF-8" standalone="no"?>
<!-- Generator: Adobe Illustrator 16.0.0, SVG Export Plug-In . SVG Version: 6.00 Build 0)  -->

<svg
   xmlns:dc="http://purl.org/dc/elements/1.1/"
   xmlns:cc="http://creativecommons.org/ns#"
   xmlns:rdf="http://www.w3.org/1999/02/22-rdf-syntax-ns#"
   xmlns:svg="http://www.w3.org/2000/svg"
   xmlns="http://www.w3.org/2000/svg"
   xmlns:sodipodi="http://sodipodi.sourceforge.net/DTD/sodipodi-0.dtd"
   xmlns:inkscape="http://www.inkscape.org/namespaces/inkscape"
   version="1.1"
   id="Layer_1"
   x="0px"
   y="0px"
   width="717.46686"
   height="1804.4954"
   viewBox="0 0 717.46686 1804.4954"
   enable-background="new 0 0 3500 3500"
   xml:space="preserve"
   sodipodi:docname="sail.svg"
   inkscape:version="0.92.2 (5c3e80d, 2017-08-06)"><metadata
     id="metadata37"><rdf:RDF><cc:Work
         rdf:about=""><dc:format>image/svg+xml</dc:format><dc:type
           rdf:resource="http://purl.org/dc/dcmitype/StillImage" /><dc:title /></cc:Work></rdf:RDF></metadata><defs
     id="defs35" /><sodipodi:namedview
     pagecolor="#ffffff"
     bordercolor="#666666"
     borderopacity="1"
     objecttolerance="10"
     gridtolerance="10"
     guidetolerance="10"
     inkscape:pageopacity="0"
     inkscape:pageshadow="2"
     inkscape:window-width="1529"
     inkscape:window-height="836"
     id="namedview33"
     showgrid="false"
     fit-margin-top="0"
     fit-margin-left="0"
     fit-margin-right="0"
     fit-margin-bottom="0"
     inkscape:zoom="0.26971428"
     inkscape:cx="-316.16143"
     inkscape:cy="638.5133"
     inkscape:window-x="71"
     inkscape:window-y="30"
     inkscape:window-maximized="1"
     inkscape:current-layer="Layer_1" /><linearGradient
     id="SVGID_1_"
     gradientUnits="userSpaceOnUse"
     x1="1516.4639"
     y1="1878.9375"
     x2="1975.1494"
     y2="2143.7598"
     gradientTransform="translate(-1388.8635,-780.222)"><stop
       offset="0.8011"
       style="stop-color:#AA3805"
       id="stop2" /><stop
       offset="0.8011"
       style="stop-color:#8C2A03"
       id="stop4" /></linearGradient><path
     d="m 564.34853,1360.988 c 79.613,-64.774 155.06,-202.467 78.202,-315.379 -204.797,-23.293 -452.961,244.675 -639.2249965,268.356 13.4289995,52.304 44.3299995,80.008 75.1029995,106.773 202.701997,28.488 266.666997,-123.528 485.919997,-59.75 z"
     id="path7"
     inkscape:connector-curvature="0"
     style="fill:url(#SVGID_1_)" /><path
     d="M 78.428533,1275.129 C 653.31953,693.101 729.42553,1107.874 716.11753,1057.322 669.32453,821.392 172.24853,103.402 3.3265335,0 -20.556467,156.017 90.566533,391.717 132.43353,618.062 c 46.785,252.931 50.728,495.652 -8.771,632.295 z"
     id="path9"
     inkscape:connector-curvature="0"
     style="opacity:0.9;fill:#fcfcfc" /><path
     d="m 171.43753,231.023 c 67.508,114.979 337.613,554.172 323.676,678.26 3.327,-112.567 -56.312,-245.296 -113.655,-360.228 z"
     id="path11"
     inkscape:connector-curvature="0"
     style="fill:#d3d3d3" /><path
     d="M 50.929533,255.128"
     id="path13"
     inkscape:connector-curvature="0"
     style="fill:#e6e6e6" /><path
     d="M 50.929533,255.128"
     id="path15"
     inkscape:connector-curvature="0"
     style="fill:#e6e6e6" /><path
     d="m 622.95653,1071.684 c -103.462,54.963 -499.123,275.653 -607.534997,258.776 98.694997,7.131 217.446997,-40.259 320.486997,-86.301 z"
     id="path17"
     inkscape:connector-curvature="0"
     style="fill:#ffffff" /><path
     d="m 591.88453,1139.601 c -95.728,50.854 -461.811,255.047 -562.117997,239.432 91.316997,6.598 201.190997,-37.249 296.528997,-79.85 z"
     id="path19"
     inkscape:connector-curvature="0"
     style="fill:#fcfafa" /><linearGradient
     id="SVGID_2_"
     gradientUnits="userSpaceOnUse"
     x1="1516.4639"
     y1="969.82031"
     x2="1975.1494"
     y2="1234.6426"
     gradientTransform="matrix(0.96892073,-0.24737143,-0.24737143,-0.96892073,-1026.0016,2980.2667)"><stop
       offset="0.8011"
       style="stop-color:#AA3805"
       id="stop21" /><stop
       offset="0.8011"
       style="stop-color:#8C2A03"
       id="stop23" /></linearGradient><path
     d="M 561.7212,1303.2964 C 365.05952,1419.3301 265.47785,1287.8608 76.122796,1365.6061 52.928311,1399.1524 29.839653,1433.6387 29.766533,1487.639 216.09983,1464.5086 522.83821,1662.7578 715.50824,1589.5278 762.04563,1461.1137 654.88361,1346.3652 561.7212,1303.2964 Z"
     id="path26"
     inkscape:connector-curvature="0"
     style="opacity:0.2;fill:url(#SVGID_2_)" /><path
     d="m 335.90853,1604.512 c -103.04,-46.041 -221.792,-93.432 -320.486997,-86.301 108.411997,-16.877 504.072997,203.814 607.534997,258.777 z"
     id="path28"
     inkscape:connector-curvature="0"
     style="opacity:0.2;fill:#ffffff" /><path
     d="M 29.766533,1469.639 C 130.07453,1454.024 496.15753,1658.217 591.88453,1709.071"
     id="path30"
     inkscape:connector-curvature="0"
     style="opacity:0.2;fill:#fcfafa" /></svg>