<?xml version="1.0" encoding="UTF-8" standalone="no"?>
<!-- Generator: Adobe Illustrator 16.0.0, SVG Export Plug-In . SVG Version: 6.00 Build 0)  -->

<svg
   xmlns:dc="http://purl.org/dc/elements/1.1/"
   xmlns:cc="http://creativecommons.org/ns#"
   xmlns:rdf="http://www.w3.org/1999/02/22-rdf-syntax-ns#"
   xmlns:svg="http://www.w3.org/2000/svg"
   xmlns="http://www.w3.org/2000/svg"
   xmlns:sodipodi="http://sodipodi.sourceforge.net/DTD/sodipodi-0.dtd"
   xmlns:inkscape="http://www.inkscape.org/namespaces/inkscape"
   version="1.1"
   id="Layer_1"
   x="0px"
   y="0px"
   width="2033.2695"
   height="1055.7852"
   viewBox="0 0 2033.2695 1055.7852"
   enable-background="new 0 0 5500 3500"
   xml:space="preserve"
   sodipodi:docname="teddy_2.svg"
   inkscape:version="0.92.2 (5c3e80d, 2017-08-06)"><metadata
     id="metadata15"><rdf:RDF><cc:Work
         rdf:about=""><dc:format>image/svg+xml</dc:format><dc:type
           rdf:resource="http://purl.org/dc/dcmitype/StillImage" /><dc:title></dc:title></cc:Work></rdf:RDF></metadata><defs
     id="defs13" /><sodipodi:namedview
     pagecolor="#ffffff"
     bordercolor="#666666"
     borderopacity="1"
     objecttolerance="10"
     gridtolerance="10"
     guidetolerance="10"
     inkscape:pageopacity="0"
     inkscape:pageshadow="2"
     inkscape:window-width="768"
     inkscape:window-height="480"
     id="namedview11"
     showgrid="false"
     fit-margin-top="0"
     fit-margin-left="0"
     fit-margin-right="0"
     fit-margin-bottom="0"
     inkscape:zoom="0.05"
     inkscape:cx="1155.8029"
     inkscape:cy="448.85189"
     inkscape:window-x="67"
     inkscape:window-y="28"
     inkscape:window-maximized="0"
     inkscape:current-layer="Layer_1" /><path
     d="m 1630.6589,130.06427 c -419.294,570.943 -410.007,-37.121 -684.69397,180.443 -274.686,217.569 -413.922,248.244 -310.034,607.44 103.892,359.19803 -229.111,-86.315 684.69297,-180.444 603.811,-62.199 340.371,-719.18 621.975,-720.321 281.6,-1.143 -169.7,-80.805 -311.94,112.882 z"
     id="path2"
     inkscape:connector-curvature="0"
     style="opacity:0.6;fill:#0071bc" /><path
     d="m 1589.0989,743.02827 c -814.00597,-176.667 -348.216,176.437 -763.81897,152.46 -415.604,-23.979 -566.406,10.557 -741.218003,-239.287 -174.813,-249.846 -145.272,137.047 763.818003,-152.459 909.08997,-289.506 1555.22497,415.954 741.21897,239.286 z"
     id="path4"
     inkscape:connector-curvature="0"
     style="fill:#29abe2" /><path
     d="m 1249.0709,689.45427 c -442.99197,-148.266 -203.539,117.378 -433.40397,89.191 -229.865,-28.189 -315.68,-7.398 -399.013,-191.268 -83.333,-183.871 -88.448,94.483 433.405,-89.191 521.85097,-183.673 842.00497,339.534 399.01197,191.268 z"
     id="path6"
     inkscape:connector-curvature="0"
     style="opacity:0.6;fill:#00a99d" /><path
     d="m 1520.3929,413.95827 c -468.716,59.945 -359.065,173.698 -589.48997,231.014 -230.425,57.316 -230.585,47.296 -359.677,-25.299 -129.092,-72.597 53.694,80.538 511.84097,-182.76 302.729,-173.975 505.737,-19.17 633.272,-103.52 127.536,-84.351 -36.941,60.231 -195.946,80.565 z"
     id="path8"
     inkscape:connector-curvature="0"
     style="opacity:0.6;fill:#ffffff" /></svg>