<?xml version="1.0" encoding="utf-8"?>
<!-- Generator: Adobe Illustrator 16.0.0, SVG Export Plug-In . SVG Version: 6.00 Build 0)  -->
<!DOCTYPE svg PUBLIC "-//W3C//DTD SVG 1.1//EN" "http://www.w3.org/Graphics/SVG/1.1/DTD/svg11.dtd">
<svg version="1.1"
	 id="Layer_1" xmlns:dc="http://purl.org/dc/elements/1.1/" xmlns:cc="http://creativecommons.org/ns#" xmlns:rdf="http://www.w3.org/1999/02/22-rdf-syntax-ns#" xmlns:svg="http://www.w3.org/2000/svg" xmlns:sodipodi="http://sodipodi.sourceforge.net/DTD/sodipodi-0.dtd" xmlns:inkscape="http://www.inkscape.org/namespaces/inkscape" inkscape:version="0.92.2 (5c3e80d, 2017-08-06)" sodipodi:docname="teddy_1.svg"
	 xmlns="http://www.w3.org/2000/svg" xmlns:xlink="http://www.w3.org/1999/xlink" x="0px" y="0px" width="1129.703px"
	 height="1283.011px" viewBox="0 0 1129.703 1283.011" enable-background="new 0 0 1129.703 1283.011" xml:space="preserve">
<sodipodi:namedview  inkscape:cy="581.98905" inkscape:cx="-544.67893" inkscape:zoom="0.14142136" fit-margin-left="0" fit-margin-top="0" showgrid="false" guidetolerance="10" gridtolerance="10" objecttolerance="10" borderopacity="1" pagecolor="#ffffff" bordercolor="#666666" id="namedview172" inkscape:current-layer="Layer_1" inkscape:window-maximized="1" inkscape:window-y="28" inkscape:window-x="67" fit-margin-bottom="0" fit-margin-right="0" inkscape:window-height="844" inkscape:window-width="1533" inkscape:pageshadow="2" inkscape:pageopacity="0">
	</sodipodi:namedview>
<g id="g156" transform="translate(-2234.533,-1576.9)">
	<g id="g123">
		
			<linearGradient id="path13_1_" gradientUnits="userSpaceOnUse" x1="6322.6016" y1="3415.3691" x2="6349.4541" y2="3415.3691" gradientTransform="matrix(-1.2024 -1.3815 -0.6501 0.5658 13085.1104 8649.6475)">
			<stop  offset="0.5" style="stop-color:#FF8D4D"/>
			<stop  offset="0.5054" style="stop-color:#E57138"/>
		</linearGradient>
		<path id="path13" inkscape:connector-curvature="0" fill="url(#path13_1_)" d="M3230.195,1810.294
			c50.727-44.149,99.076-71.634,107.992-61.39c8.914,10.244-24.98,54.338-75.707,98.487c-50.725,44.149-99.074,71.635-107.99,61.39
			C3145.575,1898.538,3179.468,1854.442,3230.195,1810.294z"/>
		<path id="path15" inkscape:connector-curvature="0" d="M3234.193,1709.584c0,39.216-16.563,141.484-40.34,172.172
			c-25.941,33.483-116.551,55.403-157.516,55.403c-44.729,0-343.934-60.385-208.092-65.792
			c70.629-2.811,161.883-66.763,110.768-58.424c-16.029,2.616-78.586,15.107-21.229-10.165
			c57.357-25.273,46.303-69.628,46.303-81.255c0-82.002,47.852-144.623,126.365-144.623
			C3168.966,1576.901,3234.193,1627.581,3234.193,1709.584L3234.193,1709.584z"/>
		
			<linearGradient id="rect27_1_" gradientUnits="userSpaceOnUse" x1="5027.0322" y1="1212.9102" x2="5066.0322" y2="1212.9102" gradientTransform="matrix(1 0 0 -1 -1940.533 3064.9102)">
			<stop  offset="0.4462" style="stop-color:#E57138"/>
			<stop  offset="0.672" style="stop-color:#FF8D4D"/>
		</linearGradient>
		
			<linearGradient id="rect27_2_" gradientUnits="userSpaceOnUse" x1="5026.5322" y1="1212.9102" x2="5066.5322" y2="1212.9102" gradientTransform="matrix(1 0 0 -1 -1940.533 3064.9102)">
			<stop  offset="0.8226" style="stop-color:#FF8D4D"/>
			<stop  offset="0.9624" style="stop-color:#E57138"/>
		</linearGradient>
		
			<rect id="rect27" x="3086.499" y="1803.5" fill="url(#rect27_1_)" stroke="url(#rect27_2_)" stroke-miterlimit="10" width="39" height="97"/>
		
			<linearGradient id="path39_1_" gradientUnits="userSpaceOnUse" x1="5692.9854" y1="2957.8936" x2="5719.8379" y2="2957.8936" gradientTransform="matrix(0.8892 -1.2893 -0.5836 -0.4025 -90.1321 10249.6563)">
			<stop  offset="0.4462" style="stop-color:#E57138"/>
			<stop  offset="0.672" style="stop-color:#FF8D4D"/>
		</linearGradient>
		
			<linearGradient id="path39_2_" gradientUnits="userSpaceOnUse" x1="5114.5557" y1="1363.1729" x2="5282.1992" y2="1363.1729" gradientTransform="matrix(1 0 0 -1 -1940.533 3064.9102)">
			<stop  offset="0.8226" style="stop-color:#FF8D4D"/>
			<stop  offset="0.9624" style="stop-color:#E57138"/>
		</linearGradient>
		<path id="path39" inkscape:connector-curvature="0" fill="url(#path39_1_)" stroke="url(#path39_2_)" stroke-miterlimit="10" d="
			M3269.784,1684.427c45.537,31.405,77.104,64.615,70.512,74.175c-6.594,9.56-48.854-8.148-94.391-39.554
			c-45.537-31.406-77.105-64.615-70.512-74.175S3224.247,1653.022,3269.784,1684.427L3269.784,1684.427z"/>
		
			<linearGradient id="path51_1_" gradientUnits="userSpaceOnUse" x1="4772.9609" y1="1606.3364" x2="4941.2061" y2="1606.3364" gradientTransform="matrix(0.9707 -0.2402 -0.2402 -0.9707 -1217.8916 4459.6514)">
			<stop  offset="0.4462" style="stop-color:#E57138"/>
			<stop  offset="0.672" style="stop-color:#FF8D4D"/>
		</linearGradient>
		
			<linearGradient id="path51_2_" gradientUnits="userSpaceOnUse" x1="4983.1016" y1="1282.271" x2="5136.0039" y2="1370.5493" gradientTransform="matrix(1 0 0 -1 -1940.533 3064.9102)">
			<stop  offset="0.8226" style="stop-color:#FF8D4D"/>
			<stop  offset="0.9624" style="stop-color:#E57138"/>
		</linearGradient>
		<path id="path51" inkscape:connector-curvature="0" fill="url(#path51_1_)" stroke="url(#path51_2_)" stroke-miterlimit="10" d="
			M3191.859,1710.121c11.543,46.641-26.719,109.031-26.719,109.031s-123.17-14.357-134.711-60.996
			c-5.771-23.32,28.42-39.973,38.283-65.658c9.859-25.687,27.018-53.83,50.338-59.601
			C3165.689,1621.356,3180.318,1663.481,3191.859,1710.121L3191.859,1710.121z"/>
		
			<linearGradient id="path58_1_" gradientUnits="userSpaceOnUse" x1="5074.2959" y1="1206.7441" x2="5222.707" y2="1206.7441" gradientTransform="matrix(1 0 0 -1 -1940.533 3064.9102)">
			<stop  offset="0" style="stop-color:#069CC4"/>
			<stop  offset="0.4247" style="stop-color:#71D1D3"/>
		</linearGradient>
		<path id="path58" inkscape:connector-curvature="0" fill="url(#path58_1_)" d="M3281.681,1823.119
			c2.055,2.399-2.496,9.669-10.193,16.265l-91.803,78.645c-7.697,6.595-15.605,9.998-17.66,7.599l-27.771-32.414
			c-2.053-2.398,2.523-9.69,10.221-16.285l91.803-78.645c7.697-6.597,15.58-9.977,17.637-7.578L3281.681,1823.119z"/>
		<path id="path60" inkscape:connector-curvature="0" fill="#050207" d="M2946.032,1769.596"/>
		
			<linearGradient id="path67_1_" gradientUnits="userSpaceOnUse" x1="5996.3633" y1="640.6006" x2="6019.1367" y2="640.6006" gradientTransform="matrix(1.0566 1.496 0.704 -0.4972 -3825.2864 -6703.7061)">
			<stop  offset="0.5" style="stop-color:#FF8D4D"/>
			<stop  offset="0.5054" style="stop-color:#E57138"/>
		</linearGradient>
		<path id="path67" inkscape:connector-curvature="0" fill="url(#path67_1_)" d="M2985.189,1982.48
			c-45.5,33.155-87.648,52.35-94.139,42.867c-6.488-9.479,25.135-44.042,70.637-77.197c45.5-33.158,87.646-52.351,94.137-42.87
			C3062.314,1914.759,3030.689,1949.324,2985.189,1982.48L2985.189,1982.48z"/>
		
			<linearGradient id="path79_1_" gradientUnits="userSpaceOnUse" x1="5442.8184" y1="2897.2266" x2="5469.6699" y2="2897.2266" gradientTransform="matrix(0.6331 -1.4326 -0.5395 -0.2384 1075.3607 10557.4941)">
			<stop  offset="0.4462" style="stop-color:#E57138"/>
			<stop  offset="0.672" style="stop-color:#FF8D4D"/>
		</linearGradient>
		
			<linearGradient id="path79_2_" gradientUnits="userSpaceOnUse" x1="4829.9531" y1="1014.6436" x2="4984.3457" y2="1014.6436" gradientTransform="matrix(1 0 0 -1 -1940.533 3064.9102)">
			<stop  offset="0.8226" style="stop-color:#FF8D4D"/>
			<stop  offset="0.9624" style="stop-color:#E57138"/>
		</linearGradient>
		<path id="path79" inkscape:connector-curvature="0" fill="url(#path79_1_)" stroke="url(#path79_2_)" stroke-miterlimit="10" d="
			M2975.115,2031.032c42.094,18.603,72.412,42.292,67.719,52.914s-42.623,4.155-84.717-14.446
			c-42.094-18.601-72.412-42.291-67.717-52.912C2895.093,2005.965,2933.021,2012.432,2975.115,2031.032z"/>
		
			<linearGradient id="path86_1_" gradientUnits="userSpaceOnUse" x1="5683.2236" y1="2474.7607" x2="5737.7998" y2="2474.7607" gradientTransform="matrix(0.5943 -1.6793 -0.7357 -0.2604 1616.2098 12325.458)">
			<stop  offset="0.5" style="stop-color:#000000"/>
			<stop  offset="0.6022" style="stop-color:#0C080D"/>
		</linearGradient>
		<path id="path86" inkscape:connector-curvature="0" fill="url(#path86_1_)" d="M3205.503,2045.541
			c57.404,20.315,100.365,46.881,95.957,59.332c-4.404,12.451-118.115,35.951-175.518,15.636
			c-57.402-20.313-36.762-76.753-32.355-89.205C3097.993,2018.852,3148.101,2025.225,3205.503,2045.541L3205.503,2045.541z"/>
		
			<linearGradient id="path93_1_" gradientUnits="userSpaceOnUse" x1="5587.7725" y1="601.4805" x2="5633.4453" y2="601.4805" gradientTransform="matrix(1.4746 0.5278 0.263 -0.7348 -5196.8398 -296.7544)">
			<stop  offset="0.5" style="stop-color:#000000"/>
			<stop  offset="0.6022" style="stop-color:#0C080D"/>
		</linearGradient>
		<path id="path93" inkscape:connector-curvature="0" fill="url(#path93_1_)" d="M3278.493,2206.493
			c-20.521,57.331-72.691,154.522-83.627,150.608c-10.934-3.912,9.809-156.638,30.328-213.966
			c20.52-57.332,59.721-51.447,70.652-47.533C3306.782,2099.516,3299.011,2149.163,3278.493,2206.493z"/>
		
			<linearGradient id="path100_1_" gradientUnits="userSpaceOnUse" x1="4951.8418" y1="923.9102" x2="5051.584" y2="923.9102" gradientTransform="matrix(1 0 0 -1 -1940.533 3064.9102)">
			<stop  offset="0.5" style="stop-color:#000000"/>
			<stop  offset="0.6022" style="stop-color:#0C080D"/>
		</linearGradient>
		<path id="path100" inkscape:connector-curvature="0" fill="url(#path100_1_)" d="M3110.181,2142.702
			c-3.662,60.781-17.836,109.377-31.652,108.545c-13.818-0.832-70.713-103.794-67.051-164.574
			c3.66-60.781,66.492-56.366,80.313-55.534C3105.607,2031.973,3113.843,2081.919,3110.181,2142.702z"/>
		
			<linearGradient id="path107_1_" gradientUnits="userSpaceOnUse" x1="5410.8789" y1="923.063" x2="5456.5498" y2="923.063" gradientTransform="matrix(1.565 0.0625 0.0311 -0.7798 -5468.6406 2728.1951)">
			<stop  offset="0.5" style="stop-color:#000000"/>
			<stop  offset="0.6022" style="stop-color:#0C080D"/>
		</linearGradient>
		<path id="path107" inkscape:connector-curvature="0" fill="url(#path107_1_)" d="M3100.638,2319.577
			c-2.43,60.844-23.135,169.193-34.736,168.73c-11.605-0.463-37.506-152.398-35.076-213.24
			c2.428-60.843,41.594-66.958,53.197-66.494C3095.626,2209.037,3103.064,2258.735,3100.638,2319.577z"/>
		
			<linearGradient id="path114_1_" gradientUnits="userSpaceOnUse" x1="4970.5615" y1="1097.4102" x2="5109.9951" y2="1097.4102" gradientTransform="matrix(1 0 0 -1 -1940.533 3064.9102)">
			<stop  offset="0.4409" style="stop-color:#4DB6AC"/>
			<stop  offset="0.457" style="stop-color:#71D1D3"/>
		</linearGradient>
		<path id="path114" inkscape:connector-curvature="0" fill="url(#path114_1_)" d="M3169.462,2032.349
			c0,9.622-7.279,17.65-16.223,17.65H3046.62c-8.941,0-16.592-8.028-16.592-17.65l31.15-39.691l-31.15-90.538
			c0-9.625,7.648-17.119,16.592-17.119h106.619c8.941,0,16.223,7.506,16.223,17.131l-16.395,87.896L3169.462,2032.349z"/>
		
			<linearGradient id="path121_1_" gradientUnits="userSpaceOnUse" x1="4891.0322" y1="1124.6113" x2="5018.9824" y2="1124.6113" gradientTransform="matrix(1 0 0 -1 -1940.533 3064.9102)">
			<stop  offset="1" style="stop-color:#4DB6AC"/>
			<stop  offset="1" style="stop-color:#069CC4"/>
		</linearGradient>
		<path id="path121" inkscape:connector-curvature="0" fill="url(#path121_1_)" d="M2950.792,1963.729
			c-1.494-2.216,2.865-8.005,9.764-12.948l82.238-58.938c6.898-4.943,13.699-7.153,15.191-4.937l20.172,29.959
			c1.492,2.218-2.889,8.021-9.787,12.965l-82.238,58.938c-6.896,4.941-13.676,7.136-15.17,4.919L2950.792,1963.729z"/>
	</g>
	
		<linearGradient id="path130_1_" gradientUnits="userSpaceOnUse" x1="5096.3916" y1="1336.1064" x2="5147.3916" y2="1336.1064" gradientTransform="matrix(1 0 0 -1 -1940.533 3064.9102)">
		<stop  offset="0.8226" style="stop-color:#FF8D4D"/>
		<stop  offset="0.9624" style="stop-color:#E57138"/>
	</linearGradient>
	<path id="path130" inkscape:connector-curvature="0" fill="#FF8D4D" stroke="url(#path130_1_)" stroke-miterlimit="10" d="
		M3174.872,1710.205c10.482-0.267,20.354,9.719,29.609,8.2c9.256-1.52-18.18,28.73-28.662,28.996
		c-10.484,0.268-19.195-7.843-19.455-18.115C3156.103,1719.014,3164.388,1710.473,3174.872,1710.205L3174.872,1710.205z"/>
	<path id="path132" inkscape:connector-curvature="0" d="M3138.548,1584.804c26.633,30.582,5.143,92.891-48.004,139.174
		c-53.145,46.283-117.814,59.011-144.447,28.432"/>
	<g id="g144">
		<path id="path134" inkscape:connector-curvature="0" fill="#42210B" d="M3160.595,1697.692
			c-13.564-8.292,5.533,19.616-10.439,24.035c-15.977,4.419-44.973-7.694-33.264-7.682c11.709,0.012,8.609-19.265,24.586-23.684
			C3157.452,1685.942,3174.163,1705.984,3160.595,1697.692L3160.595,1697.692z"/>
		<path id="path136" inkscape:connector-curvature="0" fill="#FFFFFF" d="M3140.466,1694.56c9.543-3.749,17.869-0.481,20.879,7.178
			c3.01,7.659-0.438,16.811-9.98,20.559c-9.543,3.749-22.729-7.08-22.729-7.08S3130.923,1698.309,3140.466,1694.56z"/>
		
			<ellipse id="ellipse138" transform="matrix(-0.081 -0.9967 0.9967 -0.081 1706.9263 4988.0786)" fill="#29ABE2" cx="3153.064" cy="1707.113" rx="12.251" ry="9.763"/>
		
			<ellipse id="ellipse140" transform="matrix(-0.081 -0.9967 0.9967 -0.081 1710.4438 4990.9355)" fill="#42210B" cx="3156.191" cy="1706.903" rx="8.25" ry="6.572"/>
		
			<ellipse id="ellipse142" transform="matrix(-0.0809 -0.9967 0.9967 -0.0809 1707.1494 4980.8184)" fill="#FFFFFF" cx="3149.988" cy="1703.326" rx="4.224" ry="3.367"/>
	</g>
	<path id="path146" inkscape:connector-curvature="0" d="M3190.673,1761.734c-2.447,9.916-6.48,25.867-21.43,22.176
		c-14.949-3.69-28.738-35.451-28.738-35.451s22.658-4.152,37.605-0.46C3193.06,1751.69,3193.122,1751.818,3190.673,1761.734z"/>
	<path id="path148" inkscape:connector-curvature="0" fill="#D60D39" d="M3190.042,1761.733c-2.449,9.917-6.482,25.868-21.43,22.177
		c-14.949-3.69-28.738-35.451-28.738-35.451s22.656-4.152,37.605-0.46C3192.427,1751.69,3192.491,1751.818,3190.042,1761.733z"/>
	<path id="path150" inkscape:connector-curvature="0" fill="#FFFFFF" d="M3152.577,1756.921c0,0,15.516-2.843,25.752-0.315
		c10.236,2.528,10.277,2.615,8.602,9.404"/>
	<path id="path152" inkscape:connector-curvature="0" d="M3153.165,1757.68c0,0,15.771-0.318,25.469,3.819
		c9.699,4.136,9.729,4.229,6.982,10.663"/>
	<path id="path154" inkscape:connector-curvature="0" d="M3152.818,1757.711c0,0,11.393,10.908,21.332,14.428
		c9.938,3.519,10.021,3.471,12.355-3.123"/>
</g>
<g id="g169" transform="translate(-2234.533,-1576.9)">
	
		<linearGradient id="path163_1_" gradientUnits="userSpaceOnUse" x1="2030.2083" y1="-61.1753" x2="2802.1294" y2="384.4938" gradientTransform="matrix(1 0 0 1 413.4668 2373.0996)">
		<stop  offset="0.8011" style="stop-color:#AA3805"/>
		<stop  offset="0.8011" style="stop-color:#8C2A03"/>
	</linearGradient>
	<path id="path163" inkscape:connector-curvature="0" fill="url(#path163_1_)" d="M3178.675,2753.304
		c133.982-109.01,260.951-340.73,131.607-530.752c-344.652-39.198-762.287,411.764-1075.75,451.617
		c22.599,88.021,74.603,134.645,126.39,179.688C2702.051,2901.8,2809.697,2645.972,3178.675,2753.304L3178.675,2753.304z"/>
	<path id="path165" inkscape:connector-curvature="0" fill="#FFFFFF" d="M3277.31,2266.435
		c-174.117,92.498-839.975,463.895-1022.419,435.492c166.094,12.002,365.939-67.75,539.346-145.234L3277.31,2266.435z"/>
	<path id="path167" inkscape:connector-curvature="0" fill="#FCFAFA" d="M3225.017,2380.731
		c-161.102,85.58-777.179,429.217-945.987,402.938c153.678,11.105,338.584-62.686,499.029-134.379L3225.017,2380.731z"/>
</g>
</svg>
