<?xml version="1.0" encoding="UTF-8" standalone="no"?>
<!-- Generator: Adobe Illustrator 16.0.0, SVG Export Plug-In . SVG Version: 6.00 Build 0)  -->

<svg
   xmlns:dc="http://purl.org/dc/elements/1.1/"
   xmlns:cc="http://creativecommons.org/ns#"
   xmlns:rdf="http://www.w3.org/1999/02/22-rdf-syntax-ns#"
   xmlns:svg="http://www.w3.org/2000/svg"
   xmlns="http://www.w3.org/2000/svg"
   xmlns:sodipodi="http://sodipodi.sourceforge.net/DTD/sodipodi-0.dtd"
   xmlns:inkscape="http://www.inkscape.org/namespaces/inkscape"
   version="1.1"
   id="Layer_1"
   x="0px"
   y="0px"
   width="1272.2158"
   height="2262.5347"
   viewBox="0 0 1272.2158 2262.5347"
   enable-background="new 0 0 5500 3500"
   xml:space="preserve"
   sodipodi:docname="teddy_1.svg"
   inkscape:version="0.92.2 (5c3e80d, 2017-08-06)"><metadata
     id="metadata176"><rdf:RDF><cc:Work
         rdf:about=""><dc:format>image/svg+xml</dc:format><dc:type
           rdf:resource="http://purl.org/dc/dcmitype/StillImage" /><dc:title></dc:title></cc:Work></rdf:RDF></metadata><defs
     id="defs174" /><sodipodi:namedview
     pagecolor="#ffffff"
     bordercolor="#666666"
     borderopacity="1"
     objecttolerance="10"
     gridtolerance="10"
     guidetolerance="10"
     inkscape:pageopacity="0"
     inkscape:pageshadow="2"
     inkscape:window-width="1533"
     inkscape:window-height="844"
     id="namedview172"
     showgrid="false"
     fit-margin-top="0"
     fit-margin-left="0"
     fit-margin-right="0"
     fit-margin-bottom="0"
     inkscape:zoom="0.14142136"
     inkscape:cx="792.8455"
     inkscape:cy="581.98909"
     inkscape:window-x="67"
     inkscape:window-y="28"
     inkscape:window-maximized="1"
     inkscape:current-layer="Layer_1" /><g
     id="g6"
     transform="translate(-2092.019,-597.376)"><path
       enable-background="new    "
       d="m 2210.3,2520.426 c 867.006,-877.771 981.782,-252.242 961.711,-328.48 -70.568,-355.812 -820.221,-1438.627 -1074.975,-1594.57 -36.019,235.293 131.568,590.757 194.709,932.112 70.558,381.451 76.505,747.502 -13.229,953.579 z"
       id="path2"
       inkscape:connector-curvature="0"
       style="fill:#ffffff" /><path
       d="m 2350.569,945.787 c 101.81,173.401 509.162,835.758 488.143,1022.897 5.019,-169.765 -84.926,-369.934 -171.405,-543.266 z"
       id="path4"
       inkscape:connector-curvature="0"
       style="fill:#d3d3d3" /></g><g
     id="g156"
     transform="translate(-2092.019,-597.376)"><g
       id="g123"><linearGradient
         id="SVGID_1_"
         gradientUnits="userSpaceOnUse"
         x1="3928.4414"
         y1="-556.93549"
         x2="3955.293"
         y2="-556.93549"
         gradientTransform="matrix(-1.2024,-1.3815,0.6501,-0.5658,8348.0488,6959.4395)"><stop
           offset="0.5"
           style="stop-color:#FF8D4D"
           id="stop8" /><stop
           offset="0.5054"
           style="stop-color:#E57138"
           id="stop10" /></linearGradient><path
         d="m 3230.195,1810.294 c 50.726,-44.149 99.075,-71.634 107.991,-61.39 8.914,10.244 -24.979,54.338 -75.706,98.487 -50.725,44.149 -99.074,71.635 -107.99,61.39 -8.915,-10.243 24.979,-54.339 75.705,-98.487 z"
         id="path13"
         inkscape:connector-curvature="0"
         style="fill:url(#SVGID_1_)" /><path
         d="m 3234.193,1709.584 c 0,39.216 -16.563,141.484 -40.34,172.172 -25.942,33.483 -116.55,55.403 -157.516,55.403 -44.729,0 -343.934,-60.385 -208.092,-65.792 70.629,-2.811 161.884,-66.763 110.769,-58.424 -16.031,2.616 -78.587,15.107 -21.229,-10.165 57.358,-25.273 46.302,-69.628 46.302,-81.255 0,-82.002 47.852,-144.623 126.365,-144.623 78.514,10e-4 143.741,50.681 143.741,132.684 z"
         id="path15"
         inkscape:connector-curvature="0" /><linearGradient
         id="SVGID_2_"
         gradientUnits="userSpaceOnUse"
         x1="3086.5"
         y1="1852"
         x2="3125.5"
         y2="1852"><stop
           offset="0.4462"
           style="stop-color:#E57138"
           id="stop17" /><stop
           offset="0.672"
           style="stop-color:#FF8D4D"
           id="stop19" /></linearGradient><linearGradient
         id="SVGID_3_"
         gradientUnits="userSpaceOnUse"
         x1="3086"
         y1="1852"
         x2="3126"
         y2="1852"><stop
           offset="0.8226"
           style="stop-color:#FF8D4D"
           id="stop22" /><stop
           offset="0.9624"
           style="stop-color:#E57138"
           id="stop24" /></linearGradient><rect
         x="3086.5"
         y="1803.5"
         stroke-miterlimit="10"
         width="39"
         height="97"
         id="rect27"
         style="fill:url(#SVGID_2_);stroke:url(#SVGID_3_);stroke-miterlimit:10" /><linearGradient
         id="SVGID_4_"
         gradientUnits="userSpaceOnUse"
         x1="3457.8145"
         y1="359.18161"
         x2="3484.668"
         y2="359.18161"
         gradientTransform="matrix(0.8892,-1.2893,0.5836,0.4025,-38.459,6032.7295)"><stop
           offset="0.4462"
           style="stop-color:#E57138"
           id="stop29" /><stop
           offset="0.672"
           style="stop-color:#FF8D4D"
           id="stop31" /></linearGradient><linearGradient
         id="SVGID_5_"
         gradientUnits="userSpaceOnUse"
         x1="3174.0234"
         y1="1701.7383"
         x2="3341.667"
         y2="1701.7383"><stop
           offset="0.8226"
           style="stop-color:#FF8D4D"
           id="stop34" /><stop
           offset="0.9624"
           style="stop-color:#E57138"
           id="stop36" /></linearGradient><path
         stroke-miterlimit="10"
         d="m 3269.784,1684.427 c 45.537,31.405 77.105,64.615 70.513,74.175 -6.594,9.56 -48.854,-8.148 -94.391,-39.554 -45.537,-31.406 -77.105,-64.615 -70.512,-74.175 6.593,-9.56 48.854,8.149 94.39,39.554 z"
         id="path39"
         inkscape:connector-curvature="0"
         style="fill:url(#SVGID_4_);stroke:url(#SVGID_5_);stroke-miterlimit:10" /><linearGradient
         id="SVGID_6_"
         gradientUnits="userSpaceOnUse"
         x1="2765.6689"
         y1="1513.6743"
         x2="2933.9102"
         y2="1513.6743"
         gradientTransform="matrix(0.9707,-0.2402,0.2402,0.9707,-18.9165,948.9221)"><stop
           offset="0.4462"
           style="stop-color:#E57138"
           id="stop41" /><stop
           offset="0.672"
           style="stop-color:#FF8D4D"
           id="stop43" /></linearGradient><linearGradient
         id="SVGID_7_"
         gradientUnits="userSpaceOnUse"
         x1="3042.5693"
         y1="1782.6406"
         x2="3195.4722"
         y2="1694.3622"><stop
           offset="0.8226"
           style="stop-color:#FF8D4D"
           id="stop46" /><stop
           offset="0.9624"
           style="stop-color:#E57138"
           id="stop48" /></linearGradient><path
         stroke-miterlimit="10"
         d="m 3191.858,1710.121 c 11.543,46.641 -26.717,109.031 -26.717,109.031 0,0 -123.171,-14.357 -134.712,-60.996 -5.771,-23.32 28.42,-39.973 38.283,-65.658 9.86,-25.687 27.018,-53.83 50.338,-59.601 46.64,-11.541 61.268,30.584 72.808,77.224 z"
         id="path51"
         inkscape:connector-curvature="0"
         style="fill:url(#SVGID_6_);stroke:url(#SVGID_7_);stroke-miterlimit:10" /><linearGradient
         id="SVGID_8_"
         gradientUnits="userSpaceOnUse"
         x1="3133.7627"
         y1="1858.1641"
         x2="3282.1748"
         y2="1858.1641"><stop
           offset="0.4086"
           style="stop-color:#069CC4"
           id="stop53" /><stop
           offset="0.8656"
           style="stop-color:#71D1D3"
           id="stop55" /></linearGradient><path
         d="m 3281.682,1823.119 c 2.054,2.399 -2.496,9.669 -10.194,16.265 l -91.802,78.645 c -7.699,6.595 -15.606,9.998 -17.661,7.599 l -27.771,-32.414 c -2.054,-2.398 2.522,-9.69 10.221,-16.285 l 91.802,-78.645 c 7.698,-6.597 15.58,-9.977 17.636,-7.578 z"
         id="path58"
         inkscape:connector-curvature="0"
         style="fill:url(#SVGID_8_)" /><path
         d="M 2946.033,1769.596"
         id="path60"
         inkscape:connector-curvature="0"
         style="fill:#050207" /><linearGradient
         id="SVGID_9_"
         gradientUnits="userSpaceOnUse"
         x1="3987.8838"
         y1="2097.2607"
         x2="4010.6572"
         y2="2097.2607"
         gradientTransform="matrix(1.0566,1.496,-0.704,0.4972,224.269,-5060.2441)"><stop
           offset="0.5"
           style="stop-color:#FF8D4D"
           id="stop62" /><stop
           offset="0.5054"
           style="stop-color:#E57138"
           id="stop64" /></linearGradient><path
         d="m 2985.188,1982.48 c -45.5,33.155 -87.647,52.35 -94.138,42.867 -6.489,-9.479 25.135,-44.042 70.636,-77.197 45.5,-33.158 87.648,-52.351 94.138,-42.87 6.489,9.479 -25.135,44.044 -70.636,77.2 z"
         id="path67"
         inkscape:connector-curvature="0"
         style="fill:url(#SVGID_9_)" /><linearGradient
         id="SVGID_10_"
         gradientUnits="userSpaceOnUse"
         x1="3166.1982"
         y1="492.6738"
         x2="3193.0508"
         y2="492.6738"
         gradientTransform="matrix(0.6331,-1.4326,0.5395,0.2384,687.9565,6487.9087)"><stop
           offset="0.4462"
           style="stop-color:#E57138"
           id="stop69" /><stop
           offset="0.672"
           style="stop-color:#FF8D4D"
           id="stop71" /></linearGradient><linearGradient
         id="SVGID_11_"
         gradientUnits="userSpaceOnUse"
         x1="2889.4199"
         y1="2050.2666"
         x2="3043.8135"
         y2="2050.2666"><stop
           offset="0.8226"
           style="stop-color:#FF8D4D"
           id="stop74" /><stop
           offset="0.9624"
           style="stop-color:#E57138"
           id="stop76" /></linearGradient><path
         stroke-miterlimit="10"
         d="m 2975.115,2031.032 c 42.094,18.602 72.412,42.292 67.719,52.914 -4.694,10.622 -42.623,4.155 -84.717,-14.446 -42.094,-18.601 -72.412,-42.291 -67.718,-52.913 4.694,-10.622 42.622,-4.155 84.716,14.445 z"
         id="path79"
         inkscape:connector-curvature="0"
         style="fill:url(#SVGID_10_);stroke:url(#SVGID_11_);stroke-miterlimit:10" /><linearGradient
         id="SVGID_12_"
         gradientUnits="userSpaceOnUse"
         x1="3401.6963"
         y1="762.49707"
         x2="3456.2695"
         y2="762.49707"
         gradientTransform="matrix(0.5943,-1.6793,0.7357,0.2604,590.3813,7651.1445)"><stop
           offset="0.5"
           style="stop-color:#000000"
           id="stop81" /><stop
           offset="0.6022"
           style="stop-color:#0C080D"
           id="stop83" /></linearGradient><path
         d="m 3205.504,2045.541 c 57.403,20.315 100.364,46.88 95.957,59.331 -4.405,12.452 -118.115,35.952 -175.518,15.636 -57.403,-20.313 -36.762,-76.753 -32.355,-89.205 4.406,-12.451 54.514,-6.078 111.916,14.238 z"
         id="path86"
         inkscape:connector-curvature="0"
         style="fill:url(#SVGID_12_)" /><linearGradient
         id="SVGID_13_"
         gradientUnits="userSpaceOnUse"
         x1="3596.6982"
         y1="2402.3379"
         x2="3642.3711"
         y2="2402.3379"
         gradientTransform="matrix(1.4746,0.5278,-0.263,0.7348,-1470.8691,-1452.9922)"><stop
           offset="0.5"
           style="stop-color:#000000"
           id="stop88" /><stop
           offset="0.6022"
           style="stop-color:#0C080D"
           id="stop90" /></linearGradient><path
         d="m 3278.494,2206.493 c -20.521,57.33 -72.692,154.521 -83.627,150.608 -10.933,-3.913 9.808,-156.638 30.327,-213.967 20.521,-57.331 59.721,-51.447 70.654,-47.533 10.935,3.915 3.164,53.562 -17.354,110.892 z"
         id="path93"
         inkscape:connector-curvature="0"
         style="fill:url(#SVGID_13_)" /><linearGradient
         id="SVGID_14_"
         gradientUnits="userSpaceOnUse"
         x1="3011.3086"
         y1="2141"
         x2="3111.0508"
         y2="2141"><stop
           offset="0.5"
           style="stop-color:#000000"
           id="stop95" /><stop
           offset="0.6022"
           style="stop-color:#0C080D"
           id="stop97" /></linearGradient><path
         d="m 3110.182,2142.702 c -3.663,60.781 -17.836,109.378 -31.654,108.546 -13.818,-0.832 -70.713,-103.795 -67.05,-164.575 3.661,-60.781 66.493,-56.366 80.312,-55.534 13.817,0.834 22.053,50.781 18.392,111.563 z"
         id="path100"
         inkscape:connector-curvature="0"
         style="fill:url(#SVGID_14_)" /><linearGradient
         id="SVGID_15_"
         gradientUnits="userSpaceOnUse"
         x1="3382.71"
         y1="2197.7578"
         x2="3428.3818"
         y2="2197.7578"
         gradientTransform="matrix(1.565,0.0625,-0.0311,0.7798,-2197.5049,421.5005)"><stop
           offset="0.5"
           style="stop-color:#000000"
           id="stop102" /><stop
           offset="0.6022"
           style="stop-color:#0C080D"
           id="stop104" /></linearGradient><path
         d="m 3100.638,2319.578 c -2.43,60.844 -23.134,169.192 -34.737,168.73 -11.604,-0.463 -37.505,-152.398 -35.076,-213.241 2.428,-60.843 41.594,-66.958 53.197,-66.493 11.605,0.463 19.042,50.161 16.616,111.004 z"
         id="path107"
         inkscape:connector-curvature="0"
         style="fill:url(#SVGID_15_)" /><linearGradient
         id="SVGID_16_"
         gradientUnits="userSpaceOnUse"
         x1="3030.0283"
         y1="1967.5"
         x2="3169.4629"
         y2="1967.5"><stop
           offset="0.4086"
           style="stop-color:#069CC4"
           id="stop109" /><stop
           offset="0.8656"
           style="stop-color:#71D1D3"
           id="stop111" /></linearGradient><path
         d="m 3169.463,2032.349 c 0,9.622 -7.28,17.651 -16.223,17.651 h -106.62 c -8.941,0 -16.592,-8.029 -16.592,-17.651 l 31.151,-39.691 -31.151,-90.538 c 0,-9.625 7.65,-17.119 16.592,-17.119 h 106.62 c 8.942,0 16.223,7.506 16.223,17.131 l -16.396,87.896 z"
         id="path114"
         inkscape:connector-curvature="0"
         style="fill:url(#SVGID_16_)" /><linearGradient
         id="SVGID_17_"
         gradientUnits="userSpaceOnUse"
         x1="2950.499"
         y1="1940.2998"
         x2="3078.4492"
         y2="1940.2998"><stop
           offset="0.4086"
           style="stop-color:#069CC4"
           id="stop116" /><stop
           offset="0.8656"
           style="stop-color:#71D1D3"
           id="stop118" /></linearGradient><path
         d="m 2950.792,1963.729 c -1.493,-2.216 2.866,-8.005 9.764,-12.948 l 82.239,-58.938 c 6.897,-4.943 13.699,-7.153 15.191,-4.936 l 20.171,29.959 c 1.493,2.218 -2.888,8.021 -9.786,12.965 l -82.239,58.938 c -6.896,4.942 -13.676,7.136 -15.169,4.919 z"
         id="path121"
         inkscape:connector-curvature="0"
         style="fill:url(#SVGID_17_)" /></g><linearGradient
       id="SVGID_18_"
       gradientUnits="userSpaceOnUse"
       x1="3155.8584"
       y1="1728.8027"
       x2="3206.8594"
       y2="1728.8027"><stop
         offset="0.8226"
         style="stop-color:#FF8D4D"
         id="stop125" /><stop
         offset="0.9624"
         style="stop-color:#E57138"
         id="stop127" /></linearGradient><path
       stroke-miterlimit="10"
       d="m 3174.872,1710.205 c 10.482,-0.267 20.354,9.719 29.61,8.2 9.255,-1.52 -18.18,28.73 -28.663,28.996 -10.483,0.268 -19.194,-7.843 -19.455,-18.115 -0.262,-10.272 8.024,-18.813 18.508,-19.081 z"
       id="path130"
       inkscape:connector-curvature="0"
       style="fill:#ff8d4d;stroke:url(#SVGID_18_);stroke-miterlimit:10" /><path
       d="m 3138.548,1584.804 c 26.633,30.582 5.142,92.891 -48.003,139.174 -53.145,46.283 -117.816,59.011 -144.449,28.432"
       id="path132"
       inkscape:connector-curvature="0" /><g
       id="g144"><path
         d="m 3160.596,1697.692 c -13.566,-8.292 5.533,19.616 -10.441,24.035 -15.975,4.419 -44.973,-7.694 -33.263,-7.682 11.709,0.012 8.61,-19.265 24.585,-23.684 15.975,-4.419 32.686,15.623 19.119,7.331 z"
         id="path134"
         inkscape:connector-curvature="0"
         style="fill:#42210b" /><path
         d="m 3140.467,1694.56 c 9.543,-3.749 17.869,-0.481 20.878,7.178 3.01,7.659 -0.438,16.81 -9.981,20.559 -9.543,3.749 -22.728,-7.08 -22.728,-7.08 0,0 2.288,-16.908 11.831,-20.657 z"
         id="path136"
         inkscape:connector-curvature="0"
         style="fill:#ffffff" /><ellipse
         transform="matrix(0.9967,-0.081,0.081,0.9967,-127.9275,261.0405)"
         cx="3153.1211"
         cy="1707.109"
         rx="9.7620001"
         ry="12.251"
         id="ellipse138"
         style="fill:#29abe2" /><ellipse
         transform="matrix(0.9967,-0.081,0.081,0.9967,-127.9385,261.4041)"
         cx="3156.2949"
         cy="1706.791"
         rx="6.573"
         ry="8.25"
         id="ellipse140"
         style="fill:#42210b" /><ellipse
         transform="matrix(0.9967,-0.081,0.081,0.9967,-127.6536,260.8453)"
         cx="3150.073"
         cy="1703.257"
         rx="3.3659999"
         ry="4.224"
         id="ellipse142"
         style="fill:#ffffff" /></g><path
       d="m 3190.673,1761.734 c -2.448,9.916 -6.481,25.867 -21.43,22.176 -14.948,-3.69 -28.737,-35.451 -28.737,-35.451 0,0 22.657,-4.152 37.604,-0.46 14.95,3.691 15.012,3.819 12.563,13.735 z"
       id="path146"
       inkscape:connector-curvature="0" /><path
       d="m 3190.042,1761.733 c -2.448,9.917 -6.482,25.868 -21.43,22.177 -14.948,-3.69 -28.737,-35.451 -28.737,-35.451 0,0 22.656,-4.152 37.605,-0.46 14.948,3.691 15.011,3.819 12.562,13.734 z"
       id="path148"
       inkscape:connector-curvature="0"
       style="fill:#9e040f" /><path
       d="m 3152.577,1756.921 c 0,0 15.516,-2.843 25.752,-0.315 10.236,2.528 10.278,2.615 8.602,9.404"
       id="path150"
       inkscape:connector-curvature="0"
       style="fill:#ffffff" /><path
       d="m 3153.165,1757.68 c 0,0 15.771,-0.318 25.47,3.819 9.698,4.136 9.727,4.229 6.982,10.663"
       id="path152"
       inkscape:connector-curvature="0" /><path
       d="m 3152.817,1757.711 c 0,0 11.394,10.908 21.333,14.428 9.938,3.519 10.022,3.471 12.355,-3.123"
       id="path154"
       inkscape:connector-curvature="0" /></g><g
     id="g169"
     transform="translate(-2092.019,-597.376)"><linearGradient
       id="SVGID_19_"
       gradientUnits="userSpaceOnUse"
       x1="89.675797"
       y1="2634.0762"
       x2="861.59589"
       y2="2188.4077"
       gradientTransform="matrix(1,0,0,-1,2354,4946)"><stop
         offset="0.8011"
         style="stop-color:#AA3805"
         id="stop158" /><stop
         offset="0.8011"
         style="stop-color:#8C2A03"
         id="stop160" /></linearGradient><path
       d="m 3178.676,2753.303 c 133.981,-109.009 260.95,-340.73 131.606,-530.751 -344.651,-39.198 -762.286,411.763 -1075.749,451.617 22.599,88.022 74.603,134.645 126.39,179.687 341.128,47.943 448.773,-207.885 817.753,-100.553 z"
       id="path163"
       inkscape:connector-curvature="0"
       style="fill:url(#SVGID_19_)" /><path
       d="m 3277.309,2266.435 c -174.117,92.498 -839.974,463.895 -1022.419,435.491 166.094,12.002 365.94,-67.75 539.346,-145.234 z"
       id="path165"
       inkscape:connector-curvature="0"
       style="fill:#ffffff" /><path
       d="m 3225.017,2380.732 c -161.102,85.58 -777.179,429.217 -945.987,402.938 153.678,11.104 338.584,-62.686 499.029,-134.38 z"
       id="path167"
       inkscape:connector-curvature="0"
       style="fill:#fcfafa" /></g></svg>