<?xml version="1.0" encoding="UTF-8" standalone="no"?>
<!-- Generator: Adobe Illustrator 16.0.0, SVG Export Plug-In . SVG Version: 6.00 Build 0)  -->

<svg
   xmlns:dc="http://purl.org/dc/elements/1.1/"
   xmlns:cc="http://creativecommons.org/ns#"
   xmlns:rdf="http://www.w3.org/1999/02/22-rdf-syntax-ns#"
   xmlns:svg="http://www.w3.org/2000/svg"
   xmlns="http://www.w3.org/2000/svg"
   xmlns:sodipodi="http://sodipodi.sourceforge.net/DTD/sodipodi-0.dtd"
   xmlns:inkscape="http://www.inkscape.org/namespaces/inkscape"
   version="1.1"
   id="Layer_1"
   x="0px"
   y="0px"
   width="2123.0305"
   height="2765.635"
   viewBox="0 0 2123.0305 2765.635"
   enable-background="new 0 0 5500 3500"
   xml:space="preserve"
   sodipodi:docname="teddy.svg"
   inkscape:version="0.92.2 (5c3e80d, 2017-08-06)"><metadata
     id="metadata188"><rdf:RDF><cc:Work
         rdf:about=""><dc:format>image/svg+xml</dc:format><dc:type
           rdf:resource="http://purl.org/dc/dcmitype/StillImage" /><dc:title></dc:title></cc:Work></rdf:RDF></metadata><defs
     id="defs186" /><sodipodi:namedview
     pagecolor="#ffffff"
     bordercolor="#666666"
     borderopacity="1"
     objecttolerance="10"
     gridtolerance="10"
     guidetolerance="10"
     inkscape:pageopacity="0"
     inkscape:pageshadow="2"
     inkscape:window-width="1533"
     inkscape:window-height="844"
     id="namedview184"
     showgrid="false"
     fit-margin-top="0"
     fit-margin-left="0"
     fit-margin-right="0"
     fit-margin-bottom="0"
     inkscape:zoom="0.05"
     inkscape:cx="927.34642"
     inkscape:cy="1222.0109"
     inkscape:window-x="67"
     inkscape:window-y="28"
     inkscape:window-maximized="1"
     inkscape:current-layer="Layer_1" /><path
     d="m 1684.2024,1808.755 c -419.294,570.943 -410.007,-37.121 -684.69398,180.443 -274.686,217.569 -413.922,248.244 -310.034,607.44 103.892,359.198 -229.111,-86.315 684.69298,-180.444 603.811,-62.199 340.371,-719.18 621.975,-720.321 281.6,-1.143 -169.7,-80.805 -311.94,112.882 z"
     id="path2"
     inkscape:connector-curvature="0"
     style="opacity:0.6;fill:#0071bc" /><g
     id="g8"
     transform="translate(-1822.6536,-206.376)"><path
       enable-background="new    "
       d="m 2251.3,2129.426 c 867.006,-877.771 981.782,-252.242 961.711,-328.48 -70.568,-355.812 -820.221,-1438.627 -1074.975,-1594.57 -36.019,235.293 131.568,590.757 194.709,932.112 70.558,381.451 76.505,747.502 -13.229,953.579 z"
       id="path4"
       inkscape:connector-curvature="0"
       style="fill:#ffffff" /><path
       d="m 2391.569,554.787 c 101.81,173.401 509.162,835.758 488.143,1022.897 5.019,-169.765 -84.926,-369.934 -171.405,-543.266 z"
       id="path6"
       inkscape:connector-curvature="0"
       style="fill:#d3d3d3" /></g><g
     id="g158"
     transform="translate(-1822.6536,-206.376)"><g
       id="g125"><linearGradient
         id="SVGID_1_"
         gradientUnits="userSpaceOnUse"
         x1="4074.7832"
         y1="-223.2148"
         x2="4101.6348"
         y2="-223.2148"
         gradientTransform="matrix(-1.2024,-1.3815,0.6501,-0.5658,8348.0488,6959.4395)"><stop
           offset="0.5"
           style="stop-color:#FF8D4D"
           id="stop10" /><stop
           offset="0.5054"
           style="stop-color:#E57138"
           id="stop12" /></linearGradient><path
         d="m 3271.195,1419.294 c 50.726,-44.149 99.075,-71.634 107.991,-61.39 8.914,10.244 -24.979,54.338 -75.706,98.486 -50.725,44.15 -99.074,71.635 -107.99,61.39 -8.915,-10.242 24.979,-54.338 75.705,-98.486 z"
         id="path15"
         inkscape:connector-curvature="0"
         style="fill:url(#SVGID_1_)" /><path
         d="m 3275.193,1318.584 c 0,39.216 -16.563,141.484 -40.34,172.172 -25.942,33.483 -116.55,55.403 -157.516,55.403 -44.729,0 -343.934,-60.385 -208.092,-65.792 70.629,-2.812 161.884,-66.763 110.769,-58.424 -16.031,2.616 -78.587,15.107 -21.229,-10.166 57.358,-25.273 46.302,-69.628 46.302,-81.255 0,-82.002 47.852,-144.623 126.365,-144.623 78.514,0 143.741,50.682 143.741,132.685 z"
         id="path17"
         inkscape:connector-curvature="0" /><linearGradient
         id="SVGID_2_"
         gradientUnits="userSpaceOnUse"
         x1="3127.5"
         y1="1461"
         x2="3166.5"
         y2="1461"><stop
           offset="0.4462"
           style="stop-color:#E57138"
           id="stop19" /><stop
           offset="0.672"
           style="stop-color:#FF8D4D"
           id="stop21" /></linearGradient><linearGradient
         id="SVGID_3_"
         gradientUnits="userSpaceOnUse"
         x1="3127"
         y1="1461"
         x2="3167"
         y2="1461"><stop
           offset="0.8226"
           style="stop-color:#FF8D4D"
           id="stop24" /><stop
           offset="0.9624"
           style="stop-color:#E57138"
           id="stop26" /></linearGradient><rect
         x="3127.5"
         y="1412.5"
         stroke-miterlimit="10"
         width="39"
         height="97"
         id="rect29"
         style="fill:url(#SVGID_2_);stroke:url(#SVGID_3_);stroke-miterlimit:10" /><linearGradient
         id="SVGID_4_"
         gradientUnits="userSpaceOnUse"
         x1="3678.1855"
         y1="93.666"
         x2="3705.0381"
         y2="93.666"
         gradientTransform="matrix(0.8892,-1.2893,0.5836,0.4025,-38.459,6032.7295)"><stop
           offset="0.4462"
           style="stop-color:#E57138"
           id="stop31" /><stop
           offset="0.672"
           style="stop-color:#FF8D4D"
           id="stop33" /></linearGradient><linearGradient
         id="SVGID_5_"
         gradientUnits="userSpaceOnUse"
         x1="3215.0234"
         y1="1310.7383"
         x2="3382.667"
         y2="1310.7383"><stop
           offset="0.8226"
           style="stop-color:#FF8D4D"
           id="stop36" /><stop
           offset="0.9624"
           style="stop-color:#E57138"
           id="stop38" /></linearGradient><path
         stroke-miterlimit="10"
         d="m 3310.784,1293.427 c 45.537,31.405 77.105,64.615 70.513,74.175 -6.594,9.56 -48.854,-8.148 -94.391,-39.554 -45.537,-31.406 -77.105,-64.615 -70.512,-74.175 6.593,-9.56 48.854,8.149 94.39,39.554 z"
         id="path41"
         inkscape:connector-curvature="0"
         style="fill:url(#SVGID_4_);stroke:url(#SVGID_5_);stroke-miterlimit:10" /><linearGradient
         id="SVGID_6_"
         gradientUnits="userSpaceOnUse"
         x1="2899.3936"
         y1="1143.9717"
         x2="3067.6338"
         y2="1143.9717"
         gradientTransform="matrix(0.9707,-0.2402,0.2402,0.9707,-18.9165,948.9221)"><stop
           offset="0.4462"
           style="stop-color:#E57138"
           id="stop43" /><stop
           offset="0.672"
           style="stop-color:#FF8D4D"
           id="stop45" /></linearGradient><linearGradient
         id="SVGID_7_"
         gradientUnits="userSpaceOnUse"
         x1="3083.5693"
         y1="1391.6387"
         x2="3236.4717"
         y2="1303.3605"><stop
           offset="0.8226"
           style="stop-color:#FF8D4D"
           id="stop48" /><stop
           offset="0.9624"
           style="stop-color:#E57138"
           id="stop50" /></linearGradient><path
         stroke-miterlimit="10"
         d="m 3232.858,1319.121 c 11.543,46.64 -26.717,109.031 -26.717,109.031 0,0 -123.171,-14.356 -134.712,-60.996 -5.771,-23.32 28.42,-39.972 38.283,-65.658 9.86,-25.687 27.018,-53.83 50.338,-59.601 46.64,-11.541 61.268,30.584 72.808,77.224 z"
         id="path53"
         inkscape:connector-curvature="0"
         style="fill:url(#SVGID_6_);stroke:url(#SVGID_7_);stroke-miterlimit:10" /><linearGradient
         id="SVGID_8_"
         gradientUnits="userSpaceOnUse"
         x1="3174.7627"
         y1="1467.165"
         x2="3323.1748"
         y2="1467.165"><stop
           offset="0.4086"
           style="stop-color:#069CC4"
           id="stop55" /><stop
           offset="0.8656"
           style="stop-color:#71D1D3"
           id="stop57" /></linearGradient><path
         d="m 3322.682,1432.12 c 2.054,2.399 -2.496,9.668 -10.194,16.264 l -91.802,78.645 c -7.699,6.595 -15.606,9.998 -17.661,7.599 l -27.771,-32.415 c -2.054,-2.398 2.522,-9.69 10.221,-16.286 l 91.802,-78.644 c 7.698,-6.597 15.58,-9.977 17.636,-7.578 z"
         id="path60"
         inkscape:connector-curvature="0"
         style="fill:url(#SVGID_8_)" /><path
         d="M 2987.033,1378.595"
         id="path62"
         inkscape:connector-curvature="0"
         style="fill:#050207" /><linearGradient
         id="SVGID_9_"
         gradientUnits="userSpaceOnUse"
         x1="3826.4189"
         y1="1796.6816"
         x2="3849.1924"
         y2="1796.6816"
         gradientTransform="matrix(1.0566,1.496,-0.704,0.4972,224.269,-5060.2441)"><stop
           offset="0.5"
           style="stop-color:#FF8D4D"
           id="stop64" /><stop
           offset="0.5054"
           style="stop-color:#E57138"
           id="stop66" /></linearGradient><path
         d="m 3026.188,1591.48 c -45.5,33.156 -87.647,52.35 -94.138,42.868 -6.489,-9.479 25.135,-44.042 70.636,-77.198 45.5,-33.157 87.648,-52.35 94.138,-42.87 6.489,9.479 -25.135,44.044 -70.636,77.2 z"
         id="path69"
         inkscape:connector-curvature="0"
         style="fill:url(#SVGID_9_)" /><linearGradient
         id="SVGID_10_"
         gradientUnits="userSpaceOnUse"
         x1="3405.123"
         y1="288.3096"
         x2="3431.9746"
         y2="288.3096"
         gradientTransform="matrix(0.6331,-1.4326,0.5395,0.2384,687.9565,6487.9087)"><stop
           offset="0.4462"
           style="stop-color:#E57138"
           id="stop71" /><stop
           offset="0.672"
           style="stop-color:#FF8D4D"
           id="stop73" /></linearGradient><linearGradient
         id="SVGID_11_"
         gradientUnits="userSpaceOnUse"
         x1="2930.4199"
         y1="1659.2666"
         x2="3084.8135"
         y2="1659.2666"><stop
           offset="0.8226"
           style="stop-color:#FF8D4D"
           id="stop76" /><stop
           offset="0.9624"
           style="stop-color:#E57138"
           id="stop78" /></linearGradient><path
         stroke-miterlimit="10"
         d="m 3016.115,1640.032 c 42.094,18.602 72.412,42.292 67.719,52.914 -4.694,10.622 -42.623,4.155 -84.717,-14.446 -42.094,-18.601 -72.412,-42.291 -67.718,-52.913 4.695,-10.623 42.622,-4.155 84.716,14.445 z"
         id="path81"
         inkscape:connector-curvature="0"
         style="fill:url(#SVGID_10_);stroke:url(#SVGID_11_);stroke-miterlimit:10" /><linearGradient
         id="SVGID_12_"
         gradientUnits="userSpaceOnUse"
         x1="3616.293"
         y1="644.86469"
         x2="3670.8652"
         y2="644.86469"
         gradientTransform="matrix(0.5943,-1.6793,0.7357,0.2604,590.3813,7651.1445)"><stop
           offset="0.5"
           style="stop-color:#000000"
           id="stop83" /><stop
           offset="0.6022"
           style="stop-color:#0C080D"
           id="stop85" /></linearGradient><path
         d="m 3246.504,1654.541 c 57.403,20.315 100.364,46.88 95.957,59.331 -4.405,12.452 -118.115,35.952 -175.518,15.636 -57.403,-20.313 -36.762,-76.753 -32.355,-89.205 4.407,-12.452 54.514,-6.078 111.916,14.238 z"
         id="path88"
         inkscape:connector-curvature="0"
         style="fill:url(#SVGID_12_)" /><linearGradient
         id="SVGID_13_"
         gradientUnits="userSpaceOnUse"
         x1="3537.2168"
         y1="1912.917"
         x2="3582.8887"
         y2="1912.917"
         gradientTransform="matrix(1.4746,0.5278,-0.263,0.7348,-1470.8691,-1452.9922)"><stop
           offset="0.5"
           style="stop-color:#000000"
           id="stop90" /><stop
           offset="0.6022"
           style="stop-color:#0C080D"
           id="stop92" /></linearGradient><path
         d="m 3319.494,1815.493 c -20.521,57.33 -72.692,154.521 -83.627,150.608 -10.933,-3.913 9.808,-156.638 30.327,-213.967 20.521,-57.331 59.721,-51.447 70.654,-47.533 10.935,3.915 3.164,53.562 -17.354,110.892 z"
         id="path95"
         inkscape:connector-curvature="0"
         style="fill:url(#SVGID_13_)" /><linearGradient
         id="SVGID_14_"
         gradientUnits="userSpaceOnUse"
         x1="3052.3086"
         y1="1750"
         x2="3152.0508"
         y2="1750"><stop
           offset="0.5"
           style="stop-color:#000000"
           id="stop97" /><stop
           offset="0.6022"
           style="stop-color:#0C080D"
           id="stop99" /></linearGradient><path
         d="m 3151.182,1751.702 c -3.663,60.781 -17.836,109.378 -31.654,108.546 -13.818,-0.832 -70.713,-103.795 -67.05,-164.575 3.661,-60.781 66.493,-56.366 80.312,-55.534 13.817,0.833 22.053,50.781 18.392,111.563 z"
         id="path102"
         inkscape:connector-curvature="0"
         style="fill:url(#SVGID_14_)" /><linearGradient
         id="SVGID_15_"
         gradientUnits="userSpaceOnUse"
         x1="3398.9102"
         y1="1695.0391"
         x2="3444.583"
         y2="1695.0391"
         gradientTransform="matrix(1.565,0.0625,-0.0311,0.7798,-2197.5049,421.5005)"><stop
           offset="0.5"
           style="stop-color:#000000"
           id="stop104" /><stop
           offset="0.6022"
           style="stop-color:#0C080D"
           id="stop106" /></linearGradient><path
         d="m 3141.638,1928.578 c -2.43,60.844 -23.134,169.192 -34.737,168.73 -11.604,-0.463 -37.505,-152.398 -35.076,-213.241 2.428,-60.843 41.594,-66.958 53.197,-66.493 11.605,0.463 19.042,50.161 16.616,111.004 z"
         id="path109"
         inkscape:connector-curvature="0"
         style="fill:url(#SVGID_15_)" /><linearGradient
         id="SVGID_16_"
         gradientUnits="userSpaceOnUse"
         x1="3071.0283"
         y1="1576.5"
         x2="3210.4629"
         y2="1576.5"><stop
           offset="0.4086"
           style="stop-color:#069CC4"
           id="stop111" /><stop
           offset="0.8656"
           style="stop-color:#71D1D3"
           id="stop113" /></linearGradient><path
         d="m 3210.463,1641.349 c 0,9.622 -7.28,17.651 -16.223,17.651 h -106.62 c -8.941,0 -16.592,-8.029 -16.592,-17.651 l 31.151,-39.691 -31.151,-90.539 c 0,-9.624 7.65,-17.119 16.592,-17.119 h 106.62 c 8.942,0 16.223,7.506 16.223,17.13 l -16.396,87.897 z"
         id="path116"
         inkscape:connector-curvature="0"
         style="fill:url(#SVGID_16_)" /><linearGradient
         id="SVGID_17_"
         gradientUnits="userSpaceOnUse"
         x1="2991.499"
         y1="1549.3003"
         x2="3119.4492"
         y2="1549.3003"><stop
           offset="0.4086"
           style="stop-color:#069CC4"
           id="stop118" /><stop
           offset="0.8656"
           style="stop-color:#71D1D3"
           id="stop120" /></linearGradient><path
         d="m 2991.792,1572.729 c -1.493,-2.216 2.866,-8.005 9.764,-12.948 l 82.239,-58.938 c 6.897,-4.943 13.699,-7.153 15.191,-4.936 l 20.171,29.959 c 1.493,2.218 -2.888,8.021 -9.786,12.965 l -82.239,58.938 c -6.896,4.942 -13.676,7.136 -15.169,4.919 z"
         id="path123"
         inkscape:connector-curvature="0"
         style="fill:url(#SVGID_17_)" /></g><linearGradient
       id="SVGID_18_"
       gradientUnits="userSpaceOnUse"
       x1="3196.8584"
       y1="1337.8027"
       x2="3247.8594"
       y2="1337.8027"><stop
         offset="0.8226"
         style="stop-color:#FF8D4D"
         id="stop127" /><stop
         offset="0.9624"
         style="stop-color:#E57138"
         id="stop129" /></linearGradient><path
       stroke-miterlimit="10"
       d="m 3215.872,1319.205 c 10.482,-0.267 20.354,9.719 29.61,8.2 9.255,-1.52 -18.18,28.73 -28.663,28.996 -10.483,0.268 -19.194,-7.843 -19.455,-18.115 -0.262,-10.272 8.024,-18.813 18.508,-19.081 z"
       id="path132"
       inkscape:connector-curvature="0"
       style="fill:#ff8d4d;stroke:url(#SVGID_18_);stroke-miterlimit:10" /><path
       d="m 3179.548,1193.804 c 26.633,30.582 5.142,92.891 -48.003,139.174 -53.145,46.283 -117.816,59.011 -144.449,28.431"
       id="path134"
       inkscape:connector-curvature="0" /><g
       id="g146"><path
         d="m 3201.596,1306.692 c -13.566,-8.292 5.533,19.616 -10.441,24.035 -15.975,4.419 -44.973,-7.694 -33.263,-7.682 11.709,0.012 8.61,-19.265 24.585,-23.684 15.975,-4.419 32.686,15.623 19.119,7.331 z"
         id="path136"
         inkscape:connector-curvature="0"
         style="fill:#42210b" /><path
         d="m 3181.467,1303.56 c 9.543,-3.749 17.869,-0.481 20.878,7.178 3.01,7.659 -0.438,16.81 -9.981,20.559 -9.543,3.749 -22.728,-7.08 -22.728,-7.08 0,0 2.288,-16.908 11.831,-20.657 z"
         id="path138"
         inkscape:connector-curvature="0"
         style="fill:#ffffff" /><ellipse
         transform="matrix(0.9967,-0.081,0.081,0.9967,-96.1184,263.0769)"
         cx="3194.1211"
         cy="1316.109"
         rx="9.7620001"
         ry="12.251"
         id="ellipse140"
         style="fill:#29abe2" /><ellipse
         transform="matrix(0.9967,-0.081,0.081,0.9967,-96.1167,263.4407)"
         cx="3197.2949"
         cy="1315.791"
         rx="6.573"
         ry="8.25"
         id="ellipse142"
         style="fill:#42210b" /><ellipse
         transform="matrix(0.9967,-0.081,0.081,0.9967,-95.8369,262.8818)"
         cx="3191.073"
         cy="1312.257"
         rx="3.3659999"
         ry="4.224"
         id="ellipse144"
         style="fill:#ffffff" /></g><path
       d="m 3231.673,1370.734 c -2.448,9.917 -6.481,25.867 -21.43,22.176 -14.949,-3.691 -28.737,-35.451 -28.737,-35.451 0,0 22.657,-4.152 37.604,-0.46 14.95,3.691 15.012,3.819 12.563,13.735 z"
       id="path148"
       inkscape:connector-curvature="0" /><path
       d="m 3231.042,1370.733 c -2.448,9.917 -6.482,25.868 -21.43,22.177 -14.948,-3.691 -28.737,-35.451 -28.737,-35.451 0,0 22.656,-4.152 37.605,-0.46 14.948,3.691 15.011,3.819 12.562,13.734 z"
       id="path150"
       inkscape:connector-curvature="0"
       style="fill:#9e040f" /><path
       d="m 3193.577,1365.921 c 0,0 15.516,-2.843 25.752,-0.315 10.236,2.528 10.278,2.615 8.602,9.405"
       id="path152"
       inkscape:connector-curvature="0"
       style="fill:#ffffff" /><path
       d="m 3194.165,1366.68 c 0,0 15.771,-0.318 25.47,3.819 9.698,4.136 9.727,4.23 6.982,10.663"
       id="path154"
       inkscape:connector-curvature="0" /><path
       d="m 3193.817,1366.711 c 0,0 11.394,10.908 21.333,14.427 9.938,3.519 10.022,3.471 12.355,-3.123"
       id="path156"
       inkscape:connector-curvature="0" /></g><g
     id="g171"
     transform="translate(-1822.6536,-206.376)"><linearGradient
       id="SVGID_19_"
       gradientUnits="userSpaceOnUse"
       x1="130.67529"
       y1="3025.0762"
       x2="902.59552"
       y2="2579.4077"
       gradientTransform="matrix(1,0,0,-1,2354,4946)"><stop
         offset="0.8011"
         style="stop-color:#AA3805"
         id="stop160" /><stop
         offset="0.8011"
         style="stop-color:#8C2A03"
         id="stop162" /></linearGradient><path
       d="m 3219.676,2362.303 c 133.981,-109.009 260.95,-340.73 131.606,-530.751 -344.651,-39.198 -762.286,411.763 -1075.749,451.617 22.599,88.022 74.603,134.645 126.39,179.687 341.128,47.943 448.773,-207.885 817.753,-100.553 z"
       id="path165"
       inkscape:connector-curvature="0"
       style="fill:url(#SVGID_19_)" /><path
       d="m 3318.309,1875.435 c -174.117,92.498 -839.974,463.895 -1022.419,435.491 166.094,12.002 365.94,-67.75 539.346,-145.234 z"
       id="path167"
       inkscape:connector-curvature="0"
       style="fill:#ffffff" /><path
       d="m 3266.017,1989.732 c -161.102,85.58 -777.179,429.217 -945.987,402.938 153.678,11.104 338.584,-62.686 499.029,-134.38 z"
       id="path169"
       inkscape:connector-curvature="0"
       style="fill:#fcfafa" /></g><path
     d="M 1628.2074,961.216"
     id="path173"
     inkscape:connector-curvature="0"
     style="fill:#ffffff" /><path
     d="m 1642.6424,2421.719 c -814.00598,-176.667 -348.216,176.437 -763.81898,152.46 -415.604,-23.979 -566.406,10.557 -741.218,-239.287 -174.812998,-249.846 -145.2719976,137.047 763.818,-152.459 909.08998,-289.506 1555.22498,415.954 741.21898,239.286 z"
     id="path175"
     inkscape:connector-curvature="0"
     style="fill:#29abe2" /><path
     d="m 1678.2214,2250.392 c -887.77398,74.347 -298.052,296.074 -729.84298,403.479 -431.795,107.403 -574.45,191.712 -833.82,-14.532 -259.371,-206.248 -103.771998,190.045 729.843,-403.48 550.82598,-392.178 965.48398,35.576 1195.69498,-157.781 230.213,-193.357 -60.71,147.093 -361.875,172.314 z"
     id="path177"
     inkscape:connector-curvature="0"
     style="opacity:0.6;fill:#0071bc" /><path
     d="m 1302.6144,2368.145 c -442.99198,-148.266 -203.539,117.378 -433.40398,89.191 -229.865,-28.189 -315.68,-7.398 -399.013,-191.268 -83.333,-183.871 -88.448,94.483 433.405,-89.191 521.85098,-183.673 842.00498,339.534 399.01198,191.268 z"
     id="path179"
     inkscape:connector-curvature="0"
     style="opacity:0.6;fill:#00a99d" /><path
     d="m 1573.9364,2092.649 c -468.716,59.945 -359.065,173.698 -589.48998,231.014 -230.425,57.316 -230.585,47.296 -359.677,-25.299 -129.092,-72.597 53.694,80.538 511.84098,-182.76 302.729,-173.975 505.737,-19.17 633.272,-103.52 127.536,-84.351 -36.941,60.231 -195.946,80.565 z"
     id="path181"
     inkscape:connector-curvature="0"
     style="opacity:0.6;fill:#ffffff" /></svg>