<?xml version="1.0" encoding="UTF-8" standalone="no"?>
<!-- Generator: Adobe Illustrator 16.0.0, SVG Export Plug-In . SVG Version: 6.00 Build 0)  -->

<svg
   xmlns:dc="http://purl.org/dc/elements/1.1/"
   xmlns:cc="http://creativecommons.org/ns#"
   xmlns:rdf="http://www.w3.org/1999/02/22-rdf-syntax-ns#"
   xmlns:svg="http://www.w3.org/2000/svg"
   xmlns="http://www.w3.org/2000/svg"
   xmlns:sodipodi="http://sodipodi.sourceforge.net/DTD/sodipodi-0.dtd"
   xmlns:inkscape="http://www.inkscape.org/namespaces/inkscape"
   version="1.1"
   id="Layer_1"
   x="0px"
   y="0px"
   width="2615.8003"
   height="887.82422"
   viewBox="0 0 2615.8003 887.82422"
   enable-background="new 0 0 5500 3500"
   xml:space="preserve"
   sodipodi:docname="wave1.svg"
   inkscape:version="0.92.2 (5c3e80d, 2017-08-06)"><metadata
     id="metadata378"><rdf:RDF><cc:Work
         rdf:about=""><dc:format>image/svg+xml</dc:format><dc:type
           rdf:resource="http://purl.org/dc/dcmitype/StillImage" /><dc:title></dc:title></cc:Work></rdf:RDF></metadata><defs
     id="defs376" /><sodipodi:namedview
     pagecolor="#ffffff"
     bordercolor="#666666"
     borderopacity="1"
     objecttolerance="10"
     gridtolerance="10"
     guidetolerance="10"
     inkscape:pageopacity="0"
     inkscape:pageshadow="2"
     inkscape:window-width="768"
     inkscape:window-height="480"
     id="namedview374"
     showgrid="false"
     fit-margin-top="0"
     fit-margin-left="0"
     fit-margin-right="0"
     fit-margin-bottom="0"
     inkscape:zoom="0.05"
     inkscape:cx="1450.9432"
     inkscape:cy="542.878"
     inkscape:window-x="288"
     inkscape:window-y="136"
     inkscape:window-maximized="0"
     inkscape:current-layer="Layer_1" /><g
     id="g371"
     style="opacity:0.9"
     transform="translate(-1299.0568,-1405.0538)"><g
       id="g369"><g
         id="g13"><linearGradient
           id="SVGID_1_"
           gradientUnits="userSpaceOnUse"
           x1="1304.3394"
           y1="1899.3652"
           x2="3512.0742"
           y2="1899.3652"><stop
             offset="0"
             style="stop-color:#037E84"
             id="stop2" /><stop
             offset="0.543"
             style="stop-color:#085078"
             id="stop4" /><stop
             offset="1"
             style="stop-color:#85D8CE"
             id="stop6" /><stop
             offset="1"
             style="stop-color:#85D8CE"
             id="stop8" /></linearGradient><path
           d="m 3419.392,2013.109 c -148.338,-115.828 -345.34,-125.909 -526.136,-121.276 -170.586,4.372 -341.171,25.92 -511.956,18.354 -79.861,-3.538 -153.95,-16.488 -229.59,-42.117 -81.758,-27.702 -171.136,-30.306 -256.645,-27.926 -95.769,2.665 -191.032,13.77 -286.709,18.081 -90.035,4.058 -191.122,5.796 -272.513,-38.891 -13.48,-7.955 -25.144,-19.226 -31.503,-33.714 84.987,47.91 191.355,45.735 285.765,40.947 100.331,-5.088 200.169,-17.554 300.619,-20.681 92.299,-2.873 189.32,0.41 276.536,33.854 77.065,29.551 151.435,46.816 233.987,52.239 180.09,11.83 360.605,-12.253 540.488,-17.952 196.024,-6.211 408.829,3.683 570.34,128.448 -30.919,3.356 -61.826,6.757 -92.683,10.634 z"
           id="path11"
           inkscape:connector-curvature="0"
           style="fill:url(#SVGID_1_)" /></g><g
         id="g26"><linearGradient
           id="SVGID_2_"
           gradientUnits="userSpaceOnUse"
           x1="1348.6567"
           y1="1925.5391"
           x2="3393.6797"
           y2="1925.5391"><stop
             offset="0"
             style="stop-color:#085078"
             id="stop15" /><stop
             offset="0.4086"
             style="stop-color:#037E84"
             id="stop17" /><stop
             offset="1"
             style="stop-color:#85D8CE"
             id="stop19" /><stop
             offset="1"
             style="stop-color:#85D8CE"
             id="stop21" /></linearGradient><path
           d="m 3341.622,2025.067 c -135.017,-109.094 -317.032,-121.032 -483.787,-118.911 -164.661,2.094 -329.164,21.32 -493.925,14.822 -73.897,-2.914 -143.828,-13.092 -214.592,-34.539 -79.969,-24.236 -165.995,-26.258 -248.91,-24.143 -91.421,2.332 -182.494,11.809 -273.911,14.116 -82.228,2.076 -173.283,1.032 -247.284,-39.687 -10.435,-3.082 -20.611,-6.247 -30.558,-10.716 77.963,42.771 174.348,42.351 260.738,39.114 95.91,-3.594 191.397,-14.555 287.361,-17.172 86.748,-2.366 175.449,1.156 258.534,28.305 72.652,23.74 144.827,34.688 221.191,37.807 168.028,6.86 335.791,-13.799 503.645,-17.588 176.57,-3.986 369.132,6.395 513.554,120.113 -17.404,2.555 -34.744,5.35 -52.056,8.479 z"
           id="path24"
           inkscape:connector-curvature="0"
           style="fill:url(#SVGID_2_)" /></g><g
         id="g39"><linearGradient
           id="SVGID_3_"
           gradientUnits="userSpaceOnUse"
           x1="1299.0571"
           y1="1869.3662"
           x2="3598.3262"
           y2="1869.3662"><stop
             offset="0.1398"
             style="stop-color:#037E84"
             id="stop28" /><stop
             offset="0.3333"
             style="stop-color:#085078"
             id="stop30" /><stop
             offset="0.8871"
             style="stop-color:#85D8CE"
             id="stop32" /><stop
             offset="1"
             style="stop-color:#85D8CE"
             id="stop34" /></linearGradient><path
           d="m 3512.074,2002.477 c -161.511,-124.766 -374.315,-134.659 -570.34,-128.448 -179.883,5.699 -360.398,29.782 -540.488,17.952 -82.553,-5.423 -156.922,-22.688 -233.987,-52.239 -87.216,-33.443 -184.237,-36.727 -276.536,-33.854 -100.45,3.127 -200.288,15.593 -300.619,20.681 -94.41,4.788 -200.778,6.963 -285.765,-40.947 -6.959,-16.167 -5.863,-32.395 -3.369,-49.365 12.612,7.529 25.878,13.887 39.542,19.261 92.947,36.553 199.693,30.284 297.334,23.704 103.989,-7.008 207.802,-19.451 312.165,-19.039 95.028,0.375 184.214,14.358 271.513,52.442 75.788,33.063 152.998,49.214 235.413,55.171 183.662,13.274 368.012,-11.009 551.567,-15.65 204.199,-5.164 422.992,9.18 589.82,140.332 -28.713,3.66 -57.473,6.87 -86.25,9.999 z"
           id="path37"
           inkscape:connector-curvature="0"
           style="fill:url(#SVGID_3_)" /></g><g
         id="g52"><linearGradient
           id="SVGID_4_"
           gradientUnits="userSpaceOnUse"
           x1="1335.8423"
           y1="1917.9629"
           x2="3419.3916"
           y2="1917.9629"><stop
             offset="0"
             style="stop-color:#085078"
             id="stop41" /><stop
             offset="0.0806"
             style="stop-color:#085078"
             id="stop43" /><stop
             offset="0.5699"
             style="stop-color:#85D8CE"
             id="stop45" /><stop
             offset="1"
             style="stop-color:#85D8CE"
             id="stop47" /></linearGradient><path
           d="m 3393.68,2016.59 c -144.422,-113.719 -336.983,-124.1 -513.554,-120.113 -167.854,3.789 -335.617,24.448 -503.645,17.588 -76.364,-3.118 -148.539,-14.066 -221.191,-37.807 -83.085,-27.148 -171.786,-30.671 -258.534,-28.305 -95.964,2.617 -191.451,13.578 -287.361,17.172 -86.39,3.236 -182.774,3.656 -260.738,-39.114 -5.403,-2.457 -7.981,-3.782 -12.814,-6.676 81.391,44.687 182.478,42.948 272.513,38.891 95.677,-4.312 190.94,-15.416 286.709,-18.081 85.509,-2.38 174.887,0.224 256.645,27.926 75.64,25.629 149.729,38.579 229.59,42.117 170.785,7.565 341.37,-13.982 511.956,-18.354 180.796,-4.633 377.798,5.448 526.136,121.276 -10.35,1.33 -15.498,2.021 -25.712,3.48 z"
           id="path50"
           inkscape:connector-curvature="0"
           style="fill:url(#SVGID_4_)" /></g><g
         id="g65"><linearGradient
           id="SVGID_5_"
           gradientUnits="userSpaceOnUse"
           x1="1300.9707"
           y1="1848.0312"
           x2="3660.1914"
           y2="1848.0312"><stop
             offset="0"
             style="stop-color:#003254"
             id="stop54" /><stop
             offset="0.7043"
             style="stop-color:#085078"
             id="stop56" /><stop
             offset="1"
             style="stop-color:#85D8CE"
             id="stop58" /><stop
             offset="1"
             style="stop-color:#85D8CE"
             id="stop60" /></linearGradient><path
           d="m 3598.326,1992.477 c -166.828,-131.152 -385.621,-145.496 -589.82,-140.332 -183.556,4.642 -367.905,28.925 -551.567,15.65 -82.415,-5.957 -159.625,-22.108 -235.413,-55.171 -87.299,-38.084 -176.485,-52.067 -271.513,-52.442 -104.363,-0.412 -208.176,12.031 -312.165,19.039 -97.642,6.58 -204.388,12.849 -297.334,-23.704 -13.665,-5.374 -26.931,-11.731 -39.542,-19.261 2.213,-11.504 6.035,-23.133 13.028,-32.669 28.454,17.733 60.288,29.288 92.874,36.72 99.968,22.801 206.006,12.52 307.102,4.135 102.258,-8.481 205.042,-19.391 307.776,-14.098 47.517,2.448 95.115,8.481 141.025,21.285 44.168,12.318 84.288,33.262 125.685,52.504 69.598,32.352 150.15,42.766 225.986,47.696 184.002,11.962 368.436,-12.492 552.33,-16.351 206.679,-4.336 425.938,13.72 593.415,147.707 -20.572,3.495 -41.185,6.533 -61.867,9.292 z"
           id="path63"
           inkscape:connector-curvature="0"
           style="fill:url(#SVGID_5_)" /></g><g
         id="g78"><linearGradient
           id="SVGID_6_"
           gradientUnits="userSpaceOnUse"
           x1="1313.999"
           y1="1836.1602"
           x2="3727.2061"
           y2="1836.1602"><stop
             offset="0.1882"
             style="stop-color:#003254"
             id="stop67" /><stop
             offset="0.5376"
             style="stop-color:#085078"
             id="stop69" /><stop
             offset="0.9301"
             style="stop-color:#85D8CE"
             id="stop71" /><stop
             offset="1"
             style="stop-color:#85D8CE"
             id="stop73" /></linearGradient><path
           d="m 3660.191,1983.186 c -167.477,-133.987 -386.736,-152.043 -593.415,-147.707 -183.895,3.858 -368.328,28.313 -552.33,16.351 -75.836,-4.931 -156.388,-15.345 -225.986,-47.696 -41.397,-19.242 -81.516,-40.186 -125.685,-52.504 -45.91,-12.804 -93.508,-18.837 -141.025,-21.285 -102.735,-5.293 -205.519,5.616 -307.776,14.098 -101.095,8.385 -207.134,18.666 -307.102,-4.135 -32.586,-7.432 -64.42,-18.986 -92.874,-36.72 5.847,-7.969 14.568,-13.24 24.39,-14.453 41.341,26.516 89.812,39.228 138.132,45.157 205.397,25.206 411.149,-41.08 617.237,-22.038 46.184,4.267 92.265,12.848 135.871,28.949 42.472,15.683 80.486,40.916 122.275,58.054 70.138,28.763 147.252,38.928 222.451,42.771 184.708,9.44 369.365,-17.384 553.826,-22.542 209.208,-5.85 429.992,12.953 599.024,149.211 -22.184,5.69 -44.477,10.397 -67.013,14.489 z"
           id="path76"
           inkscape:connector-curvature="0"
           style="fill:url(#SVGID_6_)" /></g><g
         id="g91"><linearGradient
           id="SVGID_7_"
           gradientUnits="userSpaceOnUse"
           x1="1581.5488"
           y1="2087.0977"
           x2="3093.1963"
           y2="2087.0977"><stop
             offset="0.086"
             style="stop-color:#08363D"
             id="stop80" /><stop
             offset="0.4032"
             style="stop-color:#085078"
             id="stop82" /><stop
             offset="0.8495"
             style="stop-color:#85D8CE"
             id="stop84" /><stop
             offset="1"
             style="stop-color:#85D8CE"
             id="stop86" /></linearGradient><path
           d="m 3087.716,2292.878 c -80.875,-94.308 -208.345,-136.918 -325.526,-164.459 -129.438,-30.422 -262.396,-44.304 -394.535,-56.983 -136.327,-13.081 -273.096,-23.353 -408.661,-43.252 -128.354,-18.841 -265.931,-43.833 -377.445,-114.003 5.326,-10.322 11.758,-21.512 4.77,-32.863 109.622,70.249 254.782,77.447 380.735,89.263 133.367,12.512 266.065,30.893 399.65,40.734 130.852,9.64 262.577,15.261 392.224,36.566 119.188,19.587 251.865,53.448 334.269,148.491 -8.04,31.741 -8.095,64.077 -5.481,96.506 z"
           id="path89"
           inkscape:connector-curvature="0"
           style="fill:url(#SVGID_7_)" /></g><g
         id="g106"><linearGradient
           id="SVGID_8_"
           gradientUnits="userSpaceOnUse"
           x1="1379.2144"
           y1="1944.3535"
           x2="3341.6221"
           y2="1944.3535"><stop
             offset="0.0914"
             style="stop-color:#003254"
             id="stop93" /><stop
             offset="0.4677"
             style="stop-color:#085078"
             id="stop95" /><stop
             offset="0.7796"
             style="stop-color:#037E84"
             id="stop97" /><stop
             offset="1"
             style="stop-color:#85D8CE"
             id="stop99" /><stop
             offset="1"
             style="stop-color:#85D8CE"
             id="stop101" /></linearGradient><path
           d="m 3239.394,2051.98 c -115.351,-101.283 -275.804,-118.025 -423.238,-121.054 -151.108,-3.104 -302.124,10.085 -453.223,4.966 -72.352,-2.451 -141.546,-10.926 -211.771,-28.347 -74.497,-18.48 -153.273,-20.116 -229.631,-19.426 -82.222,0.743 -164.388,6.336 -246.629,5.173 -73.928,-1.046 -154.488,-5.902 -220.164,-43.444 -25.484,-3.103 -50.595,-6.909 -75.523,-13.122 74,40.719 165.056,41.763 247.284,39.687 91.417,-2.308 182.49,-11.784 273.911,-14.116 82.915,-2.115 168.941,-0.094 248.91,24.143 70.764,21.447 140.695,31.625 214.592,34.539 164.761,6.498 329.264,-12.729 493.925,-14.822 166.755,-2.121 348.771,9.817 483.787,118.911 -34.771,6.721 -68.831,15.061 -102.23,26.912 z"
           id="path104"
           inkscape:connector-curvature="0"
           style="fill:url(#SVGID_8_)" /></g><g
         id="g119"><linearGradient
           id="SVGID_9_"
           gradientUnits="userSpaceOnUse"
           x1="1553.1953"
           y1="2029.8809"
           x2="3129.9531"
           y2="2029.8809"><stop
             offset="0"
             style="stop-color:#085078"
             id="stop108" /><stop
             offset="0.3441"
             style="stop-color:#085078"
             id="stop110" /><stop
             offset="1"
             style="stop-color:#85D8CE"
             id="stop112" /><stop
             offset="1"
             style="stop-color:#85D8CE"
             id="stop114" /></linearGradient><path
           d="m 3093.196,2196.372 c -82.403,-95.043 -215.081,-128.904 -334.269,-148.491 -129.646,-21.306 -261.372,-26.927 -392.224,-36.566 -133.585,-9.842 -266.283,-28.223 -399.65,-40.734 -125.953,-11.815 -271.113,-19.014 -380.735,-89.263 -7.817,-10.94 -20.992,-14.243 -33.124,-17.929 57.354,35.672 127.007,47.492 193.103,54.54 72.647,7.747 145.825,9.066 218.757,12.404 135.415,6.198 267.533,33.608 402.77,40.585 134.28,6.928 269.133,4.828 403.063,17.895 127.889,12.477 265.909,38.817 359.065,134.608 -17.989,21.559 -29.075,46.151 -36.756,72.951 z"
           id="path117"
           inkscape:connector-curvature="0"
           style="fill:url(#SVGID_9_)" /></g><g
         id="g132"><linearGradient
           id="SVGID_10_"
           gradientUnits="userSpaceOnUse"
           x1="1338.3892"
           y1="1828.6992"
           x2="3750.873"
           y2="1828.6992"><stop
             offset="0"
             style="stop-color:#085078"
             id="stop121" /><stop
             offset="0"
             style="stop-color:#085078"
             id="stop123" /><stop
             offset="0.7903"
             style="stop-color:#85D8CE"
             id="stop125" /><stop
             offset="1"
             style="stop-color:#85D8CE"
             id="stop127" /></linearGradient><path
           d="m 3727.206,1968.695 c -169.032,-136.258 -389.816,-155.061 -599.024,-149.211 -184.461,5.158 -369.118,31.982 -553.826,22.542 -75.199,-3.843 -152.313,-14.008 -222.451,-42.771 -41.79,-17.138 -79.804,-42.371 -122.275,-58.054 -43.606,-16.102 -89.688,-24.682 -135.871,-28.949 -206.088,-19.042 -411.839,47.244 -617.237,22.038 -48.32,-5.93 -96.791,-18.642 -138.132,-45.157 4.343,-0.566 6.63,-0.559 11.398,-0.069 44.603,28.793 97.551,41.153 149.817,46.173 206.312,19.813 411.336,-47.833 618.082,-26.656 45.829,4.694 91.485,13.919 134.421,30.925 41.753,16.537 79.229,42.227 120.877,58.926 70.23,28.159 146.618,38.143 221.75,41.502 185.048,8.275 369.831,-19.973 554.545,-26.209 210.052,-7.092 431.834,11.128 601.593,148.071 -9.254,2.94 -13.993,4.313 -23.667,6.899 z"
           id="path130"
           inkscape:connector-curvature="0"
           style="fill:url(#SVGID_10_)" /></g><g
         id="g145"><linearGradient
           id="SVGID_11_"
           gradientUnits="userSpaceOnUse"
           x1="1536.291"
           y1="1991.623"
           x2="3147.8398"
           y2="1991.623"><stop
             offset="0"
             style="stop-color:#085078"
             id="stop134" /><stop
             offset="0.2688"
             style="stop-color:#085078"
             id="stop136" /><stop
             offset="0.7473"
             style="stop-color:#85D8CE"
             id="stop138" /><stop
             offset="1"
             style="stop-color:#85D8CE"
             id="stop140" /></linearGradient><path
           d="m 3129.953,2123.421 c -93.156,-95.791 -231.177,-122.132 -359.065,-134.608 -133.931,-13.066 -268.784,-10.967 -403.063,-17.895 -135.236,-6.977 -267.354,-34.387 -402.77,-40.585 -72.932,-3.338 -146.109,-4.657 -218.757,-12.404 -66.095,-7.048 -135.749,-18.868 -193.103,-54.54 -6.264,-1.596 -9.679,-2.289 -16.904,-3.563 57.58,35.225 127.601,45.652 193.701,51.422 72.946,6.367 146.302,6.257 219.442,8.463 70.402,2.124 141.828,4.979 211.211,17.987 66.562,12.479 132.28,20.081 199.98,23.364 137.582,6.673 275.598,2.023 413.015,12.484 132.39,10.078 276.213,33.657 374.199,131.219 -7.675,7.001 -11.267,10.719 -17.886,18.656 z"
           id="path143"
           inkscape:connector-curvature="0"
           style="fill:url(#SVGID_11_)" /></g><g
         id="g164"><linearGradient
           id="SVGID_12_"
           gradientUnits="userSpaceOnUse"
           x1="1454.7378"
           y1="1968.6543"
           x2="3239.3936"
           y2="1968.6543"><stop
             offset="0"
             style="stop-color:#003254"
             id="stop147" /><stop
             offset="0.1774"
             style="stop-color:#085078"
             id="stop149" /><stop
             offset="0.4839"
             style="stop-color:#037E84"
             id="stop151" /><stop
             offset="0.5442"
             style="stop-color:#0C8589"
             id="stop153" /><stop
             offset="0.6446"
             style="stop-color:#269698"
             id="stop155" /><stop
             offset="0.7726"
             style="stop-color:#4FB3AF"
             id="stop157" /><stop
             offset="0.914"
             style="stop-color:#85D8CE"
             id="stop159" /></linearGradient><path
           d="m 3169.537,2087.46 c -102.861,-98.885 -251.862,-119.972 -388.549,-127.796 -140.471,-8.041 -281.289,-0.97 -421.819,-7.135 -66.47,-2.916 -131.342,-9.637 -196.43,-23.412 -72.333,-15.31 -147.465,-17.786 -221.158,-19.037 -73.247,-1.244 -146.623,0.3 -219.786,-4.058 -69.745,-4.153 -144.643,-12.554 -205.741,-49.245 -20.398,-2.637 -40.879,-4.622 -61.316,-6.929 65.676,37.542 146.236,42.398 220.164,43.444 82.241,1.163 164.407,-4.43 246.629,-5.173 76.358,-0.69 155.135,0.945 229.631,19.426 70.225,17.421 139.419,25.896 211.771,28.347 151.099,5.119 302.115,-8.07 453.223,-4.966 147.435,3.028 307.888,19.771 423.238,121.054 -24.718,9.602 -47.736,20.815 -69.857,35.48 z"
           id="path162"
           inkscape:connector-curvature="0"
           style="fill:url(#SVGID_12_)" /></g><g
         id="g177"><linearGradient
           id="SVGID_13_"
           gradientUnits="userSpaceOnUse"
           x1="1516.0537"
           y1="1980.7715"
           x2="3169.5371"
           y2="1980.7715"><stop
             offset="0.043"
             style="stop-color:#001354"
             id="stop166" /><stop
             offset="0.1935"
             style="stop-color:#085078"
             id="stop168" /><stop
             offset="0.5806"
             style="stop-color:#85D8CE"
             id="stop170" /><stop
             offset="1"
             style="stop-color:#85D8CE"
             id="stop172" /></linearGradient><path
           d="m 3147.84,2104.766 c -97.986,-97.562 -241.81,-121.141 -374.199,-131.219 -137.417,-10.461 -275.433,-5.812 -413.015,-12.484 -67.7,-3.283 -133.419,-10.886 -199.98,-23.364 -69.383,-13.008 -140.809,-15.863 -211.211,-17.987 -73.141,-2.206 -146.496,-2.096 -219.442,-8.463 -66.101,-5.77 -136.122,-16.197 -193.701,-51.422 -7.651,-1.349 -11.736,-1.937 -20.237,-3.049 61.098,36.691 135.996,45.092 205.741,49.245 73.164,4.357 146.54,2.813 219.786,4.058 73.693,1.251 148.825,3.728 221.158,19.037 65.088,13.775 129.96,20.496 196.43,23.412 140.53,6.165 281.348,-0.906 421.819,7.135 136.687,7.824 285.688,28.911 388.549,127.796 -9.216,6.446 -13.571,9.893 -21.698,17.305 z"
           id="path175"
           inkscape:connector-curvature="0"
           style="fill:url(#SVGID_13_)" /></g><g
         id="g190"><linearGradient
           id="SVGID_14_"
           gradientUnits="userSpaceOnUse"
           x1="1607.5146"
           y1="1637.2568"
           x2="3873.0146"
           y2="1637.2568"><stop
             offset="0"
             style="stop-color:#085078"
             id="stop179" /><stop
             offset="0.3118"
             style="stop-color:#085078"
             id="stop181" /><stop
             offset="0.828"
             style="stop-color:#85D8CE"
             id="stop183" /><stop
             offset="1"
             style="stop-color:#85D8CE"
             id="stop185" /></linearGradient><path
           d="m 1618.249,1803.227 c 13.165,8.22 27.967,13.027 43.212,15.55 48.21,7.979 99.296,-5.508 145.037,-19.721 53.071,-16.491 104.539,-37.913 155.657,-59.59 103.938,-44.075 207.775,-93.818 318.139,-119.895 43.913,-10.375 90.316,-17.214 135.346,-10.596 41.767,6.139 73.083,27.181 107.766,49.786 29.169,19.011 54.766,36.458 89.786,41.472 28.854,4.131 58.414,1.808 87.077,-2.668 80.473,-12.565 158.261,-41.875 234.14,-70.466 96.235,-36.262 191.427,-75.319 288.788,-108.541 200.092,-68.275 445.578,-129.443 629.474,10.861 7.079,16.053 13.96,32.174 20.345,48.517 -184.104,-140.25 -428.937,-86.327 -631.918,-22.208 -98.073,30.98 -194.127,67.811 -291.142,101.864 -77.489,27.2 -156.762,54.793 -238.415,66.267 -29.725,4.177 -60.224,6.172 -90.08,2.08 -34.763,-4.765 -60.787,-19.968 -89.941,-38.654 -35.48,-22.74 -68.19,-45.73 -110.384,-53.49 -44.666,-8.215 -91.107,-3.225 -135.26,5.668 -110.151,22.186 -214.436,68.86 -318.258,110.386 -51.726,20.688 -103.713,41.195 -157.116,57.204 -47.426,14.218 -99.195,27.347 -149.088,21.26 -18.97,-2.314 -37.576,-7.62 -53.899,-17.784 4.619,-2.075 6.778,-3.504 10.734,-7.302 z"
           id="path188"
           inkscape:connector-curvature="0"
           style="fill:url(#SVGID_14_)" /></g><g
         id="g203"><linearGradient
           id="SVGID_15_"
           gradientUnits="userSpaceOnUse"
           x1="1580.6196"
           y1="1689.3994"
           x2="3901.8379"
           y2="1689.3994"><stop
             offset="0"
             style="stop-color:#085078"
             id="stop192" /><stop
             offset="0"
             style="stop-color:#085078"
             id="stop194" /><stop
             offset="0.5699"
             style="stop-color:#85D8CE"
             id="stop196" /><stop
             offset="1"
             style="stop-color:#85D8CE"
             id="stop198" /></linearGradient><path
           d="m 3901.838,1666.692 c -182.104,-139.057 -422.561,-101.284 -628.902,-46.976 -98.617,25.955 -195.502,57.853 -293.086,87.335 -80.346,24.274 -162.014,48.463 -245.564,58.701 -60.75,7.444 -126.973,7.94 -181.345,-23.99 -38.135,-22.396 -73.699,-51.261 -116.385,-64.62 -42.023,-13.151 -87.137,-13.63 -130.585,-9.146 -107.121,11.054 -210.469,49.724 -311.39,85.174 -100.604,35.339 -208.248,80.884 -316.442,82.54 -33.671,0.516 -68.449,-4.373 -97.518,-22.474 4.32,0.67 6.416,0.835 10.452,0.765 25.649,15.971 56.081,21.035 85.864,21.217 107.209,0.654 215.132,-47.442 313.873,-83.932 101.416,-37.478 204.81,-78.727 312.681,-92.958 43.436,-5.73 88.768,-6.778 131.314,5.135 42.262,11.833 77.591,39.396 114.445,62.148 54.53,33.667 117.875,34.496 179.83,26.284 82.903,-10.988 163.722,-36.448 243.123,-61.845 97.286,-31.118 193.801,-64.729 292.156,-92.409 204.94,-57.677 446.46,-100.696 628.979,38.48 3,10.153 5.931,20.299 8.5,30.571 z"
           id="path201"
           inkscape:connector-curvature="0"
           style="fill:url(#SVGID_15_)" /></g><g
         id="g216"><linearGradient
           id="SVGID_16_"
           gradientUnits="userSpaceOnUse"
           x1="1349.7871"
           y1="1825.4297"
           x2="3771.8613"
           y2="1825.4297"><stop
             offset="0"
             style="stop-color:#085078"
             id="stop205" /><stop
             offset="0.0376"
             style="stop-color:#085078"
             id="stop207" /><stop
             offset="0.5699"
             style="stop-color:#85D8CE"
             id="stop209" /><stop
             offset="1"
             style="stop-color:#85D8CE"
             id="stop211" /></linearGradient><path
           d="m 3750.873,1961.796 c -169.759,-136.943 -391.541,-155.163 -601.593,-148.071 -184.715,6.236 -369.497,34.484 -554.545,26.209 -75.132,-3.359 -151.52,-13.343 -221.75,-41.502 -41.647,-16.699 -79.124,-42.389 -120.877,-58.926 -42.936,-17.005 -88.592,-26.23 -134.421,-30.925 -206.746,-21.177 -411.77,46.469 -618.082,26.656 -52.267,-5.02 -105.215,-17.38 -149.817,-46.173 4.427,0.454 6.73,0.904 11.483,2.164 47.849,31.012 105.319,42.706 161.438,46.612 206.654,14.384 411.029,-54.495 617.979,-31.302 45.416,5.09 90.603,14.948 132.801,32.803 40.98,17.34 78.012,42.984 119.419,59.383 70.01,27.727 146.17,37.073 220.948,39.839 185.23,6.852 369.915,-22.896 554.72,-30.289 210.59,-8.426 432.927,8.981 603.286,146.277 -8.192,3.071 -12.397,4.514 -20.989,7.245 z"
           id="path214"
           inkscape:connector-curvature="0"
           style="fill:url(#SVGID_16_)" /></g><g
         id="g229"><linearGradient
           id="SVGID_17_"
           gradientUnits="userSpaceOnUse"
           x1="1514.3076"
           y1="1728.3525"
           x2="3914.8574"
           y2="1728.3525"><stop
             offset="0.0645"
             style="stop-color:#037E84"
             id="stop218" /><stop
             offset="0.2742"
             style="stop-color:#085078"
             id="stop220" /><stop
             offset="0.8172"
             style="stop-color:#85D8CE"
             id="stop222" /><stop
             offset="1"
             style="stop-color:#85D8CE"
             id="stop224" /></linearGradient><path
           d="m 3912.087,1801.476 c -178.456,-138.503 -412.174,-126.023 -623.073,-89.716 -183.235,31.544 -364.102,89.533 -550.169,102.548 -66.991,4.687 -138.215,3.019 -200.708,-24.354 -39.753,-17.412 -73.956,-45.615 -113.3,-63.87 -39.635,-18.39 -83.397,-25.9 -126.809,-27.524 -214.559,-8.03 -413.543,100.378 -625.408,114.556 -53.623,3.588 -111.717,0.093 -158.313,-29.507 13.22,8.005 26.414,15.331 40.458,21.788 36.057,22.598 80.046,27.165 121.687,25.329 109.45,-4.826 216.783,-45.074 320.437,-77.208 100.023,-31.008 203.217,-64.202 308.629,-68.793 43.559,-1.897 88.224,1.593 129.32,17.072 41.634,15.682 76.227,45.026 115.452,65.373 57.696,29.928 126.693,30.041 189.814,23.773 185.423,-18.41 363.909,-87.047 544.985,-127.603 209.01,-46.812 447.033,-73.521 628.06,65.403 2.135,24.339 2.766,48.512 -1.062,72.733 z"
           id="path227"
           inkscape:connector-curvature="0"
           style="fill:url(#SVGID_17_)" /></g><g
         id="g242"><linearGradient
           id="SVGID_18_"
           gradientUnits="userSpaceOnUse"
           x1="1618.2485"
           y1="1613.105"
           x2="3852.6699"
           y2="1613.105"><stop
             offset="0"
             style="stop-color:#085078"
             id="stop231" /><stop
             offset="0.129"
             style="stop-color:#085078"
             id="stop233" /><stop
             offset="0.8065"
             style="stop-color:#85D8CE"
             id="stop235" /><stop
             offset="1"
             style="stop-color:#85D8CE"
             id="stop237" /></linearGradient><path
           d="m 1625.687,1793.969 c 7.646,4.794 15.892,8.369 24.511,11.002 44.616,13.628 95.193,1.484 138.482,-11.346 52.773,-15.641 103.669,-37.344 153.987,-59.464 105.529,-46.392 209.778,-99.496 321.149,-130.811 44.512,-12.516 91.589,-22.003 138.047,-18.174 40.979,3.377 71.604,19.886 105.276,42.158 29.793,19.706 57.384,42.017 93.319,48.329 27.701,4.866 56.356,2.7 83.965,-1.668 79.424,-12.565 156,-43.174 230.338,-72.706 95.892,-38.095 190.605,-79.153 287.596,-114.449 198.372,-72.191 445.916,-140.825 630.557,0.375 6.76,13.993 13.348,28.046 19.756,42.204 -183.896,-140.304 -429.382,-79.136 -629.474,-10.861 -97.361,33.222 -192.553,72.279 -288.788,108.541 -75.879,28.591 -153.667,57.901 -234.14,70.466 -28.663,4.476 -58.223,6.799 -87.077,2.668 -35.02,-5.014 -60.617,-22.461 -89.786,-41.472 -34.683,-22.605 -65.999,-43.646 -107.766,-49.786 -45.03,-6.619 -91.434,0.221 -135.346,10.596 -110.364,26.076 -214.201,75.819 -318.139,119.895 -51.118,21.677 -102.585,43.099 -155.657,59.59 -45.741,14.213 -96.827,27.699 -145.037,19.721 -15.245,-2.522 -30.047,-7.33 -43.212,-15.55 3.214,-3.087 4.708,-4.922 7.439,-9.258 z"
           id="path240"
           inkscape:connector-curvature="0"
           style="fill:url(#SVGID_18_)" /></g><g
         id="g255"><linearGradient
           id="SVGID_19_"
           gradientUnits="userSpaceOnUse"
           x1="1477.02"
           y1="1769.9434"
           x2="3912.0869"
           y2="1769.9434"><stop
             offset="0.043"
             style="stop-color:#003254"
             id="stop244" /><stop
             offset="0.2849"
             style="stop-color:#085078"
             id="stop246" /><stop
             offset="0.8978"
             style="stop-color:#85D8CE"
             id="stop248" /><stop
             offset="1"
             style="stop-color:#85D8CE"
             id="stop250" /></linearGradient><path
           d="m 3896.703,1852.219 c -176.837,-138.763 -407.999,-136.103 -620.322,-107.888 -184.538,24.522 -367.309,74.453 -553.843,81.935 -69.653,2.794 -142.534,-0.938 -207.696,-27.97 -40.205,-16.678 -75.136,-43.818 -114.175,-62.829 -39.694,-19.33 -83.569,-28.532 -127.374,-31.912 -212.324,-16.384 -414.285,80.086 -624.448,89.833 -58.437,2.71 -121.321,-2.158 -171.825,-34.556 12.315,8.449 24.694,16.747 37.288,24.776 46.596,29.6 104.69,33.095 158.313,29.507 211.865,-14.178 410.849,-122.585 625.408,-114.556 43.411,1.625 87.174,9.135 126.809,27.524 39.344,18.255 73.546,46.458 113.3,63.87 62.493,27.372 133.717,29.04 200.708,24.354 186.067,-13.016 366.934,-71.004 550.169,-102.548 210.899,-36.307 444.617,-48.787 623.073,89.716 -3.33,17.594 -7.692,34.486 -15.385,50.744 z"
           id="path253"
           inkscape:connector-curvature="0"
           style="fill:url(#SVGID_19_)" /></g><g
         id="g268"><linearGradient
           id="SVGID_20_"
           gradientUnits="userSpaceOnUse"
           x1="1591.0718"
           y1="1662.4834"
           x2="3893.3359"
           y2="1662.4834"><stop
             offset="0"
             style="stop-color:#085078"
             id="stop257" /><stop
             offset="0.1882"
             style="stop-color:#085078"
             id="stop259" /><stop
             offset="0.5968"
             style="stop-color:#85D8CE"
             id="stop261" /><stop
             offset="1"
             style="stop-color:#85D8CE"
             id="stop263" /></linearGradient><path
           d="m 3873.015,1577.936 c 7.347,19.204 14.318,38.515 20.321,58.187 -182.519,-139.176 -424.038,-96.157 -628.979,-38.48 -98.355,27.68 -194.87,61.291 -292.156,92.409 -79.401,25.397 -160.22,50.857 -243.123,61.845 -61.956,8.212 -125.3,7.383 -179.83,-26.284 -36.854,-22.753 -72.183,-50.315 -114.445,-62.148 -42.546,-11.913 -87.878,-10.866 -131.314,-5.135 -107.871,14.231 -211.265,55.48 -312.681,92.958 -98.741,36.489 -206.664,84.586 -313.873,83.932 -29.783,-0.182 -60.215,-5.246 -85.864,-21.217 7.063,-0.124 10.379,-0.748 16.443,-3.472 16.323,10.164 34.929,15.47 53.899,17.784 49.893,6.087 101.663,-7.042 149.088,-21.26 53.403,-16.009 105.39,-36.516 157.116,-57.204 103.822,-41.525 208.106,-88.2 318.258,-110.386 44.153,-8.893 90.594,-13.883 135.26,-5.668 42.193,7.76 74.903,30.75 110.384,53.49 29.155,18.686 55.179,33.889 89.941,38.654 29.855,4.092 60.354,2.097 90.08,-2.08 81.653,-11.474 160.925,-39.067 238.415,-66.267 97.015,-34.053 193.068,-70.884 291.142,-101.864 202.981,-64.121 447.813,-118.044 631.918,22.206 z"
           id="path266"
           inkscape:connector-curvature="0"
           style="fill:url(#SVGID_20_)" /></g><g
         id="g285"><linearGradient
           id="SVGID_21_"
           gradientUnits="userSpaceOnUse"
           x1="1554.7651"
           y1="1703.1982"
           x2="3913.1494"
           y2="1703.1982"><stop
             offset="0.1505"
             style="stop-color:#037E84"
             id="stop270" /><stop
             offset="0.4032"
             style="stop-color:#085078"
             id="stop272" /><stop
             offset="0.7796"
             style="stop-color:#85D8CE"
             id="stop274" /><stop
             offset="0.8123"
             style="stop-color:#8EDBD4"
             id="stop276" /><stop
             offset="0.8666"
             style="stop-color:#A8E3E5"
             id="stop278" /><stop
             offset="0.9247"
             style="stop-color:#CAEEFC"
             id="stop280" /></linearGradient><path
           d="m 3913.149,1728.744 c -181.026,-138.925 -419.05,-112.215 -628.06,-65.403 -181.076,40.556 -359.563,109.192 -544.985,127.603 -63.121,6.268 -132.119,6.154 -189.814,-23.773 -39.225,-20.347 -73.818,-49.691 -115.452,-65.373 -41.096,-15.479 -85.762,-18.969 -129.32,-17.072 -105.412,4.591 -208.605,37.785 -308.629,68.793 -103.653,32.134 -210.986,72.382 -320.437,77.208 -41.641,1.836 -85.63,-2.731 -121.687,-25.329 10.905,4.615 16.134,6.331 25.854,7.84 29.068,18.101 63.846,22.989 97.518,22.474 108.195,-1.656 215.839,-47.201 316.442,-82.54 100.921,-35.45 204.27,-74.12 311.39,-85.174 43.449,-4.484 88.563,-4.005 130.585,9.146 42.686,13.359 78.25,42.224 116.385,64.62 54.372,31.931 120.594,31.435 181.345,23.99 83.551,-10.238 165.219,-34.427 245.564,-58.701 97.584,-29.482 194.469,-61.38 293.086,-87.335 206.342,-54.308 446.799,-92.081 628.902,46.976 4.883,20.505 9.074,41.068 11.313,62.05 z"
           id="path283"
           inkscape:connector-curvature="0"
           style="fill:url(#SVGID_21_)" /></g><g
         id="g298"><linearGradient
           id="SVGID_22_"
           gradientUnits="userSpaceOnUse"
           x1="1462.1553"
           y1="1785.4805"
           x2="3896.7031"
           y2="1785.4805"><stop
             offset="0"
             style="stop-color:#085078"
             id="stop287" /><stop
             offset="0"
             style="stop-color:#085078"
             id="stop289" /><stop
             offset="0.5645"
             style="stop-color:#85D8CE"
             id="stop291" /><stop
             offset="1"
             style="stop-color:#85D8CE"
             id="stop293" /></linearGradient><path
           d="m 3887.309,1869.352 c -175.493,-138.353 -404.772,-139.584 -616.726,-114.608 -184.554,21.747 -367.437,68.431 -553.639,74.446 -70.52,2.278 -143.898,-1.847 -210.178,-28.116 -40.178,-15.924 -75.192,-42.12 -113.587,-61.608 -39.302,-19.948 -82.648,-30.286 -126.323,-34.678 -210.178,-21.133 -412.877,69.714 -620.963,79.966 -62.328,3.071 -129.853,-1.498 -183.737,-36.226 5.942,4.125 8.922,6.202 14.865,10.305 50.503,32.397 113.388,37.266 171.825,34.556 210.163,-9.747 412.124,-106.217 624.448,-89.833 43.805,3.38 87.68,12.583 127.374,31.912 39.04,19.011 73.971,46.151 114.175,62.829 65.162,27.031 138.042,30.764 207.696,27.97 186.535,-7.481 369.305,-57.412 553.843,-81.935 212.323,-28.215 443.485,-30.875 620.322,107.888 -3.397,7.161 -5.284,10.582 -9.395,17.132 z"
           id="path296"
           inkscape:connector-curvature="0"
           style="fill:url(#SVGID_22_)" /></g><g
         id="g311"><linearGradient
           id="SVGID_23_"
           gradientUnits="userSpaceOnUse"
           x1="1383.3984"
           y1="1819.3799"
           x2="3828.1387"
           y2="1819.3799"><stop
             offset="0"
             style="stop-color:#085078"
             id="stop300" /><stop
             offset="0"
             style="stop-color:#085078"
             id="stop302" /><stop
             offset="0.7903"
             style="stop-color:#85D8CE"
             id="stop304" /><stop
             offset="1"
             style="stop-color:#85D8CE"
             id="stop306" /></linearGradient><path
           d="m 3806.358,1939.502 c -171.688,-137.994 -395.737,-152.869 -607.314,-141.406 -185.078,10.027 -369.735,43.086 -555.447,38.727 -74.075,-1.738 -149.771,-10.035 -219.186,-37.384 -41.121,-16.201 -77.668,-41.775 -117.758,-60.146 -41.245,-18.9 -85.994,-29.299 -130.901,-34.644 -207.644,-24.711 -411.81,48.005 -619.074,40.559 -59.895,-2.152 -122.181,-12.43 -173.28,-45.675 6.44,3.006 9.757,4.746 16.52,8.537 54.287,35.326 121.284,43.917 184.724,44.313 206.67,1.293 410.474,-73.886 617.757,-47.51 44.398,5.649 88.438,16.668 128.807,36.328 39.185,19.084 75.265,44.264 116.065,60.006 69.01,26.626 144.254,33.851 217.682,34.632 185.695,1.976 369.871,-33.55 554.778,-45.653 211.58,-13.85 436.224,-0.991 608.409,136.964 -8.322,5.275 -12.689,7.735 -21.782,12.352 z"
           id="path309"
           inkscape:connector-curvature="0"
           style="fill:url(#SVGID_23_)" /></g><g
         id="g324"><linearGradient
           id="SVGID_24_"
           gradientUnits="userSpaceOnUse"
           x1="1361.2705"
           y1="1822.8906"
           x2="3806.3584"
           y2="1822.8906"><stop
             offset="0.3011"
             style="stop-color:#037E84"
             id="stop313" /><stop
             offset="0.5591"
             style="stop-color:#085078"
             id="stop315" /><stop
             offset="0.828"
             style="stop-color:#85D8CE"
             id="stop317" /><stop
             offset="1"
             style="stop-color:#85D8CE"
             id="stop319" /></linearGradient><path
           d="m 3771.861,1954.552 c -170.359,-137.296 -392.696,-154.703 -603.286,-146.277 -184.805,7.394 -369.489,37.141 -554.72,30.289 -74.778,-2.766 -150.938,-12.112 -220.948,-39.839 -41.407,-16.398 -78.438,-42.043 -119.419,-59.383 -42.198,-17.855 -87.385,-27.713 -132.801,-32.803 -206.95,-23.193 -411.325,45.686 -617.979,31.302 -56.119,-3.906 -113.589,-15.601 -161.438,-46.612 8.409,2.23 12.87,3.982 22.128,8.304 51.099,33.245 113.385,43.523 173.28,45.675 207.264,7.446 411.43,-65.27 619.074,-40.559 44.907,5.344 89.656,15.743 130.901,34.644 40.09,18.371 76.637,43.945 117.758,60.146 69.415,27.349 145.11,35.646 219.186,37.384 185.712,4.359 370.369,-28.699 555.447,-38.727 211.577,-11.463 435.626,3.412 607.314,141.406 -11.199,5.671 -22.741,10.653 -34.497,15.05 z"
           id="path322"
           inkscape:connector-curvature="0"
           style="fill:url(#SVGID_24_)" /></g><g
         id="g341"><linearGradient
           id="SVGID_25_"
           gradientUnits="userSpaceOnUse"
           x1="1399.918"
           y1="1813.2031"
           x2="3858.0615"
           y2="1813.2031"><stop
             offset="0.0215"
             style="stop-color:#037E84"
             id="stop326" /><stop
             offset="0.2742"
             style="stop-color:#085078"
             id="stop328" /><stop
             offset="0.6559"
             style="stop-color:#85D8CE"
             id="stop330" /><stop
             offset="0.7334"
             style="stop-color:#8EDBD4"
             id="stop332" /><stop
             offset="0.8622"
             style="stop-color:#A8E3E5"
             id="stop334" /><stop
             offset="1"
             style="stop-color:#CAEEFC"
             id="stop336" /></linearGradient><path
           d="m 3828.139,1927.149 c -172.186,-137.955 -396.829,-150.813 -608.409,-136.964 -184.907,12.104 -369.083,47.629 -554.778,45.653 -73.427,-0.781 -148.671,-8.006 -217.682,-34.632 -40.8,-15.742 -76.88,-40.922 -116.065,-60.006 -40.368,-19.66 -84.408,-30.679 -128.807,-36.328 -207.283,-26.376 -411.087,48.803 -617.757,47.51 -63.439,-0.396 -130.437,-8.988 -184.724,-44.313 9.267,5.223 18.218,10.892 27.171,16.628 54.206,35.177 121.525,42.148 184.655,41.103 207.646,-3.438 411.349,-85.389 620.156,-60.959 44.166,5.167 87.967,15.972 127.928,35.839 38.903,19.342 74.576,45.034 115.167,60.944 67.909,26.617 142.444,32.637 214.761,32.185 186.167,-1.164 370.125,-41.415 555.157,-57.556 212.255,-18.515 439.259,-10.322 613.149,128.091 -9.245,8.505 -19.309,16.093 -29.922,22.805 z"
           id="path339"
           inkscape:connector-curvature="0"
           style="fill:url(#SVGID_25_)" /></g><g
         id="g354"><linearGradient
           id="SVGID_26_"
           gradientUnits="userSpaceOnUse"
           x1="1427.0889"
           y1="1802.3223"
           x2="3869.4941"
           y2="1802.3223"><stop
             offset="0"
             style="stop-color:#085078"
             id="stop343" /><stop
             offset="0"
             style="stop-color:#085078"
             id="stop345" /><stop
             offset="0.2957"
             style="stop-color:#85D8CE"
             id="stop347" /><stop
             offset="1"
             style="stop-color:#85D8CE"
             id="stop349" /></linearGradient><path
           d="m 3858.062,1904.344 c -173.891,-138.413 -400.895,-146.605 -613.149,-128.091 -185.031,16.141 -368.989,56.392 -555.157,57.556 -72.317,0.452 -146.853,-5.567 -214.761,-32.185 -40.591,-15.91 -76.264,-41.603 -115.167,-60.944 -39.96,-19.867 -83.762,-30.672 -127.928,-35.839 -208.807,-24.43 -412.509,57.521 -620.156,60.959 -63.13,1.046 -130.45,-5.926 -184.655,-41.103 4.895,3.194 7.365,4.843 12.328,8.197 54.083,35.068 121.565,41.225 184.437,39.478 207.895,-5.775 411.364,-90.8 620.715,-67.433 44.017,4.913 87.677,15.577 127.423,35.492 38.744,19.414 74.203,45.298 114.667,61.238 67.357,26.535 141.527,31.936 213.255,30.862 186.252,-2.786 369.923,-45.248 554.869,-63.3 212.313,-20.724 440.157,-14.862 614.712,123.594 -4.349,4.8 -6.641,7.101 -11.433,11.519 z"
           id="path352"
           inkscape:connector-curvature="0"
           style="fill:url(#SVGID_26_)" /></g><g
         id="g367"><linearGradient
           id="SVGID_27_"
           gradientUnits="userSpaceOnUse"
           x1="1439.417"
           y1="1796.8555"
           x2="3887.3086"
           y2="1796.8555"><stop
             offset="0"
             style="stop-color:#085078"
             id="stop356" /><stop
             offset="0.1935"
             style="stop-color:#085078"
             id="stop358" /><stop
             offset="1"
             style="stop-color:#85D8CE"
             id="stop360" /><stop
             offset="1"
             style="stop-color:#85D8CE"
             id="stop362" /></linearGradient><path
           d="m 3869.494,1892.826 c -174.555,-138.456 -402.399,-144.317 -614.712,-123.594 -184.945,18.052 -368.616,60.514 -554.869,63.3 -71.728,1.073 -145.898,-4.327 -213.255,-30.862 -40.463,-15.94 -75.923,-41.824 -114.667,-61.238 -39.746,-19.916 -83.406,-30.579 -127.423,-35.492 -209.352,-23.367 -412.82,61.657 -620.715,67.433 -62.871,1.747 -130.353,-4.409 -184.437,-39.478 9.025,6.099 13.596,9.287 22.738,15.633 53.884,34.728 121.409,39.297 183.737,36.226 208.086,-10.252 410.785,-101.099 620.963,-79.966 43.675,4.392 87.021,14.729 126.323,34.678 38.396,19.488 73.409,45.685 113.587,61.608 66.28,26.27 139.659,30.395 210.178,28.116 186.202,-6.016 369.085,-52.699 553.639,-74.446 211.953,-24.976 441.232,-23.744 616.726,114.608 -5.233,8.329 -11.205,16.187 -17.813,23.474 z"
           id="path365"
           inkscape:connector-curvature="0"
           style="fill:url(#SVGID_27_)" /></g></g></g></svg>