<?xml version="1.0" encoding="utf-8"?>
<!-- Generator: Adobe Illustrator 16.0.0, SVG Export Plug-In . SVG Version: 6.00 Build 0)  -->
<!DOCTYPE svg PUBLIC "-//W3C//DTD SVG 1.1//EN" "http://www.w3.org/Graphics/SVG/1.1/DTD/svg11.dtd">
<svg version="1.1" id="Layer_1" xmlns="http://www.w3.org/2000/svg" xmlns:xlink="http://www.w3.org/1999/xlink" x="0px" y="0px"
	 width="5500px" height="3500px" viewBox="0 0 5500 3500" enable-background="new 0 0 5500 3500" xml:space="preserve">
<g opacity="0.9">
	<g>
		<g>
			<linearGradient id="SVGID_1_" gradientUnits="userSpaceOnUse" x1="2724.8467" y1="2332.1631" x2="4256.9336" y2="2332.1631">
				<stop  offset="0" style="stop-color:#037E84"/>
				<stop  offset="0.543" style="stop-color:#085078"/>
				<stop  offset="1" style="stop-color:#85D8CE"/>
				<stop  offset="1" style="stop-color:#85D8CE"/>
			</linearGradient>
			<path fill="url(#SVGID_1_)" d="M2790.227,2724.863c85.908-119.565,228.645-180.184,362.129-230.527
				c125.773-47.436,256.157-85.504,376.506-146.21c57.068-28.786,104.156-63.579,151.692-105.882
				c50.736-45.15,113.876-75.501,176.146-101.201c69.57-28.714,141.418-51.402,211.33-79.223
				c63.607-25.312,132.656-55.386,177.143-109.633c7.009-9.619,11.646-21.032,11.762-33.045
				c-48.853,61.303-127.938,93.132-199.141,120.06c-74.079,28.016-149.949,51.224-223.008,81.94
				c-65.001,27.33-129.456,60.724-179.938,110.85c-46.256,45.93-95.207,81.891-153.241,111.859
				c-125.002,64.552-261.652,103.433-392.92,152.754c-142.736,53.63-293.863,119.338-383.839,248.578
				C2746.584,2738.22,2768.346,2731.366,2790.227,2724.863z"/>
		</g>
		<g>
			<linearGradient id="SVGID_2_" gradientUnits="userSpaceOnUse" x1="2809.0391" y1="2340.1621" x2="4238.2002" y2="2340.1621">
				<stop  offset="0" style="stop-color:#085078"/>
				<stop  offset="0.4086" style="stop-color:#037E84"/>
				<stop  offset="1" style="stop-color:#85D8CE"/>
				<stop  offset="1" style="stop-color:#85D8CE"/>
			</linearGradient>
			<path fill="url(#SVGID_2_)" d="M2848.501,2709.559c80.122-110.561,212.786-167.455,336.276-215.29
				c119.158-46.156,242.293-83.827,356.996-140.776c54.634-27.125,101.129-59.513,147.696-98.563
				c49.462-41.478,109.291-70.166,168.375-95.088c65.087-27.454,132.134-49.937,197.292-77.204
				c59.238-24.791,122.887-54.058,164.593-104.768c8.25-6.558,12.063-9.957,18.471-17.06
				c-44.313,53.867-112.967,83.787-176.156,109.118c-69.396,27.819-140.688,50.673-209.64,79.64
				c-62.358,26.197-124.432,57.214-174.95,102.913c-43.885,39.698-90.868,70.816-143.802,97.339
				c-120.421,60.337-250.59,98.479-376.093,146.414c-128.511,49.083-265.528,108.275-348.521,223.279
				C2822.115,2715.899,2835.268,2712.55,2848.501,2709.559z"/>
		</g>
		<g>
			<linearGradient id="SVGID_3_" gradientUnits="userSpaceOnUse" x1="2663.0137" y1="2323.4297" x2="4256.9336" y2="2323.4297">
				<stop  offset="0.1398" style="stop-color:#037E84"/>
				<stop  offset="0.3333" style="stop-color:#085078"/>
				<stop  offset="0.8871" style="stop-color:#85D8CE"/>
				<stop  offset="1" style="stop-color:#85D8CE"/>
			</linearGradient>
			<path fill="url(#SVGID_3_)" d="M2724.847,2745.184c89.976-129.24,241.103-194.948,383.839-248.578
				c131.268-49.321,267.918-88.202,392.92-152.754c58.034-29.969,106.985-65.93,153.241-111.859
				c50.482-50.126,114.938-83.52,179.938-110.85c73.059-30.717,148.929-53.925,223.008-81.94
				c71.203-26.928,150.288-58.757,199.141-120.06c-0.047-14.16-6.143-25.214-13.355-36.926
				c-47.422,63.1-126.497,96.278-197.961,123.65c-78.312,29.995-158.842,54.02-236.145,86.679
				c-68.094,28.768-135.711,64.522-186.639,119.226c-46.668,50.129-94.473,90.267-154.85,123.212
				c-129.316,70.563-273.09,110.915-410.058,163.47c-148.913,57.139-304.296,128.516-394.913,266.189
				C2683.689,2758.355,2704.271,2751.786,2724.847,2745.184z"/>
		</g>
		<g>
			<linearGradient id="SVGID_4_" gradientUnits="userSpaceOnUse" x1="2790.2266" y1="2338.5254" x2="4245.1719" y2="2338.5254">
				<stop  offset="0" style="stop-color:#085078"/>
				<stop  offset="0.0806" style="stop-color:#085078"/>
				<stop  offset="0.5699" style="stop-color:#85D8CE"/>
				<stop  offset="1" style="stop-color:#85D8CE"/>
			</linearGradient>
			<path fill="url(#SVGID_4_)" d="M2809.039,2719.514c82.992-115.004,220.01-174.196,348.521-223.279
				c125.503-47.935,255.672-86.077,376.093-146.414c52.934-26.522,99.917-57.641,143.802-97.339
				c50.519-45.699,112.592-76.716,174.95-102.913c68.951-28.967,140.244-51.82,209.64-79.64
				c63.189-25.331,131.843-55.251,176.156-109.118c3.051-3.382,4.459-5.105,6.972-8.623
				c-44.486,54.247-113.535,84.321-177.143,109.633c-69.912,27.82-141.76,50.509-211.33,79.223
				c-62.27,25.7-125.409,56.051-176.146,101.201c-47.536,42.303-94.624,77.096-151.692,105.882
				c-120.349,60.706-250.732,98.774-376.506,146.21c-133.484,50.344-276.221,110.962-362.129,230.527
				C2797.747,2722.663,2801.513,2721.587,2809.039,2719.514z"/>
		</g>
		<g>
			<linearGradient id="SVGID_5_" gradientUnits="userSpaceOnUse" x1="2621.0562" y1="2320.1836" x2="4243.5781" y2="2320.1836">
				<stop  offset="0" style="stop-color:#003254"/>
				<stop  offset="0.7043" style="stop-color:#085078"/>
				<stop  offset="1" style="stop-color:#85D8CE"/>
				<stop  offset="1" style="stop-color:#85D8CE"/>
			</linearGradient>
			<path fill="url(#SVGID_5_)" d="M2663.014,2764.643c90.617-137.674,246-209.051,394.913-266.189
				c136.968-52.555,280.741-92.907,410.058-163.47c60.377-32.945,108.182-73.083,154.85-123.212
				c50.928-54.703,118.545-90.458,186.639-119.226c77.303-32.659,157.833-56.684,236.145-86.679
				c71.464-27.372,150.539-60.551,197.961-123.65c-7.543-10.627-11.263-14.077-18.635-18.2
				c-48.492,67.277-132.75,101.327-207.737,129.384c-78.333,29.309-158.742,53.04-235.783,85.784
				c-71.797,30.515-140.028,69.067-191.748,128.513c-44.045,50.624-90.494,90.846-149.163,123.916
				c-130.232,73.408-276.785,113.861-415.649,167.237c-153.557,59.022-312.854,133.614-403.806,277.499
				C2635.117,2772.682,2649.077,2768.757,2663.014,2764.643z"/>
		</g>
		<g>
			<linearGradient id="SVGID_6_" gradientUnits="userSpaceOnUse" x1="2574.5469" y1="2322.9785" x2="4224.9434" y2="2322.9785">
				<stop  offset="0.1882" style="stop-color:#003254"/>
				<stop  offset="0.5376" style="stop-color:#085078"/>
				<stop  offset="0.9301" style="stop-color:#85D8CE"/>
				<stop  offset="1" style="stop-color:#85D8CE"/>
			</linearGradient>
			<path fill="url(#SVGID_6_)" d="M2621.056,2776.35c90.953-143.885,250.25-218.477,403.806-277.499
				c138.864-53.376,285.417-93.829,415.649-167.237c58.669-33.07,105.118-73.292,149.163-123.916
				c51.72-59.445,119.951-97.998,191.748-128.513c77.041-32.744,157.45-56.476,235.783-85.784
				c74.987-28.057,159.245-62.106,207.737-129.384c-8.601-4.811-12.844-5.045-21.265-2.683
				c-47.749,68.444-133.528,101.955-209.052,129.138c-83.264,29.969-168.901,53.406-250.498,87.94
				c-72.522,30.693-138.58,70.294-189.142,131.531c-42.368,51.314-87.079,91.913-145.139,125.031
				c-129.624,73.941-277.014,112.612-416.101,164.294c-160.173,59.517-326.566,135.609-419.201,286.817
				C2590.2,2783.616,2605.699,2780.243,2621.056,2776.35z"/>
		</g>
		<g>
			<linearGradient id="SVGID_7_" gradientUnits="userSpaceOnUse" x1="3101.0674" y1="2445.6533" x2="4100.2959" y2="2445.6533">
				<stop  offset="0.086" style="stop-color:#08363D"/>
				<stop  offset="0.4032" style="stop-color:#085078"/>
				<stop  offset="0.8495" style="stop-color:#85D8CE"/>
				<stop  offset="1" style="stop-color:#85D8CE"/>
			</linearGradient>
			<path fill="url(#SVGID_7_)" d="M3152.033,2819.227c48.458-78.161,128.138-136.268,202.365-188.059
				c83.602-58.332,171.196-110.76,258.289-163.641c89.196-54.158,178.639-108.25,264.056-168.28
				c82.014-57.638,166.093-121.687,223.553-205.107c-13.024-8.955-14.92-13.291-13.303-22.06
				c-57.914,82.936-154.343,136.383-238.816,188.017c-88.069,53.832-173.406,112.113-263.214,163.015
				c-88.617,50.227-179.587,96.297-267.188,148.317c-79.22,47.043-167.305,101.06-216.707,181.472
				C3121.74,2772.2,3137.734,2794.975,3152.033,2819.227z"/>
		</g>
		<g>
			<linearGradient id="SVGID_8_" gradientUnits="userSpaceOnUse" x1="2848.501" y1="2343.7148" x2="4219.7295" y2="2343.7148">
				<stop  offset="0.0914" style="stop-color:#003254"/>
				<stop  offset="0.4677" style="stop-color:#085078"/>
				<stop  offset="0.7796" style="stop-color:#037E84"/>
				<stop  offset="1" style="stop-color:#85D8CE"/>
				<stop  offset="1" style="stop-color:#85D8CE"/>
			</linearGradient>
			<path fill="url(#SVGID_8_)" d="M2929.861,2697.403c70.404-98.862,187.826-152.009,296.583-197.482
				c108.836-45.506,221.037-83.59,326.735-136.345c48.715-24.313,93.489-52.021,136.021-85.967
				c48.336-38.578,104.633-66.616,160.769-91.901c56.408-25.408,114.229-47.581,170.384-73.561
				c54.534-25.229,112.504-54.577,150.77-102.453c16.809-9.865,33.025-20.102,48.606-31.824
				c-41.706,50.71-105.354,79.977-164.593,104.768c-65.158,27.268-132.205,49.75-197.292,77.204
				c-59.084,24.922-118.913,53.61-168.375,95.088c-46.567,39.05-93.063,71.438-147.696,98.563
				c-114.703,56.949-237.838,94.62-356.996,140.776c-123.49,47.835-256.154,104.729-336.276,215.29
				C2875.46,2703.713,2902.331,2699.36,2929.861,2697.403z"/>
		</g>
		<g>
			<linearGradient id="SVGID_9_" gradientUnits="userSpaceOnUse" x1="3040.21" y1="2401.1211" x2="4105.3008" y2="2401.1211">
				<stop  offset="0" style="stop-color:#085078"/>
				<stop  offset="0.3441" style="stop-color:#085078"/>
				<stop  offset="1" style="stop-color:#85D8CE"/>
				<stop  offset="1" style="stop-color:#85D8CE"/>
			</linearGradient>
			<path fill="url(#SVGID_9_)" d="M3101.067,2752.9c49.402-80.412,137.487-134.429,216.707-181.472
				c87.602-52.021,178.571-98.091,267.188-148.317c89.808-50.901,175.145-109.183,263.214-163.015
				c84.474-51.634,180.902-105.081,238.816-188.017c2.811-10.36,10.555-16.054,18.308-22.739
				c-63.705,86.886-178.656,131.867-270.712,181.081c-91.977,49.172-174.388,112.535-266.382,161.428
				c-95.313,50.656-194.783,92.866-290.896,141.914c-86.398,44.091-183.401,95.617-237.101,179.809
				C3062.955,2723.715,3082.377,2736.451,3101.067,2752.9z"/>
		</g>
		<g>
			<linearGradient id="SVGID_10_" gradientUnits="userSpaceOnUse" x1="2557.1387" y1="2324.8496" x2="4203.6787" y2="2324.8496">
				<stop  offset="0" style="stop-color:#085078"/>
				<stop  offset="0" style="stop-color:#085078"/>
				<stop  offset="0.7903" style="stop-color:#85D8CE"/>
				<stop  offset="1" style="stop-color:#85D8CE"/>
			</linearGradient>
			<path fill="url(#SVGID_10_)" d="M2574.547,2786.086c92.635-151.208,259.028-227.301,419.201-286.817
				c139.087-51.682,286.477-90.353,416.101-164.294c58.06-33.118,102.771-73.717,145.139-125.031
				c50.562-61.237,116.619-100.838,189.142-131.531c81.597-34.534,167.234-57.972,250.498-87.94
				c75.523-27.183,161.303-60.693,209.052-129.138c-3.308,0.928-4.958,1.644-8.245,3.484
				c-47.395,68.543-133.617,101.531-209.106,128.072c-83.613,29.397-169.591,52.125-251.603,86.021
				c-71.881,29.709-139.607,68.373-189.189,129.477c-42.031,51.799-85.088,93.449-143.166,127.05
				c-131.77,76.234-283.185,114.015-425.229,165.958c-160.883,58.832-327.696,134.908-420.002,286.969
				C2563.994,2787.654,2567.479,2787.191,2574.547,2786.086z"/>
		</g>
		<g>
			<linearGradient id="SVGID_11_" gradientUnits="userSpaceOnUse" x1="3020.5615" y1="2377.9453" x2="4115.2676" y2="2377.9453">
				<stop  offset="0" style="stop-color:#085078"/>
				<stop  offset="0.2688" style="stop-color:#085078"/>
				<stop  offset="0.7473" style="stop-color:#85D8CE"/>
				<stop  offset="1" style="stop-color:#85D8CE"/>
			</linearGradient>
			<path fill="url(#SVGID_11_)" d="M3040.21,2713.572c53.699-84.191,150.702-135.718,237.101-179.809
				c96.113-49.048,195.584-91.258,290.896-141.914c91.994-48.893,174.405-112.256,266.382-161.428
				c92.056-49.214,207.007-94.195,270.712-181.081c3.648-2.784,5.664-4.186,9.967-7.023
				c-64.672,86.552-181.942,128.945-274.91,176.649c-96.046,49.284-180.192,115.899-275.635,165.828
				c-95.568,49.994-195.616,90.637-292.591,137.716c-91.288,44.318-194.727,96.205-251.57,184.112
				C3028.533,2708.998,3032.467,2710.378,3040.21,2713.572z"/>
		</g>
		<g>
			<linearGradient id="SVGID_12_" gradientUnits="userSpaceOnUse" x1="2929.8613" y1="2355.1934" x2="4171.123" y2="2355.1934">
				<stop  offset="0" style="stop-color:#003254"/>
				<stop  offset="0.1774" style="stop-color:#085078"/>
				<stop  offset="0.4839" style="stop-color:#037E84"/>
				<stop  offset="0.5442" style="stop-color:#0C8589"/>
				<stop  offset="0.6446" style="stop-color:#269698"/>
				<stop  offset="0.7726" style="stop-color:#4FB3AF"/>
				<stop  offset="0.914" style="stop-color:#85D8CE"/>
			</linearGradient>
			<path fill="url(#SVGID_12_)" d="M2995.244,2700.693c58.231-88.473,162.828-139.819,255.854-183.247
				c101.076-47.186,205.528-87.036,304.993-137.691c46.075-23.465,90.369-49.132,131.625-80.357
				c46.895-35.494,99.094-63.317,151.721-89.261c51.328-25.303,103.727-48.478,154.366-75.169
				c49.636-26.162,101.347-56.308,135.945-101.651c13.681-8.067,27.606-15.708,41.374-23.622
				c-38.266,47.876-96.235,77.224-150.77,102.453c-56.154,25.979-113.976,48.152-170.384,73.561
				c-56.136,25.285-112.433,53.323-160.769,91.901c-42.532,33.946-87.307,61.653-136.021,85.967
				c-105.698,52.755-217.899,90.839-326.735,136.345c-108.757,45.474-226.179,98.62-296.583,197.482
				C2951.977,2696.557,2973.345,2697.434,2995.244,2700.693z"/>
		</g>
		<g>
			<linearGradient id="SVGID_13_" gradientUnits="userSpaceOnUse" x1="2995.2441" y1="2369.9697" x2="4129.749" y2="2369.9697">
				<stop  offset="0.043" style="stop-color:#001354"/>
				<stop  offset="0.1935" style="stop-color:#085078"/>
				<stop  offset="0.5806" style="stop-color:#85D8CE"/>
				<stop  offset="1" style="stop-color:#85D8CE"/>
			</linearGradient>
			<path fill="url(#SVGID_13_)" d="M3020.562,2706.623c56.844-87.907,160.282-139.794,251.57-184.112
				c96.975-47.079,197.022-87.722,292.591-137.716c95.442-49.929,179.589-116.544,275.635-165.828
				c92.968-47.704,210.238-90.098,274.91-176.649c5.378-3.548,8.316-5.345,14.481-9.001
				c-34.599,45.344-86.31,75.489-135.945,101.651c-50.64,26.691-103.038,49.866-154.366,75.169
				c-52.627,25.943-104.826,53.767-151.721,89.261c-41.256,31.226-85.55,56.893-131.625,80.357
				c-99.465,50.655-203.917,90.506-304.993,137.691c-93.026,43.428-197.623,94.774-255.854,183.247
				C3005.526,2702.486,3010.598,2703.654,3020.562,2706.623z"/>
		</g>
		<g>
			<linearGradient id="SVGID_14_" gradientUnits="userSpaceOnUse" x1="2379.6821" y1="2289.5859" x2="4050.2256" y2="2289.5859">
				<stop  offset="0" style="stop-color:#085078"/>
				<stop  offset="0.3118" style="stop-color:#085078"/>
				<stop  offset="0.828" style="stop-color:#85D8CE"/>
				<stop  offset="1" style="stop-color:#85D8CE"/>
			</linearGradient>
			<path fill="url(#SVGID_14_)" d="M4040.667,2026.963c-43.11,61.971-153.452,57.619-219.315,59.044
				c-92.66,2.004-186.174-3.211-278.34,8.815c-71.924,9.385-134.786,29.858-176.123,92.102
				c-15.73,23.687-29.254,49.189-53.039,65.762c-17.45,12.158-37.678,19.98-57.966,25.945
				c-61.554,18.098-127.565,21.092-191.257,24.163c-77.989,3.762-156.094,5.031-233.985,10.727
				c-165.294,12.087-360.624,41.878-450.771,199.191c-0.25,13.164-0.259,26.334,0.022,39.498
				c89.956-155.868,280.676-190.946,445.622-206.983c81.086-7.884,162.521-10.86,243.752-16.77
				c63.476-4.617,129.043-9.525,190.035-28.965c22.587-7.199,45.07-16.674,63.936-31.292c24.091-18.668,38.758-46.912,55.56-71.738
				c40.506-59.853,110.755-79.057,179.001-88.756c91.204-12.962,183.824-9.905,275.621-14.172
				c66.818-3.105,173.496-2.588,216.808-64.682C4046.429,2028.761,4044.516,2028.406,4040.667,2026.963z"/>
		</g>
		<g>
			<linearGradient id="SVGID_15_" gradientUnits="userSpaceOnUse" x1="2382.3311" y1="2323.9473" x2="4070.5205" y2="2323.9473">
				<stop  offset="0" style="stop-color:#085078"/>
				<stop  offset="0" style="stop-color:#085078"/>
				<stop  offset="0.5699" style="stop-color:#85D8CE"/>
				<stop  offset="1" style="stop-color:#85D8CE"/>
			</linearGradient>
			<path fill="url(#SVGID_15_)" d="M2385.2,2625.456c92.66-158.815,284.163-201.822,453.333-225.329
				c79.931-11.106,160.37-17.828,240.443-27.736c63.876-7.904,129.434-16.678,190.117-39.116
				c23.437-8.666,46.481-19.616,66.183-35.179c24.54-19.385,40.219-46.859,57.8-72.234c41.851-60.404,108.561-84.671,178.396-98.405
				c89-17.504,180.269-19.161,270.371-27.249c72.498-6.508,182.276-11.217,228.677-77.77c-3.083,1.957-4.631,2.773-7.743,4.015
				c-43.91,62.886-147.635,66.736-216.117,72.065c-91.217,7.099-183.376,6.78-273.837,21.77
				c-67.879,11.248-139.931,31.724-181.695,90.398c-18.3,25.709-33.392,55.153-58.11,75.464
				c-18.9,15.529-41.408,26.204-64.266,34.517c-60.194,21.89-125.473,29.359-188.789,36.1
				c-80.379,8.556-161.08,13.789-241.348,23.451c-169.286,20.377-363.569,59.579-456.284,219
				C2383.275,2610.187,2383.851,2615.429,2385.2,2625.456z"/>
		</g>
		<g>
			<linearGradient id="SVGID_16_" gradientUnits="userSpaceOnUse" x1="2541.791" y1="2327.1768" x2="4195.4336" y2="2327.1768">
				<stop  offset="0" style="stop-color:#085078"/>
				<stop  offset="0.0376" style="stop-color:#085078"/>
				<stop  offset="0.5699" style="stop-color:#85D8CE"/>
				<stop  offset="1" style="stop-color:#85D8CE"/>
			</linearGradient>
			<path fill="url(#SVGID_16_)" d="M2557.139,2788.365c92.306-152.061,259.119-228.137,420.002-286.969
				c142.044-51.943,293.459-89.724,425.229-165.958c58.078-33.601,101.135-75.251,143.166-127.05
				c49.582-61.104,117.309-99.768,189.189-129.477c82.012-33.896,167.989-56.624,251.603-86.021
				c75.489-26.541,161.712-59.529,209.106-128.072c-2.988,1.673-4.479,2.693-7.451,5.034
				c-47.081,68.479-133.577,100.832-208.946,126.682c-83.87,28.765-170.085,50.724-252.433,83.883
				c-71.21,28.675-140.354,66.305-189.22,126.958c-44.058,54.686-87.752,98.53-149.323,133.414
				c-132.261,74.934-283.779,111.361-425.924,162.439c-161.345,57.979-328.367,133.75-420.346,286.307
				C2547.834,2789.252,2550.906,2789.012,2557.139,2788.365z"/>
		</g>
		<g>
			<linearGradient id="SVGID_17_" gradientUnits="userSpaceOnUse" x1="2394.4355" y1="2352.2236" x2="4107.5898" y2="2352.2236">
				<stop  offset="0.0645" style="stop-color:#037E84"/>
				<stop  offset="0.2742" style="stop-color:#085078"/>
				<stop  offset="0.8172" style="stop-color:#85D8CE"/>
				<stop  offset="1" style="stop-color:#85D8CE"/>
			</linearGradient>
			<path fill="url(#SVGID_17_)" d="M2413.072,2722.211c93.499-159.038,277.594-216.971,447.583-254.565
				c144.951-32.058,303.298-43.794,439.207-107.251c24.072-11.24,47.382-24.668,67.763-41.821
				c24.868-20.931,42.208-48.136,61.07-74.283c45.467-63.026,113.729-93.862,187.07-113.849
				c89.02-24.259,181.229-33.485,271.779-50.117c74.573-13.697,173.6-30.644,220.045-98.088
				c-6.65,9.199-13.257,18.213-21.022,26.522c-46.651,67.127-151.71,77.438-225.537,87.074
				c-88.818,11.592-178.866,16.633-266.481,36.172c-74.613,16.64-143.398,44.305-188.617,108.403
				c-18.057,25.596-34.379,52.365-59.086,72.156c-20.24,16.213-43.596,28.217-67.517,37.986
				c-63.542,25.949-132.621,37.707-200.057,48.461c-79.309,12.646-159.066,22.344-238.159,36.363
				c-168.482,29.864-354.34,80.202-446.678,237.757C2399.31,2690.078,2404.784,2706.579,2413.072,2722.211z"/>
		</g>
		<g>
			<linearGradient id="SVGID_18_" gradientUnits="userSpaceOnUse" x1="2379.8701" y1="2267.6992" x2="4040.667" y2="2267.6992">
				<stop  offset="0" style="stop-color:#085078"/>
				<stop  offset="0.129" style="stop-color:#085078"/>
				<stop  offset="0.8065" style="stop-color:#85D8CE"/>
				<stop  offset="1" style="stop-color:#85D8CE"/>
			</linearGradient>
			<path fill="url(#SVGID_18_)" d="M4032.602,2022.687c-42.642,61.558-155.414,54.081-220.062,54.185
				c-88.942,0.142-178.412-6.016-267.132,2.725c-68.576,6.756-139.281,22.459-179.19,83.307
				c-15.733,23.989-29.327,51.953-53.01,69.229c-16.607,12.115-36.251,19.646-55.872,25.275
				c-60.875,17.464-126.406,19.008-189.269,20.88c-78.118,2.326-156.304,2.087-234.363,6.299
				c-164.809,8.893-362.797,34.438-452.623,192.312c-0.572,11.932-0.984,23.871-1.211,35.814
				c90.147-157.313,285.478-187.104,450.771-199.191c77.892-5.695,155.996-6.965,233.985-10.727
				c63.691-3.071,129.703-6.065,191.257-24.163c20.288-5.965,40.516-13.787,57.966-25.945
				c23.785-16.572,37.309-42.075,53.039-65.762c41.337-62.243,104.199-82.717,176.123-92.102
				c92.166-12.026,185.68-6.812,278.34-8.815c65.863-1.425,176.205,2.927,219.315-59.044
				C4037.459,2025.76,4035.848,2024.919,4032.602,2022.687z"/>
		</g>
		<g>
			<linearGradient id="SVGID_19_" gradientUnits="userSpaceOnUse" x1="2413.0718" y1="2353.6133" x2="4126.8496" y2="2353.6133">
				<stop  offset="0.043" style="stop-color:#003254"/>
				<stop  offset="0.2849" style="stop-color:#085078"/>
				<stop  offset="0.8978" style="stop-color:#85D8CE"/>
				<stop  offset="1" style="stop-color:#85D8CE"/>
			</linearGradient>
			<path fill="url(#SVGID_19_)" d="M2436.282,2754.477c93.108-158.027,272.23-222.481,440.81-266.624
				c144.848-37.929,301.649-57.165,437.143-123.972c24.806-12.23,48.792-26.51,70.139-44.18
				c28.177-23.323,47.922-53.352,69.521-82.516c46.008-62.124,116.382-94.655,188.59-116.858
				c87.382-26.869,178.196-39.863,267.149-60.216c75.354-17.241,170.635-39.239,217.217-107.361
				c-6.224,9.955-12.564,19.841-19.26,29.486c-46.445,67.444-145.472,84.391-220.045,98.088
				c-90.55,16.632-182.76,25.858-271.779,50.117c-73.342,19.986-141.604,50.822-187.07,113.849
				c-18.862,26.147-36.202,53.353-61.07,74.283c-20.381,17.153-43.69,30.581-67.763,41.821
				c-135.909,63.457-294.256,75.193-439.207,107.251c-169.99,37.595-354.084,95.527-447.583,254.565
				C2419.807,2733.862,2426.832,2744.794,2436.282,2754.477z"/>
		</g>
		<g>
			<linearGradient id="SVGID_20_" gradientUnits="userSpaceOnUse" x1="2379.8921" y1="2312.834" x2="4062.7773" y2="2312.834">
				<stop  offset="0" style="stop-color:#085078"/>
				<stop  offset="0.1882" style="stop-color:#085078"/>
				<stop  offset="0.5968" style="stop-color:#85D8CE"/>
				<stop  offset="1" style="stop-color:#85D8CE"/>
			</linearGradient>
			<path fill="url(#SVGID_20_)" d="M2379.892,2552.21c0.329,15.688,1.096,31.372,2.439,47.007
				c92.715-159.421,286.999-198.623,456.284-219c80.268-9.662,160.969-14.896,241.348-23.451
				c63.316-6.74,128.595-14.21,188.789-36.1c22.857-8.313,45.365-18.987,64.266-34.517c24.719-20.311,39.811-49.755,58.11-75.464
				c41.765-58.675,113.816-79.15,181.695-90.398c90.461-14.989,182.62-14.671,273.837-21.77
				c68.482-5.329,172.207-9.18,216.117-72.065c-4.98,1.985-7.488,2.522-12.552,2.4c-43.312,62.094-149.989,61.576-216.808,64.682
				c-91.797,4.267-184.417,1.21-275.621,14.172c-68.246,9.699-138.495,28.903-179.001,88.756
				c-16.802,24.826-31.469,53.07-55.56,71.738c-18.865,14.618-41.349,24.093-63.936,31.292
				c-60.992,19.439-126.56,24.348-190.035,28.965c-81.231,5.909-162.666,8.886-243.752,16.77
				C2660.568,2361.264,2469.848,2396.342,2379.892,2552.21z"/>
		</g>
		<g>
			<linearGradient id="SVGID_21_" gradientUnits="userSpaceOnUse" x1="2385.2002" y1="2340.9453" x2="4086.5674" y2="2340.9453">
				<stop  offset="0.1505" style="stop-color:#037E84"/>
				<stop  offset="0.4032" style="stop-color:#085078"/>
				<stop  offset="0.7796" style="stop-color:#85D8CE"/>
				<stop  offset="0.8123" style="stop-color:#8EDBD4"/>
				<stop  offset="0.8666" style="stop-color:#A8E3E5"/>
				<stop  offset="0.9247" style="stop-color:#CAEEFC"/>
			</linearGradient>
			<path fill="url(#SVGID_21_)" d="M2394.436,2673.132c92.338-157.555,278.195-207.893,446.678-237.757
				c79.093-14.02,158.851-23.717,238.159-36.363c67.436-10.754,136.515-22.512,200.057-48.461
				c23.921-9.77,47.276-21.773,67.517-37.986c24.707-19.791,41.029-46.561,59.086-72.156
				c45.219-64.099,114.004-91.764,188.617-108.403c87.615-19.539,177.663-24.58,266.481-36.172
				c73.827-9.636,178.886-19.947,225.537-87.074c-6.365,6.706-9.571,9.568-16.047,13.679c-46.4,66.553-156.179,71.262-228.677,77.77
				c-90.103,8.088-181.371,9.745-270.371,27.249c-69.836,13.734-136.546,38.001-178.396,98.405
				c-17.581,25.375-33.26,52.85-57.8,72.234c-19.701,15.563-42.746,26.513-66.183,35.179
				c-60.684,22.438-126.241,31.212-190.117,39.116c-80.073,9.908-160.513,16.63-240.443,27.736
				c-169.17,23.507-360.673,66.514-453.333,225.329C2387.559,2641.51,2390.296,2657.427,2394.436,2673.132z"/>
		</g>
		<g>
			<linearGradient id="SVGID_22_" gradientUnits="userSpaceOnUse" x1="2436.2822" y1="2352.3809" x2="4134.2139" y2="2352.3809">
				<stop  offset="0" style="stop-color:#085078"/>
				<stop  offset="0" style="stop-color:#085078"/>
				<stop  offset="0.5645" style="stop-color:#85D8CE"/>
				<stop  offset="1" style="stop-color:#85D8CE"/>
			</linearGradient>
			<path fill="url(#SVGID_22_)" d="M2446.601,2763.806c93.1-157.821,270.813-224.394,438.976-270.825
				c144.752-39.968,301.205-61.814,436.352-130.213c25.003-12.654,49.162-27.327,70.734-45.292
				c28.34-23.602,48.456-53.665,70.359-83.002c46.413-62.165,116.676-95.647,188.949-118.897
				c86.841-27.937,177.237-42.272,265.682-63.949c75.687-18.551,169.819-42.23,216.562-110.672
				c-2.942,4.72-4.415,7.092-7.364,11.795c-46.582,68.122-141.863,90.12-217.217,107.361
				c-88.953,20.353-179.768,33.347-267.149,60.216c-72.208,22.203-142.582,54.734-188.59,116.858
				c-21.599,29.164-41.344,59.192-69.521,82.516c-21.347,17.67-45.333,31.949-70.139,44.18
				c-135.493,66.807-292.295,86.043-437.143,123.972c-168.579,44.143-347.701,108.597-440.81,266.624
				C2440.261,2758.535,2442.326,2760.396,2446.601,2763.806z"/>
		</g>
		<g>
			<linearGradient id="SVGID_23_" gradientUnits="userSpaceOnUse" x1="2498.8076" y1="2335.9551" x2="4174.6533" y2="2335.9551">
				<stop  offset="0" style="stop-color:#085078"/>
				<stop  offset="0" style="stop-color:#085078"/>
				<stop  offset="0.7903" style="stop-color:#85D8CE"/>
				<stop  offset="1" style="stop-color:#85D8CE"/>
			</linearGradient>
			<path fill="url(#SVGID_23_)" d="M2515.419,2789.188c92.384-154.589,262.085-229.172,425.688-285.307
				c143.076-49.092,296.138-82.754,429.153-156.976c61.746-34.454,104.25-78.297,147.617-133.366
				c48.325-61.366,117.784-98.486,189.49-126.232c83.534-32.323,170.938-52.846,256.059-80.336
				c75.836-24.491,164.17-55.349,211.228-124.248c-3.543,4.002-5.312,6.189-8.844,10.81
				c-46.714,68.573-135.529,98.211-211.06,121.555c-85.448,26.409-173.121,45.696-257.083,76.849
				c-71.119,26.387-141.433,62.084-189.481,122.543c-23.563,29.647-44.682,60.4-73.572,85.246
				c-22.017,18.935-46.395,34.989-71.7,49.16c-131.556,73.67-284.177,105.236-426.371,151.71
				c-167.722,54.817-343.518,128.005-437.734,286.403C2505.287,2788.212,2508.614,2788.64,2515.419,2789.188z"/>
		</g>
		<g>
			<linearGradient id="SVGID_24_" gradientUnits="userSpaceOnUse" x1="2515.4189" y1="2329.8613" x2="4187.9824" y2="2329.8613">
				<stop  offset="0.3011" style="stop-color:#037E84"/>
				<stop  offset="0.5591" style="stop-color:#085078"/>
				<stop  offset="0.828" style="stop-color:#85D8CE"/>
				<stop  offset="1" style="stop-color:#85D8CE"/>
			</linearGradient>
			<path fill="url(#SVGID_24_)" d="M2541.791,2789.535c91.979-152.557,259.001-228.328,420.346-286.307
				c142.145-51.078,293.663-87.506,425.924-162.439c61.571-34.884,105.266-78.729,149.323-133.414
				c48.865-60.653,118.01-98.283,189.22-126.958c82.348-33.159,168.563-55.118,252.433-83.883
				c75.369-25.85,161.865-58.202,208.946-126.682c-5.352,4.214-8.015,6.866-13.329,12.87
				c-47.058,68.899-135.392,99.757-211.228,124.248c-85.121,27.49-172.524,48.013-256.059,80.336
				c-71.706,27.746-141.165,64.866-189.49,126.232c-43.367,55.069-85.871,98.912-147.617,133.366
				c-133.016,74.222-286.077,107.884-429.153,156.976c-163.603,56.135-333.304,130.718-425.688,285.307
				C2525.626,2790.009,2530.913,2790.046,2541.791,2789.535z"/>
		</g>
		<g>
			<linearGradient id="SVGID_25_" gradientUnits="userSpaceOnUse" x1="2474.2549" y1="2340.2656" x2="4165.8096" y2="2340.2656">
				<stop  offset="0.0215" style="stop-color:#037E84"/>
				<stop  offset="0.2742" style="stop-color:#085078"/>
				<stop  offset="0.6559" style="stop-color:#85D8CE"/>
				<stop  offset="0.7334" style="stop-color:#8EDBD4"/>
				<stop  offset="0.8622" style="stop-color:#A8E3E5"/>
				<stop  offset="1" style="stop-color:#CAEEFC"/>
			</linearGradient>
			<path fill="url(#SVGID_25_)" d="M2498.808,2786.998c94.217-158.398,270.013-231.586,437.734-286.403
				c142.194-46.474,294.815-78.04,426.371-151.71c25.306-14.171,49.684-30.226,71.7-49.16c28.891-24.846,50.01-55.599,73.572-85.246
				c48.049-60.459,118.362-96.156,189.481-122.543c83.962-31.152,171.635-50.439,257.083-76.849
				c75.53-23.344,164.346-52.981,211.06-121.555c-5.593,7.314-8.381,11.36-13.962,19.762
				c-46.629,68.495-137.412,95.815-212.995,117.189c-86.633,24.499-175.381,41.739-260.501,71.471
				c-71.316,24.909-142.025,59.396-189.44,120.156c-23.107,29.611-43.638,60.548-72.308,85.209
				c-21.639,18.612-45.764,34.181-70.802,47.795c-132.243,71.905-286.131,99.552-428.909,143.024
				c-169.448,51.593-348.122,122.086-442.638,281.774C2483.625,2783.699,2488.549,2785.076,2498.808,2786.998z"/>
		</g>
		<g>
			<linearGradient id="SVGID_26_" gradientUnits="userSpaceOnUse" x1="2464.6016" y1="2346.6035" x2="4151.8477" y2="2346.6035">
				<stop  offset="0" style="stop-color:#085078"/>
				<stop  offset="0" style="stop-color:#085078"/>
				<stop  offset="0.2957" style="stop-color:#85D8CE"/>
				<stop  offset="1" style="stop-color:#85D8CE"/>
			</linearGradient>
			<path fill="url(#SVGID_26_)" d="M2474.255,2779.913c94.516-159.688,273.19-230.182,442.638-281.774
				c142.778-43.473,296.666-71.119,428.909-143.024c25.038-13.614,49.163-29.183,70.802-47.795
				c28.67-24.661,49.2-55.598,72.308-85.209c47.415-60.76,118.124-95.247,189.44-120.156
				c85.12-29.731,173.868-46.972,260.501-71.471c75.583-21.374,166.366-48.694,212.995-117.189c-2.35,3.538-3.525,5.344-5.875,9.003
				c-46.586,68.377-138.186,94.585-213.71,115.051c-87.104,23.604-176.262,39.907-261.856,68.935
				c-71.345,24.194-142.217,58.09-189.343,118.903c-22.902,29.554-43.171,60.526-71.736,85.063
				c-21.469,18.44-45.475,33.77-70.386,47.107c-132.529,70.962-286.859,96.829-429.822,138.874
				c-170.045,50.01-349.908,119.184-444.518,279.251C2468.378,2777.435,2470.31,2778.319,2474.255,2779.913z"/>
		</g>
		<g>
			<linearGradient id="SVGID_27_" gradientUnits="userSpaceOnUse" x1="2446.6006" y1="2348.8887" x2="4145.9727" y2="2348.8887">
				<stop  offset="0" style="stop-color:#085078"/>
				<stop  offset="0.1935" style="stop-color:#085078"/>
				<stop  offset="1" style="stop-color:#85D8CE"/>
				<stop  offset="1" style="stop-color:#85D8CE"/>
			</linearGradient>
			<path fill="url(#SVGID_27_)" d="M2464.602,2775.48c94.609-160.067,274.473-229.241,444.518-279.251
				c142.963-42.045,297.293-67.912,429.822-138.874c24.911-13.338,48.917-28.667,70.386-47.107
				c28.565-24.536,48.834-55.509,71.736-85.063c47.126-60.813,117.998-94.709,189.343-118.903
				c85.595-29.027,174.753-45.331,261.856-68.935c75.524-20.466,167.124-46.674,213.71-115.051
				c-4.699,7.318-7.051,11.107-11.759,18.658c-46.742,68.441-140.875,92.121-216.562,110.672
				c-88.444,21.677-178.841,36.013-265.682,63.949c-72.273,23.25-142.536,56.732-188.949,118.897
				c-21.903,29.337-42.02,59.4-70.359,83.002c-21.572,17.965-45.731,32.638-70.734,45.292
				c-135.146,68.398-291.6,90.245-436.352,130.213c-168.162,46.432-345.876,113.004-438.976,270.825
				C2453.439,2769.261,2457.049,2771.572,2464.602,2775.48z"/>
		</g>
	</g>
</g>
<g>
	<path fill="#FFFFFF" d="M2251.3,2129.426c867.007-877.771,981.782-252.242,961.711-328.479
		c-70.567-355.813-820.221-1438.627-1074.975-1594.57c-36.019,235.293,131.567,590.757,194.709,932.112
		c70.558,381.451,76.505,747.502-13.229,953.578L2251.3,2129.426z"/>
	<path fill="#D3D3D3" d="M2391.569,554.787c101.81,173.4,509.161,835.758,488.143,1022.896
		c5.02-169.765-84.926-369.934-171.405-543.266L2391.569,554.787z"/>
</g>
<g>
	<g>
		
			<linearGradient id="SVGID_28_" gradientUnits="userSpaceOnUse" x1="5514.1992" y1="4684.001" x2="5541.0498" y2="4684.001" gradientTransform="matrix(-1.2024 -1.3815 -0.6501 0.5658 12978.8252 6424.0474)">
			<stop  offset="0.5" style="stop-color:#FF8D4D"/>
			<stop  offset="0.5054" style="stop-color:#E57138"/>
		</linearGradient>
		<path fill="url(#SVGID_28_)" d="M3271.195,1419.294c50.726-44.149,99.074-71.634,107.99-61.39
			c8.914,10.244-24.979,54.338-75.705,98.485c-50.726,44.15-99.074,71.636-107.99,61.391
			C3186.575,1507.538,3220.469,1463.442,3271.195,1419.294z"/>
		<path d="M3275.193,1318.584c0,39.216-16.563,141.484-40.34,172.172c-25.942,33.483-116.551,55.403-157.517,55.403
			c-44.729,0-343.935-60.386-208.092-65.792c70.629-2.813,161.884-66.764,110.769-58.424c-16.031,2.615-78.587,15.106-21.229-10.166
			c57.357-25.273,46.302-69.629,46.302-81.256c0-82.002,47.853-144.623,126.365-144.623
			C3209.966,1185.901,3275.193,1236.581,3275.193,1318.584z"/>
		
			<linearGradient id="SVGID_29_" gradientUnits="userSpaceOnUse" x1="773.5" y1="3484" x2="812.5" y2="3484" gradientTransform="matrix(1 0 0 -1 2354 4945)">
			<stop  offset="0.4462" style="stop-color:#E57138"/>
			<stop  offset="0.672" style="stop-color:#FF8D4D"/>
		</linearGradient>
		
			<linearGradient id="SVGID_30_" gradientUnits="userSpaceOnUse" x1="773" y1="3484" x2="813" y2="3484" gradientTransform="matrix(1 0 0 -1 2354 4945)">
			<stop  offset="0.8226" style="stop-color:#FF8D4D"/>
			<stop  offset="0.9624" style="stop-color:#E57138"/>
		</linearGradient>
		<rect x="3127.5" y="1412.5" fill="url(#SVGID_29_)" stroke="url(#SVGID_30_)" stroke-miterlimit="10" width="39" height="97"/>
		
			<linearGradient id="SVGID_31_" gradientUnits="userSpaceOnUse" x1="3584.4111" y1="7297.6426" x2="3611.2637" y2="7297.6426" gradientTransform="matrix(0.8892 -1.2893 -0.5836 -0.4025 4358.4888 8886.8242)">
			<stop  offset="0.4462" style="stop-color:#E57138"/>
			<stop  offset="0.672" style="stop-color:#FF8D4D"/>
		</linearGradient>
		
			<linearGradient id="SVGID_32_" gradientUnits="userSpaceOnUse" x1="861.0229" y1="3634.2617" x2="1028.667" y2="3634.2617" gradientTransform="matrix(1 0 0 -1 2354 4945)">
			<stop  offset="0.8226" style="stop-color:#FF8D4D"/>
			<stop  offset="0.9624" style="stop-color:#E57138"/>
		</linearGradient>
		<path fill="url(#SVGID_31_)" stroke="url(#SVGID_32_)" stroke-miterlimit="10" d="M3310.784,1293.427
			c45.537,31.405,77.104,64.615,70.513,74.175c-6.594,9.561-48.854-8.147-94.391-39.554c-45.537-31.405-77.105-64.614-70.513-74.175
			C3222.987,1244.313,3265.248,1262.021,3310.784,1293.427z"/>
		
			<linearGradient id="SVGID_33_" gradientUnits="userSpaceOnUse" x1="961.3374" y1="4324.3496" x2="1129.5825" y2="4324.3496" gradientTransform="matrix(0.9707 -0.2402 -0.2402 -0.9707 3175.9182 5791.4775)">
			<stop  offset="0.4462" style="stop-color:#E57138"/>
			<stop  offset="0.672" style="stop-color:#FF8D4D"/>
		</linearGradient>
		
			<linearGradient id="SVGID_34_" gradientUnits="userSpaceOnUse" x1="729.5674" y1="3553.3613" x2="882.4716" y2="3641.6406" gradientTransform="matrix(1 0 0 -1 2354 4945)">
			<stop  offset="0.8226" style="stop-color:#FF8D4D"/>
			<stop  offset="0.9624" style="stop-color:#E57138"/>
		</linearGradient>
		<path fill="url(#SVGID_33_)" stroke="url(#SVGID_34_)" stroke-miterlimit="10" d="M3232.857,1319.121
			c11.543,46.64-26.717,109.031-26.717,109.031s-123.171-14.356-134.712-60.996c-5.771-23.32,28.42-39.973,38.283-65.658
			c9.86-25.688,27.019-53.83,50.338-59.601C3206.689,1230.355,3221.318,1272.48,3232.857,1319.121z"/>
		
			<linearGradient id="SVGID_35_" gradientUnits="userSpaceOnUse" x1="820.7627" y1="3477.835" x2="969.1748" y2="3477.835" gradientTransform="matrix(1 0 0 -1 2354 4945)">
			<stop  offset="0.4086" style="stop-color:#069CC4"/>
			<stop  offset="0.8656" style="stop-color:#71D1D3"/>
		</linearGradient>
		<path fill="url(#SVGID_35_)" d="M3322.682,1432.12c2.055,2.399-2.496,9.668-10.193,16.264l-91.803,78.646
			c-7.699,6.595-15.605,9.998-17.66,7.599l-27.771-32.415c-2.054-2.397,2.521-9.689,10.221-16.286l91.803-78.644
			c7.697-6.598,15.58-9.978,17.636-7.578L3322.682,1432.12z"/>
		<path fill="#050207" d="M2987.033,1378.595"/>
		
			<linearGradient id="SVGID_36_" gradientUnits="userSpaceOnUse" x1="2441.0776" y1="439.3809" x2="2463.8516" y2="439.3809" gradientTransform="matrix(1.0566 1.496 0.704 -0.4972 113.8892 -1876.0439)">
			<stop  offset="0.5" style="stop-color:#FF8D4D"/>
			<stop  offset="0.5054" style="stop-color:#E57138"/>
		</linearGradient>
		<path fill="url(#SVGID_36_)" d="M3026.188,1591.48c-45.5,33.155-87.646,52.35-94.138,42.867
			c-6.489-9.479,25.136-44.042,70.636-77.197c45.5-33.157,87.648-52.351,94.139-42.87
			C3103.313,1523.759,3071.689,1558.324,3026.188,1591.48z"/>
		
			<linearGradient id="SVGID_37_" gradientUnits="userSpaceOnUse" x1="3641.5957" y1="7853.5625" x2="3668.4463" y2="7853.5625" gradientTransform="matrix(0.6331 -1.4326 -0.5395 -0.2384 4930.6602 8767.6436)">
			<stop  offset="0.4462" style="stop-color:#E57138"/>
			<stop  offset="0.672" style="stop-color:#FF8D4D"/>
		</linearGradient>
		
			<linearGradient id="SVGID_38_" gradientUnits="userSpaceOnUse" x1="576.4194" y1="3285.7344" x2="730.813" y2="3285.7344" gradientTransform="matrix(1 0 0 -1 2354 4945)">
			<stop  offset="0.8226" style="stop-color:#FF8D4D"/>
			<stop  offset="0.9624" style="stop-color:#E57138"/>
		</linearGradient>
		<path fill="url(#SVGID_37_)" stroke="url(#SVGID_38_)" stroke-miterlimit="10" d="M3016.115,1640.032
			c42.094,18.602,72.412,42.292,67.719,52.914c-4.694,10.622-42.623,4.155-84.717-14.446
			c-42.094-18.601-72.412-42.291-67.719-52.913C2936.094,1614.964,2974.021,1621.432,3016.115,1640.032z"/>
		
			<linearGradient id="SVGID_39_" gradientUnits="userSpaceOnUse" x1="3940.2393" y1="6317.1348" x2="3994.8145" y2="6317.1348" gradientTransform="matrix(0.5943 -1.6793 -0.7357 -0.2604 5519.9019 10008.0146)">
			<stop  offset="0.5" style="stop-color:#000000"/>
			<stop  offset="0.6022" style="stop-color:#0C080D"/>
		</linearGradient>
		<path fill="url(#SVGID_39_)" d="M3246.504,1654.541c57.403,20.314,100.364,46.88,95.957,59.331
			c-4.405,12.452-118.115,35.952-175.518,15.636c-57.403-20.313-36.763-76.753-32.355-89.205
			C3138.995,1627.852,3189.102,1634.225,3246.504,1654.541z"/>
		
			<linearGradient id="SVGID_40_" gradientUnits="userSpaceOnUse" x1="1811.5654" y1="2313.625" x2="1857.2393" y2="2313.625" gradientTransform="matrix(1.4746 0.5278 0.263 -0.7348 -37.738 2563.4111)">
			<stop  offset="0.5" style="stop-color:#000000"/>
			<stop  offset="0.6022" style="stop-color:#0C080D"/>
		</linearGradient>
		<path fill="url(#SVGID_40_)" d="M3319.494,1815.493c-20.521,57.33-72.692,154.521-83.627,150.608
			c-10.934-3.913,9.808-156.639,30.326-213.968c20.521-57.331,59.722-51.446,70.654-47.532
			C3347.783,1708.516,3340.012,1758.163,3319.494,1815.493z"/>
		
			<linearGradient id="SVGID_41_" gradientUnits="userSpaceOnUse" x1="698.3086" y1="3195" x2="798.0513" y2="3195" gradientTransform="matrix(1 0 0 -1 2354 4945)">
			<stop  offset="0.5" style="stop-color:#000000"/>
			<stop  offset="0.6022" style="stop-color:#0C080D"/>
		</linearGradient>
		<path fill="url(#SVGID_41_)" d="M3151.182,1751.702c-3.663,60.781-17.836,109.378-31.654,108.546
			c-13.817-0.832-70.713-103.795-67.05-164.575c3.661-60.78,66.493-56.366,80.313-55.534
			C3146.607,1640.972,3154.843,1690.92,3151.182,1751.702z"/>
		
			<linearGradient id="SVGID_42_" gradientUnits="userSpaceOnUse" x1="1860.5771" y1="3534.7227" x2="1906.2471" y2="3534.7227" gradientTransform="matrix(1.565 0.0625 0.0311 -0.7798 47.3471 4595.6587)">
			<stop  offset="0.5" style="stop-color:#000000"/>
			<stop  offset="0.6022" style="stop-color:#0C080D"/>
		</linearGradient>
		<path fill="url(#SVGID_42_)" d="M3141.638,1928.578c-2.43,60.844-23.134,169.191-34.737,168.73
			c-11.604-0.463-37.504-152.398-35.075-213.241c2.428-60.843,41.594-66.958,53.196-66.493
			C3136.627,1818.037,3144.064,1867.735,3141.638,1928.578z"/>
		
			<linearGradient id="SVGID_43_" gradientUnits="userSpaceOnUse" x1="717.0273" y1="3368.5" x2="856.4629" y2="3368.5" gradientTransform="matrix(1 0 0 -1 2354 4945)">
			<stop  offset="0.4086" style="stop-color:#069CC4"/>
			<stop  offset="0.8656" style="stop-color:#71D1D3"/>
		</linearGradient>
		<path fill="url(#SVGID_43_)" d="M3210.463,1641.349c0,9.622-7.28,17.651-16.223,17.651h-106.62
			c-8.941,0-16.593-8.029-16.593-17.651l31.151-39.69l-31.151-90.539c0-9.624,7.65-17.119,16.593-17.119h106.62
			c8.941,0,16.223,7.506,16.223,17.13l-16.396,87.897L3210.463,1641.349z"/>
		
			<linearGradient id="SVGID_44_" gradientUnits="userSpaceOnUse" x1="637.499" y1="3395.7012" x2="765.4482" y2="3395.7012" gradientTransform="matrix(1 0 0 -1 2354 4945)">
			<stop  offset="0.4086" style="stop-color:#069CC4"/>
			<stop  offset="0.8656" style="stop-color:#71D1D3"/>
		</linearGradient>
		<path fill="url(#SVGID_44_)" d="M2991.792,1572.729c-1.493-2.216,2.866-8.005,9.764-12.947l82.239-58.938
			c6.896-4.942,13.699-7.152,15.191-4.936l20.17,29.959c1.493,2.218-2.888,8.021-9.785,12.965l-82.239,58.938
			c-6.896,4.942-13.676,7.137-15.169,4.919L2991.792,1572.729z"/>
	</g>
	
		<linearGradient id="SVGID_45_" gradientUnits="userSpaceOnUse" x1="842.8584" y1="3607.1963" x2="893.8594" y2="3607.1963" gradientTransform="matrix(1 0 0 -1 2354 4945)">
		<stop  offset="0.8226" style="stop-color:#FF8D4D"/>
		<stop  offset="0.9624" style="stop-color:#E57138"/>
	</linearGradient>
	<path fill="#FF8D4D" stroke="url(#SVGID_45_)" stroke-miterlimit="10" d="M3215.872,1319.205c10.481-0.268,20.354,9.719,29.61,8.2
		c9.255-1.521-18.18,28.729-28.663,28.995c-10.483,0.269-19.194-7.843-19.455-18.114
		C3197.102,1328.014,3205.388,1319.473,3215.872,1319.205z"/>
	<path d="M3179.548,1193.804c26.634,30.582,5.143,92.892-48.003,139.174c-53.145,46.283-117.815,59.012-144.449,28.432"/>
	<g>
		<path fill="#42210B" d="M3201.596,1306.692c-13.565-8.292,5.533,19.615-10.44,24.034c-15.976,4.42-44.974-7.693-33.263-7.682
			c11.709,0.012,8.609-19.265,24.584-23.684C3198.452,1294.942,3215.163,1314.984,3201.596,1306.692z"/>
		<path fill="#FFFFFF" d="M3181.467,1303.561c9.543-3.75,17.869-0.481,20.878,7.178c3.011,7.659-0.438,16.81-9.98,20.559
			s-22.729-7.08-22.729-7.08S3171.924,1307.309,3181.467,1303.561z"/>
		
			<ellipse transform="matrix(-0.081 -0.9967 0.9967 -0.081 2141.0801 4606.3242)" fill="#29ABE2" cx="3194.067" cy="1316.119" rx="12.251" ry="9.762"/>
		
			<ellipse transform="matrix(-0.081 -0.9967 0.9967 -0.081 2144.6858 4609.2266)" fill="#42210B" cx="3197.207" cy="1315.908" rx="8.25" ry="6.573"/>
		
			<ellipse transform="matrix(-0.081 -0.9967 0.9967 -0.081 2141.5701 4599.1812)" fill="#FFFFFF" cx="3190.999" cy="1312.331" rx="4.224" ry="3.366"/>
	</g>
	<path d="M3231.673,1370.734c-2.448,9.917-6.48,25.866-21.43,22.176c-14.949-3.691-28.737-35.451-28.737-35.451
		s22.657-4.152,37.604-0.46C3234.061,1360.689,3234.122,1360.818,3231.673,1370.734z"/>
	<path fill="#9E040F" d="M3231.042,1370.733c-2.448,9.917-6.481,25.868-21.43,22.177s-28.737-35.451-28.737-35.451
		s22.656-4.152,37.605-0.46C3233.428,1360.689,3233.491,1360.818,3231.042,1370.733z"/>
	<path fill="#FFFFFF" d="M3193.577,1365.921c0,0,15.516-2.843,25.752-0.314c10.235,2.527,10.278,2.614,8.602,9.404"/>
	<path d="M3194.165,1366.68c0,0,15.771-0.317,25.47,3.819c9.698,4.136,9.728,4.229,6.982,10.663"/>
	<path d="M3193.816,1366.711c0,0,11.395,10.908,21.334,14.427c9.938,3.52,10.021,3.472,12.354-3.123"/>
</g>
<g>
	
		<linearGradient id="SVGID_46_" gradientUnits="userSpaceOnUse" x1="-2223.3252" y1="-969.0762" x2="-1451.4048" y2="-523.4076" gradientTransform="matrix(1 0 0 1 4708 2890)">
		<stop  offset="0.8011" style="stop-color:#AA3805"/>
		<stop  offset="0.8011" style="stop-color:#8C2A03"/>
	</linearGradient>
	<path fill="url(#SVGID_46_)" d="M3219.676,2362.303c133.981-109.009,260.95-340.729,131.606-530.751
		c-344.651-39.198-762.286,411.763-1075.749,451.617c22.599,88.022,74.603,134.646,126.39,179.687
		C2743.051,2510.799,2850.696,2254.971,3219.676,2362.303L3219.676,2362.303z"/>
	<path fill="#FFFFFF" d="M3318.309,1875.436c-174.116,92.498-839.974,463.895-1022.418,435.49
		c166.094,12.002,365.939-67.75,539.346-145.233L3318.309,1875.436z"/>
	<path fill="#FCFAFA" d="M3266.018,1989.732c-161.103,85.58-777.18,429.217-945.987,402.938
		c153.678,11.104,338.584-62.686,499.028-134.38L3266.018,1989.732z"/>
</g>
<path fill="#FFFFFF" d="M3450.861,1167.592"/>
<g opacity="0.9">
	<g>
		<g>
			<linearGradient id="SVGID_47_" gradientUnits="userSpaceOnUse" x1="1170.3394" y1="2690.3652" x2="3378.0752" y2="2690.3652">
				<stop  offset="0" style="stop-color:#037E84"/>
				<stop  offset="0.543" style="stop-color:#085078"/>
				<stop  offset="1" style="stop-color:#85D8CE"/>
				<stop  offset="1" style="stop-color:#85D8CE"/>
			</linearGradient>
			<path fill="url(#SVGID_47_)" d="M3285.392,2804.109c-148.343-115.817-345.337-125.919-526.136-121.278
				c-170.588,4.379-341.169,25.905-511.956,18.356c-79.86-3.53-153.953-16.489-229.591-42.117
				c-81.755-27.7-171.137-30.312-256.644-27.925c-95.77,2.673-191.032,13.775-286.711,18.08
				c-90.032,4.051-191.125,5.805-272.512-38.891c-13.479-7.951-25.149-19.228-31.503-33.715
				c84.963,47.93,191.373,45.736,285.765,40.949c100.331-5.088,200.169-17.558,300.62-20.681
				c92.301-2.869,189.315,0.412,276.535,33.853c77.067,29.548,151.434,46.816,233.988,52.239
				c180.089,11.83,360.606-12.245,540.488-17.951c196.036-6.219,408.813,3.696,570.34,128.447
				C3347.156,2796.83,3316.25,2800.232,3285.392,2804.109z"/>
		</g>
		<g>
			<linearGradient id="SVGID_48_" gradientUnits="userSpaceOnUse" x1="1214.6563" y1="2716.5391" x2="3259.6797" y2="2716.5391">
				<stop  offset="0" style="stop-color:#085078"/>
				<stop  offset="0.4086" style="stop-color:#037E84"/>
				<stop  offset="1" style="stop-color:#85D8CE"/>
				<stop  offset="1" style="stop-color:#85D8CE"/>
			</linearGradient>
			<path fill="url(#SVGID_48_)" d="M3207.622,2816.067c-135.009-109.098-317.037-121.031-483.786-118.911
				c-164.662,2.094-329.164,21.317-493.926,14.823c-73.899-2.913-143.824-13.101-214.592-34.54
				c-79.976-24.229-165.99-26.256-248.91-24.141c-91.421,2.332-182.494,11.8-273.911,14.115
				c-82.218,2.082-173.295,1.037-247.284-39.687c-10.435-3.083-20.612-6.247-30.558-10.717
				c77.998,42.741,174.322,42.356,260.738,39.112c95.91-3.601,191.397-14.556,287.362-17.169
				c86.748-2.362,175.449,1.151,258.534,28.304c72.651,23.743,144.828,34.688,221.192,37.807
				c168.027,6.864,335.791-13.797,503.644-17.586c176.558-3.985,369.149,6.38,513.554,120.111
				C3242.274,2810.143,3224.934,2812.937,3207.622,2816.067z"/>
		</g>
		<g>
			<linearGradient id="SVGID_49_" gradientUnits="userSpaceOnUse" x1="1165.0566" y1="2660.3662" x2="3464.3262" y2="2660.3662">
				<stop  offset="0.1398" style="stop-color:#037E84"/>
				<stop  offset="0.3333" style="stop-color:#085078"/>
				<stop  offset="0.8871" style="stop-color:#85D8CE"/>
				<stop  offset="1" style="stop-color:#85D8CE"/>
			</linearGradient>
			<path fill="url(#SVGID_49_)" d="M3378.075,2793.477c-161.526-124.751-374.304-134.666-570.34-128.447
				c-179.882,5.706-360.399,29.781-540.488,17.951c-82.555-5.423-156.921-22.691-233.988-52.239
				c-87.22-33.44-184.234-36.722-276.535-33.853c-100.45,3.123-200.289,15.593-300.62,20.681
				c-94.392,4.787-200.801,6.98-285.765-40.949c-6.962-16.164-5.862-32.396-3.369-49.364c12.611,7.53,25.879,13.887,39.543,19.261
				c92.95,36.556,199.689,30.277,297.334,23.704c103.991-7,207.8-19.447,312.165-19.036c95.031,0.375,184.21,14.356,271.513,52.44
				c75.787,33.061,153,49.218,235.414,55.17c183.664,13.266,368.01-11.009,551.566-15.65
				c204.193-5.164,423.001,9.174,589.82,140.332C3435.612,2787.138,3406.852,2790.348,3378.075,2793.477z"/>
		</g>
		<g>
			<linearGradient id="SVGID_50_" gradientUnits="userSpaceOnUse" x1="1201.8428" y1="2708.9629" x2="3285.3916" y2="2708.9629">
				<stop  offset="0" style="stop-color:#085078"/>
				<stop  offset="0.0806" style="stop-color:#085078"/>
				<stop  offset="0.5699" style="stop-color:#85D8CE"/>
				<stop  offset="1" style="stop-color:#85D8CE"/>
			</linearGradient>
			<path fill="url(#SVGID_50_)" d="M3259.68,2807.59c-144.404-113.731-336.996-124.097-513.554-120.111
				c-167.854,3.789-335.617,24.45-503.644,17.586c-76.364-3.119-148.541-14.063-221.192-37.807
				c-83.085-27.152-171.786-30.666-258.534-28.304c-95.964,2.613-191.452,13.568-287.362,17.169
				c-86.416,3.244-182.74,3.629-260.738-39.112c-5.403-2.457-7.98-3.782-12.813-6.676c81.387,44.695,182.479,42.941,272.512,38.891
				c95.679-4.305,190.941-15.407,286.711-18.08c85.506-2.387,174.889,0.225,256.644,27.925
				c75.638,25.628,149.73,38.587,229.591,42.117c170.787,7.549,341.368-13.978,511.956-18.356
				c180.799-4.641,377.793,5.461,526.136,121.278C3275.042,2805.44,3269.893,2806.131,3259.68,2807.59z"/>
		</g>
		<g>
			<linearGradient id="SVGID_51_" gradientUnits="userSpaceOnUse" x1="1166.9707" y1="2639.0313" x2="3526.1924" y2="2639.0313">
				<stop  offset="0" style="stop-color:#003254"/>
				<stop  offset="0.7043" style="stop-color:#085078"/>
				<stop  offset="1" style="stop-color:#85D8CE"/>
				<stop  offset="1" style="stop-color:#85D8CE"/>
			</linearGradient>
			<path fill="url(#SVGID_51_)" d="M3464.326,2783.477c-166.819-131.158-385.627-145.496-589.82-140.332
				c-183.557,4.642-367.902,28.916-551.566,15.65c-82.414-5.952-159.627-22.109-235.414-55.17
				c-87.303-38.084-176.481-52.065-271.513-52.44c-104.365-0.411-208.174,12.036-312.165,19.036
				c-97.645,6.573-204.384,12.852-297.334-23.704c-13.664-5.374-26.932-11.73-39.543-19.261c2.213-11.504,6.036-23.134,13.028-32.67
				c28.454,17.73,60.289,29.291,92.875,36.721c99.971,22.792,206.004,12.521,307.101,4.136
				c102.257-8.481,205.041-19.396,307.775-14.099c47.515,2.45,95.117,8.476,141.025,21.28
				c44.167,12.319,84.291,33.264,125.686,52.508c69.594,32.354,150.153,42.769,225.986,47.696
				c184.003,11.958,368.435-12.491,552.33-16.35c206.688-4.336,425.928,13.727,593.415,147.707
				C3505.622,2777.679,3485.008,2780.719,3464.326,2783.477z"/>
		</g>
		<g>
			<linearGradient id="SVGID_52_" gradientUnits="userSpaceOnUse" x1="1179.999" y1="2627.1602" x2="3593.2061" y2="2627.1602">
				<stop  offset="0.1882" style="stop-color:#003254"/>
				<stop  offset="0.5376" style="stop-color:#085078"/>
				<stop  offset="0.9301" style="stop-color:#85D8CE"/>
				<stop  offset="1" style="stop-color:#85D8CE"/>
			</linearGradient>
			<path fill="url(#SVGID_52_)" d="M3526.192,2774.186c-167.487-133.98-386.728-152.043-593.415-147.707
				c-183.896,3.858-368.327,28.308-552.33,16.35c-75.833-4.928-156.393-15.342-225.986-47.696
				c-41.395-19.244-81.519-40.188-125.686-52.508c-45.908-12.805-93.511-18.83-141.025-21.28
				c-102.734-5.297-205.518,5.617-307.775,14.099c-101.097,8.385-207.13,18.656-307.101-4.136
				c-32.586-7.43-64.42-18.99-92.875-36.721c5.849-7.967,14.567-13.243,24.39-14.452c41.342,26.511,89.811,39.232,138.132,45.158
				c205.4,25.19,411.147-41.076,617.237-22.039c46.186,4.267,92.263,12.852,135.871,28.951
				c42.473,15.68,80.487,40.912,122.275,58.051c70.135,28.765,147.253,38.929,222.451,42.772
				c184.708,9.44,369.365-17.387,553.825-22.545c209.194-5.85,430.011,12.948,599.025,149.213
				C3571.02,2765.387,3548.727,2770.094,3526.192,2774.186z"/>
		</g>
		<g>
			<linearGradient id="SVGID_53_" gradientUnits="userSpaceOnUse" x1="1447.5488" y1="2878.0977" x2="2959.1963" y2="2878.0977">
				<stop  offset="0.086" style="stop-color:#08363D"/>
				<stop  offset="0.4032" style="stop-color:#085078"/>
				<stop  offset="0.8495" style="stop-color:#85D8CE"/>
				<stop  offset="1" style="stop-color:#85D8CE"/>
			</linearGradient>
			<path fill="url(#SVGID_53_)" d="M2953.716,3083.878c-80.89-94.301-208.335-136.92-325.526-164.458
				c-129.441-30.416-262.396-44.305-394.535-56.984c-136.327-13.081-273.096-23.352-408.661-43.251
				c-128.365-18.842-265.914-43.847-377.445-114.004c5.326-10.321,11.759-21.512,4.77-32.862
				c109.624,70.248,254.782,77.447,380.735,89.263c133.367,12.511,266.065,30.897,399.65,40.733
				c130.854,9.635,262.576,15.271,392.225,36.566c119.179,19.575,251.876,53.452,334.268,148.491
				C2951.158,3019.114,2951.102,3051.448,2953.716,3083.878z"/>
		</g>
		<g>
			<linearGradient id="SVGID_54_" gradientUnits="userSpaceOnUse" x1="1245.2144" y1="2735.3535" x2="3207.6221" y2="2735.3535">
				<stop  offset="0.0914" style="stop-color:#003254"/>
				<stop  offset="0.4677" style="stop-color:#085078"/>
				<stop  offset="0.7796" style="stop-color:#037E84"/>
				<stop  offset="1" style="stop-color:#85D8CE"/>
				<stop  offset="1" style="stop-color:#85D8CE"/>
			</linearGradient>
			<path fill="url(#SVGID_54_)" d="M3105.393,2842.98c-115.324-101.296-275.821-118.026-423.237-121.055
				c-151.107-3.104-302.124,10.086-453.222,4.967c-72.35-2.451-141.549-10.922-211.772-28.347
				c-74.494-18.484-153.276-20.12-229.631-19.427c-82.222,0.746-164.388,6.343-246.629,5.173
				c-73.934-1.052-154.48-5.905-220.164-43.444c-25.484-3.101-50.594-6.909-75.523-13.12
				c73.988,40.724,165.065,41.769,247.284,39.687c91.417-2.315,182.49-11.783,273.911-14.115
				c82.92-2.115,168.934-0.088,248.91,24.141c70.768,21.439,140.692,31.627,214.592,34.54
				c164.762,6.494,329.264-12.729,493.926-14.823c166.749-2.12,348.777,9.813,483.786,118.911
				C3172.852,2822.79,3138.793,2831.13,3105.393,2842.98z"/>
		</g>
		<g>
			<linearGradient id="SVGID_55_" gradientUnits="userSpaceOnUse" x1="1419.1953" y1="2820.8809" x2="2995.9541" y2="2820.8809">
				<stop  offset="0" style="stop-color:#085078"/>
				<stop  offset="0.3441" style="stop-color:#085078"/>
				<stop  offset="1" style="stop-color:#85D8CE"/>
				<stop  offset="1" style="stop-color:#85D8CE"/>
			</linearGradient>
			<path fill="url(#SVGID_55_)" d="M2959.196,2987.372c-82.392-95.039-215.089-128.916-334.268-148.491
				c-129.649-21.295-261.371-26.932-392.225-36.566c-133.585-9.836-266.283-28.223-399.65-40.733
				c-125.954-11.815-271.112-19.015-380.735-89.263c-7.815-10.941-20.993-14.244-33.124-17.93
				c57.344,35.678,127.015,47.494,193.104,54.542c72.647,7.747,145.825,9.064,218.756,12.402
				c135.415,6.198,267.534,33.585,402.77,40.585c134.28,6.951,269.131,4.828,403.063,17.895
				c127.905,12.478,265.886,38.828,359.066,134.608C2977.963,2935.981,2966.88,2960.571,2959.196,2987.372z"/>
		</g>
		<g>
			<linearGradient id="SVGID_56_" gradientUnits="userSpaceOnUse" x1="1204.3892" y1="2619.6992" x2="3616.873" y2="2619.6992">
				<stop  offset="0" style="stop-color:#085078"/>
				<stop  offset="0" style="stop-color:#085078"/>
				<stop  offset="0.7903" style="stop-color:#85D8CE"/>
				<stop  offset="1" style="stop-color:#85D8CE"/>
			</linearGradient>
			<path fill="url(#SVGID_56_)" d="M3593.206,2759.695c-169.015-136.265-389.831-155.063-599.025-149.213
				c-184.46,5.158-369.117,31.985-553.825,22.545c-75.198-3.844-152.316-14.008-222.451-42.772
				c-41.788-17.139-79.803-42.371-122.275-58.051c-43.608-16.1-89.686-24.685-135.871-28.951
				c-206.089-19.037-411.836,47.229-617.237,22.039c-48.321-5.926-96.79-18.647-138.132-45.158c4.342-0.565,6.63-0.559,11.398-0.069
				c44.61,28.784,97.545,41.16,149.818,46.172c206.316,19.779,411.336-47.842,618.082-26.656
				c45.829,4.696,91.484,13.921,134.421,30.926c41.753,16.536,79.23,42.227,120.877,58.926
				c70.23,28.161,146.618,38.141,221.751,41.502c185.047,8.279,369.832-19.966,554.545-26.209
				c210.064-7.101,431.817,11.145,601.593,148.071C3607.619,2755.736,3602.879,2757.109,3593.206,2759.695z"/>
		</g>
		<g>
			<linearGradient id="SVGID_57_" gradientUnits="userSpaceOnUse" x1="1402.291" y1="2782.623" x2="3013.8398" y2="2782.623">
				<stop  offset="0" style="stop-color:#085078"/>
				<stop  offset="0.2688" style="stop-color:#085078"/>
				<stop  offset="0.7473" style="stop-color:#85D8CE"/>
				<stop  offset="1" style="stop-color:#85D8CE"/>
			</linearGradient>
			<path fill="url(#SVGID_57_)" d="M2995.954,2914.421c-93.181-95.78-231.161-122.131-359.066-134.608
				c-133.933-13.066-268.783-10.943-403.063-17.895c-135.235-7-267.354-34.387-402.77-40.585
				c-72.931-3.338-146.109-4.655-218.756-12.402c-66.089-7.048-135.759-18.864-193.104-54.542
				c-6.264-1.596-9.679-2.289-16.904-3.563c57.57,35.229,127.607,45.658,193.701,51.422c72.947,6.361,146.301,6.256,219.441,8.463
				c70.403,2.124,141.828,4.98,211.212,17.989c66.561,12.479,132.281,20.079,199.98,23.362
				c137.581,6.673,275.598,2.018,413.014,12.484c132.386,10.083,276.219,33.65,374.2,131.219
				C3006.164,2902.766,3002.573,2906.484,2995.954,2914.421z"/>
		</g>
		<g>
			<linearGradient id="SVGID_58_" gradientUnits="userSpaceOnUse" x1="1320.7373" y1="2759.6543" x2="3105.3926" y2="2759.6543">
				<stop  offset="0" style="stop-color:#003254"/>
				<stop  offset="0.1774" style="stop-color:#085078"/>
				<stop  offset="0.4839" style="stop-color:#037E84"/>
				<stop  offset="0.5442" style="stop-color:#0C8589"/>
				<stop  offset="0.6446" style="stop-color:#269698"/>
				<stop  offset="0.7726" style="stop-color:#4FB3AF"/>
				<stop  offset="0.914" style="stop-color:#85D8CE"/>
			</linearGradient>
			<path fill="url(#SVGID_58_)" d="M3035.537,2878.46c-102.861-98.884-251.863-119.972-388.549-127.796
				c-140.471-8.041-281.289-0.966-421.819-7.135c-66.469-2.918-131.342-9.634-196.43-23.412
				c-72.332-15.312-147.466-17.786-221.157-19.037c-73.248-1.244-146.624,0.297-219.788-4.058
				c-69.768-4.152-144.611-12.578-205.741-49.245c-20.399-2.637-40.879-4.621-61.316-6.93
				c65.684,37.539,146.23,42.393,220.164,43.444c82.241,1.17,164.407-4.427,246.629-5.173
				c76.355-0.693,155.138,0.942,229.631,19.427c70.223,17.425,139.422,25.896,211.772,28.347
				c151.098,5.119,302.114-8.07,453.222-4.967c147.416,3.028,307.913,19.759,423.237,121.055
				C3080.676,2852.582,3057.658,2863.796,3035.537,2878.46z"/>
		</g>
		<g>
			<linearGradient id="SVGID_59_" gradientUnits="userSpaceOnUse" x1="1382.0537" y1="2771.7715" x2="3035.5371" y2="2771.7715">
				<stop  offset="0.043" style="stop-color:#001354"/>
				<stop  offset="0.1935" style="stop-color:#085078"/>
				<stop  offset="0.5806" style="stop-color:#85D8CE"/>
				<stop  offset="1" style="stop-color:#85D8CE"/>
			</linearGradient>
			<path fill="url(#SVGID_59_)" d="M3013.84,2895.766c-97.981-97.568-241.814-121.136-374.2-131.219
				c-137.416-10.467-275.433-5.812-413.014-12.484c-67.699-3.283-133.419-10.883-199.98-23.362
				c-69.384-13.009-140.809-15.865-211.212-17.989c-73.141-2.207-146.494-2.102-219.441-8.463
				c-66.094-5.764-136.131-16.193-193.701-51.422c-7.651-1.349-11.737-1.937-20.237-3.049
				c61.13,36.667,135.973,45.093,205.741,49.245c73.165,4.354,146.541,2.813,219.788,4.058
				c73.691,1.251,148.826,3.726,221.157,19.037c65.087,13.778,129.96,20.494,196.43,23.412
				c140.53,6.169,281.348-0.906,421.819,7.135c136.686,7.824,285.688,28.912,388.549,127.796
				C3026.322,2884.907,3021.967,2888.354,3013.84,2895.766z"/>
		</g>
		<g>
			<linearGradient id="SVGID_60_" gradientUnits="userSpaceOnUse" x1="1473.5151" y1="2428.2598" x2="3739.0156" y2="2428.2598">
				<stop  offset="0" style="stop-color:#085078"/>
				<stop  offset="0.3118" style="stop-color:#085078"/>
				<stop  offset="0.828" style="stop-color:#85D8CE"/>
				<stop  offset="1" style="stop-color:#85D8CE"/>
			</linearGradient>
			<path fill="url(#SVGID_60_)" d="M1484.249,2594.227c13.165,8.221,27.966,13.027,43.211,15.549
				c48.217,7.974,99.29-5.507,145.037-19.722c53.072-16.491,104.536-37.915,155.656-59.589
				c103.94-44.068,207.775-93.828,318.141-119.895c43.914-10.372,90.313-17.214,135.346-10.596
				c41.768,6.138,73.082,27.186,107.767,49.787c29.168,19.008,54.767,36.462,89.786,41.474c28.854,4.129,58.416,1.807,87.078-2.669
				c80.473-12.566,158.263-41.875,234.141-70.467c96.234-36.262,191.424-75.324,288.786-108.54
				c200.113-68.27,445.554-129.44,629.475,10.858c7.079,16.053,13.958,32.175,20.345,48.518
				c-184.11-140.224-428.935-86.352-631.918-22.207c-98.07,30.991-194.127,67.81-291.142,101.866
				c-77.486,27.201-156.765,54.794-238.415,66.268c-29.727,4.177-60.225,6.167-90.081,2.077
				c-34.765-4.762-60.785-19.971-89.94-38.655c-35.481-22.738-68.191-45.725-110.383-53.488
				c-44.666-8.219-91.109-3.222-135.261,5.67c-110.15,22.182-214.439,68.855-318.257,110.384
				c-51.724,20.69-103.713,41.198-157.116,57.204c-47.426,14.215-99.195,27.349-149.089,21.262
				c-18.968-2.314-37.578-7.62-53.898-17.786C1478.135,2599.454,1480.294,2598.025,1484.249,2594.227z"/>
		</g>
		<g>
			<linearGradient id="SVGID_61_" gradientUnits="userSpaceOnUse" x1="1446.6196" y1="2480.4023" x2="3767.8379" y2="2480.4023">
				<stop  offset="0" style="stop-color:#085078"/>
				<stop  offset="0" style="stop-color:#085078"/>
				<stop  offset="0.5699" style="stop-color:#85D8CE"/>
				<stop  offset="1" style="stop-color:#85D8CE"/>
			</linearGradient>
			<path fill="url(#SVGID_61_)" d="M3767.838,2457.69c-182.133-139.056-422.535-101.265-628.902-46.975
				c-98.619,25.944-195.5,57.858-293.086,87.333c-80.351,24.27-162.011,48.463-245.564,58.703
				c-60.749,7.445-126.975,7.942-181.344-23.99c-38.132-22.396-73.7-51.262-116.385-64.619
				c-42.022-13.149-87.138-13.634-130.585-9.147c-107.122,11.061-210.468,49.725-311.391,85.176
				c-100.604,35.339-208.247,80.882-316.442,82.54c-33.662,0.516-68.463-4.363-97.518-22.476c4.32,0.671,6.416,0.837,10.452,0.767
				c25.652,15.969,56.079,21.035,85.864,21.217c107.208,0.654,215.133-47.442,313.873-83.932
				c101.416-37.479,204.81-78.728,312.681-92.957c43.435-5.729,88.767-6.78,131.313,5.133
				c42.259,11.833,77.594,39.395,114.445,62.148c54.529,33.67,117.875,34.497,179.831,26.287
				c82.905-10.986,163.717-36.457,243.122-61.847c97.289-31.107,193.799-64.73,292.156-92.407
				c204.955-57.672,446.443-100.694,628.979,38.479C3762.338,2437.273,3765.268,2447.42,3767.838,2457.69z"/>
		</g>
		<g>
			<linearGradient id="SVGID_62_" gradientUnits="userSpaceOnUse" x1="1215.7871" y1="2616.4297" x2="3637.8613" y2="2616.4297">
				<stop  offset="0" style="stop-color:#085078"/>
				<stop  offset="0.0376" style="stop-color:#085078"/>
				<stop  offset="0.5699" style="stop-color:#85D8CE"/>
				<stop  offset="1" style="stop-color:#85D8CE"/>
			</linearGradient>
			<path fill="url(#SVGID_62_)" d="M3616.873,2752.796c-169.775-136.927-391.528-155.172-601.593-148.071
				c-184.713,6.243-369.498,34.488-554.545,26.209c-75.133-3.361-151.521-13.341-221.751-41.502
				c-41.647-16.699-79.124-42.39-120.877-58.926c-42.937-17.005-88.592-26.229-134.421-30.926
				c-206.745-21.186-411.765,46.436-618.082,26.656c-52.273-5.012-105.208-17.388-149.818-46.172
				c4.427,0.454,6.73,0.902,11.483,2.163c47.839,31.018,105.325,42.709,161.438,46.615
				c206.655,14.385,411.028-54.492,617.979-31.303c45.417,5.089,90.603,14.946,132.801,32.802
				c40.98,17.34,78.012,42.98,119.419,59.381c70.013,27.729,146.167,37.069,220.949,39.841
				c185.23,6.865,369.916-22.903,554.719-30.289c210.58-8.416,432.939,8.968,603.286,146.277
				C3629.67,2748.622,3625.466,2750.065,3616.873,2752.796z"/>
		</g>
		<g>
			<linearGradient id="SVGID_63_" gradientUnits="userSpaceOnUse" x1="1380.3076" y1="2519.3555" x2="3780.8574" y2="2519.3555">
				<stop  offset="0.0645" style="stop-color:#037E84"/>
				<stop  offset="0.2742" style="stop-color:#085078"/>
				<stop  offset="0.8172" style="stop-color:#85D8CE"/>
				<stop  offset="1" style="stop-color:#85D8CE"/>
			</linearGradient>
			<path fill="url(#SVGID_63_)" d="M3778.087,2592.476c-178.446-138.496-412.184-126.036-623.073-89.715
				c-183.231,31.558-364.103,89.521-550.168,102.548c-66.985,4.689-138.223,3.021-200.709-24.354
				c-39.752-17.416-73.955-45.615-113.299-63.87c-39.635-18.39-83.398-25.901-126.809-27.522
				c-214.562-8.015-413.541,100.371-625.408,114.556c-53.613,3.59-111.729,0.095-158.313-29.509
				c13.22,8.005,26.414,15.331,40.458,21.787c36.042,22.612,80.055,27.165,121.686,25.331
				c109.444-4.821,216.793-45.064,320.438-77.207c100.015-31.017,203.223-64.211,308.629-68.794
				c43.56-1.895,88.222,1.593,129.319,17.072c41.636,15.683,76.224,45.032,115.453,65.374c57.7,29.92,126.691,30.043,189.815,23.773
				c185.426-18.416,363.902-87.061,544.984-127.604c209.022-46.8,447.019-73.524,628.06,65.403
				C3781.283,2544.08,3781.916,2568.256,3778.087,2592.476z"/>
		</g>
		<g>
			<linearGradient id="SVGID_64_" gradientUnits="userSpaceOnUse" x1="1484.249" y1="2404.1035" x2="3718.6709" y2="2404.1035">
				<stop  offset="0" style="stop-color:#085078"/>
				<stop  offset="0.129" style="stop-color:#085078"/>
				<stop  offset="0.8065" style="stop-color:#85D8CE"/>
				<stop  offset="1" style="stop-color:#85D8CE"/>
			</linearGradient>
			<path fill="url(#SVGID_64_)" d="M1491.687,2584.969c7.645,4.794,15.893,8.369,24.511,11.002
				c44.617,13.628,95.193,1.484,138.482-11.347c52.773-15.642,103.668-37.344,153.987-59.464
				c105.53-46.391,209.778-99.495,321.149-130.811c44.512-12.516,91.589-22.003,138.047-18.174
				c40.98,3.378,71.603,19.886,105.276,42.16c29.791,19.706,57.386,42.016,93.319,48.328c27.7,4.865,56.357,2.698,83.965-1.669
				c79.426-12.563,155.998-43.18,230.339-72.708c95.893-38.089,190.604-79.156,287.595-114.447
				c198.384-72.184,445.904-140.826,630.557,0.375c6.759,13.993,13.35,28.045,19.757,42.203
				c-183.921-140.299-429.361-79.128-629.475-10.858c-97.362,33.216-192.552,72.278-288.786,108.54
				c-75.878,28.592-153.668,57.9-234.141,70.467c-28.662,4.476-58.224,6.798-87.078,2.669
				c-35.019-5.012-60.617-22.466-89.786-41.474c-34.685-22.602-65.999-43.649-107.767-49.787
				c-45.032-6.618-91.432,0.224-135.346,10.596c-110.366,26.066-214.201,75.826-318.141,119.895
				c-51.12,21.674-102.583,43.098-155.656,59.589c-45.747,14.215-96.82,27.695-145.037,19.722
				c-15.245-2.521-30.046-7.328-43.211-15.549C1487.462,2591.14,1488.956,2589.305,1491.687,2584.969z"/>
		</g>
		<g>
			<linearGradient id="SVGID_65_" gradientUnits="userSpaceOnUse" x1="1343.02" y1="2560.9414" x2="3778.0869" y2="2560.9414">
				<stop  offset="0.043" style="stop-color:#003254"/>
				<stop  offset="0.2849" style="stop-color:#085078"/>
				<stop  offset="0.8978" style="stop-color:#85D8CE"/>
				<stop  offset="1" style="stop-color:#85D8CE"/>
			</linearGradient>
			<path fill="url(#SVGID_65_)" d="M3762.703,2643.219c-176.829-138.771-408.006-136.095-620.322-107.888
				c-184.538,24.517-367.31,74.465-553.844,81.937c-69.652,2.79-142.535-0.937-207.695-27.972
				c-40.204-16.681-75.136-43.818-114.176-62.829c-39.693-19.329-83.568-28.532-127.372-31.91
				c-212.323-16.375-414.287,80.066-624.449,89.831c-58.4,2.713-121.369-2.128-171.825-34.556
				c12.314,8.451,24.694,16.747,37.288,24.776c46.584,29.604,104.7,33.099,158.313,29.509
				c211.867-14.185,410.846-122.57,625.408-114.556c43.411,1.621,87.174,9.133,126.809,27.522
				c39.344,18.255,73.547,46.454,113.299,63.87c62.486,27.376,133.724,29.044,200.709,24.354
				c186.065-13.026,366.937-70.99,550.168-102.548c210.89-36.321,444.627-48.781,623.073,89.715
				C3774.758,2610.069,3770.396,2626.962,3762.703,2643.219z"/>
		</g>
		<g>
			<linearGradient id="SVGID_66_" gradientUnits="userSpaceOnUse" x1="1457.0718" y1="2453.4844" x2="3759.3359" y2="2453.4844">
				<stop  offset="0" style="stop-color:#085078"/>
				<stop  offset="0.1882" style="stop-color:#085078"/>
				<stop  offset="0.5968" style="stop-color:#85D8CE"/>
				<stop  offset="1" style="stop-color:#85D8CE"/>
			</linearGradient>
			<path fill="url(#SVGID_66_)" d="M3739.016,2368.936c7.345,19.205,14.32,38.515,20.32,58.188
				c-182.535-139.173-424.023-96.15-628.979-38.479c-98.357,27.677-194.867,61.3-292.156,92.407
				c-79.405,25.39-160.217,50.86-243.122,61.847c-61.956,8.21-125.302,7.383-179.831-26.287
				c-36.851-22.754-72.186-50.315-114.445-62.148c-42.546-11.913-87.878-10.862-131.313-5.133
				c-107.872,14.229-211.265,55.479-312.681,92.957c-98.74,36.489-206.664,84.586-313.873,83.932
				c-29.786-0.182-60.212-5.248-85.864-21.217c7.063-0.124,10.38-0.749,16.443-3.473c16.32,10.166,34.93,15.472,53.898,17.786
				c49.894,6.087,101.663-7.047,149.089-21.262c53.403-16.006,105.392-36.514,157.116-57.204
				c103.818-41.528,208.107-88.202,318.257-110.384c44.152-8.892,90.595-13.889,135.261-5.67
				c42.192,7.764,74.902,30.75,110.383,53.488c29.156,18.685,55.176,33.894,89.94,38.655c29.856,4.09,60.354,2.1,90.081-2.077
				c81.65-11.474,160.929-39.066,238.415-66.268c97.015-34.057,193.071-70.875,291.142-101.866
				C3310.081,2282.584,3554.905,2228.712,3739.016,2368.936z"/>
		</g>
		<g>
			<linearGradient id="SVGID_67_" gradientUnits="userSpaceOnUse" x1="1420.7651" y1="2494.2021" x2="3779.1494" y2="2494.2021">
				<stop  offset="0.1505" style="stop-color:#037E84"/>
				<stop  offset="0.4032" style="stop-color:#085078"/>
				<stop  offset="0.7796" style="stop-color:#85D8CE"/>
				<stop  offset="0.8123" style="stop-color:#8EDBD4"/>
				<stop  offset="0.8666" style="stop-color:#A8E3E5"/>
				<stop  offset="0.9247" style="stop-color:#CAEEFC"/>
			</linearGradient>
			<path fill="url(#SVGID_67_)" d="M3779.149,2519.744c-181.041-138.928-419.037-112.203-628.06-65.403
				c-181.082,40.544-359.559,109.188-544.984,127.604c-63.124,6.27-132.116,6.146-189.815-23.773
				c-39.229-20.342-73.817-49.691-115.453-65.374c-41.098-15.479-85.759-18.967-129.319-17.072
				c-105.406,4.583-208.614,37.777-308.629,68.794c-103.645,32.143-210.994,72.386-320.438,77.207
				c-41.631,1.834-85.644-2.719-121.686-25.331c10.905,4.615,16.134,6.331,25.854,7.84c29.055,18.112,63.855,22.991,97.518,22.476
				c108.195-1.658,215.838-47.201,316.442-82.54c100.923-35.451,204.269-74.115,311.391-85.176
				c43.447-4.486,88.563-4.002,130.585,9.147c42.686,13.357,78.253,42.223,116.385,64.619
				c54.37,31.933,120.595,31.436,181.344,23.99c83.554-10.24,165.214-34.434,245.564-58.703
				c97.586-29.475,194.467-61.389,293.086-87.333c206.367-54.29,446.77-92.081,628.902,46.975
				C3772.719,2478.197,3776.911,2498.762,3779.149,2519.744z"/>
		</g>
		<g>
			<linearGradient id="SVGID_68_" gradientUnits="userSpaceOnUse" x1="1328.1558" y1="2576.4795" x2="3762.7031" y2="2576.4795">
				<stop  offset="0" style="stop-color:#085078"/>
				<stop  offset="0" style="stop-color:#085078"/>
				<stop  offset="0.5645" style="stop-color:#85D8CE"/>
				<stop  offset="1" style="stop-color:#85D8CE"/>
			</linearGradient>
			<path fill="url(#SVGID_68_)" d="M3753.309,2660.352c-175.52-138.358-404.75-139.561-616.726-114.609
				c-184.556,21.724-367.436,68.457-553.64,74.447c-70.521,2.269-143.895-1.843-210.178-28.116
				c-40.177-15.926-75.191-42.122-113.587-61.608c-39.306-19.948-82.645-30.285-126.322-34.679
				c-210.173-21.142-412.882,69.705-620.964,79.966c-62.331,3.073-129.847-1.503-183.736-36.224
				c5.943,4.125,8.921,6.201,14.864,10.304c50.457,32.428,113.425,37.269,171.825,34.556
				c210.162-9.765,412.125-106.206,624.449-89.831c43.804,3.378,87.679,12.581,127.372,31.91
				c39.04,19.011,73.972,46.148,114.176,62.829c65.16,27.035,138.043,30.762,207.695,27.972
				c186.535-7.472,369.306-57.42,553.844-81.937c212.316-28.207,443.493-30.884,620.322,107.888
				C3759.307,2650.381,3757.42,2653.802,3753.309,2660.352z"/>
		</g>
		<g>
			<linearGradient id="SVGID_69_" gradientUnits="userSpaceOnUse" x1="1249.3984" y1="2610.3828" x2="3694.1396" y2="2610.3828">
				<stop  offset="0" style="stop-color:#085078"/>
				<stop  offset="0" style="stop-color:#085078"/>
				<stop  offset="0.7903" style="stop-color:#85D8CE"/>
				<stop  offset="1" style="stop-color:#85D8CE"/>
			</linearGradient>
			<path fill="url(#SVGID_69_)" d="M3672.359,2730.502c-171.674-137.982-395.749-152.895-607.314-141.406
				c-185.074,10.05-369.738,43.086-555.447,38.727c-74.078-1.739-149.766-10.037-219.185-37.383
				c-41.122-16.198-77.668-41.774-117.758-60.146c-41.245-18.901-85.994-29.297-130.902-34.644
				c-207.645-24.721-411.81,48.03-619.074,40.559c-59.897-2.159-122.177-12.427-173.28-45.675c6.44,3.006,9.756,4.744,16.519,8.535
				c54.285,35.328,121.285,43.918,184.724,44.317c206.674,1.302,410.469-73.878,617.757-47.512
				c44.399,5.647,88.438,16.667,128.806,36.33c39.184,19.086,75.267,44.26,116.066,60.002
				c69.013,26.627,144.252,33.849,217.682,34.634c185.692,1.984,369.874-33.544,554.778-45.654
				c211.56-13.855,436.25-1,608.409,136.964C3685.819,2723.425,3681.453,2725.885,3672.359,2730.502z"/>
		</g>
		<g>
			<linearGradient id="SVGID_70_" gradientUnits="userSpaceOnUse" x1="1227.2705" y1="2613.8896" x2="3672.3594" y2="2613.8896">
				<stop  offset="0.3011" style="stop-color:#037E84"/>
				<stop  offset="0.5591" style="stop-color:#085078"/>
				<stop  offset="0.828" style="stop-color:#85D8CE"/>
				<stop  offset="1" style="stop-color:#85D8CE"/>
			</linearGradient>
			<path fill="url(#SVGID_70_)" d="M3637.861,2745.552c-170.347-137.31-392.706-154.693-603.286-146.277
				c-184.804,7.386-369.489,37.154-554.719,30.289c-74.782-2.771-150.936-12.111-220.949-39.841
				c-41.407-16.4-78.439-42.041-119.419-59.381c-42.198-17.855-87.384-27.713-132.801-32.802
				c-206.951-23.189-411.324,45.688-617.979,31.303c-56.113-3.906-113.599-15.598-161.438-46.615
				c8.409,2.229,12.87,3.984,22.128,8.306c51.103,33.248,113.382,43.516,173.28,45.675c207.264,7.472,411.429-65.279,619.074-40.559
				c44.908,5.347,89.657,15.742,130.902,34.644c40.09,18.372,76.636,43.948,117.758,60.146
				c69.419,27.346,145.107,35.644,219.185,37.383c185.709,4.359,370.373-28.677,555.447-38.727
				c211.565-11.488,435.641,3.424,607.314,141.406C3661.16,2736.173,3649.617,2741.156,3637.861,2745.552z"/>
		</g>
		<g>
			<linearGradient id="SVGID_71_" gradientUnits="userSpaceOnUse" x1="1265.9175" y1="2604.2061" x2="3724.0625" y2="2604.2061">
				<stop  offset="0.0215" style="stop-color:#037E84"/>
				<stop  offset="0.2742" style="stop-color:#085078"/>
				<stop  offset="0.6559" style="stop-color:#85D8CE"/>
				<stop  offset="0.7334" style="stop-color:#8EDBD4"/>
				<stop  offset="0.8622" style="stop-color:#A8E3E5"/>
				<stop  offset="1" style="stop-color:#CAEEFC"/>
			</linearGradient>
			<path fill="url(#SVGID_71_)" d="M3694.14,2718.149c-172.159-137.964-396.85-150.819-608.409-136.964
				c-184.904,12.11-369.086,47.639-554.778,45.654c-73.43-0.785-148.669-8.007-217.682-34.634
				c-40.8-15.742-76.882-40.916-116.066-60.002c-40.367-19.663-84.407-30.683-128.806-36.33
				c-207.288-26.366-411.083,48.813-617.757,47.512c-63.439-0.399-130.439-8.989-184.724-44.317
				c9.267,5.222,18.217,10.894,27.171,16.628c54.19,35.185,121.538,42.155,184.656,41.104
				c207.645-3.455,411.35-85.383,620.155-60.959c44.167,5.166,87.965,15.974,127.927,35.839
				c38.903,19.34,74.576,45.034,115.167,60.943c67.907,26.616,142.444,32.641,214.76,32.185
				c186.171-1.174,370.119-41.436,555.156-57.555c212.257-18.49,439.259-10.344,613.152,128.09
				C3714.816,2703.848,3704.752,2711.436,3694.14,2718.149z"/>
		</g>
		<g>
			<linearGradient id="SVGID_72_" gradientUnits="userSpaceOnUse" x1="1293.0884" y1="2593.3232" x2="3735.4941" y2="2593.3232">
				<stop  offset="0" style="stop-color:#085078"/>
				<stop  offset="0" style="stop-color:#085078"/>
				<stop  offset="0.2957" style="stop-color:#85D8CE"/>
				<stop  offset="1" style="stop-color:#85D8CE"/>
			</linearGradient>
			<path fill="url(#SVGID_72_)" d="M3724.063,2695.344c-173.894-138.434-400.896-146.58-613.152-128.09
				c-185.037,16.119-368.984,56.381-555.156,57.555c-72.316,0.456-146.853-5.568-214.76-32.185
				c-40.591-15.909-76.264-41.604-115.167-60.943c-39.962-19.865-83.76-30.673-127.927-35.839
				c-208.805-24.424-412.51,57.504-620.155,60.959c-63.119,1.051-130.466-5.92-184.656-41.104c4.895,3.194,7.365,4.844,12.329,8.198
				c54.105,35.054,121.548,41.222,184.436,39.479c207.898-5.758,411.36-90.805,620.715-67.433
				c44.019,4.914,87.676,15.574,127.424,35.49c38.744,19.413,74.202,45.298,114.666,61.238
				c67.359,26.536,141.525,31.931,213.254,30.861c186.252-2.777,369.925-45.247,554.87-63.299
				c212.333-20.726,440.131-14.847,614.712,123.594C3731.146,2688.625,3728.855,2690.926,3724.063,2695.344z"/>
		</g>
		<g>
			<linearGradient id="SVGID_73_" gradientUnits="userSpaceOnUse" x1="1305.417" y1="2587.8564" x2="3753.3086" y2="2587.8564">
				<stop  offset="0" style="stop-color:#085078"/>
				<stop  offset="0.1935" style="stop-color:#085078"/>
				<stop  offset="1" style="stop-color:#85D8CE"/>
				<stop  offset="1" style="stop-color:#85D8CE"/>
			</linearGradient>
			<path fill="url(#SVGID_73_)" d="M3735.494,2683.826c-174.581-138.44-402.379-144.319-614.712-123.594
				c-184.944,18.052-368.617,60.521-554.87,63.299c-71.729,1.069-145.895-4.325-213.254-30.861
				c-40.464-15.94-75.922-41.825-114.666-61.238c-39.748-19.916-83.405-30.576-127.424-35.49
				c-209.355-23.372-412.817,61.675-620.715,67.433c-62.888,1.742-130.331-4.426-184.436-39.479
				c9.025,6.099,13.596,9.288,22.739,15.634c53.889,34.721,121.406,39.297,183.736,36.224
				c208.082-10.261,410.791-101.107,620.964-79.966c43.678,4.394,87.016,14.73,126.322,34.679
				c38.396,19.486,73.41,45.683,113.587,61.608c66.283,26.273,139.656,30.385,210.178,28.116
				c186.204-5.99,369.084-52.724,553.64-74.447c211.976-24.951,441.206-23.749,616.726,114.609
				C3748.074,2668.681,3742.103,2676.539,3735.494,2683.826z"/>
		</g>
	</g>
</g>
</svg>
