<?xml version="1.0" encoding="UTF-8" standalone="no"?>
<!-- Generator: Adobe Illustrator 16.0.0, SVG Export Plug-In . SVG Version: 6.00 Build 0)  -->

<svg
   xmlns:dc="http://purl.org/dc/elements/1.1/"
   xmlns:cc="http://creativecommons.org/ns#"
   xmlns:rdf="http://www.w3.org/1999/02/22-rdf-syntax-ns#"
   xmlns:svg="http://www.w3.org/2000/svg"
   xmlns="http://www.w3.org/2000/svg"
   xmlns:sodipodi="http://sodipodi.sourceforge.net/DTD/sodipodi-0.dtd"
   xmlns:inkscape="http://www.inkscape.org/namespaces/inkscape"
   version="1.1"
   id="Layer_1"
   x="0px"
   y="0px"
   width="1877.2515"
   height="959.35443"
   viewBox="0 0 1877.2515 959.35443"
   enable-background="new 0 0 5500 3500"
   xml:space="preserve"
   sodipodi:docname="wave2.svg"
   inkscape:version="0.92.2 (5c3e80d, 2017-08-06)"><metadata
     id="metadata378"><rdf:RDF><cc:Work
         rdf:about=""><dc:format>image/svg+xml</dc:format><dc:type
           rdf:resource="http://purl.org/dc/dcmitype/StillImage" /><dc:title></dc:title></cc:Work></rdf:RDF></metadata><defs
     id="defs376" /><sodipodi:namedview
     pagecolor="#ffffff"
     bordercolor="#666666"
     borderopacity="1"
     objecttolerance="10"
     gridtolerance="10"
     guidetolerance="10"
     inkscape:pageopacity="0"
     inkscape:pageshadow="2"
     inkscape:window-width="768"
     inkscape:window-height="480"
     id="namedview374"
     showgrid="false"
     fit-margin-top="0"
     fit-margin-left="0"
     fit-margin-right="0"
     fit-margin-bottom="0"
     inkscape:zoom="0.05"
     inkscape:cx="346.3164"
     inkscape:cy="341.227"
     inkscape:window-x="1018"
     inkscape:window-y="182"
     inkscape:window-maximized="0"
     inkscape:current-layer="Layer_1" /><g
     id="g371"
     style="opacity:0.9"
     transform="translate(-2403.6836,-1131.8726)"><g
       id="g369"><g
         id="g13"><linearGradient
           id="SVGID_1_"
           gradientUnits="userSpaceOnUse"
           x1="2748.8467"
           y1="1604.1631"
           x2="4280.9336"
           y2="1604.1631"><stop
             offset="0"
             style="stop-color:#037E84"
             id="stop2" /><stop
             offset="0.543"
             style="stop-color:#085078"
             id="stop4" /><stop
             offset="1"
             style="stop-color:#85D8CE"
             id="stop6" /><stop
             offset="1"
             style="stop-color:#85D8CE"
             id="stop8" /></linearGradient><path
           d="m 2814.227,1996.863 c 85.901,-119.567 228.648,-180.185 362.129,-230.527 125.772,-47.436 256.16,-85.5 376.506,-146.21 57.066,-28.788 104.156,-63.579 151.692,-105.881 50.737,-45.151 113.876,-75.501 176.146,-101.202 69.57,-28.714 141.42,-51.398 211.33,-79.222 63.611,-25.316 132.646,-55.388 177.143,-109.634 7.008,-9.619 11.646,-21.032 11.762,-33.044 -48.855,61.295 -127.936,93.136 -199.141,120.057 -74.082,28.009 -149.949,51.225 -223.008,81.941 -64.999,27.329 -129.46,60.723 -179.938,110.851 -46.253,45.932 -95.21,81.89 -153.241,111.859 -125,64.555 -261.653,103.435 -392.92,152.755 -142.748,53.635 -293.845,119.34 -383.839,248.577 21.736,-6.964 43.499,-13.816 65.379,-20.32 z"
           id="path11"
           inkscape:connector-curvature="0"
           style="fill:url(#SVGID_1_)" /></g><g
         id="g26"><linearGradient
           id="SVGID_2_"
           gradientUnits="userSpaceOnUse"
           x1="2833.0381"
           y1="1612.1621"
           x2="4262.2012"
           y2="1612.1621"><stop
             offset="0"
             style="stop-color:#085078"
             id="stop15" /><stop
             offset="0.4086"
             style="stop-color:#037E84"
             id="stop17" /><stop
             offset="1"
             style="stop-color:#85D8CE"
             id="stop19" /><stop
             offset="1"
             style="stop-color:#85D8CE"
             id="stop21" /></linearGradient><path
           d="m 2872.501,1981.559 c 80.124,-110.563 212.785,-167.452 336.277,-215.29 119.157,-46.158 242.293,-83.825 356.995,-140.777 54.632,-27.125 101.133,-59.509 147.696,-98.563 49.457,-41.479 109.294,-70.167 168.375,-95.087 65.087,-27.453 132.135,-49.933 197.291,-77.204 59.235,-24.793 122.894,-54.053 164.594,-104.768 8.25,-6.558 12.065,-9.958 18.472,-17.06 -44.324,53.866 -112.965,83.781 -176.158,109.118 -69.395,27.823 -140.688,50.677 -209.64,79.64 -62.361,26.194 -124.431,57.218 -174.95,102.916 -43.885,39.695 -90.869,70.816 -143.803,97.335 -120.424,60.33 -250.586,98.488 -376.092,146.416 -128.519,49.079 -265.518,108.282 -348.521,223.279 13.077,-3.614 26.231,-6.964 39.464,-9.955 z"
           id="path24"
           inkscape:connector-curvature="0"
           style="fill:url(#SVGID_2_)" /></g><g
         id="g39"><linearGradient
           id="SVGID_3_"
           gradientUnits="userSpaceOnUse"
           x1="2687.0137"
           y1="1595.4302"
           x2="4280.9336"
           y2="1595.4302"><stop
             offset="0.1398"
             style="stop-color:#037E84"
             id="stop28" /><stop
             offset="0.3333"
             style="stop-color:#085078"
             id="stop30" /><stop
             offset="0.8871"
             style="stop-color:#85D8CE"
             id="stop32" /><stop
             offset="1"
             style="stop-color:#85D8CE"
             id="stop34" /></linearGradient><path
           d="m 2748.847,2017.184 c 89.994,-129.237 241.091,-194.942 383.839,-248.577 131.267,-49.32 267.92,-88.2 392.92,-152.755 58.031,-29.97 106.988,-65.928 153.241,-111.859 50.479,-50.128 114.939,-83.522 179.938,-110.851 73.059,-30.717 148.926,-53.933 223.008,-81.941 71.205,-26.921 150.285,-58.762 199.141,-120.057 -0.045,-14.159 -6.143,-25.215 -13.355,-36.925 -47.421,63.101 -126.5,96.274 -197.961,123.65 -78.311,30 -158.842,54.02 -236.146,86.678 -68.095,28.767 -135.708,64.525 -186.638,119.227 -46.671,50.128 -94.474,90.263 -154.851,123.211 -129.313,70.568 -273.092,110.908 -410.057,163.472 -148.915,57.149 -304.292,128.507 -394.913,266.188 20.676,-6.289 41.258,-12.859 61.834,-19.461 z"
           id="path37"
           inkscape:connector-curvature="0"
           style="fill:url(#SVGID_3_)" /></g><g
         id="g52"><linearGradient
           id="SVGID_4_"
           gradientUnits="userSpaceOnUse"
           x1="2814.2266"
           y1="1610.5254"
           x2="4269.1719"
           y2="1610.5254"><stop
             offset="0"
             style="stop-color:#085078"
             id="stop41" /><stop
             offset="0.0806"
             style="stop-color:#085078"
             id="stop43" /><stop
             offset="0.5699"
             style="stop-color:#85D8CE"
             id="stop45" /><stop
             offset="1"
             style="stop-color:#85D8CE"
             id="stop47" /></linearGradient><path
           d="m 2833.038,1991.514 c 83.003,-114.997 220.002,-174.2 348.521,-223.279 125.506,-47.928 255.668,-86.086 376.092,-146.416 52.934,-26.519 99.918,-57.64 143.803,-97.335 50.52,-45.698 112.589,-76.721 174.95,-102.916 68.952,-28.963 140.245,-51.816 209.64,-79.64 63.193,-25.337 131.834,-55.252 176.158,-109.118 3.051,-3.382 4.458,-5.105 6.971,-8.623 -44.496,54.246 -113.531,84.317 -177.143,109.634 -69.91,27.823 -141.76,50.508 -211.33,79.222 -62.27,25.7 -125.408,56.051 -176.146,101.202 -47.536,42.303 -94.626,77.093 -151.692,105.881 -120.346,60.709 -250.733,98.774 -376.506,146.21 -133.48,50.343 -276.228,110.96 -362.129,230.527 7.52,-2.2 11.285,-3.276 18.811,-5.349 z"
           id="path50"
           inkscape:connector-curvature="0"
           style="fill:url(#SVGID_4_)" /></g><g
         id="g65"><linearGradient
           id="SVGID_5_"
           gradientUnits="userSpaceOnUse"
           x1="2645.0566"
           y1="1592.1836"
           x2="4267.5781"
           y2="1592.1836"><stop
             offset="0"
             style="stop-color:#003254"
             id="stop54" /><stop
             offset="0.7043"
             style="stop-color:#085078"
             id="stop56" /><stop
             offset="1"
             style="stop-color:#85D8CE"
             id="stop58" /><stop
             offset="1"
             style="stop-color:#85D8CE"
             id="stop60" /></linearGradient><path
           d="m 2687.014,2036.643 c 90.621,-137.681 245.998,-209.038 394.913,-266.188 136.965,-52.563 280.743,-92.903 410.057,-163.472 60.377,-32.949 108.18,-73.083 154.851,-123.211 50.93,-54.702 118.543,-90.459 186.638,-119.227 77.304,-32.658 157.835,-56.678 236.146,-86.678 71.461,-27.376 150.54,-60.549 197.961,-123.65 -7.543,-10.627 -11.263,-14.076 -18.635,-18.2 -48.48,67.28 -132.76,101.325 -207.736,129.382 -78.332,29.313 -158.738,53.048 -235.784,85.784 -71.794,30.505 -140.037,69.071 -191.748,128.514 -44.04,50.625 -90.497,90.848 -149.163,123.917 -130.231,73.407 -276.785,113.863 -415.648,167.238 -153.563,59.025 -312.846,133.611 -403.807,277.497 14.058,-3.667 28.019,-7.591 41.955,-11.706 z"
           id="path63"
           inkscape:connector-curvature="0"
           style="fill:url(#SVGID_5_)" /></g><g
         id="g78"><linearGradient
           id="SVGID_6_"
           gradientUnits="userSpaceOnUse"
           x1="2598.5469"
           y1="1594.9795"
           x2="4248.9434"
           y2="1594.9795"><stop
             offset="0.1882"
             style="stop-color:#003254"
             id="stop67" /><stop
             offset="0.5376"
             style="stop-color:#085078"
             id="stop69" /><stop
             offset="0.9301"
             style="stop-color:#85D8CE"
             id="stop71" /><stop
             offset="1"
             style="stop-color:#85D8CE"
             id="stop73" /></linearGradient><path
           d="m 2645.057,2048.35 c 90.961,-143.886 250.244,-218.472 403.807,-277.497 138.863,-53.375 285.417,-93.831 415.648,-167.238 58.666,-33.068 105.123,-73.292 149.163,-123.917 51.711,-59.443 119.954,-98.009 191.748,-128.514 77.046,-32.736 157.452,-56.471 235.784,-85.784 74.977,-28.057 159.256,-62.102 207.736,-129.382 -8.601,-4.811 -12.844,-5.046 -21.265,-2.684 -47.747,68.442 -133.53,101.962 -209.053,129.14 -83.265,29.963 -168.904,53.402 -250.499,87.939 -72.521,30.697 -138.576,70.292 -189.14,131.53 -42.367,51.312 -87.078,91.918 -145.139,125.031 -129.634,73.933 -277.011,112.607 -416.101,164.295 -160.173,59.521 -326.563,135.604 -419.201,286.816 15.655,-2.468 31.154,-5.843 46.512,-9.735 z"
           id="path76"
           inkscape:connector-curvature="0"
           style="fill:url(#SVGID_6_)" /></g><g
         id="g91"><linearGradient
           id="SVGID_7_"
           gradientUnits="userSpaceOnUse"
           x1="3125.0674"
           y1="1717.6533"
           x2="4124.2959"
           y2="1717.6533"><stop
             offset="0.086"
             style="stop-color:#08363D"
             id="stop80" /><stop
             offset="0.4032"
             style="stop-color:#085078"
             id="stop82" /><stop
             offset="0.8495"
             style="stop-color:#85D8CE"
             id="stop84" /><stop
             offset="1"
             style="stop-color:#85D8CE"
             id="stop86" /></linearGradient><path
           d="m 3176.033,2091.227 c 48.435,-78.165 128.148,-136.275 202.365,-188.059 83.602,-58.332 171.197,-110.759 258.289,-163.641 89.195,-54.16 178.636,-108.252 264.056,-168.28 82.015,-57.635 166.092,-121.688 223.553,-205.107 -13.024,-8.955 -14.92,-13.292 -13.303,-22.06 -57.912,82.938 -154.347,136.378 -238.817,188.017 -88.066,53.837 -173.406,112.113 -263.213,163.015 -88.617,50.227 -179.582,96.305 -267.188,148.318 -79.229,47.041 -167.296,101.062 -216.708,181.471 20.67,19.303 36.667,42.072 50.966,66.326 z"
           id="path89"
           inkscape:connector-curvature="0"
           style="fill:url(#SVGID_7_)" /></g><g
         id="g106"><linearGradient
           id="SVGID_8_"
           gradientUnits="userSpaceOnUse"
           x1="2872.501"
           y1="1615.7144"
           x2="4243.7295"
           y2="1615.7144"><stop
             offset="0.0914"
             style="stop-color:#003254"
             id="stop93" /><stop
             offset="0.4677"
             style="stop-color:#085078"
             id="stop95" /><stop
             offset="0.7796"
             style="stop-color:#037E84"
             id="stop97" /><stop
             offset="1"
             style="stop-color:#85D8CE"
             id="stop99" /><stop
             offset="1"
             style="stop-color:#85D8CE"
             id="stop101" /></linearGradient><path
           d="m 2953.861,1969.403 c 70.411,-98.864 187.822,-152.002 296.583,-197.48 108.834,-45.509 221.036,-83.589 326.733,-136.346 48.713,-24.314 93.49,-52.019 136.021,-85.966 48.333,-38.579 104.636,-66.622 160.771,-91.904 56.409,-25.405 114.23,-47.58 170.385,-73.559 54.532,-25.229 112.506,-54.578 150.769,-102.454 16.808,-9.867 33.025,-20.102 48.606,-31.824 -41.7,50.715 -105.358,79.975 -164.594,104.768 -65.156,27.271 -132.204,49.751 -197.291,77.204 -59.081,24.92 -118.918,53.608 -168.375,95.087 -46.563,39.053 -93.064,71.437 -147.696,98.563 -114.702,56.952 -237.838,94.619 -356.995,140.777 -123.492,47.838 -256.153,104.728 -336.277,215.29 26.96,-5.846 53.83,-10.197 81.36,-12.156 z"
           id="path104"
           inkscape:connector-curvature="0"
           style="fill:url(#SVGID_8_)" /></g><g
         id="g119"><linearGradient
           id="SVGID_9_"
           gradientUnits="userSpaceOnUse"
           x1="3064.21"
           y1="1673.1211"
           x2="4129.3008"
           y2="1673.1211"><stop
             offset="0"
             style="stop-color:#085078"
             id="stop108" /><stop
             offset="0.3441"
             style="stop-color:#085078"
             id="stop110" /><stop
             offset="1"
             style="stop-color:#85D8CE"
             id="stop112" /><stop
             offset="1"
             style="stop-color:#85D8CE"
             id="stop114" /></linearGradient><path
           d="m 3125.067,2024.9 c 49.412,-80.409 137.479,-134.43 216.708,-181.471 87.605,-52.014 178.57,-98.091 267.188,-148.318 89.807,-50.901 175.146,-109.178 263.213,-163.015 84.471,-51.639 180.905,-105.079 238.817,-188.017 2.813,-10.36 10.554,-16.052 18.308,-22.738 -63.709,86.891 -178.656,131.856 -270.712,181.079 -91.973,49.178 -174.386,112.541 -266.382,161.429 -95.314,50.652 -194.784,92.86 -290.895,141.912 -86.37,44.08 -183.455,95.609 -237.103,179.812 22.746,10.142 42.169,22.878 60.858,39.327 z"
           id="path117"
           inkscape:connector-curvature="0"
           style="fill:url(#SVGID_9_)" /></g><g
         id="g132"><linearGradient
           id="SVGID_10_"
           gradientUnits="userSpaceOnUse"
           x1="2581.1387"
           y1="1596.8496"
           x2="4227.6787"
           y2="1596.8496"><stop
             offset="0"
             style="stop-color:#085078"
             id="stop121" /><stop
             offset="0"
             style="stop-color:#085078"
             id="stop123" /><stop
             offset="0.7903"
             style="stop-color:#85D8CE"
             id="stop125" /><stop
             offset="1"
             style="stop-color:#85D8CE"
             id="stop127" /></linearGradient><path
           d="m 2598.547,2058.086 c 92.638,-151.212 259.028,-227.295 419.201,-286.816 139.09,-51.688 286.467,-90.362 416.101,-164.295 58.061,-33.113 102.771,-73.72 145.139,-125.031 50.563,-61.238 116.618,-100.833 189.14,-131.53 81.595,-34.538 167.234,-57.976 250.499,-87.939 75.522,-27.178 161.306,-60.698 209.053,-129.14 -3.308,0.928 -4.958,1.643 -8.245,3.483 -47.41,68.542 -133.605,101.529 -209.106,128.074 -83.613,29.397 -169.591,52.124 -251.603,86.021 -71.88,29.709 -139.609,68.376 -189.189,129.478 -42.032,51.799 -85.088,93.446 -143.166,127.049 -131.771,76.24 -283.188,113.997 -425.229,165.958 -160.893,58.857 -327.675,134.898 -420.002,286.969 6.854,-0.713 10.339,-1.176 17.407,-2.281 z"
           id="path130"
           inkscape:connector-curvature="0"
           style="fill:url(#SVGID_10_)" /></g><g
         id="g145"><linearGradient
           id="SVGID_11_"
           gradientUnits="userSpaceOnUse"
           x1="3044.5615"
           y1="1649.9453"
           x2="4139.2676"
           y2="1649.9453"><stop
             offset="0"
             style="stop-color:#085078"
             id="stop134" /><stop
             offset="0.2688"
             style="stop-color:#085078"
             id="stop136" /><stop
             offset="0.7473"
             style="stop-color:#85D8CE"
             id="stop138" /><stop
             offset="1"
             style="stop-color:#85D8CE"
             id="stop140" /></linearGradient><path
           d="m 3064.21,1985.573 c 53.647,-84.202 150.732,-135.731 237.103,-179.812 96.11,-49.052 195.58,-91.26 290.895,-141.912 91.996,-48.889 174.409,-112.251 266.382,-161.429 92.056,-49.223 207.003,-94.188 270.712,-181.079 3.647,-2.784 5.664,-4.187 9.967,-7.024 -64.664,86.551 -181.946,128.952 -274.91,176.65 -96.048,49.281 -180.192,115.899 -275.635,165.828 -95.568,49.995 -195.62,90.628 -292.591,137.715 -91.298,44.332 -194.707,96.204 -251.57,184.113 7.97,2.375 11.904,3.756 19.647,6.95 z"
           id="path143"
           inkscape:connector-curvature="0"
           style="fill:url(#SVGID_11_)" /></g><g
         id="g164"><linearGradient
           id="SVGID_12_"
           gradientUnits="userSpaceOnUse"
           x1="2953.8613"
           y1="1627.1938"
           x2="4195.123"
           y2="1627.1938"><stop
             offset="0"
             style="stop-color:#003254"
             id="stop147" /><stop
             offset="0.1774"
             style="stop-color:#085078"
             id="stop149" /><stop
             offset="0.4839"
             style="stop-color:#037E84"
             id="stop151" /><stop
             offset="0.5442"
             style="stop-color:#0C8589"
             id="stop153" /><stop
             offset="0.6446"
             style="stop-color:#269698"
             id="stop155" /><stop
             offset="0.7726"
             style="stop-color:#4FB3AF"
             id="stop157" /><stop
             offset="0.914"
             style="stop-color:#85D8CE"
             id="stop159" /></linearGradient><path
           d="m 3019.245,1972.693 c 58.207,-88.476 162.841,-139.826 255.853,-183.247 101.076,-47.187 205.527,-87.039 304.994,-137.692 46.076,-23.464 90.369,-49.13 131.625,-80.356 46.895,-35.494 99.095,-63.317 151.721,-89.261 51.328,-25.304 103.728,-48.479 154.367,-75.17 49.631,-26.159 101.354,-56.305 135.944,-101.649 13.68,-8.068 27.606,-15.707 41.374,-23.623 -38.263,47.876 -96.236,77.226 -150.769,102.454 -56.154,25.979 -113.976,48.153 -170.385,73.559 -56.136,25.282 -112.438,53.325 -160.771,91.904 -42.53,33.947 -87.308,61.651 -136.021,85.966 -105.697,52.757 -217.899,90.836 -326.733,136.346 -108.761,45.479 -226.172,98.616 -296.583,197.48 22.116,-0.847 43.485,0.03 65.384,3.289 z"
           id="path162"
           inkscape:connector-curvature="0"
           style="fill:url(#SVGID_12_)" /></g><g
         id="g177"><linearGradient
           id="SVGID_13_"
           gradientUnits="userSpaceOnUse"
           x1="3019.2451"
           y1="1641.9702"
           x2="4153.749"
           y2="1641.9702"><stop
             offset="0.043"
             style="stop-color:#001354"
             id="stop166" /><stop
             offset="0.1935"
             style="stop-color:#085078"
             id="stop168" /><stop
             offset="0.5806"
             style="stop-color:#85D8CE"
             id="stop170" /><stop
             offset="1"
             style="stop-color:#85D8CE"
             id="stop172" /></linearGradient><path
           d="m 3044.562,1978.623 c 56.863,-87.909 160.272,-139.781 251.57,-184.113 96.971,-47.086 197.022,-87.72 292.591,-137.715 95.442,-49.929 179.587,-116.547 275.635,-165.828 92.964,-47.698 210.246,-90.099 274.91,-176.65 5.378,-3.547 8.316,-5.344 14.481,-9 -34.591,45.345 -86.313,75.49 -135.944,101.649 -50.64,26.69 -103.039,49.866 -154.367,75.17 -52.626,25.943 -104.826,53.767 -151.721,89.261 -41.256,31.226 -85.549,56.893 -131.625,80.356 -99.467,50.653 -203.918,90.506 -304.994,137.692 -93.012,43.421 -197.646,94.771 -255.853,183.247 10.282,1.794 15.353,2.962 25.317,5.931 z"
           id="path175"
           inkscape:connector-curvature="0"
           style="fill:url(#SVGID_13_)" /></g><g
         id="g190"><linearGradient
           id="SVGID_14_"
           gradientUnits="userSpaceOnUse"
           x1="2403.6826"
           y1="1561.5869"
           x2="4074.2246"
           y2="1561.5869"><stop
             offset="0"
             style="stop-color:#085078"
             id="stop179" /><stop
             offset="0.3118"
             style="stop-color:#085078"
             id="stop181" /><stop
             offset="0.828"
             style="stop-color:#85D8CE"
             id="stop183" /><stop
             offset="1"
             style="stop-color:#85D8CE"
             id="stop185" /></linearGradient><path
           d="m 4064.667,1298.963 c -43.117,61.968 -153.448,57.621 -219.315,59.044 -92.658,2.002 -186.176,-3.213 -278.34,8.815 -71.918,9.386 -134.791,29.855 -176.123,92.1 -15.729,23.688 -29.254,49.192 -53.041,65.763 -17.452,12.158 -37.675,19.98 -57.965,25.945 -61.553,18.096 -127.566,21.095 -191.257,24.163 -77.989,3.756 -156.093,5.034 -233.984,10.727 -165.317,12.082 -360.591,41.891 -450.771,199.19 -0.249,13.165 -0.258,26.335 0.022,39.5 89.963,-155.86 280.668,-190.952 445.62,-206.984 81.087,-7.881 162.521,-10.865 243.754,-16.767 63.475,-4.612 129.045,-9.529 190.035,-28.97 22.59,-7.2 45.068,-16.67 63.936,-31.29 24.094,-18.67 38.756,-46.912 55.561,-71.738 40.512,-59.851 110.752,-79.057 179.002,-88.757 91.202,-12.962 183.824,-9.91 275.62,-14.171 66.812,-3.102 173.504,-2.586 216.806,-64.682 -3.799,-0.09 -5.711,-0.444 -9.56,-1.888 z"
           id="path188"
           inkscape:connector-curvature="0"
           style="fill:url(#SVGID_14_)" /></g><g
         id="g203"><linearGradient
           id="SVGID_15_"
           gradientUnits="userSpaceOnUse"
           x1="2406.3311"
           y1="1595.9468"
           x2="4094.5205"
           y2="1595.9468"><stop
             offset="0"
             style="stop-color:#085078"
             id="stop192" /><stop
             offset="0"
             style="stop-color:#085078"
             id="stop194" /><stop
             offset="0.5699"
             style="stop-color:#85D8CE"
             id="stop196" /><stop
             offset="1"
             style="stop-color:#85D8CE"
             id="stop198" /></linearGradient><path
           d="m 2409.201,1897.456 c 92.668,-158.825 284.158,-201.804 453.333,-225.331 79.93,-11.116 160.37,-17.828 240.443,-27.738 63.877,-7.906 129.432,-16.672 190.117,-39.113 23.438,-8.667 46.48,-19.616 66.183,-35.18 24.538,-19.385 40.223,-46.856 57.8,-72.232 41.843,-60.407 108.566,-84.672 178.396,-98.404 89.002,-17.503 180.266,-19.153 270.369,-27.251 72.511,-6.517 182.263,-11.212 228.679,-77.768 -3.083,1.957 -4.631,2.773 -7.743,4.015 -43.908,62.884 -147.638,66.739 -216.12,72.067 -91.216,7.097 -183.374,6.779 -273.834,21.766 -67.883,11.246 -139.927,31.729 -181.695,90.4 -18.303,25.709 -33.393,55.151 -58.11,75.466 -18.896,15.53 -41.412,26.205 -64.266,34.516 -60.191,21.891 -125.475,29.361 -188.789,36.097 -80.38,8.55 -161.08,13.785 -241.348,23.453 -169.289,20.391 -363.564,59.57 -456.284,219 0.943,10.968 1.519,16.21 2.869,26.237 z"
           id="path201"
           inkscape:connector-curvature="0"
           style="fill:url(#SVGID_15_)" /></g><g
         id="g216"><linearGradient
           id="SVGID_16_"
           gradientUnits="userSpaceOnUse"
           x1="2565.791"
           y1="1599.1758"
           x2="4219.4336"
           y2="1599.1758"><stop
             offset="0"
             style="stop-color:#085078"
             id="stop205" /><stop
             offset="0.0376"
             style="stop-color:#085078"
             id="stop207" /><stop
             offset="0.5699"
             style="stop-color:#85D8CE"
             id="stop209" /><stop
             offset="1"
             style="stop-color:#85D8CE"
             id="stop211" /></linearGradient><path
           d="m 2581.139,2060.365 c 92.327,-152.07 259.109,-228.111 420.002,-286.969 142.041,-51.961 293.458,-89.718 425.229,-165.958 58.078,-33.603 101.134,-75.25 143.166,-127.049 49.58,-61.102 117.31,-99.769 189.189,-129.478 82.012,-33.896 167.989,-56.623 251.603,-86.021 75.501,-26.545 161.696,-59.532 209.106,-128.074 -2.988,1.673 -4.477,2.695 -7.45,5.036 -47.101,68.484 -133.566,100.815 -208.946,126.682 -83.866,28.778 -170.082,50.727 -252.433,83.882 -71.213,28.671 -140.352,66.31 -189.22,126.959 -44.061,54.682 -87.75,98.532 -149.323,133.415 -132.264,74.929 -283.778,111.358 -425.923,162.439 -161.346,57.98 -328.367,133.747 -420.348,286.307 6.043,-0.284 9.115,-0.524 15.348,-1.171 z"
           id="path214"
           inkscape:connector-curvature="0"
           style="fill:url(#SVGID_16_)" /></g><g
         id="g229"><linearGradient
           id="SVGID_17_"
           gradientUnits="userSpaceOnUse"
           x1="2418.4355"
           y1="1624.2246"
           x2="4131.5898"
           y2="1624.2246"><stop
             offset="0.0645"
             style="stop-color:#037E84"
             id="stop218" /><stop
             offset="0.2742"
             style="stop-color:#085078"
             id="stop220" /><stop
             offset="0.8172"
             style="stop-color:#85D8CE"
             id="stop222" /><stop
             offset="1"
             style="stop-color:#85D8CE"
             id="stop224" /></linearGradient><path
           d="m 2437.071,1994.212 c 93.511,-159.027 277.584,-216.983 447.584,-254.567 144.949,-32.045 303.305,-43.793 439.207,-107.253 24.074,-11.242 47.38,-24.667 67.763,-41.821 24.869,-20.93 42.207,-48.135 61.07,-74.282 45.473,-63.028 113.727,-93.856 187.071,-113.85 89.016,-24.265 181.229,-33.488 271.778,-50.116 74.58,-13.696 173.589,-30.647 220.045,-98.086 -6.65,9.198 -13.254,18.213 -21.021,26.52 -46.619,67.135 -151.732,77.442 -225.537,87.076 -88.817,11.593 -178.865,16.632 -266.481,36.17 -74.614,16.639 -143.399,44.309 -188.618,108.407 -18.056,25.594 -34.378,52.365 -59.085,72.154 -20.241,16.212 -43.593,28.219 -67.515,37.988 -63.543,25.948 -132.624,37.708 -200.06,48.459 -79.309,12.644 -159.065,22.346 -238.158,36.364 -168.482,29.862 -354.341,80.203 -446.679,237.757 4.874,16.946 10.348,33.449 18.636,49.08 z"
           id="path227"
           inkscape:connector-curvature="0"
           style="fill:url(#SVGID_17_)" /></g><g
         id="g242"><linearGradient
           id="SVGID_18_"
           gradientUnits="userSpaceOnUse"
           x1="2403.8701"
           y1="1539.6987"
           x2="4064.667"
           y2="1539.6987"><stop
             offset="0"
             style="stop-color:#085078"
             id="stop231" /><stop
             offset="0.129"
             style="stop-color:#085078"
             id="stop233" /><stop
             offset="0.8065"
             style="stop-color:#85D8CE"
             id="stop235" /><stop
             offset="1"
             style="stop-color:#85D8CE"
             id="stop237" /></linearGradient><path
           d="m 4056.602,1294.687 c -42.646,61.553 -155.41,54.087 -220.062,54.185 -88.942,0.134 -178.412,-6.013 -267.132,2.724 -68.578,6.753 -139.279,22.461 -179.191,83.307 -15.734,23.987 -29.324,51.954 -53.008,69.229 -16.607,12.114 -36.252,19.646 -55.873,25.275 -60.875,17.465 -126.406,19.009 -189.269,20.879 -78.118,2.324 -156.303,2.091 -234.362,6.299 -164.804,8.883 -362.804,34.444 -452.624,192.313 -0.572,11.932 -0.984,23.87 -1.211,35.813 90.181,-157.3 285.454,-187.108 450.771,-199.19 77.892,-5.693 155.995,-6.971 233.984,-10.727 63.69,-3.067 129.704,-6.066 191.257,-24.163 20.29,-5.965 40.513,-13.788 57.965,-25.945 23.787,-16.571 37.312,-42.074 53.041,-65.763 41.332,-62.245 104.205,-82.714 176.123,-92.1 92.164,-12.029 185.682,-6.813 278.34,-8.815 65.867,-1.423 176.198,2.924 219.315,-59.044 -3.207,-1.203 -4.818,-2.046 -8.064,-4.277 z"
           id="path240"
           inkscape:connector-curvature="0"
           style="fill:url(#SVGID_18_)" /></g><g
         id="g255"><linearGradient
           id="SVGID_19_"
           gradientUnits="userSpaceOnUse"
           x1="2437.0713"
           y1="1625.6143"
           x2="4150.8496"
           y2="1625.6143"><stop
             offset="0.043"
             style="stop-color:#003254"
             id="stop244" /><stop
             offset="0.2849"
             style="stop-color:#085078"
             id="stop246" /><stop
             offset="0.8978"
             style="stop-color:#85D8CE"
             id="stop248" /><stop
             offset="1"
             style="stop-color:#85D8CE"
             id="stop250" /></linearGradient><path
           d="m 2460.282,2026.477 c 93.126,-158.021 272.218,-222.483 440.81,-266.625 144.85,-37.926 301.646,-57.167 437.143,-123.969 24.806,-12.229 48.792,-26.512 70.14,-44.181 28.177,-23.321 47.92,-53.353 69.52,-82.514 46.017,-62.127 116.376,-94.649 188.59,-116.861 87.38,-26.877 178.199,-39.852 267.149,-60.214 75.372,-17.254 170.607,-39.239 217.217,-107.361 -6.225,9.954 -12.563,19.84 -19.26,29.485 -46.456,67.439 -145.465,84.391 -220.045,98.086 -90.549,16.628 -182.763,25.851 -271.778,50.116 -73.345,19.993 -141.599,50.821 -187.071,113.85 -18.863,26.146 -36.201,53.352 -61.07,74.282 -20.383,17.154 -43.688,30.579 -67.763,41.821 -135.902,63.46 -294.258,75.208 -439.207,107.253 -170,37.584 -354.073,95.54 -447.584,254.567 6.735,11.649 13.759,22.583 23.209,32.265 z"
           id="path253"
           inkscape:connector-curvature="0"
           style="fill:url(#SVGID_19_)" /></g><g
         id="g268"><linearGradient
           id="SVGID_20_"
           gradientUnits="userSpaceOnUse"
           x1="2403.8921"
           y1="1584.8345"
           x2="4086.7773"
           y2="1584.8345"><stop
             offset="0"
             style="stop-color:#085078"
             id="stop257" /><stop
             offset="0.1882"
             style="stop-color:#085078"
             id="stop259" /><stop
             offset="0.5968"
             style="stop-color:#85D8CE"
             id="stop261" /><stop
             offset="1"
             style="stop-color:#85D8CE"
             id="stop263" /></linearGradient><path
           d="m 2403.892,1824.211 c 0.329,15.688 1.095,31.371 2.439,47.006 92.72,-159.43 286.995,-198.609 456.284,-219 80.268,-9.668 160.968,-14.902 241.348,-23.453 63.314,-6.735 128.598,-14.206 188.789,-36.097 22.854,-8.312 45.37,-18.986 64.266,-34.516 24.718,-20.314 39.808,-49.756 58.11,-75.466 41.769,-58.671 113.813,-79.154 181.695,-90.4 90.46,-14.986 182.618,-14.669 273.834,-21.766 68.482,-5.328 172.212,-9.183 216.12,-72.067 -4.979,1.985 -7.49,2.522 -12.553,2.4 -43.302,62.095 -149.994,61.58 -216.806,64.682 -91.796,4.261 -184.418,1.209 -275.62,14.171 -68.25,9.7 -138.49,28.906 -179.002,88.757 -16.805,24.827 -31.467,53.068 -55.561,71.738 -18.867,14.62 -41.346,24.09 -63.936,31.29 -60.99,19.44 -126.561,24.358 -190.035,28.97 -81.232,5.902 -162.667,8.886 -243.754,16.767 -164.949,16.032 -355.655,51.124 -445.618,206.984 z"
           id="path266"
           inkscape:connector-curvature="0"
           style="fill:url(#SVGID_20_)" /></g><g
         id="g285"><linearGradient
           id="SVGID_21_"
           gradientUnits="userSpaceOnUse"
           x1="2409.2007"
           y1="1612.9443"
           x2="4110.5684"
           y2="1612.9443"><stop
             offset="0.1505"
             style="stop-color:#037E84"
             id="stop270" /><stop
             offset="0.4032"
             style="stop-color:#085078"
             id="stop272" /><stop
             offset="0.7796"
             style="stop-color:#85D8CE"
             id="stop274" /><stop
             offset="0.8123"
             style="stop-color:#8EDBD4"
             id="stop276" /><stop
             offset="0.8666"
             style="stop-color:#A8E3E5"
             id="stop278" /><stop
             offset="0.9247"
             style="stop-color:#CAEEFC"
             id="stop280" /></linearGradient><path
           d="m 2418.436,1945.132 c 92.337,-157.554 278.196,-207.895 446.679,-237.757 79.093,-14.019 158.85,-23.72 238.158,-36.364 67.436,-10.751 136.517,-22.511 200.06,-48.459 23.922,-9.769 47.273,-21.776 67.515,-37.988 24.707,-19.789 41.029,-46.56 59.085,-72.154 45.219,-64.098 114.004,-91.768 188.618,-108.407 87.616,-19.539 177.664,-24.577 266.481,-36.17 73.805,-9.634 178.918,-19.941 225.537,-87.076 -6.365,6.706 -9.572,9.57 -16.048,13.681 -46.416,66.556 -156.168,71.251 -228.679,77.768 -90.104,8.098 -181.367,9.749 -270.369,27.251 -69.83,13.732 -136.554,37.997 -178.396,98.404 -17.577,25.376 -33.262,52.848 -57.8,72.232 -19.702,15.564 -42.745,26.513 -66.183,35.18 -60.686,22.441 -126.24,31.207 -190.117,39.113 -80.073,9.91 -160.514,16.623 -240.443,27.738 -169.175,23.527 -360.665,66.506 -453.333,225.331 2.357,16.056 5.095,31.971 9.235,47.677 z"
           id="path283"
           inkscape:connector-curvature="0"
           style="fill:url(#SVGID_21_)" /></g><g
         id="g298"><linearGradient
           id="SVGID_22_"
           gradientUnits="userSpaceOnUse"
           x1="2460.2822"
           y1="1624.3804"
           x2="4158.2148"
           y2="1624.3804"><stop
             offset="0"
             style="stop-color:#085078"
             id="stop287" /><stop
             offset="0"
             style="stop-color:#085078"
             id="stop289" /><stop
             offset="0.5645"
             style="stop-color:#85D8CE"
             id="stop291" /><stop
             offset="1"
             style="stop-color:#85D8CE"
             id="stop293" /></linearGradient><path
           d="m 2470.601,2035.806 c 93.089,-157.825 270.821,-224.392 438.976,-270.826 144.756,-39.973 301.193,-61.822 436.35,-130.212 25.004,-12.652 49.165,-27.327 70.737,-45.292 28.339,-23.6 48.456,-53.665 70.358,-83 46.416,-62.171 116.673,-95.64 188.95,-118.897 86.839,-27.942 177.237,-42.272 265.681,-63.951 75.678,-18.55 169.834,-42.229 216.563,-110.672 -2.943,4.72 -4.416,7.093 -7.365,11.796 -46.609,68.122 -141.845,90.107 -217.217,107.361 -88.95,20.362 -179.77,33.337 -267.149,60.214 -72.214,22.212 -142.573,54.734 -188.59,116.861 -21.6,29.162 -41.343,59.193 -69.52,82.514 -21.348,17.669 -45.334,31.951 -70.14,44.181 -135.496,66.802 -292.293,86.043 -437.143,123.969 -168.592,44.142 -347.684,108.604 -440.81,266.625 3.979,4.058 6.044,5.919 10.319,9.329 z"
           id="path296"
           inkscape:connector-curvature="0"
           style="fill:url(#SVGID_22_)" /></g><g
         id="g311"><linearGradient
           id="SVGID_23_"
           gradientUnits="userSpaceOnUse"
           x1="2522.8076"
           y1="1607.9556"
           x2="4198.6533"
           y2="1607.9556"><stop
             offset="0"
             style="stop-color:#085078"
             id="stop300" /><stop
             offset="0"
             style="stop-color:#085078"
             id="stop302" /><stop
             offset="0.7903"
             style="stop-color:#85D8CE"
             id="stop304" /><stop
             offset="1"
             style="stop-color:#85D8CE"
             id="stop306" /></linearGradient><path
           d="m 2539.419,2061.188 c 92.359,-154.587 262.1,-229.185 425.688,-285.308 143.079,-49.087 296.132,-82.76 429.153,-156.975 61.75,-34.451 104.246,-78.3 147.617,-133.366 48.331,-61.364 117.782,-98.483 189.49,-126.235 83.533,-32.328 170.94,-52.835 256.059,-80.331 75.83,-24.496 164.176,-55.346 211.228,-124.25 -3.543,4.002 -5.312,6.188 -8.844,10.808 -46.703,68.577 -135.535,98.213 -211.06,121.555 -85.447,26.409 -173.126,45.688 -257.084,76.851 -71.121,26.397 -141.426,62.079 -189.48,122.542 -23.563,29.647 -44.681,60.403 -73.572,85.247 -22.018,18.933 -46.396,34.988 -71.7,49.159 -131.555,73.669 -284.177,105.24 -426.37,151.71 -167.722,54.813 -343.52,128.008 -437.735,286.403 6.478,1.214 9.805,1.642 16.61,2.19 z"
           id="path309"
           inkscape:connector-curvature="0"
           style="fill:url(#SVGID_23_)" /></g><g
         id="g324"><linearGradient
           id="SVGID_24_"
           gradientUnits="userSpaceOnUse"
           x1="2539.4189"
           y1="1601.8618"
           x2="4211.9834"
           y2="1601.8618"><stop
             offset="0.3011"
             style="stop-color:#037E84"
             id="stop313" /><stop
             offset="0.5591"
             style="stop-color:#085078"
             id="stop315" /><stop
             offset="0.828"
             style="stop-color:#85D8CE"
             id="stop317" /><stop
             offset="1"
             style="stop-color:#85D8CE"
             id="stop319" /></linearGradient><path
           d="m 2565.791,2061.535 c 91.98,-152.56 259.002,-228.326 420.348,-286.307 142.145,-51.081 293.659,-87.51 425.923,-162.439 61.573,-34.882 105.263,-78.732 149.323,-133.415 48.868,-60.649 118.007,-98.288 189.22,-126.959 82.351,-33.155 168.566,-55.104 252.433,-83.882 75.38,-25.866 161.846,-58.198 208.946,-126.682 -5.352,4.214 -8.016,6.868 -13.33,12.871 -47.052,68.903 -135.397,99.754 -211.228,124.25 -85.118,27.496 -172.525,48.003 -256.059,80.331 -71.708,27.751 -141.159,64.871 -189.49,126.235 -43.371,55.066 -85.867,98.915 -147.617,133.366 -133.021,74.215 -286.074,107.888 -429.153,156.975 -163.588,56.123 -333.329,130.721 -425.688,285.308 10.207,0.822 15.494,0.859 26.372,0.348 z"
           id="path322"
           inkscape:connector-curvature="0"
           style="fill:url(#SVGID_24_)" /></g><g
         id="g341"><linearGradient
           id="SVGID_25_"
           gradientUnits="userSpaceOnUse"
           x1="2498.2549"
           y1="1612.2646"
           x2="4189.8096"
           y2="1612.2646"><stop
             offset="0.0215"
             style="stop-color:#037E84"
             id="stop326" /><stop
             offset="0.2742"
             style="stop-color:#085078"
             id="stop328" /><stop
             offset="0.6559"
             style="stop-color:#85D8CE"
             id="stop330" /><stop
             offset="0.7334"
             style="stop-color:#8EDBD4"
             id="stop332" /><stop
             offset="0.8622"
             style="stop-color:#A8E3E5"
             id="stop334" /><stop
             offset="1"
             style="stop-color:#CAEEFC"
             id="stop336" /></linearGradient><path
           d="m 2522.808,2058.998 c 94.216,-158.396 270.014,-231.591 437.735,-286.403 142.193,-46.47 294.815,-78.042 426.37,-151.71 25.305,-14.17 49.683,-30.226 71.7,-49.159 28.892,-24.844 50.01,-55.6 73.572,-85.247 48.055,-60.463 118.359,-96.145 189.48,-122.542 83.958,-31.163 171.637,-50.441 257.084,-76.851 75.524,-23.342 164.356,-52.978 211.06,-121.555 -5.593,7.314 -8.381,11.361 -13.962,19.763 -46.618,68.5 -137.42,95.812 -212.994,117.188 -86.633,24.504 -175.381,41.742 -260.502,71.472 -71.311,24.906 -142.035,59.396 -189.44,120.157 -23.104,29.613 -43.637,60.548 -72.307,85.208 -21.639,18.612 -45.763,34.184 -70.803,47.796 -132.251,71.892 -286.125,99.564 -428.909,143.024 -169.45,51.577 -348.122,122.097 -442.638,281.774 9.371,3.786 14.295,5.163 24.554,7.085 z"
           id="path339"
           inkscape:connector-curvature="0"
           style="fill:url(#SVGID_25_)" /></g><g
         id="g354"><linearGradient
           id="SVGID_26_"
           gradientUnits="userSpaceOnUse"
           x1="2488.6016"
           y1="1618.6035"
           x2="4175.8477"
           y2="1618.6035"><stop
             offset="0"
             style="stop-color:#085078"
             id="stop343" /><stop
             offset="0"
             style="stop-color:#085078"
             id="stop345" /><stop
             offset="0.2957"
             style="stop-color:#85D8CE"
             id="stop347" /><stop
             offset="1"
             style="stop-color:#85D8CE"
             id="stop349" /></linearGradient><path
           d="m 2498.255,2051.913 c 94.516,-159.678 273.188,-230.197 442.638,-281.774 142.784,-43.46 296.658,-71.132 428.909,-143.024 25.04,-13.612 49.164,-29.184 70.803,-47.796 28.67,-24.66 49.202,-55.595 72.307,-85.208 47.405,-60.761 118.13,-95.251 189.44,-120.157 85.121,-29.73 173.869,-46.968 260.502,-71.472 75.574,-21.376 166.376,-48.688 212.994,-117.188 -2.35,3.538 -3.525,5.345 -5.875,9.004 -46.575,68.379 -138.195,94.583 -213.71,115.05 -87.103,23.607 -176.263,39.901 -261.856,68.934 -71.342,24.198 -142.219,58.087 -189.343,118.903 -22.901,29.555 -43.17,60.527 -71.735,85.063 -21.47,18.441 -45.476,33.77 -70.387,47.108 -132.529,70.962 -286.859,96.827 -429.822,138.874 -170.041,50.011 -349.913,119.182 -444.518,279.251 3.776,1.954 5.708,2.838 9.653,4.432 z"
           id="path352"
           inkscape:connector-curvature="0"
           style="fill:url(#SVGID_26_)" /></g><g
         id="g367"><linearGradient
           id="SVGID_27_"
           gradientUnits="userSpaceOnUse"
           x1="2470.6006"
           y1="1620.8896"
           x2="4169.9727"
           y2="1620.8896"><stop
             offset="0"
             style="stop-color:#085078"
             id="stop356" /><stop
             offset="0.1935"
             style="stop-color:#085078"
             id="stop358" /><stop
             offset="1"
             style="stop-color:#85D8CE"
             id="stop360" /><stop
             offset="1"
             style="stop-color:#85D8CE"
             id="stop362" /></linearGradient><path
           d="m 2488.602,2047.48 c 94.604,-160.069 274.477,-229.24 444.518,-279.251 142.963,-42.047 297.293,-67.912 429.822,-138.874 24.911,-13.338 48.917,-28.667 70.387,-47.108 28.565,-24.536 48.834,-55.508 71.735,-85.063 47.124,-60.815 118.001,-94.705 189.343,-118.903 85.594,-29.032 174.754,-45.327 261.856,-68.934 75.515,-20.466 167.135,-46.671 213.71,-115.05 -4.699,7.318 -7.049,11.105 -11.758,18.657 -46.729,68.444 -140.885,92.122 -216.563,110.672 -88.443,21.679 -178.842,36.009 -265.681,63.951 -72.277,23.257 -142.534,56.726 -188.95,118.897 -21.902,29.336 -42.02,59.401 -70.358,83 -21.572,17.964 -45.733,32.64 -70.737,45.292 -135.156,68.39 -291.594,90.239 -436.35,130.212 -168.155,46.435 -345.886,113.001 -438.976,270.826 6.839,5.457 10.449,7.768 18.002,11.676 z"
           id="path365"
           inkscape:connector-curvature="0"
           style="fill:url(#SVGID_27_)" /></g></g></g></svg>